solid an3-10a
  facet normal -9.807853e-1 -1.950903e-1 0.000000e+0
    outer loop
      vertex 9.375000e-2 0.000000e+0 0.000000e+0
      vertex 9.375000e-2 0.000000e+0 2.540000e+1
      vertex 8.661371e-2 3.587657e-2 0.000000e+0
    endloop
  endfacet
  facet normal -9.807853e-1 -1.950903e-1 0.000000e+0
    outer loop
      vertex 9.375000e-2 0.000000e+0 2.540000e+1
      vertex 8.661371e-2 3.587657e-2 2.540000e+1
      vertex 8.661371e-2 3.587657e-2 0.000000e+0
    endloop
  endfacet
  facet normal 0.000000e+0 0.000000e+0 -1.000000e+0
    outer loop
      vertex 0.000000e+0 0.000000e+0 0.000000e+0
      vertex 8.661371e-2 3.587657e-2 0.000000e+0
      vertex 9.375000e-2 0.000000e+0 0.000000e+0
    endloop
  endfacet
  facet normal -8.314696e-1 -5.555702e-1 0.000000e+0
    outer loop
      vertex 8.661371e-2 3.587657e-2 0.000000e+0
      vertex 8.661371e-2 3.587657e-2 2.540000e+1
      vertex 6.629126e-2 6.629126e-2 0.000000e+0
    endloop
  endfacet
  facet normal -8.314696e-1 -5.555702e-1 0.000000e+0
    outer loop
      vertex 8.661371e-2 3.587657e-2 2.540000e+1
      vertex 6.629126e-2 6.629126e-2 2.540000e+1
      vertex 6.629126e-2 6.629126e-2 0.000000e+0
    endloop
  endfacet
  facet normal 0.000000e+0 0.000000e+0 -1.000000e+0
    outer loop
      vertex 0.000000e+0 0.000000e+0 0.000000e+0
      vertex 6.629126e-2 6.629126e-2 0.000000e+0
      vertex 8.661371e-2 3.587657e-2 0.000000e+0
    endloop
  endfacet
  facet normal -5.555702e-1 -8.314696e-1 0.000000e+0
    outer loop
      vertex 6.629126e-2 6.629126e-2 0.000000e+0
      vertex 6.629126e-2 6.629126e-2 2.540000e+1
      vertex 3.587657e-2 8.661371e-2 0.000000e+0
    endloop
  endfacet
  facet normal -5.555702e-1 -8.314696e-1 0.000000e+0
    outer loop
      vertex 6.629126e-2 6.629126e-2 2.540000e+1
      vertex 3.587657e-2 8.661371e-2 2.540000e+1
      vertex 3.587657e-2 8.661371e-2 0.000000e+0
    endloop
  endfacet
  facet normal 0.000000e+0 0.000000e+0 -1.000000e+0
    outer loop
      vertex 0.000000e+0 0.000000e+0 0.000000e+0
      vertex 3.587657e-2 8.661371e-2 0.000000e+0
      vertex 6.629126e-2 6.629126e-2 0.000000e+0
    endloop
  endfacet
  facet normal -1.950903e-1 -9.807853e-1 0.000000e+0
    outer loop
      vertex 3.587657e-2 8.661371e-2 0.000000e+0
      vertex 3.587657e-2 8.661371e-2 2.540000e+1
      vertex 5.740532e-18 9.375000e-2 0.000000e+0
    endloop
  endfacet
  facet normal -1.950903e-1 -9.807853e-1 0.000000e+0
    outer loop
      vertex 3.587657e-2 8.661371e-2 2.540000e+1
      vertex 5.740532e-18 9.375000e-2 2.540000e+1
      vertex 5.740532e-18 9.375000e-2 0.000000e+0
    endloop
  endfacet
  facet normal 0.000000e+0 0.000000e+0 -1.000000e+0
    outer loop
      vertex 0.000000e+0 0.000000e+0 0.000000e+0
      vertex 5.740532e-18 9.375000e-2 0.000000e+0
      vertex 3.587657e-2 8.661371e-2 0.000000e+0
    endloop
  endfacet
  facet normal 1.950903e-1 -9.807853e-1 0.000000e+0
    outer loop
      vertex 5.740532e-18 9.375000e-2 0.000000e+0
      vertex 5.740532e-18 9.375000e-2 2.540000e+1
      vertex -3.587657e-2 8.661371e-2 0.000000e+0
    endloop
  endfacet
  facet normal 1.950903e-1 -9.807853e-1 0.000000e+0
    outer loop
      vertex 5.740532e-18 9.375000e-2 2.540000e+1
      vertex -3.587657e-2 8.661371e-2 2.540000e+1
      vertex -3.587657e-2 8.661371e-2 0.000000e+0
    endloop
  endfacet
  facet normal 0.000000e+0 0.000000e+0 -1.000000e+0
    outer loop
      vertex 0.000000e+0 0.000000e+0 0.000000e+0
      vertex -3.587657e-2 8.661371e-2 0.000000e+0
      vertex 5.740532e-18 9.375000e-2 0.000000e+0
    endloop
  endfacet
  facet normal 5.555702e-1 -8.314696e-1 0.000000e+0
    outer loop
      vertex -3.587657e-2 8.661371e-2 0.000000e+0
      vertex -3.587657e-2 8.661371e-2 2.540000e+1
      vertex -6.629126e-2 6.629126e-2 0.000000e+0
    endloop
  endfacet
  facet normal 5.555702e-1 -8.314696e-1 0.000000e+0
    outer loop
      vertex -3.587657e-2 8.661371e-2 2.540000e+1
      vertex -6.629126e-2 6.629126e-2 2.540000e+1
      vertex -6.629126e-2 6.629126e-2 0.000000e+0
    endloop
  endfacet
  facet normal 0.000000e+0 0.000000e+0 -1.000000e+0
    outer loop
      vertex 0.000000e+0 0.000000e+0 0.000000e+0
      vertex -6.629126e-2 6.629126e-2 0.000000e+0
      vertex -3.587657e-2 8.661371e-2 0.000000e+0
    endloop
  endfacet
  facet normal 8.314696e-1 -5.555702e-1 0.000000e+0
    outer loop
      vertex -6.629126e-2 6.629126e-2 0.000000e+0
      vertex -6.629126e-2 6.629126e-2 2.540000e+1
      vertex -8.661371e-2 3.587657e-2 0.000000e+0
    endloop
  endfacet
  facet normal 8.314696e-1 -5.555702e-1 0.000000e+0
    outer loop
      vertex -6.629126e-2 6.629126e-2 2.540000e+1
      vertex -8.661371e-2 3.587657e-2 2.540000e+1
      vertex -8.661371e-2 3.587657e-2 0.000000e+0
    endloop
  endfacet
  facet normal 0.000000e+0 0.000000e+0 -1.000000e+0
    outer loop
      vertex 0.000000e+0 0.000000e+0 0.000000e+0
      vertex -8.661371e-2 3.587657e-2 0.000000e+0
      vertex -6.629126e-2 6.629126e-2 0.000000e+0
    endloop
  endfacet
  facet normal 9.807853e-1 -1.950903e-1 0.000000e+0
    outer loop
      vertex -8.661371e-2 3.587657e-2 0.000000e+0
      vertex -8.661371e-2 3.587657e-2 2.540000e+1
      vertex -9.375000e-2 1.148106e-17 0.000000e+0
    endloop
  endfacet
  facet normal 9.807853e-1 -1.950903e-1 0.000000e+0
    outer loop
      vertex -8.661371e-2 3.587657e-2 2.540000e+1
      vertex -9.375000e-2 1.148106e-17 2.540000e+1
      vertex -9.375000e-2 1.148106e-17 0.000000e+0
    endloop
  endfacet
  facet normal 0.000000e+0 0.000000e+0 -1.000000e+0
    outer loop
      vertex 0.000000e+0 0.000000e+0 0.000000e+0
      vertex -9.375000e-2 1.148106e-17 0.000000e+0
      vertex -8.661371e-2 3.587657e-2 0.000000e+0
    endloop
  endfacet
  facet normal 9.807853e-1 1.950903e-1 0.000000e+0
    outer loop
      vertex -9.375000e-2 1.148106e-17 0.000000e+0
      vertex -9.375000e-2 1.148106e-17 2.540000e+1
      vertex -8.661371e-2 -3.587657e-2 0.000000e+0
    endloop
  endfacet
  facet normal 9.807853e-1 1.950903e-1 0.000000e+0
    outer loop
      vertex -9.375000e-2 1.148106e-17 2.540000e+1
      vertex -8.661371e-2 -3.587657e-2 2.540000e+1
      vertex -8.661371e-2 -3.587657e-2 0.000000e+0
    endloop
  endfacet
  facet normal 0.000000e+0 0.000000e+0 -1.000000e+0
    outer loop
      vertex 0.000000e+0 0.000000e+0 0.000000e+0
      vertex -8.661371e-2 -3.587657e-2 0.000000e+0
      vertex -9.375000e-2 1.148106e-17 0.000000e+0
    endloop
  endfacet
  facet normal 8.314696e-1 5.555702e-1 0.000000e+0
    outer loop
      vertex -8.661371e-2 -3.587657e-2 0.000000e+0
      vertex -8.661371e-2 -3.587657e-2 2.540000e+1
      vertex -6.629126e-2 -6.629126e-2 0.000000e+0
    endloop
  endfacet
  facet normal 8.314696e-1 5.555702e-1 0.000000e+0
    outer loop
      vertex -8.661371e-2 -3.587657e-2 2.540000e+1
      vertex -6.629126e-2 -6.629126e-2 2.540000e+1
      vertex -6.629126e-2 -6.629126e-2 0.000000e+0
    endloop
  endfacet
  facet normal 0.000000e+0 0.000000e+0 -1.000000e+0
    outer loop
      vertex 0.000000e+0 0.000000e+0 0.000000e+0
      vertex -6.629126e-2 -6.629126e-2 0.000000e+0
      vertex -8.661371e-2 -3.587657e-2 0.000000e+0
    endloop
  endfacet
  facet normal 5.555702e-1 8.314696e-1 0.000000e+0
    outer loop
      vertex -6.629126e-2 -6.629126e-2 0.000000e+0
      vertex -6.629126e-2 -6.629126e-2 2.540000e+1
      vertex -3.587657e-2 -8.661371e-2 0.000000e+0
    endloop
  endfacet
  facet normal 5.555702e-1 8.314696e-1 0.000000e+0
    outer loop
      vertex -6.629126e-2 -6.629126e-2 2.540000e+1
      vertex -3.587657e-2 -8.661371e-2 2.540000e+1
      vertex -3.587657e-2 -8.661371e-2 0.000000e+0
    endloop
  endfacet
  facet normal 0.000000e+0 0.000000e+0 -1.000000e+0
    outer loop
      vertex 0.000000e+0 0.000000e+0 0.000000e+0
      vertex -3.587657e-2 -8.661371e-2 0.000000e+0
      vertex -6.629126e-2 -6.629126e-2 0.000000e+0
    endloop
  endfacet
  facet normal 1.950903e-1 9.807853e-1 0.000000e+0
    outer loop
      vertex -3.587657e-2 -8.661371e-2 0.000000e+0
      vertex -3.587657e-2 -8.661371e-2 2.540000e+1
      vertex -1.722160e-17 -9.375000e-2 0.000000e+0
    endloop
  endfacet
  facet normal 1.950903e-1 9.807853e-1 0.000000e+0
    outer loop
      vertex -3.587657e-2 -8.661371e-2 2.540000e+1
      vertex -1.722160e-17 -9.375000e-2 2.540000e+1
      vertex -1.722160e-17 -9.375000e-2 0.000000e+0
    endloop
  endfacet
  facet normal 0.000000e+0 0.000000e+0 -1.000000e+0
    outer loop
      vertex 0.000000e+0 0.000000e+0 0.000000e+0
      vertex -1.722160e-17 -9.375000e-2 0.000000e+0
      vertex -3.587657e-2 -8.661371e-2 0.000000e+0
    endloop
  endfacet
  facet normal -1.950903e-1 9.807853e-1 0.000000e+0
    outer loop
      vertex -1.722160e-17 -9.375000e-2 0.000000e+0
      vertex -1.722160e-17 -9.375000e-2 2.540000e+1
      vertex 3.587657e-2 -8.661371e-2 0.000000e+0
    endloop
  endfacet
  facet normal -1.950903e-1 9.807853e-1 0.000000e+0
    outer loop
      vertex -1.722160e-17 -9.375000e-2 2.540000e+1
      vertex 3.587657e-2 -8.661371e-2 2.540000e+1
      vertex 3.587657e-2 -8.661371e-2 0.000000e+0
    endloop
  endfacet
  facet normal 0.000000e+0 0.000000e+0 -1.000000e+0
    outer loop
      vertex 0.000000e+0 0.000000e+0 0.000000e+0
      vertex 3.587657e-2 -8.661371e-2 0.000000e+0
      vertex -1.722160e-17 -9.375000e-2 0.000000e+0
    endloop
  endfacet
  facet normal -5.555702e-1 8.314696e-1 0.000000e+0
    outer loop
      vertex 3.587657e-2 -8.661371e-2 0.000000e+0
      vertex 3.587657e-2 -8.661371e-2 2.540000e+1
      vertex 6.629126e-2 -6.629126e-2 0.000000e+0
    endloop
  endfacet
  facet normal -5.555702e-1 8.314696e-1 0.000000e+0
    outer loop
      vertex 3.587657e-2 -8.661371e-2 2.540000e+1
      vertex 6.629126e-2 -6.629126e-2 2.540000e+1
      vertex 6.629126e-2 -6.629126e-2 0.000000e+0
    endloop
  endfacet
  facet normal 0.000000e+0 0.000000e+0 -1.000000e+0
    outer loop
      vertex 0.000000e+0 0.000000e+0 0.000000e+0
      vertex 6.629126e-2 -6.629126e-2 0.000000e+0
      vertex 3.587657e-2 -8.661371e-2 0.000000e+0
    endloop
  endfacet
  facet normal -8.314696e-1 5.555702e-1 0.000000e+0
    outer loop
      vertex 6.629126e-2 -6.629126e-2 0.000000e+0
      vertex 6.629126e-2 -6.629126e-2 2.540000e+1
      vertex 8.661371e-2 -3.587657e-2 0.000000e+0
    endloop
  endfacet
  facet normal -8.314696e-1 5.555702e-1 0.000000e+0
    outer loop
      vertex 6.629126e-2 -6.629126e-2 2.540000e+1
      vertex 8.661371e-2 -3.587657e-2 2.540000e+1
      vertex 8.661371e-2 -3.587657e-2 0.000000e+0
    endloop
  endfacet
  facet normal 0.000000e+0 0.000000e+0 -1.000000e+0
    outer loop
      vertex 0.000000e+0 0.000000e+0 0.000000e+0
      vertex 8.661371e-2 -3.587657e-2 0.000000e+0
      vertex 6.629126e-2 -6.629126e-2 0.000000e+0
    endloop
  endfacet
  facet normal -9.807853e-1 1.950903e-1 0.000000e+0
    outer loop
      vertex 8.661371e-2 -3.587657e-2 0.000000e+0
      vertex 8.661371e-2 -3.587657e-2 2.540000e+1
      vertex 9.375000e-2 -2.296213e-17 0.000000e+0
    endloop
  endfacet
  facet normal -9.807853e-1 1.950903e-1 0.000000e+0
    outer loop
      vertex 8.661371e-2 -3.587657e-2 2.540000e+1
      vertex 9.375000e-2 -2.296213e-17 2.540000e+1
      vertex 9.375000e-2 -2.296213e-17 0.000000e+0
    endloop
  endfacet
  facet normal 0.000000e+0 0.000000e+0 -1.000000e+0
    outer loop
      vertex 0.000000e+0 0.000000e+0 0.000000e+0
      vertex 9.375000e-2 -2.296213e-17 0.000000e+0
      vertex 8.661371e-2 -3.587657e-2 0.000000e+0
    endloop
  endfacet
  facet normal 0.000000e+0 0.000000e+0 -1.000000e+0
    outer loop
      vertex 1.406250e-1 0.000000e+0 2.540000e+1
      vertex 9.375000e-2 0.000000e+0 2.540000e+1
      vertex 1.299206e-1 5.381486e-2 2.540000e+1
    endloop
  endfacet
  facet normal 0.000000e+0 0.000000e+0 -1.000000e+0
    outer loop
      vertex 1.299206e-1 5.381486e-2 2.540000e+1
      vertex 9.375000e-2 0.000000e+0 2.540000e+1
      vertex 8.661371e-2 3.587657e-2 2.540000e+1
    endloop
  endfacet
  facet normal 0.000000e+0 0.000000e+0 -1.000000e+0
    outer loop
      vertex 1.299206e-1 5.381486e-2 2.540000e+1
      vertex 8.661371e-2 3.587657e-2 2.540000e+1
      vertex 9.943689e-2 9.943689e-2 2.540000e+1
    endloop
  endfacet
  facet normal 0.000000e+0 0.000000e+0 -1.000000e+0
    outer loop
      vertex 9.943689e-2 9.943689e-2 2.540000e+1
      vertex 8.661371e-2 3.587657e-2 2.540000e+1
      vertex 6.629126e-2 6.629126e-2 2.540000e+1
    endloop
  endfacet
  facet normal 0.000000e+0 0.000000e+0 -1.000000e+0
    outer loop
      vertex 9.943689e-2 9.943689e-2 2.540000e+1
      vertex 6.629126e-2 6.629126e-2 2.540000e+1
      vertex 5.381486e-2 1.299206e-1 2.540000e+1
    endloop
  endfacet
  facet normal 0.000000e+0 0.000000e+0 -1.000000e+0
    outer loop
      vertex 5.381486e-2 1.299206e-1 2.540000e+1
      vertex 6.629126e-2 6.629126e-2 2.540000e+1
      vertex 3.587657e-2 8.661371e-2 2.540000e+1
    endloop
  endfacet
  facet normal 0.000000e+0 0.000000e+0 -1.000000e+0
    outer loop
      vertex 5.381486e-2 1.299206e-1 2.540000e+1
      vertex 3.587657e-2 8.661371e-2 2.540000e+1
      vertex 8.610798e-18 1.406250e-1 2.540000e+1
    endloop
  endfacet
  facet normal 0.000000e+0 0.000000e+0 -1.000000e+0
    outer loop
      vertex 8.610798e-18 1.406250e-1 2.540000e+1
      vertex 3.587657e-2 8.661371e-2 2.540000e+1
      vertex 5.740532e-18 9.375000e-2 2.540000e+1
    endloop
  endfacet
  facet normal 0.000000e+0 0.000000e+0 -1.000000e+0
    outer loop
      vertex 8.610798e-18 1.406250e-1 2.540000e+1
      vertex 5.740532e-18 9.375000e-2 2.540000e+1
      vertex -5.381486e-2 1.299206e-1 2.540000e+1
    endloop
  endfacet
  facet normal 0.000000e+0 0.000000e+0 -1.000000e+0
    outer loop
      vertex -5.381486e-2 1.299206e-1 2.540000e+1
      vertex 5.740532e-18 9.375000e-2 2.540000e+1
      vertex -3.587657e-2 8.661371e-2 2.540000e+1
    endloop
  endfacet
  facet normal 0.000000e+0 0.000000e+0 -1.000000e+0
    outer loop
      vertex -5.381486e-2 1.299206e-1 2.540000e+1
      vertex -3.587657e-2 8.661371e-2 2.540000e+1
      vertex -9.943689e-2 9.943689e-2 2.540000e+1
    endloop
  endfacet
  facet normal 0.000000e+0 0.000000e+0 -1.000000e+0
    outer loop
      vertex -9.943689e-2 9.943689e-2 2.540000e+1
      vertex -3.587657e-2 8.661371e-2 2.540000e+1
      vertex -6.629126e-2 6.629126e-2 2.540000e+1
    endloop
  endfacet
  facet normal 0.000000e+0 0.000000e+0 -1.000000e+0
    outer loop
      vertex -9.943689e-2 9.943689e-2 2.540000e+1
      vertex -6.629126e-2 6.629126e-2 2.540000e+1
      vertex -1.299206e-1 5.381486e-2 2.540000e+1
    endloop
  endfacet
  facet normal 0.000000e+0 0.000000e+0 -1.000000e+0
    outer loop
      vertex -1.299206e-1 5.381486e-2 2.540000e+1
      vertex -6.629126e-2 6.629126e-2 2.540000e+1
      vertex -8.661371e-2 3.587657e-2 2.540000e+1
    endloop
  endfacet
  facet normal 0.000000e+0 0.000000e+0 -1.000000e+0
    outer loop
      vertex -1.299206e-1 5.381486e-2 2.540000e+1
      vertex -8.661371e-2 3.587657e-2 2.540000e+1
      vertex -1.406250e-1 1.722160e-17 2.540000e+1
    endloop
  endfacet
  facet normal 0.000000e+0 0.000000e+0 -1.000000e+0
    outer loop
      vertex -1.406250e-1 1.722160e-17 2.540000e+1
      vertex -8.661371e-2 3.587657e-2 2.540000e+1
      vertex -9.375000e-2 1.148106e-17 2.540000e+1
    endloop
  endfacet
  facet normal 0.000000e+0 0.000000e+0 -1.000000e+0
    outer loop
      vertex -1.406250e-1 1.722160e-17 2.540000e+1
      vertex -9.375000e-2 1.148106e-17 2.540000e+1
      vertex -1.299206e-1 -5.381486e-2 2.540000e+1
    endloop
  endfacet
  facet normal 0.000000e+0 0.000000e+0 -1.000000e+0
    outer loop
      vertex -1.299206e-1 -5.381486e-2 2.540000e+1
      vertex -9.375000e-2 1.148106e-17 2.540000e+1
      vertex -8.661371e-2 -3.587657e-2 2.540000e+1
    endloop
  endfacet
  facet normal 0.000000e+0 0.000000e+0 -1.000000e+0
    outer loop
      vertex -1.299206e-1 -5.381486e-2 2.540000e+1
      vertex -8.661371e-2 -3.587657e-2 2.540000e+1
      vertex -9.943689e-2 -9.943689e-2 2.540000e+1
    endloop
  endfacet
  facet normal 0.000000e+0 0.000000e+0 -1.000000e+0
    outer loop
      vertex -9.943689e-2 -9.943689e-2 2.540000e+1
      vertex -8.661371e-2 -3.587657e-2 2.540000e+1
      vertex -6.629126e-2 -6.629126e-2 2.540000e+1
    endloop
  endfacet
  facet normal 0.000000e+0 0.000000e+0 -1.000000e+0
    outer loop
      vertex -9.943689e-2 -9.943689e-2 2.540000e+1
      vertex -6.629126e-2 -6.629126e-2 2.540000e+1
      vertex -5.381486e-2 -1.299206e-1 2.540000e+1
    endloop
  endfacet
  facet normal 0.000000e+0 0.000000e+0 -1.000000e+0
    outer loop
      vertex -5.381486e-2 -1.299206e-1 2.540000e+1
      vertex -6.629126e-2 -6.629126e-2 2.540000e+1
      vertex -3.587657e-2 -8.661371e-2 2.540000e+1
    endloop
  endfacet
  facet normal 0.000000e+0 0.000000e+0 -1.000000e+0
    outer loop
      vertex -5.381486e-2 -1.299206e-1 2.540000e+1
      vertex -3.587657e-2 -8.661371e-2 2.540000e+1
      vertex -2.583239e-17 -1.406250e-1 2.540000e+1
    endloop
  endfacet
  facet normal 0.000000e+0 0.000000e+0 -1.000000e+0
    outer loop
      vertex -2.583239e-17 -1.406250e-1 2.540000e+1
      vertex -3.587657e-2 -8.661371e-2 2.540000e+1
      vertex -1.722160e-17 -9.375000e-2 2.540000e+1
    endloop
  endfacet
  facet normal 0.000000e+0 0.000000e+0 -1.000000e+0
    outer loop
      vertex -2.583239e-17 -1.406250e-1 2.540000e+1
      vertex -1.722160e-17 -9.375000e-2 2.540000e+1
      vertex 5.381486e-2 -1.299206e-1 2.540000e+1
    endloop
  endfacet
  facet normal 0.000000e+0 0.000000e+0 -1.000000e+0
    outer loop
      vertex 5.381486e-2 -1.299206e-1 2.540000e+1
      vertex -1.722160e-17 -9.375000e-2 2.540000e+1
      vertex 3.587657e-2 -8.661371e-2 2.540000e+1
    endloop
  endfacet
  facet normal 0.000000e+0 0.000000e+0 -1.000000e+0
    outer loop
      vertex 5.381486e-2 -1.299206e-1 2.540000e+1
      vertex 3.587657e-2 -8.661371e-2 2.540000e+1
      vertex 9.943689e-2 -9.943689e-2 2.540000e+1
    endloop
  endfacet
  facet normal 0.000000e+0 0.000000e+0 -1.000000e+0
    outer loop
      vertex 9.943689e-2 -9.943689e-2 2.540000e+1
      vertex 3.587657e-2 -8.661371e-2 2.540000e+1
      vertex 6.629126e-2 -6.629126e-2 2.540000e+1
    endloop
  endfacet
  facet normal 0.000000e+0 0.000000e+0 -1.000000e+0
    outer loop
      vertex 9.943689e-2 -9.943689e-2 2.540000e+1
      vertex 6.629126e-2 -6.629126e-2 2.540000e+1
      vertex 1.299206e-1 -5.381486e-2 2.540000e+1
    endloop
  endfacet
  facet normal 0.000000e+0 0.000000e+0 -1.000000e+0
    outer loop
      vertex 1.299206e-1 -5.381486e-2 2.540000e+1
      vertex 6.629126e-2 -6.629126e-2 2.540000e+1
      vertex 8.661371e-2 -3.587657e-2 2.540000e+1
    endloop
  endfacet
  facet normal 0.000000e+0 0.000000e+0 -1.000000e+0
    outer loop
      vertex 1.299206e-1 -5.381486e-2 2.540000e+1
      vertex 8.661371e-2 -3.587657e-2 2.540000e+1
      vertex 1.406250e-1 -3.444319e-17 2.540000e+1
    endloop
  endfacet
  facet normal 0.000000e+0 0.000000e+0 -1.000000e+0
    outer loop
      vertex 1.406250e-1 -3.444319e-17 2.540000e+1
      vertex 8.661371e-2 -3.587657e-2 2.540000e+1
      vertex 9.375000e-2 -2.296213e-17 2.540000e+1
    endloop
  endfacet
  facet normal -8.660254e-1 -5.000000e-1 0.000000e+0
    outer loop
      vertex 1.406250e-1 0.000000e+0 2.540000e+1
      vertex 1.406250e-1 0.000000e+0 2.552187e+1
      vertex 7.031250e-2 1.217848e-1 2.540000e+1
    endloop
  endfacet
  facet normal -8.660254e-1 -5.000000e-1 0.000000e+0
    outer loop
      vertex 1.406250e-1 0.000000e+0 2.552187e+1
      vertex 7.031250e-2 1.217848e-1 2.552187e+1
      vertex 7.031250e-2 1.217848e-1 2.540000e+1
    endloop
  endfacet
  facet normal 0.000000e+0 0.000000e+0 1.000000e+0
    outer loop
      vertex 0.000000e+0 0.000000e+0 2.552187e+1
      vertex 1.406250e-1 0.000000e+0 2.552187e+1
      vertex 7.031250e-2 1.217848e-1 2.552187e+1
    endloop
  endfacet
  facet normal -9.868649e-17 -1.000000e+0 0.000000e+0
    outer loop
      vertex 7.031250e-2 1.217848e-1 2.540000e+1
      vertex 7.031250e-2 1.217848e-1 2.552187e+1
      vertex -7.031250e-2 1.217848e-1 2.540000e+1
    endloop
  endfacet
  facet normal -9.868649e-17 -1.000000e+0 0.000000e+0
    outer loop
      vertex 7.031250e-2 1.217848e-1 2.552187e+1
      vertex -7.031250e-2 1.217848e-1 2.552187e+1
      vertex -7.031250e-2 1.217848e-1 2.540000e+1
    endloop
  endfacet
  facet normal 0.000000e+0 0.000000e+0 1.000000e+0
    outer loop
      vertex 0.000000e+0 0.000000e+0 2.552187e+1
      vertex 7.031250e-2 1.217848e-1 2.552187e+1
      vertex -7.031250e-2 1.217848e-1 2.552187e+1
    endloop
  endfacet
  facet normal 8.660254e-1 -5.000000e-1 0.000000e+0
    outer loop
      vertex -7.031250e-2 1.217848e-1 2.540000e+1
      vertex -7.031250e-2 1.217848e-1 2.552187e+1
      vertex -1.406250e-1 1.722160e-17 2.540000e+1
    endloop
  endfacet
  facet normal 8.660254e-1 -5.000000e-1 0.000000e+0
    outer loop
      vertex -7.031250e-2 1.217848e-1 2.552187e+1
      vertex -1.406250e-1 1.722160e-17 2.552187e+1
      vertex -1.406250e-1 1.722160e-17 2.540000e+1
    endloop
  endfacet
  facet normal 0.000000e+0 0.000000e+0 1.000000e+0
    outer loop
      vertex 0.000000e+0 0.000000e+0 2.552187e+1
      vertex -7.031250e-2 1.217848e-1 2.552187e+1
      vertex -1.406250e-1 1.722160e-17 2.552187e+1
    endloop
  endfacet
  facet normal 8.660254e-1 5.000000e-1 0.000000e+0
    outer loop
      vertex -1.406250e-1 1.722160e-17 2.540000e+1
      vertex -1.406250e-1 1.722160e-17 2.552187e+1
      vertex -7.031250e-2 -1.217848e-1 2.540000e+1
    endloop
  endfacet
  facet normal 8.660254e-1 5.000000e-1 0.000000e+0
    outer loop
      vertex -1.406250e-1 1.722160e-17 2.552187e+1
      vertex -7.031250e-2 -1.217848e-1 2.552187e+1
      vertex -7.031250e-2 -1.217848e-1 2.540000e+1
    endloop
  endfacet
  facet normal 0.000000e+0 0.000000e+0 1.000000e+0
    outer loop
      vertex 0.000000e+0 0.000000e+0 2.552187e+1
      vertex -1.406250e-1 1.722160e-17 2.552187e+1
      vertex -7.031250e-2 -1.217848e-1 2.552187e+1
    endloop
  endfacet
  facet normal 9.868649e-17 1.000000e+0 0.000000e+0
    outer loop
      vertex -7.031250e-2 -1.217848e-1 2.540000e+1
      vertex -7.031250e-2 -1.217848e-1 2.552187e+1
      vertex 7.031250e-2 -1.217848e-1 2.540000e+1
    endloop
  endfacet
  facet normal 9.868649e-17 1.000000e+0 0.000000e+0
    outer loop
      vertex -7.031250e-2 -1.217848e-1 2.552187e+1
      vertex 7.031250e-2 -1.217848e-1 2.552187e+1
      vertex 7.031250e-2 -1.217848e-1 2.540000e+1
    endloop
  endfacet
  facet normal 0.000000e+0 0.000000e+0 1.000000e+0
    outer loop
      vertex 0.000000e+0 0.000000e+0 2.552187e+1
      vertex -7.031250e-2 -1.217848e-1 2.552187e+1
      vertex 7.031250e-2 -1.217848e-1 2.552187e+1
    endloop
  endfacet
  facet normal -8.660254e-1 5.000000e-1 0.000000e+0
    outer loop
      vertex 7.031250e-2 -1.217848e-1 2.540000e+1
      vertex 7.031250e-2 -1.217848e-1 2.552187e+1
      vertex 1.406250e-1 -3.444319e-17 2.540000e+1
    endloop
  endfacet
  facet normal -8.660254e-1 5.000000e-1 0.000000e+0
    outer loop
      vertex 7.031250e-2 -1.217848e-1 2.552187e+1
      vertex 1.406250e-1 -3.444319e-17 2.552187e+1
      vertex 1.406250e-1 -3.444319e-17 2.540000e+1
    endloop
  endfacet
  facet normal 0.000000e+0 0.000000e+0 1.000000e+0
    outer loop
      vertex 0.000000e+0 0.000000e+0 2.552187e+1
      vertex 7.031250e-2 -1.217848e-1 2.552187e+1
      vertex 1.406250e-1 -3.444319e-17 2.552187e+1
    endloop
  endfacet
endsolid an3-10a
