solid an6-16a
  facet normal -9.807853e-1 -1.950903e-1 0.000000e+0
    outer loop
      vertex 1.875000e-1 0.000000e+0 0.000000e+0
      vertex 1.875000e-1 0.000000e+0 4.064000e+1
      vertex 1.732274e-1 7.175314e-2 0.000000e+0
    endloop
  endfacet
  facet normal -9.807853e-1 -1.950903e-1 0.000000e+0
    outer loop
      vertex 1.875000e-1 0.000000e+0 4.064000e+1
      vertex 1.732274e-1 7.175314e-2 4.064000e+1
      vertex 1.732274e-1 7.175314e-2 0.000000e+0
    endloop
  endfacet
  facet normal 0.000000e+0 0.000000e+0 -1.000000e+0
    outer loop
      vertex 0.000000e+0 0.000000e+0 0.000000e+0
      vertex 1.732274e-1 7.175314e-2 0.000000e+0
      vertex 1.875000e-1 0.000000e+0 0.000000e+0
    endloop
  endfacet
  facet normal 0.000000e+0 0.000000e+0 1.000000e+0
    outer loop
      vertex 0.000000e+0 0.000000e+0 4.064000e+1
      vertex 1.875000e-1 0.000000e+0 4.064000e+1
      vertex 1.732274e-1 7.175314e-2 4.064000e+1
    endloop
  endfacet
  facet normal -8.314696e-1 -5.555702e-1 0.000000e+0
    outer loop
      vertex 1.732274e-1 7.175314e-2 0.000000e+0
      vertex 1.732274e-1 7.175314e-2 4.064000e+1
      vertex 1.325825e-1 1.325825e-1 0.000000e+0
    endloop
  endfacet
  facet normal -8.314696e-1 -5.555702e-1 0.000000e+0
    outer loop
      vertex 1.732274e-1 7.175314e-2 4.064000e+1
      vertex 1.325825e-1 1.325825e-1 4.064000e+1
      vertex 1.325825e-1 1.325825e-1 0.000000e+0
    endloop
  endfacet
  facet normal 0.000000e+0 0.000000e+0 -1.000000e+0
    outer loop
      vertex 0.000000e+0 0.000000e+0 0.000000e+0
      vertex 1.325825e-1 1.325825e-1 0.000000e+0
      vertex 1.732274e-1 7.175314e-2 0.000000e+0
    endloop
  endfacet
  facet normal 0.000000e+0 0.000000e+0 1.000000e+0
    outer loop
      vertex 0.000000e+0 0.000000e+0 4.064000e+1
      vertex 1.732274e-1 7.175314e-2 4.064000e+1
      vertex 1.325825e-1 1.325825e-1 4.064000e+1
    endloop
  endfacet
  facet normal -5.555702e-1 -8.314696e-1 0.000000e+0
    outer loop
      vertex 1.325825e-1 1.325825e-1 0.000000e+0
      vertex 1.325825e-1 1.325825e-1 4.064000e+1
      vertex 7.175314e-2 1.732274e-1 0.000000e+0
    endloop
  endfacet
  facet normal -5.555702e-1 -8.314696e-1 0.000000e+0
    outer loop
      vertex 1.325825e-1 1.325825e-1 4.064000e+1
      vertex 7.175314e-2 1.732274e-1 4.064000e+1
      vertex 7.175314e-2 1.732274e-1 0.000000e+0
    endloop
  endfacet
  facet normal 0.000000e+0 0.000000e+0 -1.000000e+0
    outer loop
      vertex 0.000000e+0 0.000000e+0 0.000000e+0
      vertex 7.175314e-2 1.732274e-1 0.000000e+0
      vertex 1.325825e-1 1.325825e-1 0.000000e+0
    endloop
  endfacet
  facet normal 0.000000e+0 0.000000e+0 1.000000e+0
    outer loop
      vertex 0.000000e+0 0.000000e+0 4.064000e+1
      vertex 1.325825e-1 1.325825e-1 4.064000e+1
      vertex 7.175314e-2 1.732274e-1 4.064000e+1
    endloop
  endfacet
  facet normal -1.950903e-1 -9.807853e-1 0.000000e+0
    outer loop
      vertex 7.175314e-2 1.732274e-1 0.000000e+0
      vertex 7.175314e-2 1.732274e-1 4.064000e+1
      vertex 1.148106e-17 1.875000e-1 0.000000e+0
    endloop
  endfacet
  facet normal -1.950903e-1 -9.807853e-1 0.000000e+0
    outer loop
      vertex 7.175314e-2 1.732274e-1 4.064000e+1
      vertex 1.148106e-17 1.875000e-1 4.064000e+1
      vertex 1.148106e-17 1.875000e-1 0.000000e+0
    endloop
  endfacet
  facet normal 0.000000e+0 0.000000e+0 -1.000000e+0
    outer loop
      vertex 0.000000e+0 0.000000e+0 0.000000e+0
      vertex 1.148106e-17 1.875000e-1 0.000000e+0
      vertex 7.175314e-2 1.732274e-1 0.000000e+0
    endloop
  endfacet
  facet normal 0.000000e+0 0.000000e+0 1.000000e+0
    outer loop
      vertex 0.000000e+0 0.000000e+0 4.064000e+1
      vertex 7.175314e-2 1.732274e-1 4.064000e+1
      vertex 1.148106e-17 1.875000e-1 4.064000e+1
    endloop
  endfacet
  facet normal 1.950903e-1 -9.807853e-1 0.000000e+0
    outer loop
      vertex 1.148106e-17 1.875000e-1 0.000000e+0
      vertex 1.148106e-17 1.875000e-1 4.064000e+1
      vertex -7.175314e-2 1.732274e-1 0.000000e+0
    endloop
  endfacet
  facet normal 1.950903e-1 -9.807853e-1 0.000000e+0
    outer loop
      vertex 1.148106e-17 1.875000e-1 4.064000e+1
      vertex -7.175314e-2 1.732274e-1 4.064000e+1
      vertex -7.175314e-2 1.732274e-1 0.000000e+0
    endloop
  endfacet
  facet normal 0.000000e+0 0.000000e+0 -1.000000e+0
    outer loop
      vertex 0.000000e+0 0.000000e+0 0.000000e+0
      vertex -7.175314e-2 1.732274e-1 0.000000e+0
      vertex 1.148106e-17 1.875000e-1 0.000000e+0
    endloop
  endfacet
  facet normal 0.000000e+0 0.000000e+0 1.000000e+0
    outer loop
      vertex 0.000000e+0 0.000000e+0 4.064000e+1
      vertex 1.148106e-17 1.875000e-1 4.064000e+1
      vertex -7.175314e-2 1.732274e-1 4.064000e+1
    endloop
  endfacet
  facet normal 5.555702e-1 -8.314696e-1 0.000000e+0
    outer loop
      vertex -7.175314e-2 1.732274e-1 0.000000e+0
      vertex -7.175314e-2 1.732274e-1 4.064000e+1
      vertex -1.325825e-1 1.325825e-1 0.000000e+0
    endloop
  endfacet
  facet normal 5.555702e-1 -8.314696e-1 0.000000e+0
    outer loop
      vertex -7.175314e-2 1.732274e-1 4.064000e+1
      vertex -1.325825e-1 1.325825e-1 4.064000e+1
      vertex -1.325825e-1 1.325825e-1 0.000000e+0
    endloop
  endfacet
  facet normal 0.000000e+0 0.000000e+0 -1.000000e+0
    outer loop
      vertex 0.000000e+0 0.000000e+0 0.000000e+0
      vertex -1.325825e-1 1.325825e-1 0.000000e+0
      vertex -7.175314e-2 1.732274e-1 0.000000e+0
    endloop
  endfacet
  facet normal 0.000000e+0 0.000000e+0 1.000000e+0
    outer loop
      vertex 0.000000e+0 0.000000e+0 4.064000e+1
      vertex -7.175314e-2 1.732274e-1 4.064000e+1
      vertex -1.325825e-1 1.325825e-1 4.064000e+1
    endloop
  endfacet
  facet normal 8.314696e-1 -5.555702e-1 0.000000e+0
    outer loop
      vertex -1.325825e-1 1.325825e-1 0.000000e+0
      vertex -1.325825e-1 1.325825e-1 4.064000e+1
      vertex -1.732274e-1 7.175314e-2 0.000000e+0
    endloop
  endfacet
  facet normal 8.314696e-1 -5.555702e-1 0.000000e+0
    outer loop
      vertex -1.325825e-1 1.325825e-1 4.064000e+1
      vertex -1.732274e-1 7.175314e-2 4.064000e+1
      vertex -1.732274e-1 7.175314e-2 0.000000e+0
    endloop
  endfacet
  facet normal 0.000000e+0 0.000000e+0 -1.000000e+0
    outer loop
      vertex 0.000000e+0 0.000000e+0 0.000000e+0
      vertex -1.732274e-1 7.175314e-2 0.000000e+0
      vertex -1.325825e-1 1.325825e-1 0.000000e+0
    endloop
  endfacet
  facet normal 0.000000e+0 0.000000e+0 1.000000e+0
    outer loop
      vertex 0.000000e+0 0.000000e+0 4.064000e+1
      vertex -1.325825e-1 1.325825e-1 4.064000e+1
      vertex -1.732274e-1 7.175314e-2 4.064000e+1
    endloop
  endfacet
  facet normal 9.807853e-1 -1.950903e-1 0.000000e+0
    outer loop
      vertex -1.732274e-1 7.175314e-2 0.000000e+0
      vertex -1.732274e-1 7.175314e-2 4.064000e+1
      vertex -1.875000e-1 2.296213e-17 0.000000e+0
    endloop
  endfacet
  facet normal 9.807853e-1 -1.950903e-1 0.000000e+0
    outer loop
      vertex -1.732274e-1 7.175314e-2 4.064000e+1
      vertex -1.875000e-1 2.296213e-17 4.064000e+1
      vertex -1.875000e-1 2.296213e-17 0.000000e+0
    endloop
  endfacet
  facet normal 0.000000e+0 0.000000e+0 -1.000000e+0
    outer loop
      vertex 0.000000e+0 0.000000e+0 0.000000e+0
      vertex -1.875000e-1 2.296213e-17 0.000000e+0
      vertex -1.732274e-1 7.175314e-2 0.000000e+0
    endloop
  endfacet
  facet normal 0.000000e+0 0.000000e+0 1.000000e+0
    outer loop
      vertex 0.000000e+0 0.000000e+0 4.064000e+1
      vertex -1.732274e-1 7.175314e-2 4.064000e+1
      vertex -1.875000e-1 2.296213e-17 4.064000e+1
    endloop
  endfacet
  facet normal 9.807853e-1 1.950903e-1 0.000000e+0
    outer loop
      vertex -1.875000e-1 2.296213e-17 0.000000e+0
      vertex -1.875000e-1 2.296213e-17 4.064000e+1
      vertex -1.732274e-1 -7.175314e-2 0.000000e+0
    endloop
  endfacet
  facet normal 9.807853e-1 1.950903e-1 0.000000e+0
    outer loop
      vertex -1.875000e-1 2.296213e-17 4.064000e+1
      vertex -1.732274e-1 -7.175314e-2 4.064000e+1
      vertex -1.732274e-1 -7.175314e-2 0.000000e+0
    endloop
  endfacet
  facet normal 0.000000e+0 0.000000e+0 -1.000000e+0
    outer loop
      vertex 0.000000e+0 0.000000e+0 0.000000e+0
      vertex -1.732274e-1 -7.175314e-2 0.000000e+0
      vertex -1.875000e-1 2.296213e-17 0.000000e+0
    endloop
  endfacet
  facet normal 0.000000e+0 0.000000e+0 1.000000e+0
    outer loop
      vertex 0.000000e+0 0.000000e+0 4.064000e+1
      vertex -1.875000e-1 2.296213e-17 4.064000e+1
      vertex -1.732274e-1 -7.175314e-2 4.064000e+1
    endloop
  endfacet
  facet normal 8.314696e-1 5.555702e-1 0.000000e+0
    outer loop
      vertex -1.732274e-1 -7.175314e-2 0.000000e+0
      vertex -1.732274e-1 -7.175314e-2 4.064000e+1
      vertex -1.325825e-1 -1.325825e-1 0.000000e+0
    endloop
  endfacet
  facet normal 8.314696e-1 5.555702e-1 0.000000e+0
    outer loop
      vertex -1.732274e-1 -7.175314e-2 4.064000e+1
      vertex -1.325825e-1 -1.325825e-1 4.064000e+1
      vertex -1.325825e-1 -1.325825e-1 0.000000e+0
    endloop
  endfacet
  facet normal 0.000000e+0 0.000000e+0 -1.000000e+0
    outer loop
      vertex 0.000000e+0 0.000000e+0 0.000000e+0
      vertex -1.325825e-1 -1.325825e-1 0.000000e+0
      vertex -1.732274e-1 -7.175314e-2 0.000000e+0
    endloop
  endfacet
  facet normal 0.000000e+0 0.000000e+0 1.000000e+0
    outer loop
      vertex 0.000000e+0 0.000000e+0 4.064000e+1
      vertex -1.732274e-1 -7.175314e-2 4.064000e+1
      vertex -1.325825e-1 -1.325825e-1 4.064000e+1
    endloop
  endfacet
  facet normal 5.555702e-1 8.314696e-1 0.000000e+0
    outer loop
      vertex -1.325825e-1 -1.325825e-1 0.000000e+0
      vertex -1.325825e-1 -1.325825e-1 4.064000e+1
      vertex -7.175314e-2 -1.732274e-1 0.000000e+0
    endloop
  endfacet
  facet normal 5.555702e-1 8.314696e-1 0.000000e+0
    outer loop
      vertex -1.325825e-1 -1.325825e-1 4.064000e+1
      vertex -7.175314e-2 -1.732274e-1 4.064000e+1
      vertex -7.175314e-2 -1.732274e-1 0.000000e+0
    endloop
  endfacet
  facet normal 0.000000e+0 0.000000e+0 -1.000000e+0
    outer loop
      vertex 0.000000e+0 0.000000e+0 0.000000e+0
      vertex -7.175314e-2 -1.732274e-1 0.000000e+0
      vertex -1.325825e-1 -1.325825e-1 0.000000e+0
    endloop
  endfacet
  facet normal 0.000000e+0 0.000000e+0 1.000000e+0
    outer loop
      vertex 0.000000e+0 0.000000e+0 4.064000e+1
      vertex -1.325825e-1 -1.325825e-1 4.064000e+1
      vertex -7.175314e-2 -1.732274e-1 4.064000e+1
    endloop
  endfacet
  facet normal 1.950903e-1 9.807853e-1 0.000000e+0
    outer loop
      vertex -7.175314e-2 -1.732274e-1 0.000000e+0
      vertex -7.175314e-2 -1.732274e-1 4.064000e+1
      vertex -3.444319e-17 -1.875000e-1 0.000000e+0
    endloop
  endfacet
  facet normal 1.950903e-1 9.807853e-1 0.000000e+0
    outer loop
      vertex -7.175314e-2 -1.732274e-1 4.064000e+1
      vertex -3.444319e-17 -1.875000e-1 4.064000e+1
      vertex -3.444319e-17 -1.875000e-1 0.000000e+0
    endloop
  endfacet
  facet normal 0.000000e+0 0.000000e+0 -1.000000e+0
    outer loop
      vertex 0.000000e+0 0.000000e+0 0.000000e+0
      vertex -3.444319e-17 -1.875000e-1 0.000000e+0
      vertex -7.175314e-2 -1.732274e-1 0.000000e+0
    endloop
  endfacet
  facet normal 0.000000e+0 0.000000e+0 1.000000e+0
    outer loop
      vertex 0.000000e+0 0.000000e+0 4.064000e+1
      vertex -7.175314e-2 -1.732274e-1 4.064000e+1
      vertex -3.444319e-17 -1.875000e-1 4.064000e+1
    endloop
  endfacet
  facet normal -1.950903e-1 9.807853e-1 0.000000e+0
    outer loop
      vertex -3.444319e-17 -1.875000e-1 0.000000e+0
      vertex -3.444319e-17 -1.875000e-1 4.064000e+1
      vertex 7.175314e-2 -1.732274e-1 0.000000e+0
    endloop
  endfacet
  facet normal -1.950903e-1 9.807853e-1 0.000000e+0
    outer loop
      vertex -3.444319e-17 -1.875000e-1 4.064000e+1
      vertex 7.175314e-2 -1.732274e-1 4.064000e+1
      vertex 7.175314e-2 -1.732274e-1 0.000000e+0
    endloop
  endfacet
  facet normal 0.000000e+0 0.000000e+0 -1.000000e+0
    outer loop
      vertex 0.000000e+0 0.000000e+0 0.000000e+0
      vertex 7.175314e-2 -1.732274e-1 0.000000e+0
      vertex -3.444319e-17 -1.875000e-1 0.000000e+0
    endloop
  endfacet
  facet normal 0.000000e+0 0.000000e+0 1.000000e+0
    outer loop
      vertex 0.000000e+0 0.000000e+0 4.064000e+1
      vertex -3.444319e-17 -1.875000e-1 4.064000e+1
      vertex 7.175314e-2 -1.732274e-1 4.064000e+1
    endloop
  endfacet
  facet normal -5.555702e-1 8.314696e-1 0.000000e+0
    outer loop
      vertex 7.175314e-2 -1.732274e-1 0.000000e+0
      vertex 7.175314e-2 -1.732274e-1 4.064000e+1
      vertex 1.325825e-1 -1.325825e-1 0.000000e+0
    endloop
  endfacet
  facet normal -5.555702e-1 8.314696e-1 0.000000e+0
    outer loop
      vertex 7.175314e-2 -1.732274e-1 4.064000e+1
      vertex 1.325825e-1 -1.325825e-1 4.064000e+1
      vertex 1.325825e-1 -1.325825e-1 0.000000e+0
    endloop
  endfacet
  facet normal 0.000000e+0 0.000000e+0 -1.000000e+0
    outer loop
      vertex 0.000000e+0 0.000000e+0 0.000000e+0
      vertex 1.325825e-1 -1.325825e-1 0.000000e+0
      vertex 7.175314e-2 -1.732274e-1 0.000000e+0
    endloop
  endfacet
  facet normal 0.000000e+0 0.000000e+0 1.000000e+0
    outer loop
      vertex 0.000000e+0 0.000000e+0 4.064000e+1
      vertex 7.175314e-2 -1.732274e-1 4.064000e+1
      vertex 1.325825e-1 -1.325825e-1 4.064000e+1
    endloop
  endfacet
  facet normal -8.314696e-1 5.555702e-1 0.000000e+0
    outer loop
      vertex 1.325825e-1 -1.325825e-1 0.000000e+0
      vertex 1.325825e-1 -1.325825e-1 4.064000e+1
      vertex 1.732274e-1 -7.175314e-2 0.000000e+0
    endloop
  endfacet
  facet normal -8.314696e-1 5.555702e-1 0.000000e+0
    outer loop
      vertex 1.325825e-1 -1.325825e-1 4.064000e+1
      vertex 1.732274e-1 -7.175314e-2 4.064000e+1
      vertex 1.732274e-1 -7.175314e-2 0.000000e+0
    endloop
  endfacet
  facet normal 0.000000e+0 0.000000e+0 -1.000000e+0
    outer loop
      vertex 0.000000e+0 0.000000e+0 0.000000e+0
      vertex 1.732274e-1 -7.175314e-2 0.000000e+0
      vertex 1.325825e-1 -1.325825e-1 0.000000e+0
    endloop
  endfacet
  facet normal 0.000000e+0 0.000000e+0 1.000000e+0
    outer loop
      vertex 0.000000e+0 0.000000e+0 4.064000e+1
      vertex 1.325825e-1 -1.325825e-1 4.064000e+1
      vertex 1.732274e-1 -7.175314e-2 4.064000e+1
    endloop
  endfacet
  facet normal -9.807853e-1 1.950903e-1 0.000000e+0
    outer loop
      vertex 1.732274e-1 -7.175314e-2 0.000000e+0
      vertex 1.732274e-1 -7.175314e-2 4.064000e+1
      vertex 1.875000e-1 -4.592425e-17 0.000000e+0
    endloop
  endfacet
  facet normal -9.807853e-1 1.950903e-1 0.000000e+0
    outer loop
      vertex 1.732274e-1 -7.175314e-2 4.064000e+1
      vertex 1.875000e-1 -4.592425e-17 4.064000e+1
      vertex 1.875000e-1 -4.592425e-17 0.000000e+0
    endloop
  endfacet
  facet normal 0.000000e+0 0.000000e+0 -1.000000e+0
    outer loop
      vertex 0.000000e+0 0.000000e+0 0.000000e+0
      vertex 1.875000e-1 -4.592425e-17 0.000000e+0
      vertex 1.732274e-1 -7.175314e-2 0.000000e+0
    endloop
  endfacet
  facet normal 0.000000e+0 0.000000e+0 1.000000e+0
    outer loop
      vertex 0.000000e+0 0.000000e+0 4.064000e+1
      vertex 1.732274e-1 -7.175314e-2 4.064000e+1
      vertex 1.875000e-1 -4.592425e-17 4.064000e+1
    endloop
  endfacet
  facet normal -8.660254e-1 -5.000000e-1 0.000000e+0
    outer loop
      vertex 2.812500e-1 0.000000e+0 4.064000e+1
      vertex 2.812500e-1 0.000000e+0 4.088375e+1
      vertex 1.406250e-1 2.435696e-1 4.064000e+1
    endloop
  endfacet
  facet normal -8.660254e-1 -5.000000e-1 0.000000e+0
    outer loop
      vertex 2.812500e-1 0.000000e+0 4.088375e+1
      vertex 1.406250e-1 2.435696e-1 4.088375e+1
      vertex 1.406250e-1 2.435696e-1 4.064000e+1
    endloop
  endfacet
  facet normal 0.000000e+0 0.000000e+0 -1.000000e+0
    outer loop
      vertex 0.000000e+0 0.000000e+0 4.064000e+1
      vertex 1.406250e-1 2.435696e-1 4.064000e+1
      vertex 2.812500e-1 0.000000e+0 4.064000e+1
    endloop
  endfacet
  facet normal 0.000000e+0 0.000000e+0 1.000000e+0
    outer loop
      vertex 0.000000e+0 0.000000e+0 4.088375e+1
      vertex 2.812500e-1 0.000000e+0 4.088375e+1
      vertex 1.406250e-1 2.435696e-1 4.088375e+1
    endloop
  endfacet
  facet normal -9.868649e-17 -1.000000e+0 0.000000e+0
    outer loop
      vertex 1.406250e-1 2.435696e-1 4.064000e+1
      vertex 1.406250e-1 2.435696e-1 4.088375e+1
      vertex -1.406250e-1 2.435696e-1 4.064000e+1
    endloop
  endfacet
  facet normal -9.868649e-17 -1.000000e+0 0.000000e+0
    outer loop
      vertex 1.406250e-1 2.435696e-1 4.088375e+1
      vertex -1.406250e-1 2.435696e-1 4.088375e+1
      vertex -1.406250e-1 2.435696e-1 4.064000e+1
    endloop
  endfacet
  facet normal 0.000000e+0 0.000000e+0 -1.000000e+0
    outer loop
      vertex 0.000000e+0 0.000000e+0 4.064000e+1
      vertex -1.406250e-1 2.435696e-1 4.064000e+1
      vertex 1.406250e-1 2.435696e-1 4.064000e+1
    endloop
  endfacet
  facet normal 0.000000e+0 0.000000e+0 1.000000e+0
    outer loop
      vertex 0.000000e+0 0.000000e+0 4.088375e+1
      vertex 1.406250e-1 2.435696e-1 4.088375e+1
      vertex -1.406250e-1 2.435696e-1 4.088375e+1
    endloop
  endfacet
  facet normal 8.660254e-1 -5.000000e-1 0.000000e+0
    outer loop
      vertex -1.406250e-1 2.435696e-1 4.064000e+1
      vertex -1.406250e-1 2.435696e-1 4.088375e+1
      vertex -2.812500e-1 3.444319e-17 4.064000e+1
    endloop
  endfacet
  facet normal 8.660254e-1 -5.000000e-1 0.000000e+0
    outer loop
      vertex -1.406250e-1 2.435696e-1 4.088375e+1
      vertex -2.812500e-1 3.444319e-17 4.088375e+1
      vertex -2.812500e-1 3.444319e-17 4.064000e+1
    endloop
  endfacet
  facet normal 0.000000e+0 0.000000e+0 -1.000000e+0
    outer loop
      vertex 0.000000e+0 0.000000e+0 4.064000e+1
      vertex -2.812500e-1 3.444319e-17 4.064000e+1
      vertex -1.406250e-1 2.435696e-1 4.064000e+1
    endloop
  endfacet
  facet normal 0.000000e+0 0.000000e+0 1.000000e+0
    outer loop
      vertex 0.000000e+0 0.000000e+0 4.088375e+1
      vertex -1.406250e-1 2.435696e-1 4.088375e+1
      vertex -2.812500e-1 3.444319e-17 4.088375e+1
    endloop
  endfacet
  facet normal 8.660254e-1 5.000000e-1 0.000000e+0
    outer loop
      vertex -2.812500e-1 3.444319e-17 4.064000e+1
      vertex -2.812500e-1 3.444319e-17 4.088375e+1
      vertex -1.406250e-1 -2.435696e-1 4.064000e+1
    endloop
  endfacet
  facet normal 8.660254e-1 5.000000e-1 0.000000e+0
    outer loop
      vertex -2.812500e-1 3.444319e-17 4.088375e+1
      vertex -1.406250e-1 -2.435696e-1 4.088375e+1
      vertex -1.406250e-1 -2.435696e-1 4.064000e+1
    endloop
  endfacet
  facet normal 0.000000e+0 0.000000e+0 -1.000000e+0
    outer loop
      vertex 0.000000e+0 0.000000e+0 4.064000e+1
      vertex -1.406250e-1 -2.435696e-1 4.064000e+1
      vertex -2.812500e-1 3.444319e-17 4.064000e+1
    endloop
  endfacet
  facet normal 0.000000e+0 0.000000e+0 1.000000e+0
    outer loop
      vertex 0.000000e+0 0.000000e+0 4.088375e+1
      vertex -2.812500e-1 3.444319e-17 4.088375e+1
      vertex -1.406250e-1 -2.435696e-1 4.088375e+1
    endloop
  endfacet
  facet normal 9.868649e-17 1.000000e+0 0.000000e+0
    outer loop
      vertex -1.406250e-1 -2.435696e-1 4.064000e+1
      vertex -1.406250e-1 -2.435696e-1 4.088375e+1
      vertex 1.406250e-1 -2.435696e-1 4.064000e+1
    endloop
  endfacet
  facet normal 9.868649e-17 1.000000e+0 0.000000e+0
    outer loop
      vertex -1.406250e-1 -2.435696e-1 4.088375e+1
      vertex 1.406250e-1 -2.435696e-1 4.088375e+1
      vertex 1.406250e-1 -2.435696e-1 4.064000e+1
    endloop
  endfacet
  facet normal 0.000000e+0 0.000000e+0 -1.000000e+0
    outer loop
      vertex 0.000000e+0 0.000000e+0 4.064000e+1
      vertex 1.406250e-1 -2.435696e-1 4.064000e+1
      vertex -1.406250e-1 -2.435696e-1 4.064000e+1
    endloop
  endfacet
  facet normal 0.000000e+0 0.000000e+0 1.000000e+0
    outer loop
      vertex 0.000000e+0 0.000000e+0 4.088375e+1
      vertex -1.406250e-1 -2.435696e-1 4.088375e+1
      vertex 1.406250e-1 -2.435696e-1 4.088375e+1
    endloop
  endfacet
  facet normal -8.660254e-1 5.000000e-1 0.000000e+0
    outer loop
      vertex 1.406250e-1 -2.435696e-1 4.064000e+1
      vertex 1.406250e-1 -2.435696e-1 4.088375e+1
      vertex 2.812500e-1 -6.888638e-17 4.064000e+1
    endloop
  endfacet
  facet normal -8.660254e-1 5.000000e-1 0.000000e+0
    outer loop
      vertex 1.406250e-1 -2.435696e-1 4.088375e+1
      vertex 2.812500e-1 -6.888638e-17 4.088375e+1
      vertex 2.812500e-1 -6.888638e-17 4.064000e+1
    endloop
  endfacet
  facet normal 0.000000e+0 0.000000e+0 -1.000000e+0
    outer loop
      vertex 0.000000e+0 0.000000e+0 4.064000e+1
      vertex 2.812500e-1 -6.888638e-17 4.064000e+1
      vertex 1.406250e-1 -2.435696e-1 4.064000e+1
    endloop
  endfacet
  facet normal 0.000000e+0 0.000000e+0 1.000000e+0
    outer loop
      vertex 0.000000e+0 0.000000e+0 4.088375e+1
      vertex 1.406250e-1 -2.435696e-1 4.088375e+1
      vertex 2.812500e-1 -6.888638e-17 4.088375e+1
    endloop
  endfacet
endsolid an6-16a
