solid an7-10a
  facet normal -9.807853e-1 -1.950903e-1 0.000000e+0
    outer loop
      vertex 2.187500e-1 0.000000e+0 0.000000e+0
      vertex 2.187500e-1 0.000000e+0 2.540000e+1
      vertex 2.020986e-1 8.371200e-2 0.000000e+0
    endloop
  endfacet
  facet normal -9.807853e-1 -1.950903e-1 0.000000e+0
    outer loop
      vertex 2.187500e-1 0.000000e+0 2.540000e+1
      vertex 2.020986e-1 8.371200e-2 2.540000e+1
      vertex 2.020986e-1 8.371200e-2 0.000000e+0
    endloop
  endfacet
  facet normal 0.000000e+0 0.000000e+0 -1.000000e+0
    outer loop
      vertex 0.000000e+0 0.000000e+0 0.000000e+0
      vertex 2.020986e-1 8.371200e-2 0.000000e+0
      vertex 2.187500e-1 0.000000e+0 0.000000e+0
    endloop
  endfacet
  facet normal -8.314696e-1 -5.555702e-1 0.000000e+0
    outer loop
      vertex 2.020986e-1 8.371200e-2 0.000000e+0
      vertex 2.020986e-1 8.371200e-2 2.540000e+1
      vertex 1.546796e-1 1.546796e-1 0.000000e+0
    endloop
  endfacet
  facet normal -8.314696e-1 -5.555702e-1 0.000000e+0
    outer loop
      vertex 2.020986e-1 8.371200e-2 2.540000e+1
      vertex 1.546796e-1 1.546796e-1 2.540000e+1
      vertex 1.546796e-1 1.546796e-1 0.000000e+0
    endloop
  endfacet
  facet normal 0.000000e+0 0.000000e+0 -1.000000e+0
    outer loop
      vertex 0.000000e+0 0.000000e+0 0.000000e+0
      vertex 1.546796e-1 1.546796e-1 0.000000e+0
      vertex 2.020986e-1 8.371200e-2 0.000000e+0
    endloop
  endfacet
  facet normal -5.555702e-1 -8.314696e-1 0.000000e+0
    outer loop
      vertex 1.546796e-1 1.546796e-1 0.000000e+0
      vertex 1.546796e-1 1.546796e-1 2.540000e+1
      vertex 8.371200e-2 2.020986e-1 0.000000e+0
    endloop
  endfacet
  facet normal -5.555702e-1 -8.314696e-1 0.000000e+0
    outer loop
      vertex 1.546796e-1 1.546796e-1 2.540000e+1
      vertex 8.371200e-2 2.020986e-1 2.540000e+1
      vertex 8.371200e-2 2.020986e-1 0.000000e+0
    endloop
  endfacet
  facet normal 0.000000e+0 0.000000e+0 -1.000000e+0
    outer loop
      vertex 0.000000e+0 0.000000e+0 0.000000e+0
      vertex 8.371200e-2 2.020986e-1 0.000000e+0
      vertex 1.546796e-1 1.546796e-1 0.000000e+0
    endloop
  endfacet
  facet normal -1.950903e-1 -9.807853e-1 0.000000e+0
    outer loop
      vertex 8.371200e-2 2.020986e-1 0.000000e+0
      vertex 8.371200e-2 2.020986e-1 2.540000e+1
      vertex 1.339457e-17 2.187500e-1 0.000000e+0
    endloop
  endfacet
  facet normal -1.950903e-1 -9.807853e-1 0.000000e+0
    outer loop
      vertex 8.371200e-2 2.020986e-1 2.540000e+1
      vertex 1.339457e-17 2.187500e-1 2.540000e+1
      vertex 1.339457e-17 2.187500e-1 0.000000e+0
    endloop
  endfacet
  facet normal 0.000000e+0 0.000000e+0 -1.000000e+0
    outer loop
      vertex 0.000000e+0 0.000000e+0 0.000000e+0
      vertex 1.339457e-17 2.187500e-1 0.000000e+0
      vertex 8.371200e-2 2.020986e-1 0.000000e+0
    endloop
  endfacet
  facet normal 1.950903e-1 -9.807853e-1 0.000000e+0
    outer loop
      vertex 1.339457e-17 2.187500e-1 0.000000e+0
      vertex 1.339457e-17 2.187500e-1 2.540000e+1
      vertex -8.371200e-2 2.020986e-1 0.000000e+0
    endloop
  endfacet
  facet normal 1.950903e-1 -9.807853e-1 0.000000e+0
    outer loop
      vertex 1.339457e-17 2.187500e-1 2.540000e+1
      vertex -8.371200e-2 2.020986e-1 2.540000e+1
      vertex -8.371200e-2 2.020986e-1 0.000000e+0
    endloop
  endfacet
  facet normal 0.000000e+0 0.000000e+0 -1.000000e+0
    outer loop
      vertex 0.000000e+0 0.000000e+0 0.000000e+0
      vertex -8.371200e-2 2.020986e-1 0.000000e+0
      vertex 1.339457e-17 2.187500e-1 0.000000e+0
    endloop
  endfacet
  facet normal 5.555702e-1 -8.314696e-1 0.000000e+0
    outer loop
      vertex -8.371200e-2 2.020986e-1 0.000000e+0
      vertex -8.371200e-2 2.020986e-1 2.540000e+1
      vertex -1.546796e-1 1.546796e-1 0.000000e+0
    endloop
  endfacet
  facet normal 5.555702e-1 -8.314696e-1 0.000000e+0
    outer loop
      vertex -8.371200e-2 2.020986e-1 2.540000e+1
      vertex -1.546796e-1 1.546796e-1 2.540000e+1
      vertex -1.546796e-1 1.546796e-1 0.000000e+0
    endloop
  endfacet
  facet normal 0.000000e+0 0.000000e+0 -1.000000e+0
    outer loop
      vertex 0.000000e+0 0.000000e+0 0.000000e+0
      vertex -1.546796e-1 1.546796e-1 0.000000e+0
      vertex -8.371200e-2 2.020986e-1 0.000000e+0
    endloop
  endfacet
  facet normal 8.314696e-1 -5.555702e-1 0.000000e+0
    outer loop
      vertex -1.546796e-1 1.546796e-1 0.000000e+0
      vertex -1.546796e-1 1.546796e-1 2.540000e+1
      vertex -2.020986e-1 8.371200e-2 0.000000e+0
    endloop
  endfacet
  facet normal 8.314696e-1 -5.555702e-1 0.000000e+0
    outer loop
      vertex -1.546796e-1 1.546796e-1 2.540000e+1
      vertex -2.020986e-1 8.371200e-2 2.540000e+1
      vertex -2.020986e-1 8.371200e-2 0.000000e+0
    endloop
  endfacet
  facet normal 0.000000e+0 0.000000e+0 -1.000000e+0
    outer loop
      vertex 0.000000e+0 0.000000e+0 0.000000e+0
      vertex -2.020986e-1 8.371200e-2 0.000000e+0
      vertex -1.546796e-1 1.546796e-1 0.000000e+0
    endloop
  endfacet
  facet normal 9.807853e-1 -1.950903e-1 0.000000e+0
    outer loop
      vertex -2.020986e-1 8.371200e-2 0.000000e+0
      vertex -2.020986e-1 8.371200e-2 2.540000e+1
      vertex -2.187500e-1 2.678915e-17 0.000000e+0
    endloop
  endfacet
  facet normal 9.807853e-1 -1.950903e-1 0.000000e+0
    outer loop
      vertex -2.020986e-1 8.371200e-2 2.540000e+1
      vertex -2.187500e-1 2.678915e-17 2.540000e+1
      vertex -2.187500e-1 2.678915e-17 0.000000e+0
    endloop
  endfacet
  facet normal 0.000000e+0 0.000000e+0 -1.000000e+0
    outer loop
      vertex 0.000000e+0 0.000000e+0 0.000000e+0
      vertex -2.187500e-1 2.678915e-17 0.000000e+0
      vertex -2.020986e-1 8.371200e-2 0.000000e+0
    endloop
  endfacet
  facet normal 9.807853e-1 1.950903e-1 0.000000e+0
    outer loop
      vertex -2.187500e-1 2.678915e-17 0.000000e+0
      vertex -2.187500e-1 2.678915e-17 2.540000e+1
      vertex -2.020986e-1 -8.371200e-2 0.000000e+0
    endloop
  endfacet
  facet normal 9.807853e-1 1.950903e-1 0.000000e+0
    outer loop
      vertex -2.187500e-1 2.678915e-17 2.540000e+1
      vertex -2.020986e-1 -8.371200e-2 2.540000e+1
      vertex -2.020986e-1 -8.371200e-2 0.000000e+0
    endloop
  endfacet
  facet normal 0.000000e+0 0.000000e+0 -1.000000e+0
    outer loop
      vertex 0.000000e+0 0.000000e+0 0.000000e+0
      vertex -2.020986e-1 -8.371200e-2 0.000000e+0
      vertex -2.187500e-1 2.678915e-17 0.000000e+0
    endloop
  endfacet
  facet normal 8.314696e-1 5.555702e-1 0.000000e+0
    outer loop
      vertex -2.020986e-1 -8.371200e-2 0.000000e+0
      vertex -2.020986e-1 -8.371200e-2 2.540000e+1
      vertex -1.546796e-1 -1.546796e-1 0.000000e+0
    endloop
  endfacet
  facet normal 8.314696e-1 5.555702e-1 0.000000e+0
    outer loop
      vertex -2.020986e-1 -8.371200e-2 2.540000e+1
      vertex -1.546796e-1 -1.546796e-1 2.540000e+1
      vertex -1.546796e-1 -1.546796e-1 0.000000e+0
    endloop
  endfacet
  facet normal 0.000000e+0 0.000000e+0 -1.000000e+0
    outer loop
      vertex 0.000000e+0 0.000000e+0 0.000000e+0
      vertex -1.546796e-1 -1.546796e-1 0.000000e+0
      vertex -2.020986e-1 -8.371200e-2 0.000000e+0
    endloop
  endfacet
  facet normal 5.555702e-1 8.314696e-1 0.000000e+0
    outer loop
      vertex -1.546796e-1 -1.546796e-1 0.000000e+0
      vertex -1.546796e-1 -1.546796e-1 2.540000e+1
      vertex -8.371200e-2 -2.020986e-1 0.000000e+0
    endloop
  endfacet
  facet normal 5.555702e-1 8.314696e-1 0.000000e+0
    outer loop
      vertex -1.546796e-1 -1.546796e-1 2.540000e+1
      vertex -8.371200e-2 -2.020986e-1 2.540000e+1
      vertex -8.371200e-2 -2.020986e-1 0.000000e+0
    endloop
  endfacet
  facet normal 0.000000e+0 0.000000e+0 -1.000000e+0
    outer loop
      vertex 0.000000e+0 0.000000e+0 0.000000e+0
      vertex -8.371200e-2 -2.020986e-1 0.000000e+0
      vertex -1.546796e-1 -1.546796e-1 0.000000e+0
    endloop
  endfacet
  facet normal 1.950903e-1 9.807853e-1 0.000000e+0
    outer loop
      vertex -8.371200e-2 -2.020986e-1 0.000000e+0
      vertex -8.371200e-2 -2.020986e-1 2.540000e+1
      vertex -4.018372e-17 -2.187500e-1 0.000000e+0
    endloop
  endfacet
  facet normal 1.950903e-1 9.807853e-1 0.000000e+0
    outer loop
      vertex -8.371200e-2 -2.020986e-1 2.540000e+1
      vertex -4.018372e-17 -2.187500e-1 2.540000e+1
      vertex -4.018372e-17 -2.187500e-1 0.000000e+0
    endloop
  endfacet
  facet normal 0.000000e+0 0.000000e+0 -1.000000e+0
    outer loop
      vertex 0.000000e+0 0.000000e+0 0.000000e+0
      vertex -4.018372e-17 -2.187500e-1 0.000000e+0
      vertex -8.371200e-2 -2.020986e-1 0.000000e+0
    endloop
  endfacet
  facet normal -1.950903e-1 9.807853e-1 0.000000e+0
    outer loop
      vertex -4.018372e-17 -2.187500e-1 0.000000e+0
      vertex -4.018372e-17 -2.187500e-1 2.540000e+1
      vertex 8.371200e-2 -2.020986e-1 0.000000e+0
    endloop
  endfacet
  facet normal -1.950903e-1 9.807853e-1 0.000000e+0
    outer loop
      vertex -4.018372e-17 -2.187500e-1 2.540000e+1
      vertex 8.371200e-2 -2.020986e-1 2.540000e+1
      vertex 8.371200e-2 -2.020986e-1 0.000000e+0
    endloop
  endfacet
  facet normal 0.000000e+0 0.000000e+0 -1.000000e+0
    outer loop
      vertex 0.000000e+0 0.000000e+0 0.000000e+0
      vertex 8.371200e-2 -2.020986e-1 0.000000e+0
      vertex -4.018372e-17 -2.187500e-1 0.000000e+0
    endloop
  endfacet
  facet normal -5.555702e-1 8.314696e-1 0.000000e+0
    outer loop
      vertex 8.371200e-2 -2.020986e-1 0.000000e+0
      vertex 8.371200e-2 -2.020986e-1 2.540000e+1
      vertex 1.546796e-1 -1.546796e-1 0.000000e+0
    endloop
  endfacet
  facet normal -5.555702e-1 8.314696e-1 0.000000e+0
    outer loop
      vertex 8.371200e-2 -2.020986e-1 2.540000e+1
      vertex 1.546796e-1 -1.546796e-1 2.540000e+1
      vertex 1.546796e-1 -1.546796e-1 0.000000e+0
    endloop
  endfacet
  facet normal 0.000000e+0 0.000000e+0 -1.000000e+0
    outer loop
      vertex 0.000000e+0 0.000000e+0 0.000000e+0
      vertex 1.546796e-1 -1.546796e-1 0.000000e+0
      vertex 8.371200e-2 -2.020986e-1 0.000000e+0
    endloop
  endfacet
  facet normal -8.314696e-1 5.555702e-1 0.000000e+0
    outer loop
      vertex 1.546796e-1 -1.546796e-1 0.000000e+0
      vertex 1.546796e-1 -1.546796e-1 2.540000e+1
      vertex 2.020986e-1 -8.371200e-2 0.000000e+0
    endloop
  endfacet
  facet normal -8.314696e-1 5.555702e-1 0.000000e+0
    outer loop
      vertex 1.546796e-1 -1.546796e-1 2.540000e+1
      vertex 2.020986e-1 -8.371200e-2 2.540000e+1
      vertex 2.020986e-1 -8.371200e-2 0.000000e+0
    endloop
  endfacet
  facet normal 0.000000e+0 0.000000e+0 -1.000000e+0
    outer loop
      vertex 0.000000e+0 0.000000e+0 0.000000e+0
      vertex 2.020986e-1 -8.371200e-2 0.000000e+0
      vertex 1.546796e-1 -1.546796e-1 0.000000e+0
    endloop
  endfacet
  facet normal -9.807853e-1 1.950903e-1 0.000000e+0
    outer loop
      vertex 2.020986e-1 -8.371200e-2 0.000000e+0
      vertex 2.020986e-1 -8.371200e-2 2.540000e+1
      vertex 2.187500e-1 -5.357830e-17 0.000000e+0
    endloop
  endfacet
  facet normal -9.807853e-1 1.950903e-1 0.000000e+0
    outer loop
      vertex 2.020986e-1 -8.371200e-2 2.540000e+1
      vertex 2.187500e-1 -5.357830e-17 2.540000e+1
      vertex 2.187500e-1 -5.357830e-17 0.000000e+0
    endloop
  endfacet
  facet normal 0.000000e+0 0.000000e+0 -1.000000e+0
    outer loop
      vertex 0.000000e+0 0.000000e+0 0.000000e+0
      vertex 2.187500e-1 -5.357830e-17 0.000000e+0
      vertex 2.020986e-1 -8.371200e-2 0.000000e+0
    endloop
  endfacet
  facet normal 0.000000e+0 0.000000e+0 -1.000000e+0
    outer loop
      vertex 3.281250e-1 0.000000e+0 2.540000e+1
      vertex 2.187500e-1 0.000000e+0 2.540000e+1
      vertex 3.031480e-1 1.255680e-1 2.540000e+1
    endloop
  endfacet
  facet normal 0.000000e+0 0.000000e+0 -1.000000e+0
    outer loop
      vertex 3.031480e-1 1.255680e-1 2.540000e+1
      vertex 2.187500e-1 0.000000e+0 2.540000e+1
      vertex 2.020986e-1 8.371200e-2 2.540000e+1
    endloop
  endfacet
  facet normal 0.000000e+0 0.000000e+0 -1.000000e+0
    outer loop
      vertex 3.031480e-1 1.255680e-1 2.540000e+1
      vertex 2.020986e-1 8.371200e-2 2.540000e+1
      vertex 2.320194e-1 2.320194e-1 2.540000e+1
    endloop
  endfacet
  facet normal 0.000000e+0 0.000000e+0 -1.000000e+0
    outer loop
      vertex 2.320194e-1 2.320194e-1 2.540000e+1
      vertex 2.020986e-1 8.371200e-2 2.540000e+1
      vertex 1.546796e-1 1.546796e-1 2.540000e+1
    endloop
  endfacet
  facet normal 0.000000e+0 0.000000e+0 -1.000000e+0
    outer loop
      vertex 2.320194e-1 2.320194e-1 2.540000e+1
      vertex 1.546796e-1 1.546796e-1 2.540000e+1
      vertex 1.255680e-1 3.031480e-1 2.540000e+1
    endloop
  endfacet
  facet normal 0.000000e+0 0.000000e+0 -1.000000e+0
    outer loop
      vertex 1.255680e-1 3.031480e-1 2.540000e+1
      vertex 1.546796e-1 1.546796e-1 2.540000e+1
      vertex 8.371200e-2 2.020986e-1 2.540000e+1
    endloop
  endfacet
  facet normal 0.000000e+0 0.000000e+0 -1.000000e+0
    outer loop
      vertex 1.255680e-1 3.031480e-1 2.540000e+1
      vertex 8.371200e-2 2.020986e-1 2.540000e+1
      vertex 2.009186e-17 3.281250e-1 2.540000e+1
    endloop
  endfacet
  facet normal 0.000000e+0 0.000000e+0 -1.000000e+0
    outer loop
      vertex 2.009186e-17 3.281250e-1 2.540000e+1
      vertex 8.371200e-2 2.020986e-1 2.540000e+1
      vertex 1.339457e-17 2.187500e-1 2.540000e+1
    endloop
  endfacet
  facet normal 0.000000e+0 0.000000e+0 -1.000000e+0
    outer loop
      vertex 2.009186e-17 3.281250e-1 2.540000e+1
      vertex 1.339457e-17 2.187500e-1 2.540000e+1
      vertex -1.255680e-1 3.031480e-1 2.540000e+1
    endloop
  endfacet
  facet normal 0.000000e+0 0.000000e+0 -1.000000e+0
    outer loop
      vertex -1.255680e-1 3.031480e-1 2.540000e+1
      vertex 1.339457e-17 2.187500e-1 2.540000e+1
      vertex -8.371200e-2 2.020986e-1 2.540000e+1
    endloop
  endfacet
  facet normal 0.000000e+0 0.000000e+0 -1.000000e+0
    outer loop
      vertex -1.255680e-1 3.031480e-1 2.540000e+1
      vertex -8.371200e-2 2.020986e-1 2.540000e+1
      vertex -2.320194e-1 2.320194e-1 2.540000e+1
    endloop
  endfacet
  facet normal 0.000000e+0 0.000000e+0 -1.000000e+0
    outer loop
      vertex -2.320194e-1 2.320194e-1 2.540000e+1
      vertex -8.371200e-2 2.020986e-1 2.540000e+1
      vertex -1.546796e-1 1.546796e-1 2.540000e+1
    endloop
  endfacet
  facet normal 0.000000e+0 0.000000e+0 -1.000000e+0
    outer loop
      vertex -2.320194e-1 2.320194e-1 2.540000e+1
      vertex -1.546796e-1 1.546796e-1 2.540000e+1
      vertex -3.031480e-1 1.255680e-1 2.540000e+1
    endloop
  endfacet
  facet normal 0.000000e+0 0.000000e+0 -1.000000e+0
    outer loop
      vertex -3.031480e-1 1.255680e-1 2.540000e+1
      vertex -1.546796e-1 1.546796e-1 2.540000e+1
      vertex -2.020986e-1 8.371200e-2 2.540000e+1
    endloop
  endfacet
  facet normal 0.000000e+0 0.000000e+0 -1.000000e+0
    outer loop
      vertex -3.031480e-1 1.255680e-1 2.540000e+1
      vertex -2.020986e-1 8.371200e-2 2.540000e+1
      vertex -3.281250e-1 4.018372e-17 2.540000e+1
    endloop
  endfacet
  facet normal 0.000000e+0 0.000000e+0 -1.000000e+0
    outer loop
      vertex -3.281250e-1 4.018372e-17 2.540000e+1
      vertex -2.020986e-1 8.371200e-2 2.540000e+1
      vertex -2.187500e-1 2.678915e-17 2.540000e+1
    endloop
  endfacet
  facet normal 0.000000e+0 0.000000e+0 -1.000000e+0
    outer loop
      vertex -3.281250e-1 4.018372e-17 2.540000e+1
      vertex -2.187500e-1 2.678915e-17 2.540000e+1
      vertex -3.031480e-1 -1.255680e-1 2.540000e+1
    endloop
  endfacet
  facet normal 0.000000e+0 0.000000e+0 -1.000000e+0
    outer loop
      vertex -3.031480e-1 -1.255680e-1 2.540000e+1
      vertex -2.187500e-1 2.678915e-17 2.540000e+1
      vertex -2.020986e-1 -8.371200e-2 2.540000e+1
    endloop
  endfacet
  facet normal 0.000000e+0 0.000000e+0 -1.000000e+0
    outer loop
      vertex -3.031480e-1 -1.255680e-1 2.540000e+1
      vertex -2.020986e-1 -8.371200e-2 2.540000e+1
      vertex -2.320194e-1 -2.320194e-1 2.540000e+1
    endloop
  endfacet
  facet normal 0.000000e+0 0.000000e+0 -1.000000e+0
    outer loop
      vertex -2.320194e-1 -2.320194e-1 2.540000e+1
      vertex -2.020986e-1 -8.371200e-2 2.540000e+1
      vertex -1.546796e-1 -1.546796e-1 2.540000e+1
    endloop
  endfacet
  facet normal 0.000000e+0 0.000000e+0 -1.000000e+0
    outer loop
      vertex -2.320194e-1 -2.320194e-1 2.540000e+1
      vertex -1.546796e-1 -1.546796e-1 2.540000e+1
      vertex -1.255680e-1 -3.031480e-1 2.540000e+1
    endloop
  endfacet
  facet normal 0.000000e+0 0.000000e+0 -1.000000e+0
    outer loop
      vertex -1.255680e-1 -3.031480e-1 2.540000e+1
      vertex -1.546796e-1 -1.546796e-1 2.540000e+1
      vertex -8.371200e-2 -2.020986e-1 2.540000e+1
    endloop
  endfacet
  facet normal 0.000000e+0 0.000000e+0 -1.000000e+0
    outer loop
      vertex -1.255680e-1 -3.031480e-1 2.540000e+1
      vertex -8.371200e-2 -2.020986e-1 2.540000e+1
      vertex -6.027558e-17 -3.281250e-1 2.540000e+1
    endloop
  endfacet
  facet normal 0.000000e+0 0.000000e+0 -1.000000e+0
    outer loop
      vertex -6.027558e-17 -3.281250e-1 2.540000e+1
      vertex -8.371200e-2 -2.020986e-1 2.540000e+1
      vertex -4.018372e-17 -2.187500e-1 2.540000e+1
    endloop
  endfacet
  facet normal 0.000000e+0 0.000000e+0 -1.000000e+0
    outer loop
      vertex -6.027558e-17 -3.281250e-1 2.540000e+1
      vertex -4.018372e-17 -2.187500e-1 2.540000e+1
      vertex 1.255680e-1 -3.031480e-1 2.540000e+1
    endloop
  endfacet
  facet normal 0.000000e+0 0.000000e+0 -1.000000e+0
    outer loop
      vertex 1.255680e-1 -3.031480e-1 2.540000e+1
      vertex -4.018372e-17 -2.187500e-1 2.540000e+1
      vertex 8.371200e-2 -2.020986e-1 2.540000e+1
    endloop
  endfacet
  facet normal 0.000000e+0 0.000000e+0 -1.000000e+0
    outer loop
      vertex 1.255680e-1 -3.031480e-1 2.540000e+1
      vertex 8.371200e-2 -2.020986e-1 2.540000e+1
      vertex 2.320194e-1 -2.320194e-1 2.540000e+1
    endloop
  endfacet
  facet normal 0.000000e+0 0.000000e+0 -1.000000e+0
    outer loop
      vertex 2.320194e-1 -2.320194e-1 2.540000e+1
      vertex 8.371200e-2 -2.020986e-1 2.540000e+1
      vertex 1.546796e-1 -1.546796e-1 2.540000e+1
    endloop
  endfacet
  facet normal 0.000000e+0 0.000000e+0 -1.000000e+0
    outer loop
      vertex 2.320194e-1 -2.320194e-1 2.540000e+1
      vertex 1.546796e-1 -1.546796e-1 2.540000e+1
      vertex 3.031480e-1 -1.255680e-1 2.540000e+1
    endloop
  endfacet
  facet normal 0.000000e+0 0.000000e+0 -1.000000e+0
    outer loop
      vertex 3.031480e-1 -1.255680e-1 2.540000e+1
      vertex 1.546796e-1 -1.546796e-1 2.540000e+1
      vertex 2.020986e-1 -8.371200e-2 2.540000e+1
    endloop
  endfacet
  facet normal 0.000000e+0 0.000000e+0 -1.000000e+0
    outer loop
      vertex 3.031480e-1 -1.255680e-1 2.540000e+1
      vertex 2.020986e-1 -8.371200e-2 2.540000e+1
      vertex 3.281250e-1 -8.036745e-17 2.540000e+1
    endloop
  endfacet
  facet normal 0.000000e+0 0.000000e+0 -1.000000e+0
    outer loop
      vertex 3.281250e-1 -8.036745e-17 2.540000e+1
      vertex 2.020986e-1 -8.371200e-2 2.540000e+1
      vertex 2.187500e-1 -5.357830e-17 2.540000e+1
    endloop
  endfacet
  facet normal -8.660254e-1 -5.000000e-1 0.000000e+0
    outer loop
      vertex 3.281250e-1 0.000000e+0 2.540000e+1
      vertex 3.281250e-1 0.000000e+0 2.568437e+1
      vertex 1.640625e-1 2.841646e-1 2.540000e+1
    endloop
  endfacet
  facet normal -8.660254e-1 -5.000000e-1 0.000000e+0
    outer loop
      vertex 3.281250e-1 0.000000e+0 2.568437e+1
      vertex 1.640625e-1 2.841646e-1 2.568437e+1
      vertex 1.640625e-1 2.841646e-1 2.540000e+1
    endloop
  endfacet
  facet normal 0.000000e+0 0.000000e+0 1.000000e+0
    outer loop
      vertex 0.000000e+0 0.000000e+0 2.568437e+1
      vertex 3.281250e-1 0.000000e+0 2.568437e+1
      vertex 1.640625e-1 2.841646e-1 2.568437e+1
    endloop
  endfacet
  facet normal 0.000000e+0 -1.000000e+0 0.000000e+0
    outer loop
      vertex 1.640625e-1 2.841646e-1 2.540000e+1
      vertex 1.640625e-1 2.841646e-1 2.568437e+1
      vertex -1.640625e-1 2.841646e-1 2.540000e+1
    endloop
  endfacet
  facet normal 0.000000e+0 -1.000000e+0 0.000000e+0
    outer loop
      vertex 1.640625e-1 2.841646e-1 2.568437e+1
      vertex -1.640625e-1 2.841646e-1 2.568437e+1
      vertex -1.640625e-1 2.841646e-1 2.540000e+1
    endloop
  endfacet
  facet normal 0.000000e+0 0.000000e+0 1.000000e+0
    outer loop
      vertex 0.000000e+0 0.000000e+0 2.568437e+1
      vertex 1.640625e-1 2.841646e-1 2.568437e+1
      vertex -1.640625e-1 2.841646e-1 2.568437e+1
    endloop
  endfacet
  facet normal 8.660254e-1 -5.000000e-1 0.000000e+0
    outer loop
      vertex -1.640625e-1 2.841646e-1 2.540000e+1
      vertex -1.640625e-1 2.841646e-1 2.568437e+1
      vertex -3.281250e-1 4.018372e-17 2.540000e+1
    endloop
  endfacet
  facet normal 8.660254e-1 -5.000000e-1 0.000000e+0
    outer loop
      vertex -1.640625e-1 2.841646e-1 2.568437e+1
      vertex -3.281250e-1 4.018372e-17 2.568437e+1
      vertex -3.281250e-1 4.018372e-17 2.540000e+1
    endloop
  endfacet
  facet normal 0.000000e+0 0.000000e+0 1.000000e+0
    outer loop
      vertex 0.000000e+0 0.000000e+0 2.568437e+1
      vertex -1.640625e-1 2.841646e-1 2.568437e+1
      vertex -3.281250e-1 4.018372e-17 2.568437e+1
    endloop
  endfacet
  facet normal 8.660254e-1 5.000000e-1 0.000000e+0
    outer loop
      vertex -3.281250e-1 4.018372e-17 2.540000e+1
      vertex -3.281250e-1 4.018372e-17 2.568437e+1
      vertex -1.640625e-1 -2.841646e-1 2.540000e+1
    endloop
  endfacet
  facet normal 8.660254e-1 5.000000e-1 0.000000e+0
    outer loop
      vertex -3.281250e-1 4.018372e-17 2.568437e+1
      vertex -1.640625e-1 -2.841646e-1 2.568437e+1
      vertex -1.640625e-1 -2.841646e-1 2.540000e+1
    endloop
  endfacet
  facet normal 0.000000e+0 0.000000e+0 1.000000e+0
    outer loop
      vertex 0.000000e+0 0.000000e+0 2.568437e+1
      vertex -3.281250e-1 4.018372e-17 2.568437e+1
      vertex -1.640625e-1 -2.841646e-1 2.568437e+1
    endloop
  endfacet
  facet normal 1.691768e-16 1.000000e+0 0.000000e+0
    outer loop
      vertex -1.640625e-1 -2.841646e-1 2.540000e+1
      vertex -1.640625e-1 -2.841646e-1 2.568437e+1
      vertex 1.640625e-1 -2.841646e-1 2.540000e+1
    endloop
  endfacet
  facet normal 1.691768e-16 1.000000e+0 0.000000e+0
    outer loop
      vertex -1.640625e-1 -2.841646e-1 2.568437e+1
      vertex 1.640625e-1 -2.841646e-1 2.568437e+1
      vertex 1.640625e-1 -2.841646e-1 2.540000e+1
    endloop
  endfacet
  facet normal 0.000000e+0 0.000000e+0 1.000000e+0
    outer loop
      vertex 0.000000e+0 0.000000e+0 2.568437e+1
      vertex -1.640625e-1 -2.841646e-1 2.568437e+1
      vertex 1.640625e-1 -2.841646e-1 2.568437e+1
    endloop
  endfacet
  facet normal -8.660254e-1 5.000000e-1 0.000000e+0
    outer loop
      vertex 1.640625e-1 -2.841646e-1 2.540000e+1
      vertex 1.640625e-1 -2.841646e-1 2.568437e+1
      vertex 3.281250e-1 -8.036745e-17 2.540000e+1
    endloop
  endfacet
  facet normal -8.660254e-1 5.000000e-1 0.000000e+0
    outer loop
      vertex 1.640625e-1 -2.841646e-1 2.568437e+1
      vertex 3.281250e-1 -8.036745e-17 2.568437e+1
      vertex 3.281250e-1 -8.036745e-17 2.540000e+1
    endloop
  endfacet
  facet normal 0.000000e+0 0.000000e+0 1.000000e+0
    outer loop
      vertex 0.000000e+0 0.000000e+0 2.568437e+1
      vertex 1.640625e-1 -2.841646e-1 2.568437e+1
      vertex 3.281250e-1 -8.036745e-17 2.568437e+1
    endloop
  endfacet
endsolid an7-10a
