solid iso-4762-m3-12
  facet normal -9.807853e-1 -1.950903e-1 0.000000e+0
    outer loop
      vertex 1.500000e+0 0.000000e+0 0.000000e+0
      vertex 1.500000e+0 0.000000e+0 1.200000e+1
      vertex 1.385819e+0 5.740251e-1 0.000000e+0
    endloop
  endfacet
  facet normal -9.807853e-1 -1.950903e-1 0.000000e+0
    outer loop
      vertex 1.500000e+0 0.000000e+0 1.200000e+1
      vertex 1.385819e+0 5.740251e-1 1.200000e+1
      vertex 1.385819e+0 5.740251e-1 0.000000e+0
    endloop
  endfacet
  facet normal -8.314696e-1 -5.555702e-1 0.000000e+0
    outer loop
      vertex 1.385819e+0 5.740251e-1 0.000000e+0
      vertex 1.385819e+0 5.740251e-1 1.200000e+1
      vertex 1.060660e+0 1.060660e+0 0.000000e+0
    endloop
  endfacet
  facet normal -8.314696e-1 -5.555702e-1 0.000000e+0
    outer loop
      vertex 1.385819e+0 5.740251e-1 1.200000e+1
      vertex 1.060660e+0 1.060660e+0 1.200000e+1
      vertex 1.060660e+0 1.060660e+0 0.000000e+0
    endloop
  endfacet
  facet normal -5.555702e-1 -8.314696e-1 0.000000e+0
    outer loop
      vertex 1.060660e+0 1.060660e+0 0.000000e+0
      vertex 1.060660e+0 1.060660e+0 1.200000e+1
      vertex 5.740251e-1 1.385819e+0 0.000000e+0
    endloop
  endfacet
  facet normal -5.555702e-1 -8.314696e-1 0.000000e+0
    outer loop
      vertex 1.060660e+0 1.060660e+0 1.200000e+1
      vertex 5.740251e-1 1.385819e+0 1.200000e+1
      vertex 5.740251e-1 1.385819e+0 0.000000e+0
    endloop
  endfacet
  facet normal -1.950903e-1 -9.807853e-1 0.000000e+0
    outer loop
      vertex 5.740251e-1 1.385819e+0 0.000000e+0
      vertex 5.740251e-1 1.385819e+0 1.200000e+1
      vertex 0.000000e+0 1.500000e+0 0.000000e+0
    endloop
  endfacet
  facet normal -1.950903e-1 -9.807853e-1 0.000000e+0
    outer loop
      vertex 5.740251e-1 1.385819e+0 1.200000e+1
      vertex 0.000000e+0 1.500000e+0 1.200000e+1
      vertex 0.000000e+0 1.500000e+0 0.000000e+0
    endloop
  endfacet
  facet normal 1.950903e-1 -9.807853e-1 0.000000e+0
    outer loop
      vertex 0.000000e+0 1.500000e+0 0.000000e+0
      vertex 0.000000e+0 1.500000e+0 1.200000e+1
      vertex -5.740251e-1 1.385819e+0 0.000000e+0
    endloop
  endfacet
  facet normal 1.950903e-1 -9.807853e-1 0.000000e+0
    outer loop
      vertex 0.000000e+0 1.500000e+0 1.200000e+1
      vertex -5.740251e-1 1.385819e+0 1.200000e+1
      vertex -5.740251e-1 1.385819e+0 0.000000e+0
    endloop
  endfacet
  facet normal 5.555702e-1 -8.314696e-1 0.000000e+0
    outer loop
      vertex -5.740251e-1 1.385819e+0 0.000000e+0
      vertex -5.740251e-1 1.385819e+0 1.200000e+1
      vertex -1.060660e+0 1.060660e+0 0.000000e+0
    endloop
  endfacet
  facet normal 5.555702e-1 -8.314696e-1 0.000000e+0
    outer loop
      vertex -5.740251e-1 1.385819e+0 1.200000e+1
      vertex -1.060660e+0 1.060660e+0 1.200000e+1
      vertex -1.060660e+0 1.060660e+0 0.000000e+0
    endloop
  endfacet
  facet normal 8.314696e-1 -5.555702e-1 0.000000e+0
    outer loop
      vertex -1.060660e+0 1.060660e+0 0.000000e+0
      vertex -1.060660e+0 1.060660e+0 1.200000e+1
      vertex -1.385819e+0 5.740251e-1 0.000000e+0
    endloop
  endfacet
  facet normal 8.314696e-1 -5.555702e-1 0.000000e+0
    outer loop
      vertex -1.060660e+0 1.060660e+0 1.200000e+1
      vertex -1.385819e+0 5.740251e-1 1.200000e+1
      vertex -1.385819e+0 5.740251e-1 0.000000e+0
    endloop
  endfacet
  facet normal 9.807853e-1 -1.950903e-1 0.000000e+0
    outer loop
      vertex -1.385819e+0 5.740251e-1 0.000000e+0
      vertex -1.385819e+0 5.740251e-1 1.200000e+1
      vertex -1.500000e+0 0.000000e+0 0.000000e+0
    endloop
  endfacet
  facet normal 9.807853e-1 -1.950903e-1 0.000000e+0
    outer loop
      vertex -1.385819e+0 5.740251e-1 1.200000e+1
      vertex -1.500000e+0 0.000000e+0 1.200000e+1
      vertex -1.500000e+0 0.000000e+0 0.000000e+0
    endloop
  endfacet
  facet normal 9.807853e-1 1.950903e-1 0.000000e+0
    outer loop
      vertex -1.500000e+0 0.000000e+0 0.000000e+0
      vertex -1.500000e+0 0.000000e+0 1.200000e+1
      vertex -1.385819e+0 -5.740251e-1 0.000000e+0
    endloop
  endfacet
  facet normal 9.807853e-1 1.950903e-1 0.000000e+0
    outer loop
      vertex -1.500000e+0 0.000000e+0 1.200000e+1
      vertex -1.385819e+0 -5.740251e-1 1.200000e+1
      vertex -1.385819e+0 -5.740251e-1 0.000000e+0
    endloop
  endfacet
  facet normal 8.314696e-1 5.555702e-1 0.000000e+0
    outer loop
      vertex -1.385819e+0 -5.740251e-1 0.000000e+0
      vertex -1.385819e+0 -5.740251e-1 1.200000e+1
      vertex -1.060660e+0 -1.060660e+0 0.000000e+0
    endloop
  endfacet
  facet normal 8.314696e-1 5.555702e-1 0.000000e+0
    outer loop
      vertex -1.385819e+0 -5.740251e-1 1.200000e+1
      vertex -1.060660e+0 -1.060660e+0 1.200000e+1
      vertex -1.060660e+0 -1.060660e+0 0.000000e+0
    endloop
  endfacet
  facet normal 5.555702e-1 8.314696e-1 0.000000e+0
    outer loop
      vertex -1.060660e+0 -1.060660e+0 0.000000e+0
      vertex -1.060660e+0 -1.060660e+0 1.200000e+1
      vertex -5.740251e-1 -1.385819e+0 0.000000e+0
    endloop
  endfacet
  facet normal 5.555702e-1 8.314696e-1 0.000000e+0
    outer loop
      vertex -1.060660e+0 -1.060660e+0 1.200000e+1
      vertex -5.740251e-1 -1.385819e+0 1.200000e+1
      vertex -5.740251e-1 -1.385819e+0 0.000000e+0
    endloop
  endfacet
  facet normal 1.950903e-1 9.807853e-1 0.000000e+0
    outer loop
      vertex -5.740251e-1 -1.385819e+0 0.000000e+0
      vertex -5.740251e-1 -1.385819e+0 1.200000e+1
      vertex 0.000000e+0 -1.500000e+0 0.000000e+0
    endloop
  endfacet
  facet normal 1.950903e-1 9.807853e-1 0.000000e+0
    outer loop
      vertex -5.740251e-1 -1.385819e+0 1.200000e+1
      vertex 0.000000e+0 -1.500000e+0 1.200000e+1
      vertex 0.000000e+0 -1.500000e+0 0.000000e+0
    endloop
  endfacet
  facet normal -1.950903e-1 9.807853e-1 0.000000e+0
    outer loop
      vertex 0.000000e+0 -1.500000e+0 0.000000e+0
      vertex 0.000000e+0 -1.500000e+0 1.200000e+1
      vertex 5.740251e-1 -1.385819e+0 0.000000e+0
    endloop
  endfacet
  facet normal -1.950903e-1 9.807853e-1 0.000000e+0
    outer loop
      vertex 0.000000e+0 -1.500000e+0 1.200000e+1
      vertex 5.740251e-1 -1.385819e+0 1.200000e+1
      vertex 5.740251e-1 -1.385819e+0 0.000000e+0
    endloop
  endfacet
  facet normal -5.555702e-1 8.314696e-1 0.000000e+0
    outer loop
      vertex 5.740251e-1 -1.385819e+0 0.000000e+0
      vertex 5.740251e-1 -1.385819e+0 1.200000e+1
      vertex 1.060660e+0 -1.060660e+0 0.000000e+0
    endloop
  endfacet
  facet normal -5.555702e-1 8.314696e-1 0.000000e+0
    outer loop
      vertex 5.740251e-1 -1.385819e+0 1.200000e+1
      vertex 1.060660e+0 -1.060660e+0 1.200000e+1
      vertex 1.060660e+0 -1.060660e+0 0.000000e+0
    endloop
  endfacet
  facet normal -8.314696e-1 5.555702e-1 0.000000e+0
    outer loop
      vertex 1.060660e+0 -1.060660e+0 0.000000e+0
      vertex 1.060660e+0 -1.060660e+0 1.200000e+1
      vertex 1.385819e+0 -5.740251e-1 0.000000e+0
    endloop
  endfacet
  facet normal -8.314696e-1 5.555702e-1 0.000000e+0
    outer loop
      vertex 1.060660e+0 -1.060660e+0 1.200000e+1
      vertex 1.385819e+0 -5.740251e-1 1.200000e+1
      vertex 1.385819e+0 -5.740251e-1 0.000000e+0
    endloop
  endfacet
  facet normal -9.807853e-1 1.950903e-1 0.000000e+0
    outer loop
      vertex 1.385819e+0 -5.740251e-1 0.000000e+0
      vertex 1.385819e+0 -5.740251e-1 1.200000e+1
      vertex 1.500000e+0 0.000000e+0 0.000000e+0
    endloop
  endfacet
  facet normal -9.807853e-1 1.950903e-1 0.000000e+0
    outer loop
      vertex 1.385819e+0 -5.740251e-1 1.200000e+1
      vertex 1.500000e+0 0.000000e+0 1.200000e+1
      vertex 1.500000e+0 0.000000e+0 0.000000e+0
    endloop
  endfacet
  facet normal 0.000000e+0 0.000000e+0 -1.000000e+0
    outer loop
      vertex 0.000000e+0 0.000000e+0 0.000000e+0
      vertex 1.385819e+0 5.740251e-1 0.000000e+0
      vertex 1.500000e+0 0.000000e+0 0.000000e+0
    endloop
  endfacet
  facet normal 0.000000e+0 0.000000e+0 -1.000000e+0
    outer loop
      vertex 0.000000e+0 0.000000e+0 0.000000e+0
      vertex 1.060660e+0 1.060660e+0 0.000000e+0
      vertex 1.385819e+0 5.740251e-1 0.000000e+0
    endloop
  endfacet
  facet normal 0.000000e+0 0.000000e+0 -1.000000e+0
    outer loop
      vertex 0.000000e+0 0.000000e+0 0.000000e+0
      vertex 5.740251e-1 1.385819e+0 0.000000e+0
      vertex 1.060660e+0 1.060660e+0 0.000000e+0
    endloop
  endfacet
  facet normal 0.000000e+0 0.000000e+0 -1.000000e+0
    outer loop
      vertex 0.000000e+0 0.000000e+0 0.000000e+0
      vertex 0.000000e+0 1.500000e+0 0.000000e+0
      vertex 5.740251e-1 1.385819e+0 0.000000e+0
    endloop
  endfacet
  facet normal 0.000000e+0 0.000000e+0 -1.000000e+0
    outer loop
      vertex 0.000000e+0 0.000000e+0 0.000000e+0
      vertex -5.740251e-1 1.385819e+0 0.000000e+0
      vertex 0.000000e+0 1.500000e+0 0.000000e+0
    endloop
  endfacet
  facet normal 0.000000e+0 0.000000e+0 -1.000000e+0
    outer loop
      vertex 0.000000e+0 0.000000e+0 0.000000e+0
      vertex -1.060660e+0 1.060660e+0 0.000000e+0
      vertex -5.740251e-1 1.385819e+0 0.000000e+0
    endloop
  endfacet
  facet normal 0.000000e+0 0.000000e+0 -1.000000e+0
    outer loop
      vertex 0.000000e+0 0.000000e+0 0.000000e+0
      vertex -1.385819e+0 5.740251e-1 0.000000e+0
      vertex -1.060660e+0 1.060660e+0 0.000000e+0
    endloop
  endfacet
  facet normal 0.000000e+0 0.000000e+0 -1.000000e+0
    outer loop
      vertex 0.000000e+0 0.000000e+0 0.000000e+0
      vertex -1.500000e+0 0.000000e+0 0.000000e+0
      vertex -1.385819e+0 5.740251e-1 0.000000e+0
    endloop
  endfacet
  facet normal 0.000000e+0 0.000000e+0 -1.000000e+0
    outer loop
      vertex 0.000000e+0 0.000000e+0 0.000000e+0
      vertex -1.385819e+0 -5.740251e-1 0.000000e+0
      vertex -1.500000e+0 0.000000e+0 0.000000e+0
    endloop
  endfacet
  facet normal 0.000000e+0 0.000000e+0 -1.000000e+0
    outer loop
      vertex 0.000000e+0 0.000000e+0 0.000000e+0
      vertex -1.060660e+0 -1.060660e+0 0.000000e+0
      vertex -1.385819e+0 -5.740251e-1 0.000000e+0
    endloop
  endfacet
  facet normal 0.000000e+0 0.000000e+0 -1.000000e+0
    outer loop
      vertex 0.000000e+0 0.000000e+0 0.000000e+0
      vertex -5.740251e-1 -1.385819e+0 0.000000e+0
      vertex -1.060660e+0 -1.060660e+0 0.000000e+0
    endloop
  endfacet
  facet normal 0.000000e+0 0.000000e+0 -1.000000e+0
    outer loop
      vertex 0.000000e+0 0.000000e+0 0.000000e+0
      vertex 0.000000e+0 -1.500000e+0 0.000000e+0
      vertex -5.740251e-1 -1.385819e+0 0.000000e+0
    endloop
  endfacet
  facet normal 0.000000e+0 0.000000e+0 -1.000000e+0
    outer loop
      vertex 0.000000e+0 0.000000e+0 0.000000e+0
      vertex 5.740251e-1 -1.385819e+0 0.000000e+0
      vertex 0.000000e+0 -1.500000e+0 0.000000e+0
    endloop
  endfacet
  facet normal 0.000000e+0 0.000000e+0 -1.000000e+0
    outer loop
      vertex 0.000000e+0 0.000000e+0 0.000000e+0
      vertex 1.060660e+0 -1.060660e+0 0.000000e+0
      vertex 5.740251e-1 -1.385819e+0 0.000000e+0
    endloop
  endfacet
  facet normal 0.000000e+0 0.000000e+0 -1.000000e+0
    outer loop
      vertex 0.000000e+0 0.000000e+0 0.000000e+0
      vertex 1.385819e+0 -5.740251e-1 0.000000e+0
      vertex 1.060660e+0 -1.060660e+0 0.000000e+0
    endloop
  endfacet
  facet normal 0.000000e+0 0.000000e+0 -1.000000e+0
    outer loop
      vertex 0.000000e+0 0.000000e+0 0.000000e+0
      vertex 1.500000e+0 0.000000e+0 0.000000e+0
      vertex 1.385819e+0 -5.740251e-1 0.000000e+0
    endloop
  endfacet
  facet normal 0.000000e+0 0.000000e+0 -1.000000e+0
    outer loop
      vertex 2.750000e+0 0.000000e+0 1.200000e+1
      vertex 1.500000e+0 0.000000e+0 1.200000e+1
      vertex 2.540669e+0 1.052379e+0 1.200000e+1
    endloop
  endfacet
  facet normal 0.000000e+0 0.000000e+0 -1.000000e+0
    outer loop
      vertex 2.540669e+0 1.052379e+0 1.200000e+1
      vertex 1.500000e+0 0.000000e+0 1.200000e+1
      vertex 1.385819e+0 5.740251e-1 1.200000e+1
    endloop
  endfacet
  facet normal 0.000000e+0 0.000000e+0 -1.000000e+0
    outer loop
      vertex 2.540669e+0 1.052379e+0 1.200000e+1
      vertex 1.385819e+0 5.740251e-1 1.200000e+1
      vertex 1.944544e+0 1.944544e+0 1.200000e+1
    endloop
  endfacet
  facet normal 0.000000e+0 0.000000e+0 -1.000000e+0
    outer loop
      vertex 1.944544e+0 1.944544e+0 1.200000e+1
      vertex 1.385819e+0 5.740251e-1 1.200000e+1
      vertex 1.060660e+0 1.060660e+0 1.200000e+1
    endloop
  endfacet
  facet normal 0.000000e+0 0.000000e+0 -1.000000e+0
    outer loop
      vertex 1.944544e+0 1.944544e+0 1.200000e+1
      vertex 1.060660e+0 1.060660e+0 1.200000e+1
      vertex 1.052379e+0 2.540669e+0 1.200000e+1
    endloop
  endfacet
  facet normal 0.000000e+0 0.000000e+0 -1.000000e+0
    outer loop
      vertex 1.052379e+0 2.540669e+0 1.200000e+1
      vertex 1.060660e+0 1.060660e+0 1.200000e+1
      vertex 5.740251e-1 1.385819e+0 1.200000e+1
    endloop
  endfacet
  facet normal 0.000000e+0 0.000000e+0 -1.000000e+0
    outer loop
      vertex 1.052379e+0 2.540669e+0 1.200000e+1
      vertex 5.740251e-1 1.385819e+0 1.200000e+1
      vertex 0.000000e+0 2.750000e+0 1.200000e+1
    endloop
  endfacet
  facet normal 0.000000e+0 0.000000e+0 -1.000000e+0
    outer loop
      vertex 0.000000e+0 2.750000e+0 1.200000e+1
      vertex 5.740251e-1 1.385819e+0 1.200000e+1
      vertex 0.000000e+0 1.500000e+0 1.200000e+1
    endloop
  endfacet
  facet normal 0.000000e+0 0.000000e+0 -1.000000e+0
    outer loop
      vertex 0.000000e+0 2.750000e+0 1.200000e+1
      vertex 0.000000e+0 1.500000e+0 1.200000e+1
      vertex -1.052379e+0 2.540669e+0 1.200000e+1
    endloop
  endfacet
  facet normal 0.000000e+0 0.000000e+0 -1.000000e+0
    outer loop
      vertex -1.052379e+0 2.540669e+0 1.200000e+1
      vertex 0.000000e+0 1.500000e+0 1.200000e+1
      vertex -5.740251e-1 1.385819e+0 1.200000e+1
    endloop
  endfacet
  facet normal 0.000000e+0 0.000000e+0 -1.000000e+0
    outer loop
      vertex -1.052379e+0 2.540669e+0 1.200000e+1
      vertex -5.740251e-1 1.385819e+0 1.200000e+1
      vertex -1.944544e+0 1.944544e+0 1.200000e+1
    endloop
  endfacet
  facet normal 0.000000e+0 0.000000e+0 -1.000000e+0
    outer loop
      vertex -1.944544e+0 1.944544e+0 1.200000e+1
      vertex -5.740251e-1 1.385819e+0 1.200000e+1
      vertex -1.060660e+0 1.060660e+0 1.200000e+1
    endloop
  endfacet
  facet normal 0.000000e+0 0.000000e+0 -1.000000e+0
    outer loop
      vertex -1.944544e+0 1.944544e+0 1.200000e+1
      vertex -1.060660e+0 1.060660e+0 1.200000e+1
      vertex -2.540669e+0 1.052379e+0 1.200000e+1
    endloop
  endfacet
  facet normal 0.000000e+0 0.000000e+0 -1.000000e+0
    outer loop
      vertex -2.540669e+0 1.052379e+0 1.200000e+1
      vertex -1.060660e+0 1.060660e+0 1.200000e+1
      vertex -1.385819e+0 5.740251e-1 1.200000e+1
    endloop
  endfacet
  facet normal 0.000000e+0 0.000000e+0 -1.000000e+0
    outer loop
      vertex -2.540669e+0 1.052379e+0 1.200000e+1
      vertex -1.385819e+0 5.740251e-1 1.200000e+1
      vertex -2.750000e+0 0.000000e+0 1.200000e+1
    endloop
  endfacet
  facet normal 0.000000e+0 0.000000e+0 -1.000000e+0
    outer loop
      vertex -2.750000e+0 0.000000e+0 1.200000e+1
      vertex -1.385819e+0 5.740251e-1 1.200000e+1
      vertex -1.500000e+0 0.000000e+0 1.200000e+1
    endloop
  endfacet
  facet normal 0.000000e+0 0.000000e+0 -1.000000e+0
    outer loop
      vertex -2.750000e+0 0.000000e+0 1.200000e+1
      vertex -1.500000e+0 0.000000e+0 1.200000e+1
      vertex -2.540669e+0 -1.052379e+0 1.200000e+1
    endloop
  endfacet
  facet normal 0.000000e+0 0.000000e+0 -1.000000e+0
    outer loop
      vertex -2.540669e+0 -1.052379e+0 1.200000e+1
      vertex -1.500000e+0 0.000000e+0 1.200000e+1
      vertex -1.385819e+0 -5.740251e-1 1.200000e+1
    endloop
  endfacet
  facet normal 0.000000e+0 0.000000e+0 -1.000000e+0
    outer loop
      vertex -2.540669e+0 -1.052379e+0 1.200000e+1
      vertex -1.385819e+0 -5.740251e-1 1.200000e+1
      vertex -1.944544e+0 -1.944544e+0 1.200000e+1
    endloop
  endfacet
  facet normal 0.000000e+0 0.000000e+0 -1.000000e+0
    outer loop
      vertex -1.944544e+0 -1.944544e+0 1.200000e+1
      vertex -1.385819e+0 -5.740251e-1 1.200000e+1
      vertex -1.060660e+0 -1.060660e+0 1.200000e+1
    endloop
  endfacet
  facet normal 0.000000e+0 0.000000e+0 -1.000000e+0
    outer loop
      vertex -1.944544e+0 -1.944544e+0 1.200000e+1
      vertex -1.060660e+0 -1.060660e+0 1.200000e+1
      vertex -1.052379e+0 -2.540669e+0 1.200000e+1
    endloop
  endfacet
  facet normal 0.000000e+0 0.000000e+0 -1.000000e+0
    outer loop
      vertex -1.052379e+0 -2.540669e+0 1.200000e+1
      vertex -1.060660e+0 -1.060660e+0 1.200000e+1
      vertex -5.740251e-1 -1.385819e+0 1.200000e+1
    endloop
  endfacet
  facet normal 0.000000e+0 0.000000e+0 -1.000000e+0
    outer loop
      vertex -1.052379e+0 -2.540669e+0 1.200000e+1
      vertex -5.740251e-1 -1.385819e+0 1.200000e+1
      vertex 0.000000e+0 -2.750000e+0 1.200000e+1
    endloop
  endfacet
  facet normal 0.000000e+0 0.000000e+0 -1.000000e+0
    outer loop
      vertex 0.000000e+0 -2.750000e+0 1.200000e+1
      vertex -5.740251e-1 -1.385819e+0 1.200000e+1
      vertex 0.000000e+0 -1.500000e+0 1.200000e+1
    endloop
  endfacet
  facet normal 0.000000e+0 0.000000e+0 -1.000000e+0
    outer loop
      vertex 0.000000e+0 -2.750000e+0 1.200000e+1
      vertex 0.000000e+0 -1.500000e+0 1.200000e+1
      vertex 1.052379e+0 -2.540669e+0 1.200000e+1
    endloop
  endfacet
  facet normal 0.000000e+0 0.000000e+0 -1.000000e+0
    outer loop
      vertex 1.052379e+0 -2.540669e+0 1.200000e+1
      vertex 0.000000e+0 -1.500000e+0 1.200000e+1
      vertex 5.740251e-1 -1.385819e+0 1.200000e+1
    endloop
  endfacet
  facet normal 0.000000e+0 0.000000e+0 -1.000000e+0
    outer loop
      vertex 1.052379e+0 -2.540669e+0 1.200000e+1
      vertex 5.740251e-1 -1.385819e+0 1.200000e+1
      vertex 1.944544e+0 -1.944544e+0 1.200000e+1
    endloop
  endfacet
  facet normal 0.000000e+0 0.000000e+0 -1.000000e+0
    outer loop
      vertex 1.944544e+0 -1.944544e+0 1.200000e+1
      vertex 5.740251e-1 -1.385819e+0 1.200000e+1
      vertex 1.060660e+0 -1.060660e+0 1.200000e+1
    endloop
  endfacet
  facet normal 0.000000e+0 0.000000e+0 -1.000000e+0
    outer loop
      vertex 1.944544e+0 -1.944544e+0 1.200000e+1
      vertex 1.060660e+0 -1.060660e+0 1.200000e+1
      vertex 2.540669e+0 -1.052379e+0 1.200000e+1
    endloop
  endfacet
  facet normal 0.000000e+0 0.000000e+0 -1.000000e+0
    outer loop
      vertex 2.540669e+0 -1.052379e+0 1.200000e+1
      vertex 1.060660e+0 -1.060660e+0 1.200000e+1
      vertex 1.385819e+0 -5.740251e-1 1.200000e+1
    endloop
  endfacet
  facet normal 0.000000e+0 0.000000e+0 -1.000000e+0
    outer loop
      vertex 2.540669e+0 -1.052379e+0 1.200000e+1
      vertex 1.385819e+0 -5.740251e-1 1.200000e+1
      vertex 2.750000e+0 0.000000e+0 1.200000e+1
    endloop
  endfacet
  facet normal 0.000000e+0 0.000000e+0 -1.000000e+0
    outer loop
      vertex 2.750000e+0 0.000000e+0 1.200000e+1
      vertex 1.385819e+0 -5.740251e-1 1.200000e+1
      vertex 1.500000e+0 0.000000e+0 1.200000e+1
    endloop
  endfacet
  facet normal -9.807853e-1 -1.950903e-1 0.000000e+0
    outer loop
      vertex 2.750000e+0 0.000000e+0 1.200000e+1
      vertex 2.750000e+0 0.000000e+0 1.500000e+1
      vertex 2.540669e+0 1.052379e+0 1.200000e+1
    endloop
  endfacet
  facet normal -9.807853e-1 -1.950903e-1 0.000000e+0
    outer loop
      vertex 2.750000e+0 0.000000e+0 1.500000e+1
      vertex 2.540669e+0 1.052379e+0 1.500000e+1
      vertex 2.540669e+0 1.052379e+0 1.200000e+1
    endloop
  endfacet
  facet normal -8.314696e-1 -5.555702e-1 0.000000e+0
    outer loop
      vertex 2.540669e+0 1.052379e+0 1.200000e+1
      vertex 2.540669e+0 1.052379e+0 1.500000e+1
      vertex 1.944544e+0 1.944544e+0 1.200000e+1
    endloop
  endfacet
  facet normal -8.314696e-1 -5.555702e-1 0.000000e+0
    outer loop
      vertex 2.540669e+0 1.052379e+0 1.500000e+1
      vertex 1.944544e+0 1.944544e+0 1.500000e+1
      vertex 1.944544e+0 1.944544e+0 1.200000e+1
    endloop
  endfacet
  facet normal -5.555702e-1 -8.314696e-1 0.000000e+0
    outer loop
      vertex 1.944544e+0 1.944544e+0 1.200000e+1
      vertex 1.944544e+0 1.944544e+0 1.500000e+1
      vertex 1.052379e+0 2.540669e+0 1.200000e+1
    endloop
  endfacet
  facet normal -5.555702e-1 -8.314696e-1 0.000000e+0
    outer loop
      vertex 1.944544e+0 1.944544e+0 1.500000e+1
      vertex 1.052379e+0 2.540669e+0 1.500000e+1
      vertex 1.052379e+0 2.540669e+0 1.200000e+1
    endloop
  endfacet
  facet normal -1.950903e-1 -9.807853e-1 0.000000e+0
    outer loop
      vertex 1.052379e+0 2.540669e+0 1.200000e+1
      vertex 1.052379e+0 2.540669e+0 1.500000e+1
      vertex 0.000000e+0 2.750000e+0 1.200000e+1
    endloop
  endfacet
  facet normal -1.950903e-1 -9.807853e-1 0.000000e+0
    outer loop
      vertex 1.052379e+0 2.540669e+0 1.500000e+1
      vertex 0.000000e+0 2.750000e+0 1.500000e+1
      vertex 0.000000e+0 2.750000e+0 1.200000e+1
    endloop
  endfacet
  facet normal 1.950903e-1 -9.807853e-1 0.000000e+0
    outer loop
      vertex 0.000000e+0 2.750000e+0 1.200000e+1
      vertex 0.000000e+0 2.750000e+0 1.500000e+1
      vertex -1.052379e+0 2.540669e+0 1.200000e+1
    endloop
  endfacet
  facet normal 1.950903e-1 -9.807853e-1 0.000000e+0
    outer loop
      vertex 0.000000e+0 2.750000e+0 1.500000e+1
      vertex -1.052379e+0 2.540669e+0 1.500000e+1
      vertex -1.052379e+0 2.540669e+0 1.200000e+1
    endloop
  endfacet
  facet normal 5.555702e-1 -8.314696e-1 0.000000e+0
    outer loop
      vertex -1.052379e+0 2.540669e+0 1.200000e+1
      vertex -1.052379e+0 2.540669e+0 1.500000e+1
      vertex -1.944544e+0 1.944544e+0 1.200000e+1
    endloop
  endfacet
  facet normal 5.555702e-1 -8.314696e-1 0.000000e+0
    outer loop
      vertex -1.052379e+0 2.540669e+0 1.500000e+1
      vertex -1.944544e+0 1.944544e+0 1.500000e+1
      vertex -1.944544e+0 1.944544e+0 1.200000e+1
    endloop
  endfacet
  facet normal 8.314696e-1 -5.555702e-1 0.000000e+0
    outer loop
      vertex -1.944544e+0 1.944544e+0 1.200000e+1
      vertex -1.944544e+0 1.944544e+0 1.500000e+1
      vertex -2.540669e+0 1.052379e+0 1.200000e+1
    endloop
  endfacet
  facet normal 8.314696e-1 -5.555702e-1 0.000000e+0
    outer loop
      vertex -1.944544e+0 1.944544e+0 1.500000e+1
      vertex -2.540669e+0 1.052379e+0 1.500000e+1
      vertex -2.540669e+0 1.052379e+0 1.200000e+1
    endloop
  endfacet
  facet normal 9.807853e-1 -1.950903e-1 0.000000e+0
    outer loop
      vertex -2.540669e+0 1.052379e+0 1.200000e+1
      vertex -2.540669e+0 1.052379e+0 1.500000e+1
      vertex -2.750000e+0 0.000000e+0 1.200000e+1
    endloop
  endfacet
  facet normal 9.807853e-1 -1.950903e-1 0.000000e+0
    outer loop
      vertex -2.540669e+0 1.052379e+0 1.500000e+1
      vertex -2.750000e+0 0.000000e+0 1.500000e+1
      vertex -2.750000e+0 0.000000e+0 1.200000e+1
    endloop
  endfacet
  facet normal 9.807853e-1 1.950903e-1 0.000000e+0
    outer loop
      vertex -2.750000e+0 0.000000e+0 1.200000e+1
      vertex -2.750000e+0 0.000000e+0 1.500000e+1
      vertex -2.540669e+0 -1.052379e+0 1.200000e+1
    endloop
  endfacet
  facet normal 9.807853e-1 1.950903e-1 0.000000e+0
    outer loop
      vertex -2.750000e+0 0.000000e+0 1.500000e+1
      vertex -2.540669e+0 -1.052379e+0 1.500000e+1
      vertex -2.540669e+0 -1.052379e+0 1.200000e+1
    endloop
  endfacet
  facet normal 8.314696e-1 5.555702e-1 0.000000e+0
    outer loop
      vertex -2.540669e+0 -1.052379e+0 1.200000e+1
      vertex -2.540669e+0 -1.052379e+0 1.500000e+1
      vertex -1.944544e+0 -1.944544e+0 1.200000e+1
    endloop
  endfacet
  facet normal 8.314696e-1 5.555702e-1 0.000000e+0
    outer loop
      vertex -2.540669e+0 -1.052379e+0 1.500000e+1
      vertex -1.944544e+0 -1.944544e+0 1.500000e+1
      vertex -1.944544e+0 -1.944544e+0 1.200000e+1
    endloop
  endfacet
  facet normal 5.555702e-1 8.314696e-1 0.000000e+0
    outer loop
      vertex -1.944544e+0 -1.944544e+0 1.200000e+1
      vertex -1.944544e+0 -1.944544e+0 1.500000e+1
      vertex -1.052379e+0 -2.540669e+0 1.200000e+1
    endloop
  endfacet
  facet normal 5.555702e-1 8.314696e-1 0.000000e+0
    outer loop
      vertex -1.944544e+0 -1.944544e+0 1.500000e+1
      vertex -1.052379e+0 -2.540669e+0 1.500000e+1
      vertex -1.052379e+0 -2.540669e+0 1.200000e+1
    endloop
  endfacet
  facet normal 1.950903e-1 9.807853e-1 0.000000e+0
    outer loop
      vertex -1.052379e+0 -2.540669e+0 1.200000e+1
      vertex -1.052379e+0 -2.540669e+0 1.500000e+1
      vertex 0.000000e+0 -2.750000e+0 1.200000e+1
    endloop
  endfacet
  facet normal 1.950903e-1 9.807853e-1 0.000000e+0
    outer loop
      vertex -1.052379e+0 -2.540669e+0 1.500000e+1
      vertex 0.000000e+0 -2.750000e+0 1.500000e+1
      vertex 0.000000e+0 -2.750000e+0 1.200000e+1
    endloop
  endfacet
  facet normal -1.950903e-1 9.807853e-1 0.000000e+0
    outer loop
      vertex 0.000000e+0 -2.750000e+0 1.200000e+1
      vertex 0.000000e+0 -2.750000e+0 1.500000e+1
      vertex 1.052379e+0 -2.540669e+0 1.200000e+1
    endloop
  endfacet
  facet normal -1.950903e-1 9.807853e-1 0.000000e+0
    outer loop
      vertex 0.000000e+0 -2.750000e+0 1.500000e+1
      vertex 1.052379e+0 -2.540669e+0 1.500000e+1
      vertex 1.052379e+0 -2.540669e+0 1.200000e+1
    endloop
  endfacet
  facet normal -5.555702e-1 8.314696e-1 0.000000e+0
    outer loop
      vertex 1.052379e+0 -2.540669e+0 1.200000e+1
      vertex 1.052379e+0 -2.540669e+0 1.500000e+1
      vertex 1.944544e+0 -1.944544e+0 1.200000e+1
    endloop
  endfacet
  facet normal -5.555702e-1 8.314696e-1 0.000000e+0
    outer loop
      vertex 1.052379e+0 -2.540669e+0 1.500000e+1
      vertex 1.944544e+0 -1.944544e+0 1.500000e+1
      vertex 1.944544e+0 -1.944544e+0 1.200000e+1
    endloop
  endfacet
  facet normal -8.314696e-1 5.555702e-1 0.000000e+0
    outer loop
      vertex 1.944544e+0 -1.944544e+0 1.200000e+1
      vertex 1.944544e+0 -1.944544e+0 1.500000e+1
      vertex 2.540669e+0 -1.052379e+0 1.200000e+1
    endloop
  endfacet
  facet normal -8.314696e-1 5.555702e-1 0.000000e+0
    outer loop
      vertex 1.944544e+0 -1.944544e+0 1.500000e+1
      vertex 2.540669e+0 -1.052379e+0 1.500000e+1
      vertex 2.540669e+0 -1.052379e+0 1.200000e+1
    endloop
  endfacet
  facet normal -9.807853e-1 1.950903e-1 0.000000e+0
    outer loop
      vertex 2.540669e+0 -1.052379e+0 1.200000e+1
      vertex 2.540669e+0 -1.052379e+0 1.500000e+1
      vertex 2.750000e+0 0.000000e+0 1.200000e+1
    endloop
  endfacet
  facet normal -9.807853e-1 1.950903e-1 0.000000e+0
    outer loop
      vertex 2.540669e+0 -1.052379e+0 1.500000e+1
      vertex 2.750000e+0 0.000000e+0 1.500000e+1
      vertex 2.750000e+0 0.000000e+0 1.200000e+1
    endloop
  endfacet
  facet normal 0.000000e+0 0.000000e+0 1.000000e+0
    outer loop
      vertex 0.000000e+0 0.000000e+0 1.500000e+1
      vertex 2.750000e+0 0.000000e+0 1.500000e+1
      vertex 2.540669e+0 1.052379e+0 1.500000e+1
    endloop
  endfacet
  facet normal 0.000000e+0 0.000000e+0 1.000000e+0
    outer loop
      vertex 0.000000e+0 0.000000e+0 1.500000e+1
      vertex 2.540669e+0 1.052379e+0 1.500000e+1
      vertex 1.944544e+0 1.944544e+0 1.500000e+1
    endloop
  endfacet
  facet normal 0.000000e+0 0.000000e+0 1.000000e+0
    outer loop
      vertex 0.000000e+0 0.000000e+0 1.500000e+1
      vertex 1.944544e+0 1.944544e+0 1.500000e+1
      vertex 1.052379e+0 2.540669e+0 1.500000e+1
    endloop
  endfacet
  facet normal 0.000000e+0 0.000000e+0 1.000000e+0
    outer loop
      vertex 0.000000e+0 0.000000e+0 1.500000e+1
      vertex 1.052379e+0 2.540669e+0 1.500000e+1
      vertex 0.000000e+0 2.750000e+0 1.500000e+1
    endloop
  endfacet
  facet normal 0.000000e+0 0.000000e+0 1.000000e+0
    outer loop
      vertex 0.000000e+0 0.000000e+0 1.500000e+1
      vertex 0.000000e+0 2.750000e+0 1.500000e+1
      vertex -1.052379e+0 2.540669e+0 1.500000e+1
    endloop
  endfacet
  facet normal 0.000000e+0 0.000000e+0 1.000000e+0
    outer loop
      vertex 0.000000e+0 0.000000e+0 1.500000e+1
      vertex -1.052379e+0 2.540669e+0 1.500000e+1
      vertex -1.944544e+0 1.944544e+0 1.500000e+1
    endloop
  endfacet
  facet normal 0.000000e+0 0.000000e+0 1.000000e+0
    outer loop
      vertex 0.000000e+0 0.000000e+0 1.500000e+1
      vertex -1.944544e+0 1.944544e+0 1.500000e+1
      vertex -2.540669e+0 1.052379e+0 1.500000e+1
    endloop
  endfacet
  facet normal 0.000000e+0 0.000000e+0 1.000000e+0
    outer loop
      vertex 0.000000e+0 0.000000e+0 1.500000e+1
      vertex -2.540669e+0 1.052379e+0 1.500000e+1
      vertex -2.750000e+0 0.000000e+0 1.500000e+1
    endloop
  endfacet
  facet normal 0.000000e+0 0.000000e+0 1.000000e+0
    outer loop
      vertex 0.000000e+0 0.000000e+0 1.500000e+1
      vertex -2.750000e+0 0.000000e+0 1.500000e+1
      vertex -2.540669e+0 -1.052379e+0 1.500000e+1
    endloop
  endfacet
  facet normal 0.000000e+0 0.000000e+0 1.000000e+0
    outer loop
      vertex 0.000000e+0 0.000000e+0 1.500000e+1
      vertex -2.540669e+0 -1.052379e+0 1.500000e+1
      vertex -1.944544e+0 -1.944544e+0 1.500000e+1
    endloop
  endfacet
  facet normal 0.000000e+0 0.000000e+0 1.000000e+0
    outer loop
      vertex 0.000000e+0 0.000000e+0 1.500000e+1
      vertex -1.944544e+0 -1.944544e+0 1.500000e+1
      vertex -1.052379e+0 -2.540669e+0 1.500000e+1
    endloop
  endfacet
  facet normal 0.000000e+0 0.000000e+0 1.000000e+0
    outer loop
      vertex 0.000000e+0 0.000000e+0 1.500000e+1
      vertex -1.052379e+0 -2.540669e+0 1.500000e+1
      vertex 0.000000e+0 -2.750000e+0 1.500000e+1
    endloop
  endfacet
  facet normal 0.000000e+0 0.000000e+0 1.000000e+0
    outer loop
      vertex 0.000000e+0 0.000000e+0 1.500000e+1
      vertex 0.000000e+0 -2.750000e+0 1.500000e+1
      vertex 1.052379e+0 -2.540669e+0 1.500000e+1
    endloop
  endfacet
  facet normal 0.000000e+0 0.000000e+0 1.000000e+0
    outer loop
      vertex 0.000000e+0 0.000000e+0 1.500000e+1
      vertex 1.052379e+0 -2.540669e+0 1.500000e+1
      vertex 1.944544e+0 -1.944544e+0 1.500000e+1
    endloop
  endfacet
  facet normal 0.000000e+0 0.000000e+0 1.000000e+0
    outer loop
      vertex 0.000000e+0 0.000000e+0 1.500000e+1
      vertex 1.944544e+0 -1.944544e+0 1.500000e+1
      vertex 2.540669e+0 -1.052379e+0 1.500000e+1
    endloop
  endfacet
  facet normal 0.000000e+0 0.000000e+0 1.000000e+0
    outer loop
      vertex 0.000000e+0 0.000000e+0 1.500000e+1
      vertex 2.540669e+0 -1.052379e+0 1.500000e+1
      vertex 2.750000e+0 0.000000e+0 1.500000e+1
    endloop
  endfacet
endsolid iso-4762-m3-12
