solid iso-4017-m6-25
  facet normal -9.807853e-1 -1.950903e-1 0.000000e+0
    outer loop
      vertex 3.000000e+0 0.000000e+0 0.000000e+0
      vertex 3.000000e+0 0.000000e+0 2.500000e+1
      vertex 2.771639e+0 1.148050e+0 0.000000e+0
    endloop
  endfacet
  facet normal -9.807853e-1 -1.950903e-1 0.000000e+0
    outer loop
      vertex 3.000000e+0 0.000000e+0 2.500000e+1
      vertex 2.771639e+0 1.148050e+0 2.500000e+1
      vertex 2.771639e+0 1.148050e+0 0.000000e+0
    endloop
  endfacet
  facet normal 0.000000e+0 0.000000e+0 -1.000000e+0
    outer loop
      vertex 0.000000e+0 0.000000e+0 0.000000e+0
      vertex 2.771639e+0 1.148050e+0 0.000000e+0
      vertex 3.000000e+0 0.000000e+0 0.000000e+0
    endloop
  endfacet
  facet normal -8.314696e-1 -5.555702e-1 0.000000e+0
    outer loop
      vertex 2.771639e+0 1.148050e+0 0.000000e+0
      vertex 2.771639e+0 1.148050e+0 2.500000e+1
      vertex 2.121320e+0 2.121320e+0 0.000000e+0
    endloop
  endfacet
  facet normal -8.314696e-1 -5.555702e-1 0.000000e+0
    outer loop
      vertex 2.771639e+0 1.148050e+0 2.500000e+1
      vertex 2.121320e+0 2.121320e+0 2.500000e+1
      vertex 2.121320e+0 2.121320e+0 0.000000e+0
    endloop
  endfacet
  facet normal 0.000000e+0 0.000000e+0 -1.000000e+0
    outer loop
      vertex 0.000000e+0 0.000000e+0 0.000000e+0
      vertex 2.121320e+0 2.121320e+0 0.000000e+0
      vertex 2.771639e+0 1.148050e+0 0.000000e+0
    endloop
  endfacet
  facet normal -5.555702e-1 -8.314696e-1 0.000000e+0
    outer loop
      vertex 2.121320e+0 2.121320e+0 0.000000e+0
      vertex 2.121320e+0 2.121320e+0 2.500000e+1
      vertex 1.148050e+0 2.771639e+0 0.000000e+0
    endloop
  endfacet
  facet normal -5.555702e-1 -8.314696e-1 0.000000e+0
    outer loop
      vertex 2.121320e+0 2.121320e+0 2.500000e+1
      vertex 1.148050e+0 2.771639e+0 2.500000e+1
      vertex 1.148050e+0 2.771639e+0 0.000000e+0
    endloop
  endfacet
  facet normal 0.000000e+0 0.000000e+0 -1.000000e+0
    outer loop
      vertex 0.000000e+0 0.000000e+0 0.000000e+0
      vertex 1.148050e+0 2.771639e+0 0.000000e+0
      vertex 2.121320e+0 2.121320e+0 0.000000e+0
    endloop
  endfacet
  facet normal -1.950903e-1 -9.807853e-1 0.000000e+0
    outer loop
      vertex 1.148050e+0 2.771639e+0 0.000000e+0
      vertex 1.148050e+0 2.771639e+0 2.500000e+1
      vertex 1.836970e-16 3.000000e+0 0.000000e+0
    endloop
  endfacet
  facet normal -1.950903e-1 -9.807853e-1 0.000000e+0
    outer loop
      vertex 1.148050e+0 2.771639e+0 2.500000e+1
      vertex 1.836970e-16 3.000000e+0 2.500000e+1
      vertex 1.836970e-16 3.000000e+0 0.000000e+0
    endloop
  endfacet
  facet normal 0.000000e+0 0.000000e+0 -1.000000e+0
    outer loop
      vertex 0.000000e+0 0.000000e+0 0.000000e+0
      vertex 1.836970e-16 3.000000e+0 0.000000e+0
      vertex 1.148050e+0 2.771639e+0 0.000000e+0
    endloop
  endfacet
  facet normal 1.950903e-1 -9.807853e-1 0.000000e+0
    outer loop
      vertex 1.836970e-16 3.000000e+0 0.000000e+0
      vertex 1.836970e-16 3.000000e+0 2.500000e+1
      vertex -1.148050e+0 2.771639e+0 0.000000e+0
    endloop
  endfacet
  facet normal 1.950903e-1 -9.807853e-1 0.000000e+0
    outer loop
      vertex 1.836970e-16 3.000000e+0 2.500000e+1
      vertex -1.148050e+0 2.771639e+0 2.500000e+1
      vertex -1.148050e+0 2.771639e+0 0.000000e+0
    endloop
  endfacet
  facet normal 0.000000e+0 0.000000e+0 -1.000000e+0
    outer loop
      vertex 0.000000e+0 0.000000e+0 0.000000e+0
      vertex -1.148050e+0 2.771639e+0 0.000000e+0
      vertex 1.836970e-16 3.000000e+0 0.000000e+0
    endloop
  endfacet
  facet normal 5.555702e-1 -8.314696e-1 0.000000e+0
    outer loop
      vertex -1.148050e+0 2.771639e+0 0.000000e+0
      vertex -1.148050e+0 2.771639e+0 2.500000e+1
      vertex -2.121320e+0 2.121320e+0 0.000000e+0
    endloop
  endfacet
  facet normal 5.555702e-1 -8.314696e-1 0.000000e+0
    outer loop
      vertex -1.148050e+0 2.771639e+0 2.500000e+1
      vertex -2.121320e+0 2.121320e+0 2.500000e+1
      vertex -2.121320e+0 2.121320e+0 0.000000e+0
    endloop
  endfacet
  facet normal 0.000000e+0 0.000000e+0 -1.000000e+0
    outer loop
      vertex 0.000000e+0 0.000000e+0 0.000000e+0
      vertex -2.121320e+0 2.121320e+0 0.000000e+0
      vertex -1.148050e+0 2.771639e+0 0.000000e+0
    endloop
  endfacet
  facet normal 8.314696e-1 -5.555702e-1 0.000000e+0
    outer loop
      vertex -2.121320e+0 2.121320e+0 0.000000e+0
      vertex -2.121320e+0 2.121320e+0 2.500000e+1
      vertex -2.771639e+0 1.148050e+0 0.000000e+0
    endloop
  endfacet
  facet normal 8.314696e-1 -5.555702e-1 0.000000e+0
    outer loop
      vertex -2.121320e+0 2.121320e+0 2.500000e+1
      vertex -2.771639e+0 1.148050e+0 2.500000e+1
      vertex -2.771639e+0 1.148050e+0 0.000000e+0
    endloop
  endfacet
  facet normal 0.000000e+0 0.000000e+0 -1.000000e+0
    outer loop
      vertex 0.000000e+0 0.000000e+0 0.000000e+0
      vertex -2.771639e+0 1.148050e+0 0.000000e+0
      vertex -2.121320e+0 2.121320e+0 0.000000e+0
    endloop
  endfacet
  facet normal 9.807853e-1 -1.950903e-1 0.000000e+0
    outer loop
      vertex -2.771639e+0 1.148050e+0 0.000000e+0
      vertex -2.771639e+0 1.148050e+0 2.500000e+1
      vertex -3.000000e+0 3.673940e-16 0.000000e+0
    endloop
  endfacet
  facet normal 9.807853e-1 -1.950903e-1 0.000000e+0
    outer loop
      vertex -2.771639e+0 1.148050e+0 2.500000e+1
      vertex -3.000000e+0 3.673940e-16 2.500000e+1
      vertex -3.000000e+0 3.673940e-16 0.000000e+0
    endloop
  endfacet
  facet normal 0.000000e+0 0.000000e+0 -1.000000e+0
    outer loop
      vertex 0.000000e+0 0.000000e+0 0.000000e+0
      vertex -3.000000e+0 3.673940e-16 0.000000e+0
      vertex -2.771639e+0 1.148050e+0 0.000000e+0
    endloop
  endfacet
  facet normal 9.807853e-1 1.950903e-1 0.000000e+0
    outer loop
      vertex -3.000000e+0 3.673940e-16 0.000000e+0
      vertex -3.000000e+0 3.673940e-16 2.500000e+1
      vertex -2.771639e+0 -1.148050e+0 0.000000e+0
    endloop
  endfacet
  facet normal 9.807853e-1 1.950903e-1 0.000000e+0
    outer loop
      vertex -3.000000e+0 3.673940e-16 2.500000e+1
      vertex -2.771639e+0 -1.148050e+0 2.500000e+1
      vertex -2.771639e+0 -1.148050e+0 0.000000e+0
    endloop
  endfacet
  facet normal 0.000000e+0 0.000000e+0 -1.000000e+0
    outer loop
      vertex 0.000000e+0 0.000000e+0 0.000000e+0
      vertex -2.771639e+0 -1.148050e+0 0.000000e+0
      vertex -3.000000e+0 3.673940e-16 0.000000e+0
    endloop
  endfacet
  facet normal 8.314696e-1 5.555702e-1 0.000000e+0
    outer loop
      vertex -2.771639e+0 -1.148050e+0 0.000000e+0
      vertex -2.771639e+0 -1.148050e+0 2.500000e+1
      vertex -2.121320e+0 -2.121320e+0 0.000000e+0
    endloop
  endfacet
  facet normal 8.314696e-1 5.555702e-1 0.000000e+0
    outer loop
      vertex -2.771639e+0 -1.148050e+0 2.500000e+1
      vertex -2.121320e+0 -2.121320e+0 2.500000e+1
      vertex -2.121320e+0 -2.121320e+0 0.000000e+0
    endloop
  endfacet
  facet normal 0.000000e+0 0.000000e+0 -1.000000e+0
    outer loop
      vertex 0.000000e+0 0.000000e+0 0.000000e+0
      vertex -2.121320e+0 -2.121320e+0 0.000000e+0
      vertex -2.771639e+0 -1.148050e+0 0.000000e+0
    endloop
  endfacet
  facet normal 5.555702e-1 8.314696e-1 0.000000e+0
    outer loop
      vertex -2.121320e+0 -2.121320e+0 0.000000e+0
      vertex -2.121320e+0 -2.121320e+0 2.500000e+1
      vertex -1.148050e+0 -2.771639e+0 0.000000e+0
    endloop
  endfacet
  facet normal 5.555702e-1 8.314696e-1 0.000000e+0
    outer loop
      vertex -2.121320e+0 -2.121320e+0 2.500000e+1
      vertex -1.148050e+0 -2.771639e+0 2.500000e+1
      vertex -1.148050e+0 -2.771639e+0 0.000000e+0
    endloop
  endfacet
  facet normal 0.000000e+0 0.000000e+0 -1.000000e+0
    outer loop
      vertex 0.000000e+0 0.000000e+0 0.000000e+0
      vertex -1.148050e+0 -2.771639e+0 0.000000e+0
      vertex -2.121320e+0 -2.121320e+0 0.000000e+0
    endloop
  endfacet
  facet normal 1.950903e-1 9.807853e-1 0.000000e+0
    outer loop
      vertex -1.148050e+0 -2.771639e+0 0.000000e+0
      vertex -1.148050e+0 -2.771639e+0 2.500000e+1
      vertex -5.510911e-16 -3.000000e+0 0.000000e+0
    endloop
  endfacet
  facet normal 1.950903e-1 9.807853e-1 0.000000e+0
    outer loop
      vertex -1.148050e+0 -2.771639e+0 2.500000e+1
      vertex -5.510911e-16 -3.000000e+0 2.500000e+1
      vertex -5.510911e-16 -3.000000e+0 0.000000e+0
    endloop
  endfacet
  facet normal 0.000000e+0 0.000000e+0 -1.000000e+0
    outer loop
      vertex 0.000000e+0 0.000000e+0 0.000000e+0
      vertex -5.510911e-16 -3.000000e+0 0.000000e+0
      vertex -1.148050e+0 -2.771639e+0 0.000000e+0
    endloop
  endfacet
  facet normal -1.950903e-1 9.807853e-1 0.000000e+0
    outer loop
      vertex -5.510911e-16 -3.000000e+0 0.000000e+0
      vertex -5.510911e-16 -3.000000e+0 2.500000e+1
      vertex 1.148050e+0 -2.771639e+0 0.000000e+0
    endloop
  endfacet
  facet normal -1.950903e-1 9.807853e-1 0.000000e+0
    outer loop
      vertex -5.510911e-16 -3.000000e+0 2.500000e+1
      vertex 1.148050e+0 -2.771639e+0 2.500000e+1
      vertex 1.148050e+0 -2.771639e+0 0.000000e+0
    endloop
  endfacet
  facet normal 0.000000e+0 0.000000e+0 -1.000000e+0
    outer loop
      vertex 0.000000e+0 0.000000e+0 0.000000e+0
      vertex 1.148050e+0 -2.771639e+0 0.000000e+0
      vertex -5.510911e-16 -3.000000e+0 0.000000e+0
    endloop
  endfacet
  facet normal -5.555702e-1 8.314696e-1 0.000000e+0
    outer loop
      vertex 1.148050e+0 -2.771639e+0 0.000000e+0
      vertex 1.148050e+0 -2.771639e+0 2.500000e+1
      vertex 2.121320e+0 -2.121320e+0 0.000000e+0
    endloop
  endfacet
  facet normal -5.555702e-1 8.314696e-1 0.000000e+0
    outer loop
      vertex 1.148050e+0 -2.771639e+0 2.500000e+1
      vertex 2.121320e+0 -2.121320e+0 2.500000e+1
      vertex 2.121320e+0 -2.121320e+0 0.000000e+0
    endloop
  endfacet
  facet normal 0.000000e+0 0.000000e+0 -1.000000e+0
    outer loop
      vertex 0.000000e+0 0.000000e+0 0.000000e+0
      vertex 2.121320e+0 -2.121320e+0 0.000000e+0
      vertex 1.148050e+0 -2.771639e+0 0.000000e+0
    endloop
  endfacet
  facet normal -8.314696e-1 5.555702e-1 0.000000e+0
    outer loop
      vertex 2.121320e+0 -2.121320e+0 0.000000e+0
      vertex 2.121320e+0 -2.121320e+0 2.500000e+1
      vertex 2.771639e+0 -1.148050e+0 0.000000e+0
    endloop
  endfacet
  facet normal -8.314696e-1 5.555702e-1 0.000000e+0
    outer loop
      vertex 2.121320e+0 -2.121320e+0 2.500000e+1
      vertex 2.771639e+0 -1.148050e+0 2.500000e+1
      vertex 2.771639e+0 -1.148050e+0 0.000000e+0
    endloop
  endfacet
  facet normal 0.000000e+0 0.000000e+0 -1.000000e+0
    outer loop
      vertex 0.000000e+0 0.000000e+0 0.000000e+0
      vertex 2.771639e+0 -1.148050e+0 0.000000e+0
      vertex 2.121320e+0 -2.121320e+0 0.000000e+0
    endloop
  endfacet
  facet normal -9.807853e-1 1.950903e-1 0.000000e+0
    outer loop
      vertex 2.771639e+0 -1.148050e+0 0.000000e+0
      vertex 2.771639e+0 -1.148050e+0 2.500000e+1
      vertex 3.000000e+0 -7.347881e-16 0.000000e+0
    endloop
  endfacet
  facet normal -9.807853e-1 1.950903e-1 0.000000e+0
    outer loop
      vertex 2.771639e+0 -1.148050e+0 2.500000e+1
      vertex 3.000000e+0 -7.347881e-16 2.500000e+1
      vertex 3.000000e+0 -7.347881e-16 0.000000e+0
    endloop
  endfacet
  facet normal 0.000000e+0 0.000000e+0 -1.000000e+0
    outer loop
      vertex 0.000000e+0 0.000000e+0 0.000000e+0
      vertex 3.000000e+0 -7.347881e-16 0.000000e+0
      vertex 2.771639e+0 -1.148050e+0 0.000000e+0
    endloop
  endfacet
  facet normal 0.000000e+0 0.000000e+0 -1.000000e+0
    outer loop
      vertex 5.000000e+0 0.000000e+0 2.500000e+1
      vertex 3.000000e+0 0.000000e+0 2.500000e+1
      vertex 4.619398e+0 1.913417e+0 2.500000e+1
    endloop
  endfacet
  facet normal 0.000000e+0 0.000000e+0 -1.000000e+0
    outer loop
      vertex 4.619398e+0 1.913417e+0 2.500000e+1
      vertex 3.000000e+0 0.000000e+0 2.500000e+1
      vertex 2.771639e+0 1.148050e+0 2.500000e+1
    endloop
  endfacet
  facet normal 0.000000e+0 0.000000e+0 -1.000000e+0
    outer loop
      vertex 4.619398e+0 1.913417e+0 2.500000e+1
      vertex 2.771639e+0 1.148050e+0 2.500000e+1
      vertex 3.535534e+0 3.535534e+0 2.500000e+1
    endloop
  endfacet
  facet normal 0.000000e+0 0.000000e+0 -1.000000e+0
    outer loop
      vertex 3.535534e+0 3.535534e+0 2.500000e+1
      vertex 2.771639e+0 1.148050e+0 2.500000e+1
      vertex 2.121320e+0 2.121320e+0 2.500000e+1
    endloop
  endfacet
  facet normal 0.000000e+0 0.000000e+0 -1.000000e+0
    outer loop
      vertex 3.535534e+0 3.535534e+0 2.500000e+1
      vertex 2.121320e+0 2.121320e+0 2.500000e+1
      vertex 1.913417e+0 4.619398e+0 2.500000e+1
    endloop
  endfacet
  facet normal 0.000000e+0 0.000000e+0 -1.000000e+0
    outer loop
      vertex 1.913417e+0 4.619398e+0 2.500000e+1
      vertex 2.121320e+0 2.121320e+0 2.500000e+1
      vertex 1.148050e+0 2.771639e+0 2.500000e+1
    endloop
  endfacet
  facet normal 0.000000e+0 0.000000e+0 -1.000000e+0
    outer loop
      vertex 1.913417e+0 4.619398e+0 2.500000e+1
      vertex 1.148050e+0 2.771639e+0 2.500000e+1
      vertex 3.061617e-16 5.000000e+0 2.500000e+1
    endloop
  endfacet
  facet normal 0.000000e+0 0.000000e+0 -1.000000e+0
    outer loop
      vertex 3.061617e-16 5.000000e+0 2.500000e+1
      vertex 1.148050e+0 2.771639e+0 2.500000e+1
      vertex 1.836970e-16 3.000000e+0 2.500000e+1
    endloop
  endfacet
  facet normal 0.000000e+0 0.000000e+0 -1.000000e+0
    outer loop
      vertex 3.061617e-16 5.000000e+0 2.500000e+1
      vertex 1.836970e-16 3.000000e+0 2.500000e+1
      vertex -1.913417e+0 4.619398e+0 2.500000e+1
    endloop
  endfacet
  facet normal 0.000000e+0 0.000000e+0 -1.000000e+0
    outer loop
      vertex -1.913417e+0 4.619398e+0 2.500000e+1
      vertex 1.836970e-16 3.000000e+0 2.500000e+1
      vertex -1.148050e+0 2.771639e+0 2.500000e+1
    endloop
  endfacet
  facet normal 0.000000e+0 0.000000e+0 -1.000000e+0
    outer loop
      vertex -1.913417e+0 4.619398e+0 2.500000e+1
      vertex -1.148050e+0 2.771639e+0 2.500000e+1
      vertex -3.535534e+0 3.535534e+0 2.500000e+1
    endloop
  endfacet
  facet normal 0.000000e+0 0.000000e+0 -1.000000e+0
    outer loop
      vertex -3.535534e+0 3.535534e+0 2.500000e+1
      vertex -1.148050e+0 2.771639e+0 2.500000e+1
      vertex -2.121320e+0 2.121320e+0 2.500000e+1
    endloop
  endfacet
  facet normal 0.000000e+0 0.000000e+0 -1.000000e+0
    outer loop
      vertex -3.535534e+0 3.535534e+0 2.500000e+1
      vertex -2.121320e+0 2.121320e+0 2.500000e+1
      vertex -4.619398e+0 1.913417e+0 2.500000e+1
    endloop
  endfacet
  facet normal 0.000000e+0 0.000000e+0 -1.000000e+0
    outer loop
      vertex -4.619398e+0 1.913417e+0 2.500000e+1
      vertex -2.121320e+0 2.121320e+0 2.500000e+1
      vertex -2.771639e+0 1.148050e+0 2.500000e+1
    endloop
  endfacet
  facet normal 0.000000e+0 0.000000e+0 -1.000000e+0
    outer loop
      vertex -4.619398e+0 1.913417e+0 2.500000e+1
      vertex -2.771639e+0 1.148050e+0 2.500000e+1
      vertex -5.000000e+0 6.123234e-16 2.500000e+1
    endloop
  endfacet
  facet normal 0.000000e+0 0.000000e+0 -1.000000e+0
    outer loop
      vertex -5.000000e+0 6.123234e-16 2.500000e+1
      vertex -2.771639e+0 1.148050e+0 2.500000e+1
      vertex -3.000000e+0 3.673940e-16 2.500000e+1
    endloop
  endfacet
  facet normal 0.000000e+0 0.000000e+0 -1.000000e+0
    outer loop
      vertex -5.000000e+0 6.123234e-16 2.500000e+1
      vertex -3.000000e+0 3.673940e-16 2.500000e+1
      vertex -4.619398e+0 -1.913417e+0 2.500000e+1
    endloop
  endfacet
  facet normal 0.000000e+0 0.000000e+0 -1.000000e+0
    outer loop
      vertex -4.619398e+0 -1.913417e+0 2.500000e+1
      vertex -3.000000e+0 3.673940e-16 2.500000e+1
      vertex -2.771639e+0 -1.148050e+0 2.500000e+1
    endloop
  endfacet
  facet normal 0.000000e+0 0.000000e+0 -1.000000e+0
    outer loop
      vertex -4.619398e+0 -1.913417e+0 2.500000e+1
      vertex -2.771639e+0 -1.148050e+0 2.500000e+1
      vertex -3.535534e+0 -3.535534e+0 2.500000e+1
    endloop
  endfacet
  facet normal 0.000000e+0 0.000000e+0 -1.000000e+0
    outer loop
      vertex -3.535534e+0 -3.535534e+0 2.500000e+1
      vertex -2.771639e+0 -1.148050e+0 2.500000e+1
      vertex -2.121320e+0 -2.121320e+0 2.500000e+1
    endloop
  endfacet
  facet normal 0.000000e+0 0.000000e+0 -1.000000e+0
    outer loop
      vertex -3.535534e+0 -3.535534e+0 2.500000e+1
      vertex -2.121320e+0 -2.121320e+0 2.500000e+1
      vertex -1.913417e+0 -4.619398e+0 2.500000e+1
    endloop
  endfacet
  facet normal 0.000000e+0 0.000000e+0 -1.000000e+0
    outer loop
      vertex -1.913417e+0 -4.619398e+0 2.500000e+1
      vertex -2.121320e+0 -2.121320e+0 2.500000e+1
      vertex -1.148050e+0 -2.771639e+0 2.500000e+1
    endloop
  endfacet
  facet normal 0.000000e+0 0.000000e+0 -1.000000e+0
    outer loop
      vertex -1.913417e+0 -4.619398e+0 2.500000e+1
      vertex -1.148050e+0 -2.771639e+0 2.500000e+1
      vertex -9.184851e-16 -5.000000e+0 2.500000e+1
    endloop
  endfacet
  facet normal 0.000000e+0 0.000000e+0 -1.000000e+0
    outer loop
      vertex -9.184851e-16 -5.000000e+0 2.500000e+1
      vertex -1.148050e+0 -2.771639e+0 2.500000e+1
      vertex -5.510911e-16 -3.000000e+0 2.500000e+1
    endloop
  endfacet
  facet normal 0.000000e+0 0.000000e+0 -1.000000e+0
    outer loop
      vertex -9.184851e-16 -5.000000e+0 2.500000e+1
      vertex -5.510911e-16 -3.000000e+0 2.500000e+1
      vertex 1.913417e+0 -4.619398e+0 2.500000e+1
    endloop
  endfacet
  facet normal 0.000000e+0 0.000000e+0 -1.000000e+0
    outer loop
      vertex 1.913417e+0 -4.619398e+0 2.500000e+1
      vertex -5.510911e-16 -3.000000e+0 2.500000e+1
      vertex 1.148050e+0 -2.771639e+0 2.500000e+1
    endloop
  endfacet
  facet normal 0.000000e+0 0.000000e+0 -1.000000e+0
    outer loop
      vertex 1.913417e+0 -4.619398e+0 2.500000e+1
      vertex 1.148050e+0 -2.771639e+0 2.500000e+1
      vertex 3.535534e+0 -3.535534e+0 2.500000e+1
    endloop
  endfacet
  facet normal 0.000000e+0 0.000000e+0 -1.000000e+0
    outer loop
      vertex 3.535534e+0 -3.535534e+0 2.500000e+1
      vertex 1.148050e+0 -2.771639e+0 2.500000e+1
      vertex 2.121320e+0 -2.121320e+0 2.500000e+1
    endloop
  endfacet
  facet normal 0.000000e+0 0.000000e+0 -1.000000e+0
    outer loop
      vertex 3.535534e+0 -3.535534e+0 2.500000e+1
      vertex 2.121320e+0 -2.121320e+0 2.500000e+1
      vertex 4.619398e+0 -1.913417e+0 2.500000e+1
    endloop
  endfacet
  facet normal 0.000000e+0 0.000000e+0 -1.000000e+0
    outer loop
      vertex 4.619398e+0 -1.913417e+0 2.500000e+1
      vertex 2.121320e+0 -2.121320e+0 2.500000e+1
      vertex 2.771639e+0 -1.148050e+0 2.500000e+1
    endloop
  endfacet
  facet normal 0.000000e+0 0.000000e+0 -1.000000e+0
    outer loop
      vertex 4.619398e+0 -1.913417e+0 2.500000e+1
      vertex 2.771639e+0 -1.148050e+0 2.500000e+1
      vertex 5.000000e+0 -1.224647e-15 2.500000e+1
    endloop
  endfacet
  facet normal 0.000000e+0 0.000000e+0 -1.000000e+0
    outer loop
      vertex 5.000000e+0 -1.224647e-15 2.500000e+1
      vertex 2.771639e+0 -1.148050e+0 2.500000e+1
      vertex 3.000000e+0 -7.347881e-16 2.500000e+1
    endloop
  endfacet
  facet normal -8.660254e-1 -5.000000e-1 0.000000e+0
    outer loop
      vertex 5.000000e+0 0.000000e+0 2.500000e+1
      vertex 5.000000e+0 0.000000e+0 2.900000e+1
      vertex 2.500000e+0 4.330127e+0 2.500000e+1
    endloop
  endfacet
  facet normal -8.660254e-1 -5.000000e-1 0.000000e+0
    outer loop
      vertex 5.000000e+0 0.000000e+0 2.900000e+1
      vertex 2.500000e+0 4.330127e+0 2.900000e+1
      vertex 2.500000e+0 4.330127e+0 2.500000e+1
    endloop
  endfacet
  facet normal 0.000000e+0 0.000000e+0 1.000000e+0
    outer loop
      vertex 0.000000e+0 0.000000e+0 2.900000e+1
      vertex 5.000000e+0 0.000000e+0 2.900000e+1
      vertex 2.500000e+0 4.330127e+0 2.900000e+1
    endloop
  endfacet
  facet normal -1.776357e-16 -1.000000e+0 0.000000e+0
    outer loop
      vertex 2.500000e+0 4.330127e+0 2.500000e+1
      vertex 2.500000e+0 4.330127e+0 2.900000e+1
      vertex -2.500000e+0 4.330127e+0 2.500000e+1
    endloop
  endfacet
  facet normal -1.776357e-16 -1.000000e+0 0.000000e+0
    outer loop
      vertex 2.500000e+0 4.330127e+0 2.900000e+1
      vertex -2.500000e+0 4.330127e+0 2.900000e+1
      vertex -2.500000e+0 4.330127e+0 2.500000e+1
    endloop
  endfacet
  facet normal 0.000000e+0 0.000000e+0 1.000000e+0
    outer loop
      vertex 0.000000e+0 0.000000e+0 2.900000e+1
      vertex 2.500000e+0 4.330127e+0 2.900000e+1
      vertex -2.500000e+0 4.330127e+0 2.900000e+1
    endloop
  endfacet
  facet normal 8.660254e-1 -5.000000e-1 0.000000e+0
    outer loop
      vertex -2.500000e+0 4.330127e+0 2.500000e+1
      vertex -2.500000e+0 4.330127e+0 2.900000e+1
      vertex -5.000000e+0 6.123234e-16 2.500000e+1
    endloop
  endfacet
  facet normal 8.660254e-1 -5.000000e-1 0.000000e+0
    outer loop
      vertex -2.500000e+0 4.330127e+0 2.900000e+1
      vertex -5.000000e+0 6.123234e-16 2.900000e+1
      vertex -5.000000e+0 6.123234e-16 2.500000e+1
    endloop
  endfacet
  facet normal 0.000000e+0 0.000000e+0 1.000000e+0
    outer loop
      vertex 0.000000e+0 0.000000e+0 2.900000e+1
      vertex -2.500000e+0 4.330127e+0 2.900000e+1
      vertex -5.000000e+0 6.123234e-16 2.900000e+1
    endloop
  endfacet
  facet normal 8.660254e-1 5.000000e-1 0.000000e+0
    outer loop
      vertex -5.000000e+0 6.123234e-16 2.500000e+1
      vertex -5.000000e+0 6.123234e-16 2.900000e+1
      vertex -2.500000e+0 -4.330127e+0 2.500000e+1
    endloop
  endfacet
  facet normal 8.660254e-1 5.000000e-1 0.000000e+0
    outer loop
      vertex -5.000000e+0 6.123234e-16 2.900000e+1
      vertex -2.500000e+0 -4.330127e+0 2.900000e+1
      vertex -2.500000e+0 -4.330127e+0 2.500000e+1
    endloop
  endfacet
  facet normal 0.000000e+0 0.000000e+0 1.000000e+0
    outer loop
      vertex 0.000000e+0 0.000000e+0 2.900000e+1
      vertex -5.000000e+0 6.123234e-16 2.900000e+1
      vertex -2.500000e+0 -4.330127e+0 2.900000e+1
    endloop
  endfacet
  facet normal 0.000000e+0 1.000000e+0 0.000000e+0
    outer loop
      vertex -2.500000e+0 -4.330127e+0 2.500000e+1
      vertex -2.500000e+0 -4.330127e+0 2.900000e+1
      vertex 2.500000e+0 -4.330127e+0 2.500000e+1
    endloop
  endfacet
  facet normal 0.000000e+0 1.000000e+0 0.000000e+0
    outer loop
      vertex -2.500000e+0 -4.330127e+0 2.900000e+1
      vertex 2.500000e+0 -4.330127e+0 2.900000e+1
      vertex 2.500000e+0 -4.330127e+0 2.500000e+1
    endloop
  endfacet
  facet normal 0.000000e+0 0.000000e+0 1.000000e+0
    outer loop
      vertex 0.000000e+0 0.000000e+0 2.900000e+1
      vertex -2.500000e+0 -4.330127e+0 2.900000e+1
      vertex 2.500000e+0 -4.330127e+0 2.900000e+1
    endloop
  endfacet
  facet normal -8.660254e-1 5.000000e-1 0.000000e+0
    outer loop
      vertex 2.500000e+0 -4.330127e+0 2.500000e+1
      vertex 2.500000e+0 -4.330127e+0 2.900000e+1
      vertex 5.000000e+0 -1.224647e-15 2.500000e+1
    endloop
  endfacet
  facet normal -8.660254e-1 5.000000e-1 0.000000e+0
    outer loop
      vertex 2.500000e+0 -4.330127e+0 2.900000e+1
      vertex 5.000000e+0 -1.224647e-15 2.900000e+1
      vertex 5.000000e+0 -1.224647e-15 2.500000e+1
    endloop
  endfacet
  facet normal 0.000000e+0 0.000000e+0 1.000000e+0
    outer loop
      vertex 0.000000e+0 0.000000e+0 2.900000e+1
      vertex 2.500000e+0 -4.330127e+0 2.900000e+1
      vertex 5.000000e+0 -1.224647e-15 2.900000e+1
    endloop
  endfacet
endsolid iso-4017-m6-25
