solid iso-4762-m12-60
  facet normal -9.807853e-1 -1.950903e-1 0.000000e+0
    outer loop
      vertex 6.000000e+0 0.000000e+0 0.000000e+0
      vertex 6.000000e+0 0.000000e+0 6.000000e+1
      vertex 5.543277e+0 2.296101e+0 0.000000e+0
    endloop
  endfacet
  facet normal -9.807853e-1 -1.950903e-1 0.000000e+0
    outer loop
      vertex 6.000000e+0 0.000000e+0 6.000000e+1
      vertex 5.543277e+0 2.296101e+0 6.000000e+1
      vertex 5.543277e+0 2.296101e+0 0.000000e+0
    endloop
  endfacet
  facet normal 0.000000e+0 0.000000e+0 -1.000000e+0
    outer loop
      vertex 0.000000e+0 0.000000e+0 0.000000e+0
      vertex 5.543277e+0 2.296101e+0 0.000000e+0
      vertex 6.000000e+0 0.000000e+0 0.000000e+0
    endloop
  endfacet
  facet normal -8.314696e-1 -5.555702e-1 0.000000e+0
    outer loop
      vertex 5.543277e+0 2.296101e+0 0.000000e+0
      vertex 5.543277e+0 2.296101e+0 6.000000e+1
      vertex 4.242641e+0 4.242641e+0 0.000000e+0
    endloop
  endfacet
  facet normal -8.314696e-1 -5.555702e-1 0.000000e+0
    outer loop
      vertex 5.543277e+0 2.296101e+0 6.000000e+1
      vertex 4.242641e+0 4.242641e+0 6.000000e+1
      vertex 4.242641e+0 4.242641e+0 0.000000e+0
    endloop
  endfacet
  facet normal 0.000000e+0 0.000000e+0 -1.000000e+0
    outer loop
      vertex 0.000000e+0 0.000000e+0 0.000000e+0
      vertex 4.242641e+0 4.242641e+0 0.000000e+0
      vertex 5.543277e+0 2.296101e+0 0.000000e+0
    endloop
  endfacet
  facet normal -5.555702e-1 -8.314696e-1 0.000000e+0
    outer loop
      vertex 4.242641e+0 4.242641e+0 0.000000e+0
      vertex 4.242641e+0 4.242641e+0 6.000000e+1
      vertex 2.296101e+0 5.543277e+0 0.000000e+0
    endloop
  endfacet
  facet normal -5.555702e-1 -8.314696e-1 0.000000e+0
    outer loop
      vertex 4.242641e+0 4.242641e+0 6.000000e+1
      vertex 2.296101e+0 5.543277e+0 6.000000e+1
      vertex 2.296101e+0 5.543277e+0 0.000000e+0
    endloop
  endfacet
  facet normal 0.000000e+0 0.000000e+0 -1.000000e+0
    outer loop
      vertex 0.000000e+0 0.000000e+0 0.000000e+0
      vertex 2.296101e+0 5.543277e+0 0.000000e+0
      vertex 4.242641e+0 4.242641e+0 0.000000e+0
    endloop
  endfacet
  facet normal -1.950903e-1 -9.807853e-1 0.000000e+0
    outer loop
      vertex 2.296101e+0 5.543277e+0 0.000000e+0
      vertex 2.296101e+0 5.543277e+0 6.000000e+1
      vertex 3.673940e-16 6.000000e+0 0.000000e+0
    endloop
  endfacet
  facet normal -1.950903e-1 -9.807853e-1 0.000000e+0
    outer loop
      vertex 2.296101e+0 5.543277e+0 6.000000e+1
      vertex 3.673940e-16 6.000000e+0 6.000000e+1
      vertex 3.673940e-16 6.000000e+0 0.000000e+0
    endloop
  endfacet
  facet normal 0.000000e+0 0.000000e+0 -1.000000e+0
    outer loop
      vertex 0.000000e+0 0.000000e+0 0.000000e+0
      vertex 3.673940e-16 6.000000e+0 0.000000e+0
      vertex 2.296101e+0 5.543277e+0 0.000000e+0
    endloop
  endfacet
  facet normal 1.950903e-1 -9.807853e-1 0.000000e+0
    outer loop
      vertex 3.673940e-16 6.000000e+0 0.000000e+0
      vertex 3.673940e-16 6.000000e+0 6.000000e+1
      vertex -2.296101e+0 5.543277e+0 0.000000e+0
    endloop
  endfacet
  facet normal 1.950903e-1 -9.807853e-1 0.000000e+0
    outer loop
      vertex 3.673940e-16 6.000000e+0 6.000000e+1
      vertex -2.296101e+0 5.543277e+0 6.000000e+1
      vertex -2.296101e+0 5.543277e+0 0.000000e+0
    endloop
  endfacet
  facet normal 0.000000e+0 0.000000e+0 -1.000000e+0
    outer loop
      vertex 0.000000e+0 0.000000e+0 0.000000e+0
      vertex -2.296101e+0 5.543277e+0 0.000000e+0
      vertex 3.673940e-16 6.000000e+0 0.000000e+0
    endloop
  endfacet
  facet normal 5.555702e-1 -8.314696e-1 0.000000e+0
    outer loop
      vertex -2.296101e+0 5.543277e+0 0.000000e+0
      vertex -2.296101e+0 5.543277e+0 6.000000e+1
      vertex -4.242641e+0 4.242641e+0 0.000000e+0
    endloop
  endfacet
  facet normal 5.555702e-1 -8.314696e-1 0.000000e+0
    outer loop
      vertex -2.296101e+0 5.543277e+0 6.000000e+1
      vertex -4.242641e+0 4.242641e+0 6.000000e+1
      vertex -4.242641e+0 4.242641e+0 0.000000e+0
    endloop
  endfacet
  facet normal 0.000000e+0 0.000000e+0 -1.000000e+0
    outer loop
      vertex 0.000000e+0 0.000000e+0 0.000000e+0
      vertex -4.242641e+0 4.242641e+0 0.000000e+0
      vertex -2.296101e+0 5.543277e+0 0.000000e+0
    endloop
  endfacet
  facet normal 8.314696e-1 -5.555702e-1 0.000000e+0
    outer loop
      vertex -4.242641e+0 4.242641e+0 0.000000e+0
      vertex -4.242641e+0 4.242641e+0 6.000000e+1
      vertex -5.543277e+0 2.296101e+0 0.000000e+0
    endloop
  endfacet
  facet normal 8.314696e-1 -5.555702e-1 0.000000e+0
    outer loop
      vertex -4.242641e+0 4.242641e+0 6.000000e+1
      vertex -5.543277e+0 2.296101e+0 6.000000e+1
      vertex -5.543277e+0 2.296101e+0 0.000000e+0
    endloop
  endfacet
  facet normal 0.000000e+0 0.000000e+0 -1.000000e+0
    outer loop
      vertex 0.000000e+0 0.000000e+0 0.000000e+0
      vertex -5.543277e+0 2.296101e+0 0.000000e+0
      vertex -4.242641e+0 4.242641e+0 0.000000e+0
    endloop
  endfacet
  facet normal 9.807853e-1 -1.950903e-1 0.000000e+0
    outer loop
      vertex -5.543277e+0 2.296101e+0 0.000000e+0
      vertex -5.543277e+0 2.296101e+0 6.000000e+1
      vertex -6.000000e+0 7.347881e-16 0.000000e+0
    endloop
  endfacet
  facet normal 9.807853e-1 -1.950903e-1 0.000000e+0
    outer loop
      vertex -5.543277e+0 2.296101e+0 6.000000e+1
      vertex -6.000000e+0 7.347881e-16 6.000000e+1
      vertex -6.000000e+0 7.347881e-16 0.000000e+0
    endloop
  endfacet
  facet normal 0.000000e+0 0.000000e+0 -1.000000e+0
    outer loop
      vertex 0.000000e+0 0.000000e+0 0.000000e+0
      vertex -6.000000e+0 7.347881e-16 0.000000e+0
      vertex -5.543277e+0 2.296101e+0 0.000000e+0
    endloop
  endfacet
  facet normal 9.807853e-1 1.950903e-1 0.000000e+0
    outer loop
      vertex -6.000000e+0 7.347881e-16 0.000000e+0
      vertex -6.000000e+0 7.347881e-16 6.000000e+1
      vertex -5.543277e+0 -2.296101e+0 0.000000e+0
    endloop
  endfacet
  facet normal 9.807853e-1 1.950903e-1 0.000000e+0
    outer loop
      vertex -6.000000e+0 7.347881e-16 6.000000e+1
      vertex -5.543277e+0 -2.296101e+0 6.000000e+1
      vertex -5.543277e+0 -2.296101e+0 0.000000e+0
    endloop
  endfacet
  facet normal 0.000000e+0 0.000000e+0 -1.000000e+0
    outer loop
      vertex 0.000000e+0 0.000000e+0 0.000000e+0
      vertex -5.543277e+0 -2.296101e+0 0.000000e+0
      vertex -6.000000e+0 7.347881e-16 0.000000e+0
    endloop
  endfacet
  facet normal 8.314696e-1 5.555702e-1 0.000000e+0
    outer loop
      vertex -5.543277e+0 -2.296101e+0 0.000000e+0
      vertex -5.543277e+0 -2.296101e+0 6.000000e+1
      vertex -4.242641e+0 -4.242641e+0 0.000000e+0
    endloop
  endfacet
  facet normal 8.314696e-1 5.555702e-1 0.000000e+0
    outer loop
      vertex -5.543277e+0 -2.296101e+0 6.000000e+1
      vertex -4.242641e+0 -4.242641e+0 6.000000e+1
      vertex -4.242641e+0 -4.242641e+0 0.000000e+0
    endloop
  endfacet
  facet normal 0.000000e+0 0.000000e+0 -1.000000e+0
    outer loop
      vertex 0.000000e+0 0.000000e+0 0.000000e+0
      vertex -4.242641e+0 -4.242641e+0 0.000000e+0
      vertex -5.543277e+0 -2.296101e+0 0.000000e+0
    endloop
  endfacet
  facet normal 5.555702e-1 8.314696e-1 0.000000e+0
    outer loop
      vertex -4.242641e+0 -4.242641e+0 0.000000e+0
      vertex -4.242641e+0 -4.242641e+0 6.000000e+1
      vertex -2.296101e+0 -5.543277e+0 0.000000e+0
    endloop
  endfacet
  facet normal 5.555702e-1 8.314696e-1 0.000000e+0
    outer loop
      vertex -4.242641e+0 -4.242641e+0 6.000000e+1
      vertex -2.296101e+0 -5.543277e+0 6.000000e+1
      vertex -2.296101e+0 -5.543277e+0 0.000000e+0
    endloop
  endfacet
  facet normal 0.000000e+0 0.000000e+0 -1.000000e+0
    outer loop
      vertex 0.000000e+0 0.000000e+0 0.000000e+0
      vertex -2.296101e+0 -5.543277e+0 0.000000e+0
      vertex -4.242641e+0 -4.242641e+0 0.000000e+0
    endloop
  endfacet
  facet normal 1.950903e-1 9.807853e-1 0.000000e+0
    outer loop
      vertex -2.296101e+0 -5.543277e+0 0.000000e+0
      vertex -2.296101e+0 -5.543277e+0 6.000000e+1
      vertex -1.102182e-15 -6.000000e+0 0.000000e+0
    endloop
  endfacet
  facet normal 1.950903e-1 9.807853e-1 0.000000e+0
    outer loop
      vertex -2.296101e+0 -5.543277e+0 6.000000e+1
      vertex -1.102182e-15 -6.000000e+0 6.000000e+1
      vertex -1.102182e-15 -6.000000e+0 0.000000e+0
    endloop
  endfacet
  facet normal 0.000000e+0 0.000000e+0 -1.000000e+0
    outer loop
      vertex 0.000000e+0 0.000000e+0 0.000000e+0
      vertex -1.102182e-15 -6.000000e+0 0.000000e+0
      vertex -2.296101e+0 -5.543277e+0 0.000000e+0
    endloop
  endfacet
  facet normal -1.950903e-1 9.807853e-1 0.000000e+0
    outer loop
      vertex -1.102182e-15 -6.000000e+0 0.000000e+0
      vertex -1.102182e-15 -6.000000e+0 6.000000e+1
      vertex 2.296101e+0 -5.543277e+0 0.000000e+0
    endloop
  endfacet
  facet normal -1.950903e-1 9.807853e-1 0.000000e+0
    outer loop
      vertex -1.102182e-15 -6.000000e+0 6.000000e+1
      vertex 2.296101e+0 -5.543277e+0 6.000000e+1
      vertex 2.296101e+0 -5.543277e+0 0.000000e+0
    endloop
  endfacet
  facet normal 0.000000e+0 0.000000e+0 -1.000000e+0
    outer loop
      vertex 0.000000e+0 0.000000e+0 0.000000e+0
      vertex 2.296101e+0 -5.543277e+0 0.000000e+0
      vertex -1.102182e-15 -6.000000e+0 0.000000e+0
    endloop
  endfacet
  facet normal -5.555702e-1 8.314696e-1 0.000000e+0
    outer loop
      vertex 2.296101e+0 -5.543277e+0 0.000000e+0
      vertex 2.296101e+0 -5.543277e+0 6.000000e+1
      vertex 4.242641e+0 -4.242641e+0 0.000000e+0
    endloop
  endfacet
  facet normal -5.555702e-1 8.314696e-1 0.000000e+0
    outer loop
      vertex 2.296101e+0 -5.543277e+0 6.000000e+1
      vertex 4.242641e+0 -4.242641e+0 6.000000e+1
      vertex 4.242641e+0 -4.242641e+0 0.000000e+0
    endloop
  endfacet
  facet normal 0.000000e+0 0.000000e+0 -1.000000e+0
    outer loop
      vertex 0.000000e+0 0.000000e+0 0.000000e+0
      vertex 4.242641e+0 -4.242641e+0 0.000000e+0
      vertex 2.296101e+0 -5.543277e+0 0.000000e+0
    endloop
  endfacet
  facet normal -8.314696e-1 5.555702e-1 0.000000e+0
    outer loop
      vertex 4.242641e+0 -4.242641e+0 0.000000e+0
      vertex 4.242641e+0 -4.242641e+0 6.000000e+1
      vertex 5.543277e+0 -2.296101e+0 0.000000e+0
    endloop
  endfacet
  facet normal -8.314696e-1 5.555702e-1 0.000000e+0
    outer loop
      vertex 4.242641e+0 -4.242641e+0 6.000000e+1
      vertex 5.543277e+0 -2.296101e+0 6.000000e+1
      vertex 5.543277e+0 -2.296101e+0 0.000000e+0
    endloop
  endfacet
  facet normal 0.000000e+0 0.000000e+0 -1.000000e+0
    outer loop
      vertex 0.000000e+0 0.000000e+0 0.000000e+0
      vertex 5.543277e+0 -2.296101e+0 0.000000e+0
      vertex 4.242641e+0 -4.242641e+0 0.000000e+0
    endloop
  endfacet
  facet normal -9.807853e-1 1.950903e-1 0.000000e+0
    outer loop
      vertex 5.543277e+0 -2.296101e+0 0.000000e+0
      vertex 5.543277e+0 -2.296101e+0 6.000000e+1
      vertex 6.000000e+0 -1.469576e-15 0.000000e+0
    endloop
  endfacet
  facet normal -9.807853e-1 1.950903e-1 0.000000e+0
    outer loop
      vertex 5.543277e+0 -2.296101e+0 6.000000e+1
      vertex 6.000000e+0 -1.469576e-15 6.000000e+1
      vertex 6.000000e+0 -1.469576e-15 0.000000e+0
    endloop
  endfacet
  facet normal 0.000000e+0 0.000000e+0 -1.000000e+0
    outer loop
      vertex 0.000000e+0 0.000000e+0 0.000000e+0
      vertex 6.000000e+0 -1.469576e-15 0.000000e+0
      vertex 5.543277e+0 -2.296101e+0 0.000000e+0
    endloop
  endfacet
  facet normal -9.807853e-1 -1.950903e-1 0.000000e+0
    outer loop
      vertex 9.000000e+0 0.000000e+0 6.000000e+1
      vertex 9.000000e+0 0.000000e+0 7.200000e+1
      vertex 8.314916e+0 3.444151e+0 6.000000e+1
    endloop
  endfacet
  facet normal -9.807853e-1 -1.950903e-1 0.000000e+0
    outer loop
      vertex 9.000000e+0 0.000000e+0 7.200000e+1
      vertex 8.314916e+0 3.444151e+0 7.200000e+1
      vertex 8.314916e+0 3.444151e+0 6.000000e+1
    endloop
  endfacet
  facet normal 0.000000e+0 0.000000e+0 1.000000e+0
    outer loop
      vertex 0.000000e+0 0.000000e+0 7.200000e+1
      vertex 9.000000e+0 0.000000e+0 7.200000e+1
      vertex 8.314916e+0 3.444151e+0 7.200000e+1
    endloop
  endfacet
  facet normal -8.314696e-1 -5.555702e-1 0.000000e+0
    outer loop
      vertex 8.314916e+0 3.444151e+0 6.000000e+1
      vertex 8.314916e+0 3.444151e+0 7.200000e+1
      vertex 6.363961e+0 6.363961e+0 6.000000e+1
    endloop
  endfacet
  facet normal -8.314696e-1 -5.555702e-1 0.000000e+0
    outer loop
      vertex 8.314916e+0 3.444151e+0 7.200000e+1
      vertex 6.363961e+0 6.363961e+0 7.200000e+1
      vertex 6.363961e+0 6.363961e+0 6.000000e+1
    endloop
  endfacet
  facet normal 0.000000e+0 0.000000e+0 1.000000e+0
    outer loop
      vertex 0.000000e+0 0.000000e+0 7.200000e+1
      vertex 8.314916e+0 3.444151e+0 7.200000e+1
      vertex 6.363961e+0 6.363961e+0 7.200000e+1
    endloop
  endfacet
  facet normal -5.555702e-1 -8.314696e-1 0.000000e+0
    outer loop
      vertex 6.363961e+0 6.363961e+0 6.000000e+1
      vertex 6.363961e+0 6.363961e+0 7.200000e+1
      vertex 3.444151e+0 8.314916e+0 6.000000e+1
    endloop
  endfacet
  facet normal -5.555702e-1 -8.314696e-1 0.000000e+0
    outer loop
      vertex 6.363961e+0 6.363961e+0 7.200000e+1
      vertex 3.444151e+0 8.314916e+0 7.200000e+1
      vertex 3.444151e+0 8.314916e+0 6.000000e+1
    endloop
  endfacet
  facet normal 0.000000e+0 0.000000e+0 1.000000e+0
    outer loop
      vertex 0.000000e+0 0.000000e+0 7.200000e+1
      vertex 6.363961e+0 6.363961e+0 7.200000e+1
      vertex 3.444151e+0 8.314916e+0 7.200000e+1
    endloop
  endfacet
  facet normal -1.950903e-1 -9.807853e-1 0.000000e+0
    outer loop
      vertex 3.444151e+0 8.314916e+0 6.000000e+1
      vertex 3.444151e+0 8.314916e+0 7.200000e+1
      vertex 5.510911e-16 9.000000e+0 6.000000e+1
    endloop
  endfacet
  facet normal -1.950903e-1 -9.807853e-1 0.000000e+0
    outer loop
      vertex 3.444151e+0 8.314916e+0 7.200000e+1
      vertex 5.510911e-16 9.000000e+0 7.200000e+1
      vertex 5.510911e-16 9.000000e+0 6.000000e+1
    endloop
  endfacet
  facet normal 0.000000e+0 0.000000e+0 1.000000e+0
    outer loop
      vertex 0.000000e+0 0.000000e+0 7.200000e+1
      vertex 3.444151e+0 8.314916e+0 7.200000e+1
      vertex 5.510911e-16 9.000000e+0 7.200000e+1
    endloop
  endfacet
  facet normal 1.950903e-1 -9.807853e-1 0.000000e+0
    outer loop
      vertex 5.510911e-16 9.000000e+0 6.000000e+1
      vertex 5.510911e-16 9.000000e+0 7.200000e+1
      vertex -3.444151e+0 8.314916e+0 6.000000e+1
    endloop
  endfacet
  facet normal 1.950903e-1 -9.807853e-1 0.000000e+0
    outer loop
      vertex 5.510911e-16 9.000000e+0 7.200000e+1
      vertex -3.444151e+0 8.314916e+0 7.200000e+1
      vertex -3.444151e+0 8.314916e+0 6.000000e+1
    endloop
  endfacet
  facet normal 0.000000e+0 0.000000e+0 1.000000e+0
    outer loop
      vertex 0.000000e+0 0.000000e+0 7.200000e+1
      vertex 5.510911e-16 9.000000e+0 7.200000e+1
      vertex -3.444151e+0 8.314916e+0 7.200000e+1
    endloop
  endfacet
  facet normal 5.555702e-1 -8.314696e-1 0.000000e+0
    outer loop
      vertex -3.444151e+0 8.314916e+0 6.000000e+1
      vertex -3.444151e+0 8.314916e+0 7.200000e+1
      vertex -6.363961e+0 6.363961e+0 6.000000e+1
    endloop
  endfacet
  facet normal 5.555702e-1 -8.314696e-1 0.000000e+0
    outer loop
      vertex -3.444151e+0 8.314916e+0 7.200000e+1
      vertex -6.363961e+0 6.363961e+0 7.200000e+1
      vertex -6.363961e+0 6.363961e+0 6.000000e+1
    endloop
  endfacet
  facet normal 0.000000e+0 0.000000e+0 1.000000e+0
    outer loop
      vertex 0.000000e+0 0.000000e+0 7.200000e+1
      vertex -3.444151e+0 8.314916e+0 7.200000e+1
      vertex -6.363961e+0 6.363961e+0 7.200000e+1
    endloop
  endfacet
  facet normal 8.314696e-1 -5.555702e-1 0.000000e+0
    outer loop
      vertex -6.363961e+0 6.363961e+0 6.000000e+1
      vertex -6.363961e+0 6.363961e+0 7.200000e+1
      vertex -8.314916e+0 3.444151e+0 6.000000e+1
    endloop
  endfacet
  facet normal 8.314696e-1 -5.555702e-1 0.000000e+0
    outer loop
      vertex -6.363961e+0 6.363961e+0 7.200000e+1
      vertex -8.314916e+0 3.444151e+0 7.200000e+1
      vertex -8.314916e+0 3.444151e+0 6.000000e+1
    endloop
  endfacet
  facet normal 0.000000e+0 0.000000e+0 1.000000e+0
    outer loop
      vertex 0.000000e+0 0.000000e+0 7.200000e+1
      vertex -6.363961e+0 6.363961e+0 7.200000e+1
      vertex -8.314916e+0 3.444151e+0 7.200000e+1
    endloop
  endfacet
  facet normal 9.807853e-1 -1.950903e-1 0.000000e+0
    outer loop
      vertex -8.314916e+0 3.444151e+0 6.000000e+1
      vertex -8.314916e+0 3.444151e+0 7.200000e+1
      vertex -9.000000e+0 1.102182e-15 6.000000e+1
    endloop
  endfacet
  facet normal 9.807853e-1 -1.950903e-1 0.000000e+0
    outer loop
      vertex -8.314916e+0 3.444151e+0 7.200000e+1
      vertex -9.000000e+0 1.102182e-15 7.200000e+1
      vertex -9.000000e+0 1.102182e-15 6.000000e+1
    endloop
  endfacet
  facet normal 0.000000e+0 0.000000e+0 1.000000e+0
    outer loop
      vertex 0.000000e+0 0.000000e+0 7.200000e+1
      vertex -8.314916e+0 3.444151e+0 7.200000e+1
      vertex -9.000000e+0 1.102182e-15 7.200000e+1
    endloop
  endfacet
  facet normal 9.807853e-1 1.950903e-1 0.000000e+0
    outer loop
      vertex -9.000000e+0 1.102182e-15 6.000000e+1
      vertex -9.000000e+0 1.102182e-15 7.200000e+1
      vertex -8.314916e+0 -3.444151e+0 6.000000e+1
    endloop
  endfacet
  facet normal 9.807853e-1 1.950903e-1 0.000000e+0
    outer loop
      vertex -9.000000e+0 1.102182e-15 7.200000e+1
      vertex -8.314916e+0 -3.444151e+0 7.200000e+1
      vertex -8.314916e+0 -3.444151e+0 6.000000e+1
    endloop
  endfacet
  facet normal 0.000000e+0 0.000000e+0 1.000000e+0
    outer loop
      vertex 0.000000e+0 0.000000e+0 7.200000e+1
      vertex -9.000000e+0 1.102182e-15 7.200000e+1
      vertex -8.314916e+0 -3.444151e+0 7.200000e+1
    endloop
  endfacet
  facet normal 8.314696e-1 5.555702e-1 0.000000e+0
    outer loop
      vertex -8.314916e+0 -3.444151e+0 6.000000e+1
      vertex -8.314916e+0 -3.444151e+0 7.200000e+1
      vertex -6.363961e+0 -6.363961e+0 6.000000e+1
    endloop
  endfacet
  facet normal 8.314696e-1 5.555702e-1 0.000000e+0
    outer loop
      vertex -8.314916e+0 -3.444151e+0 7.200000e+1
      vertex -6.363961e+0 -6.363961e+0 7.200000e+1
      vertex -6.363961e+0 -6.363961e+0 6.000000e+1
    endloop
  endfacet
  facet normal 0.000000e+0 0.000000e+0 1.000000e+0
    outer loop
      vertex 0.000000e+0 0.000000e+0 7.200000e+1
      vertex -8.314916e+0 -3.444151e+0 7.200000e+1
      vertex -6.363961e+0 -6.363961e+0 7.200000e+1
    endloop
  endfacet
  facet normal 5.555702e-1 8.314696e-1 0.000000e+0
    outer loop
      vertex -6.363961e+0 -6.363961e+0 6.000000e+1
      vertex -6.363961e+0 -6.363961e+0 7.200000e+1
      vertex -3.444151e+0 -8.314916e+0 6.000000e+1
    endloop
  endfacet
  facet normal 5.555702e-1 8.314696e-1 0.000000e+0
    outer loop
      vertex -6.363961e+0 -6.363961e+0 7.200000e+1
      vertex -3.444151e+0 -8.314916e+0 7.200000e+1
      vertex -3.444151e+0 -8.314916e+0 6.000000e+1
    endloop
  endfacet
  facet normal 0.000000e+0 0.000000e+0 1.000000e+0
    outer loop
      vertex 0.000000e+0 0.000000e+0 7.200000e+1
      vertex -6.363961e+0 -6.363961e+0 7.200000e+1
      vertex -3.444151e+0 -8.314916e+0 7.200000e+1
    endloop
  endfacet
  facet normal 1.950903e-1 9.807853e-1 0.000000e+0
    outer loop
      vertex -3.444151e+0 -8.314916e+0 6.000000e+1
      vertex -3.444151e+0 -8.314916e+0 7.200000e+1
      vertex -1.653273e-15 -9.000000e+0 6.000000e+1
    endloop
  endfacet
  facet normal 1.950903e-1 9.807853e-1 0.000000e+0
    outer loop
      vertex -3.444151e+0 -8.314916e+0 7.200000e+1
      vertex -1.653273e-15 -9.000000e+0 7.200000e+1
      vertex -1.653273e-15 -9.000000e+0 6.000000e+1
    endloop
  endfacet
  facet normal 0.000000e+0 0.000000e+0 1.000000e+0
    outer loop
      vertex 0.000000e+0 0.000000e+0 7.200000e+1
      vertex -3.444151e+0 -8.314916e+0 7.200000e+1
      vertex -1.653273e-15 -9.000000e+0 7.200000e+1
    endloop
  endfacet
  facet normal -1.950903e-1 9.807853e-1 0.000000e+0
    outer loop
      vertex -1.653273e-15 -9.000000e+0 6.000000e+1
      vertex -1.653273e-15 -9.000000e+0 7.200000e+1
      vertex 3.444151e+0 -8.314916e+0 6.000000e+1
    endloop
  endfacet
  facet normal -1.950903e-1 9.807853e-1 0.000000e+0
    outer loop
      vertex -1.653273e-15 -9.000000e+0 7.200000e+1
      vertex 3.444151e+0 -8.314916e+0 7.200000e+1
      vertex 3.444151e+0 -8.314916e+0 6.000000e+1
    endloop
  endfacet
  facet normal 0.000000e+0 0.000000e+0 1.000000e+0
    outer loop
      vertex 0.000000e+0 0.000000e+0 7.200000e+1
      vertex -1.653273e-15 -9.000000e+0 7.200000e+1
      vertex 3.444151e+0 -8.314916e+0 7.200000e+1
    endloop
  endfacet
  facet normal -5.555702e-1 8.314696e-1 0.000000e+0
    outer loop
      vertex 3.444151e+0 -8.314916e+0 6.000000e+1
      vertex 3.444151e+0 -8.314916e+0 7.200000e+1
      vertex 6.363961e+0 -6.363961e+0 6.000000e+1
    endloop
  endfacet
  facet normal -5.555702e-1 8.314696e-1 0.000000e+0
    outer loop
      vertex 3.444151e+0 -8.314916e+0 7.200000e+1
      vertex 6.363961e+0 -6.363961e+0 7.200000e+1
      vertex 6.363961e+0 -6.363961e+0 6.000000e+1
    endloop
  endfacet
  facet normal 0.000000e+0 0.000000e+0 1.000000e+0
    outer loop
      vertex 0.000000e+0 0.000000e+0 7.200000e+1
      vertex 3.444151e+0 -8.314916e+0 7.200000e+1
      vertex 6.363961e+0 -6.363961e+0 7.200000e+1
    endloop
  endfacet
  facet normal -8.314696e-1 5.555702e-1 0.000000e+0
    outer loop
      vertex 6.363961e+0 -6.363961e+0 6.000000e+1
      vertex 6.363961e+0 -6.363961e+0 7.200000e+1
      vertex 8.314916e+0 -3.444151e+0 6.000000e+1
    endloop
  endfacet
  facet normal -8.314696e-1 5.555702e-1 0.000000e+0
    outer loop
      vertex 6.363961e+0 -6.363961e+0 7.200000e+1
      vertex 8.314916e+0 -3.444151e+0 7.200000e+1
      vertex 8.314916e+0 -3.444151e+0 6.000000e+1
    endloop
  endfacet
  facet normal 0.000000e+0 0.000000e+0 1.000000e+0
    outer loop
      vertex 0.000000e+0 0.000000e+0 7.200000e+1
      vertex 6.363961e+0 -6.363961e+0 7.200000e+1
      vertex 8.314916e+0 -3.444151e+0 7.200000e+1
    endloop
  endfacet
  facet normal -9.807853e-1 1.950903e-1 0.000000e+0
    outer loop
      vertex 8.314916e+0 -3.444151e+0 6.000000e+1
      vertex 8.314916e+0 -3.444151e+0 7.200000e+1
      vertex 9.000000e+0 -2.204364e-15 6.000000e+1
    endloop
  endfacet
  facet normal -9.807853e-1 1.950903e-1 0.000000e+0
    outer loop
      vertex 8.314916e+0 -3.444151e+0 7.200000e+1
      vertex 9.000000e+0 -2.204364e-15 7.200000e+1
      vertex 9.000000e+0 -2.204364e-15 6.000000e+1
    endloop
  endfacet
  facet normal 0.000000e+0 0.000000e+0 1.000000e+0
    outer loop
      vertex 0.000000e+0 0.000000e+0 7.200000e+1
      vertex 8.314916e+0 -3.444151e+0 7.200000e+1
      vertex 9.000000e+0 -2.204364e-15 7.200000e+1
    endloop
  endfacet
endsolid iso-4762-m12-60
