solid iso-4762-m6-25
  facet normal -9.807853e-1 -1.950903e-1 0.000000e+0
    outer loop
      vertex 3.000000e+0 0.000000e+0 0.000000e+0
      vertex 3.000000e+0 0.000000e+0 2.500000e+1
      vertex 2.771639e+0 1.148050e+0 0.000000e+0
    endloop
  endfacet
  facet normal -9.807853e-1 -1.950903e-1 0.000000e+0
    outer loop
      vertex 3.000000e+0 0.000000e+0 2.500000e+1
      vertex 2.771639e+0 1.148050e+0 2.500000e+1
      vertex 2.771639e+0 1.148050e+0 0.000000e+0
    endloop
  endfacet
  facet normal -8.314696e-1 -5.555702e-1 0.000000e+0
    outer loop
      vertex 2.771639e+0 1.148050e+0 0.000000e+0
      vertex 2.771639e+0 1.148050e+0 2.500000e+1
      vertex 2.121320e+0 2.121320e+0 0.000000e+0
    endloop
  endfacet
  facet normal -8.314696e-1 -5.555702e-1 0.000000e+0
    outer loop
      vertex 2.771639e+0 1.148050e+0 2.500000e+1
      vertex 2.121320e+0 2.121320e+0 2.500000e+1
      vertex 2.121320e+0 2.121320e+0 0.000000e+0
    endloop
  endfacet
  facet normal -5.555702e-1 -8.314696e-1 0.000000e+0
    outer loop
      vertex 2.121320e+0 2.121320e+0 0.000000e+0
      vertex 2.121320e+0 2.121320e+0 2.500000e+1
      vertex 1.148050e+0 2.771639e+0 0.000000e+0
    endloop
  endfacet
  facet normal -5.555702e-1 -8.314696e-1 0.000000e+0
    outer loop
      vertex 2.121320e+0 2.121320e+0 2.500000e+1
      vertex 1.148050e+0 2.771639e+0 2.500000e+1
      vertex 1.148050e+0 2.771639e+0 0.000000e+0
    endloop
  endfacet
  facet normal -1.950903e-1 -9.807853e-1 0.000000e+0
    outer loop
      vertex 1.148050e+0 2.771639e+0 0.000000e+0
      vertex 1.148050e+0 2.771639e+0 2.500000e+1
      vertex 0.000000e+0 3.000000e+0 0.000000e+0
    endloop
  endfacet
  facet normal -1.950903e-1 -9.807853e-1 0.000000e+0
    outer loop
      vertex 1.148050e+0 2.771639e+0 2.500000e+1
      vertex 0.000000e+0 3.000000e+0 2.500000e+1
      vertex 0.000000e+0 3.000000e+0 0.000000e+0
    endloop
  endfacet
  facet normal 1.950903e-1 -9.807853e-1 0.000000e+0
    outer loop
      vertex 0.000000e+0 3.000000e+0 0.000000e+0
      vertex 0.000000e+0 3.000000e+0 2.500000e+1
      vertex -1.148050e+0 2.771639e+0 0.000000e+0
    endloop
  endfacet
  facet normal 1.950903e-1 -9.807853e-1 0.000000e+0
    outer loop
      vertex 0.000000e+0 3.000000e+0 2.500000e+1
      vertex -1.148050e+0 2.771639e+0 2.500000e+1
      vertex -1.148050e+0 2.771639e+0 0.000000e+0
    endloop
  endfacet
  facet normal 5.555702e-1 -8.314696e-1 0.000000e+0
    outer loop
      vertex -1.148050e+0 2.771639e+0 0.000000e+0
      vertex -1.148050e+0 2.771639e+0 2.500000e+1
      vertex -2.121320e+0 2.121320e+0 0.000000e+0
    endloop
  endfacet
  facet normal 5.555702e-1 -8.314696e-1 0.000000e+0
    outer loop
      vertex -1.148050e+0 2.771639e+0 2.500000e+1
      vertex -2.121320e+0 2.121320e+0 2.500000e+1
      vertex -2.121320e+0 2.121320e+0 0.000000e+0
    endloop
  endfacet
  facet normal 8.314696e-1 -5.555702e-1 0.000000e+0
    outer loop
      vertex -2.121320e+0 2.121320e+0 0.000000e+0
      vertex -2.121320e+0 2.121320e+0 2.500000e+1
      vertex -2.771639e+0 1.148050e+0 0.000000e+0
    endloop
  endfacet
  facet normal 8.314696e-1 -5.555702e-1 0.000000e+0
    outer loop
      vertex -2.121320e+0 2.121320e+0 2.500000e+1
      vertex -2.771639e+0 1.148050e+0 2.500000e+1
      vertex -2.771639e+0 1.148050e+0 0.000000e+0
    endloop
  endfacet
  facet normal 9.807853e-1 -1.950903e-1 0.000000e+0
    outer loop
      vertex -2.771639e+0 1.148050e+0 0.000000e+0
      vertex -2.771639e+0 1.148050e+0 2.500000e+1
      vertex -3.000000e+0 0.000000e+0 0.000000e+0
    endloop
  endfacet
  facet normal 9.807853e-1 -1.950903e-1 0.000000e+0
    outer loop
      vertex -2.771639e+0 1.148050e+0 2.500000e+1
      vertex -3.000000e+0 0.000000e+0 2.500000e+1
      vertex -3.000000e+0 0.000000e+0 0.000000e+0
    endloop
  endfacet
  facet normal 9.807853e-1 1.950903e-1 0.000000e+0
    outer loop
      vertex -3.000000e+0 0.000000e+0 0.000000e+0
      vertex -3.000000e+0 0.000000e+0 2.500000e+1
      vertex -2.771639e+0 -1.148050e+0 0.000000e+0
    endloop
  endfacet
  facet normal 9.807853e-1 1.950903e-1 0.000000e+0
    outer loop
      vertex -3.000000e+0 0.000000e+0 2.500000e+1
      vertex -2.771639e+0 -1.148050e+0 2.500000e+1
      vertex -2.771639e+0 -1.148050e+0 0.000000e+0
    endloop
  endfacet
  facet normal 8.314696e-1 5.555702e-1 0.000000e+0
    outer loop
      vertex -2.771639e+0 -1.148050e+0 0.000000e+0
      vertex -2.771639e+0 -1.148050e+0 2.500000e+1
      vertex -2.121320e+0 -2.121320e+0 0.000000e+0
    endloop
  endfacet
  facet normal 8.314696e-1 5.555702e-1 0.000000e+0
    outer loop
      vertex -2.771639e+0 -1.148050e+0 2.500000e+1
      vertex -2.121320e+0 -2.121320e+0 2.500000e+1
      vertex -2.121320e+0 -2.121320e+0 0.000000e+0
    endloop
  endfacet
  facet normal 5.555702e-1 8.314696e-1 0.000000e+0
    outer loop
      vertex -2.121320e+0 -2.121320e+0 0.000000e+0
      vertex -2.121320e+0 -2.121320e+0 2.500000e+1
      vertex -1.148050e+0 -2.771639e+0 0.000000e+0
    endloop
  endfacet
  facet normal 5.555702e-1 8.314696e-1 0.000000e+0
    outer loop
      vertex -2.121320e+0 -2.121320e+0 2.500000e+1
      vertex -1.148050e+0 -2.771639e+0 2.500000e+1
      vertex -1.148050e+0 -2.771639e+0 0.000000e+0
    endloop
  endfacet
  facet normal 1.950903e-1 9.807853e-1 0.000000e+0
    outer loop
      vertex -1.148050e+0 -2.771639e+0 0.000000e+0
      vertex -1.148050e+0 -2.771639e+0 2.500000e+1
      vertex 0.000000e+0 -3.000000e+0 0.000000e+0
    endloop
  endfacet
  facet normal 1.950903e-1 9.807853e-1 0.000000e+0
    outer loop
      vertex -1.148050e+0 -2.771639e+0 2.500000e+1
      vertex 0.000000e+0 -3.000000e+0 2.500000e+1
      vertex 0.000000e+0 -3.000000e+0 0.000000e+0
    endloop
  endfacet
  facet normal -1.950903e-1 9.807853e-1 0.000000e+0
    outer loop
      vertex 0.000000e+0 -3.000000e+0 0.000000e+0
      vertex 0.000000e+0 -3.000000e+0 2.500000e+1
      vertex 1.148050e+0 -2.771639e+0 0.000000e+0
    endloop
  endfacet
  facet normal -1.950903e-1 9.807853e-1 0.000000e+0
    outer loop
      vertex 0.000000e+0 -3.000000e+0 2.500000e+1
      vertex 1.148050e+0 -2.771639e+0 2.500000e+1
      vertex 1.148050e+0 -2.771639e+0 0.000000e+0
    endloop
  endfacet
  facet normal -5.555702e-1 8.314696e-1 0.000000e+0
    outer loop
      vertex 1.148050e+0 -2.771639e+0 0.000000e+0
      vertex 1.148050e+0 -2.771639e+0 2.500000e+1
      vertex 2.121320e+0 -2.121320e+0 0.000000e+0
    endloop
  endfacet
  facet normal -5.555702e-1 8.314696e-1 0.000000e+0
    outer loop
      vertex 1.148050e+0 -2.771639e+0 2.500000e+1
      vertex 2.121320e+0 -2.121320e+0 2.500000e+1
      vertex 2.121320e+0 -2.121320e+0 0.000000e+0
    endloop
  endfacet
  facet normal -8.314696e-1 5.555702e-1 0.000000e+0
    outer loop
      vertex 2.121320e+0 -2.121320e+0 0.000000e+0
      vertex 2.121320e+0 -2.121320e+0 2.500000e+1
      vertex 2.771639e+0 -1.148050e+0 0.000000e+0
    endloop
  endfacet
  facet normal -8.314696e-1 5.555702e-1 0.000000e+0
    outer loop
      vertex 2.121320e+0 -2.121320e+0 2.500000e+1
      vertex 2.771639e+0 -1.148050e+0 2.500000e+1
      vertex 2.771639e+0 -1.148050e+0 0.000000e+0
    endloop
  endfacet
  facet normal -9.807853e-1 1.950903e-1 0.000000e+0
    outer loop
      vertex 2.771639e+0 -1.148050e+0 0.000000e+0
      vertex 2.771639e+0 -1.148050e+0 2.500000e+1
      vertex 3.000000e+0 0.000000e+0 0.000000e+0
    endloop
  endfacet
  facet normal -9.807853e-1 1.950903e-1 0.000000e+0
    outer loop
      vertex 2.771639e+0 -1.148050e+0 2.500000e+1
      vertex 3.000000e+0 0.000000e+0 2.500000e+1
      vertex 3.000000e+0 0.000000e+0 0.000000e+0
    endloop
  endfacet
  facet normal 0.000000e+0 0.000000e+0 -1.000000e+0
    outer loop
      vertex 0.000000e+0 0.000000e+0 0.000000e+0
      vertex 2.771639e+0 1.148050e+0 0.000000e+0
      vertex 3.000000e+0 0.000000e+0 0.000000e+0
    endloop
  endfacet
  facet normal 0.000000e+0 0.000000e+0 -1.000000e+0
    outer loop
      vertex 0.000000e+0 0.000000e+0 0.000000e+0
      vertex 2.121320e+0 2.121320e+0 0.000000e+0
      vertex 2.771639e+0 1.148050e+0 0.000000e+0
    endloop
  endfacet
  facet normal 0.000000e+0 0.000000e+0 -1.000000e+0
    outer loop
      vertex 0.000000e+0 0.000000e+0 0.000000e+0
      vertex 1.148050e+0 2.771639e+0 0.000000e+0
      vertex 2.121320e+0 2.121320e+0 0.000000e+0
    endloop
  endfacet
  facet normal 0.000000e+0 0.000000e+0 -1.000000e+0
    outer loop
      vertex 0.000000e+0 0.000000e+0 0.000000e+0
      vertex 0.000000e+0 3.000000e+0 0.000000e+0
      vertex 1.148050e+0 2.771639e+0 0.000000e+0
    endloop
  endfacet
  facet normal 0.000000e+0 0.000000e+0 -1.000000e+0
    outer loop
      vertex 0.000000e+0 0.000000e+0 0.000000e+0
      vertex -1.148050e+0 2.771639e+0 0.000000e+0
      vertex 0.000000e+0 3.000000e+0 0.000000e+0
    endloop
  endfacet
  facet normal 0.000000e+0 0.000000e+0 -1.000000e+0
    outer loop
      vertex 0.000000e+0 0.000000e+0 0.000000e+0
      vertex -2.121320e+0 2.121320e+0 0.000000e+0
      vertex -1.148050e+0 2.771639e+0 0.000000e+0
    endloop
  endfacet
  facet normal 0.000000e+0 0.000000e+0 -1.000000e+0
    outer loop
      vertex 0.000000e+0 0.000000e+0 0.000000e+0
      vertex -2.771639e+0 1.148050e+0 0.000000e+0
      vertex -2.121320e+0 2.121320e+0 0.000000e+0
    endloop
  endfacet
  facet normal 0.000000e+0 0.000000e+0 -1.000000e+0
    outer loop
      vertex 0.000000e+0 0.000000e+0 0.000000e+0
      vertex -3.000000e+0 0.000000e+0 0.000000e+0
      vertex -2.771639e+0 1.148050e+0 0.000000e+0
    endloop
  endfacet
  facet normal 0.000000e+0 0.000000e+0 -1.000000e+0
    outer loop
      vertex 0.000000e+0 0.000000e+0 0.000000e+0
      vertex -2.771639e+0 -1.148050e+0 0.000000e+0
      vertex -3.000000e+0 0.000000e+0 0.000000e+0
    endloop
  endfacet
  facet normal 0.000000e+0 0.000000e+0 -1.000000e+0
    outer loop
      vertex 0.000000e+0 0.000000e+0 0.000000e+0
      vertex -2.121320e+0 -2.121320e+0 0.000000e+0
      vertex -2.771639e+0 -1.148050e+0 0.000000e+0
    endloop
  endfacet
  facet normal 0.000000e+0 0.000000e+0 -1.000000e+0
    outer loop
      vertex 0.000000e+0 0.000000e+0 0.000000e+0
      vertex -1.148050e+0 -2.771639e+0 0.000000e+0
      vertex -2.121320e+0 -2.121320e+0 0.000000e+0
    endloop
  endfacet
  facet normal 0.000000e+0 0.000000e+0 -1.000000e+0
    outer loop
      vertex 0.000000e+0 0.000000e+0 0.000000e+0
      vertex 0.000000e+0 -3.000000e+0 0.000000e+0
      vertex -1.148050e+0 -2.771639e+0 0.000000e+0
    endloop
  endfacet
  facet normal 0.000000e+0 0.000000e+0 -1.000000e+0
    outer loop
      vertex 0.000000e+0 0.000000e+0 0.000000e+0
      vertex 1.148050e+0 -2.771639e+0 0.000000e+0
      vertex 0.000000e+0 -3.000000e+0 0.000000e+0
    endloop
  endfacet
  facet normal 0.000000e+0 0.000000e+0 -1.000000e+0
    outer loop
      vertex 0.000000e+0 0.000000e+0 0.000000e+0
      vertex 2.121320e+0 -2.121320e+0 0.000000e+0
      vertex 1.148050e+0 -2.771639e+0 0.000000e+0
    endloop
  endfacet
  facet normal 0.000000e+0 0.000000e+0 -1.000000e+0
    outer loop
      vertex 0.000000e+0 0.000000e+0 0.000000e+0
      vertex 2.771639e+0 -1.148050e+0 0.000000e+0
      vertex 2.121320e+0 -2.121320e+0 0.000000e+0
    endloop
  endfacet
  facet normal 0.000000e+0 0.000000e+0 -1.000000e+0
    outer loop
      vertex 0.000000e+0 0.000000e+0 0.000000e+0
      vertex 3.000000e+0 0.000000e+0 0.000000e+0
      vertex 2.771639e+0 -1.148050e+0 0.000000e+0
    endloop
  endfacet
  facet normal 0.000000e+0 0.000000e+0 -1.000000e+0
    outer loop
      vertex 5.000000e+0 0.000000e+0 2.500000e+1
      vertex 3.000000e+0 0.000000e+0 2.500000e+1
      vertex 4.619398e+0 1.913417e+0 2.500000e+1
    endloop
  endfacet
  facet normal 0.000000e+0 0.000000e+0 -1.000000e+0
    outer loop
      vertex 4.619398e+0 1.913417e+0 2.500000e+1
      vertex 3.000000e+0 0.000000e+0 2.500000e+1
      vertex 2.771639e+0 1.148050e+0 2.500000e+1
    endloop
  endfacet
  facet normal 0.000000e+0 0.000000e+0 -1.000000e+0
    outer loop
      vertex 4.619398e+0 1.913417e+0 2.500000e+1
      vertex 2.771639e+0 1.148050e+0 2.500000e+1
      vertex 3.535534e+0 3.535534e+0 2.500000e+1
    endloop
  endfacet
  facet normal 0.000000e+0 0.000000e+0 -1.000000e+0
    outer loop
      vertex 3.535534e+0 3.535534e+0 2.500000e+1
      vertex 2.771639e+0 1.148050e+0 2.500000e+1
      vertex 2.121320e+0 2.121320e+0 2.500000e+1
    endloop
  endfacet
  facet normal 0.000000e+0 0.000000e+0 -1.000000e+0
    outer loop
      vertex 3.535534e+0 3.535534e+0 2.500000e+1
      vertex 2.121320e+0 2.121320e+0 2.500000e+1
      vertex 1.913417e+0 4.619398e+0 2.500000e+1
    endloop
  endfacet
  facet normal 0.000000e+0 0.000000e+0 -1.000000e+0
    outer loop
      vertex 1.913417e+0 4.619398e+0 2.500000e+1
      vertex 2.121320e+0 2.121320e+0 2.500000e+1
      vertex 1.148050e+0 2.771639e+0 2.500000e+1
    endloop
  endfacet
  facet normal 0.000000e+0 0.000000e+0 -1.000000e+0
    outer loop
      vertex 1.913417e+0 4.619398e+0 2.500000e+1
      vertex 1.148050e+0 2.771639e+0 2.500000e+1
      vertex 0.000000e+0 5.000000e+0 2.500000e+1
    endloop
  endfacet
  facet normal 0.000000e+0 0.000000e+0 -1.000000e+0
    outer loop
      vertex 0.000000e+0 5.000000e+0 2.500000e+1
      vertex 1.148050e+0 2.771639e+0 2.500000e+1
      vertex 0.000000e+0 3.000000e+0 2.500000e+1
    endloop
  endfacet
  facet normal 0.000000e+0 0.000000e+0 -1.000000e+0
    outer loop
      vertex 0.000000e+0 5.000000e+0 2.500000e+1
      vertex 0.000000e+0 3.000000e+0 2.500000e+1
      vertex -1.913417e+0 4.619398e+0 2.500000e+1
    endloop
  endfacet
  facet normal 0.000000e+0 0.000000e+0 -1.000000e+0
    outer loop
      vertex -1.913417e+0 4.619398e+0 2.500000e+1
      vertex 0.000000e+0 3.000000e+0 2.500000e+1
      vertex -1.148050e+0 2.771639e+0 2.500000e+1
    endloop
  endfacet
  facet normal 0.000000e+0 0.000000e+0 -1.000000e+0
    outer loop
      vertex -1.913417e+0 4.619398e+0 2.500000e+1
      vertex -1.148050e+0 2.771639e+0 2.500000e+1
      vertex -3.535534e+0 3.535534e+0 2.500000e+1
    endloop
  endfacet
  facet normal 0.000000e+0 0.000000e+0 -1.000000e+0
    outer loop
      vertex -3.535534e+0 3.535534e+0 2.500000e+1
      vertex -1.148050e+0 2.771639e+0 2.500000e+1
      vertex -2.121320e+0 2.121320e+0 2.500000e+1
    endloop
  endfacet
  facet normal 0.000000e+0 0.000000e+0 -1.000000e+0
    outer loop
      vertex -3.535534e+0 3.535534e+0 2.500000e+1
      vertex -2.121320e+0 2.121320e+0 2.500000e+1
      vertex -4.619398e+0 1.913417e+0 2.500000e+1
    endloop
  endfacet
  facet normal 0.000000e+0 0.000000e+0 -1.000000e+0
    outer loop
      vertex -4.619398e+0 1.913417e+0 2.500000e+1
      vertex -2.121320e+0 2.121320e+0 2.500000e+1
      vertex -2.771639e+0 1.148050e+0 2.500000e+1
    endloop
  endfacet
  facet normal 0.000000e+0 0.000000e+0 -1.000000e+0
    outer loop
      vertex -4.619398e+0 1.913417e+0 2.500000e+1
      vertex -2.771639e+0 1.148050e+0 2.500000e+1
      vertex -5.000000e+0 0.000000e+0 2.500000e+1
    endloop
  endfacet
  facet normal 0.000000e+0 0.000000e+0 -1.000000e+0
    outer loop
      vertex -5.000000e+0 0.000000e+0 2.500000e+1
      vertex -2.771639e+0 1.148050e+0 2.500000e+1
      vertex -3.000000e+0 0.000000e+0 2.500000e+1
    endloop
  endfacet
  facet normal 0.000000e+0 0.000000e+0 -1.000000e+0
    outer loop
      vertex -5.000000e+0 0.000000e+0 2.500000e+1
      vertex -3.000000e+0 0.000000e+0 2.500000e+1
      vertex -4.619398e+0 -1.913417e+0 2.500000e+1
    endloop
  endfacet
  facet normal 0.000000e+0 0.000000e+0 -1.000000e+0
    outer loop
      vertex -4.619398e+0 -1.913417e+0 2.500000e+1
      vertex -3.000000e+0 0.000000e+0 2.500000e+1
      vertex -2.771639e+0 -1.148050e+0 2.500000e+1
    endloop
  endfacet
  facet normal 0.000000e+0 0.000000e+0 -1.000000e+0
    outer loop
      vertex -4.619398e+0 -1.913417e+0 2.500000e+1
      vertex -2.771639e+0 -1.148050e+0 2.500000e+1
      vertex -3.535534e+0 -3.535534e+0 2.500000e+1
    endloop
  endfacet
  facet normal 0.000000e+0 0.000000e+0 -1.000000e+0
    outer loop
      vertex -3.535534e+0 -3.535534e+0 2.500000e+1
      vertex -2.771639e+0 -1.148050e+0 2.500000e+1
      vertex -2.121320e+0 -2.121320e+0 2.500000e+1
    endloop
  endfacet
  facet normal 0.000000e+0 0.000000e+0 -1.000000e+0
    outer loop
      vertex -3.535534e+0 -3.535534e+0 2.500000e+1
      vertex -2.121320e+0 -2.121320e+0 2.500000e+1
      vertex -1.913417e+0 -4.619398e+0 2.500000e+1
    endloop
  endfacet
  facet normal 0.000000e+0 0.000000e+0 -1.000000e+0
    outer loop
      vertex -1.913417e+0 -4.619398e+0 2.500000e+1
      vertex -2.121320e+0 -2.121320e+0 2.500000e+1
      vertex -1.148050e+0 -2.771639e+0 2.500000e+1
    endloop
  endfacet
  facet normal 0.000000e+0 0.000000e+0 -1.000000e+0
    outer loop
      vertex -1.913417e+0 -4.619398e+0 2.500000e+1
      vertex -1.148050e+0 -2.771639e+0 2.500000e+1
      vertex 0.000000e+0 -5.000000e+0 2.500000e+1
    endloop
  endfacet
  facet normal 0.000000e+0 0.000000e+0 -1.000000e+0
    outer loop
      vertex 0.000000e+0 -5.000000e+0 2.500000e+1
      vertex -1.148050e+0 -2.771639e+0 2.500000e+1
      vertex 0.000000e+0 -3.000000e+0 2.500000e+1
    endloop
  endfacet
  facet normal 0.000000e+0 0.000000e+0 -1.000000e+0
    outer loop
      vertex 0.000000e+0 -5.000000e+0 2.500000e+1
      vertex 0.000000e+0 -3.000000e+0 2.500000e+1
      vertex 1.913417e+0 -4.619398e+0 2.500000e+1
    endloop
  endfacet
  facet normal 0.000000e+0 0.000000e+0 -1.000000e+0
    outer loop
      vertex 1.913417e+0 -4.619398e+0 2.500000e+1
      vertex 0.000000e+0 -3.000000e+0 2.500000e+1
      vertex 1.148050e+0 -2.771639e+0 2.500000e+1
    endloop
  endfacet
  facet normal 0.000000e+0 0.000000e+0 -1.000000e+0
    outer loop
      vertex 1.913417e+0 -4.619398e+0 2.500000e+1
      vertex 1.148050e+0 -2.771639e+0 2.500000e+1
      vertex 3.535534e+0 -3.535534e+0 2.500000e+1
    endloop
  endfacet
  facet normal 0.000000e+0 0.000000e+0 -1.000000e+0
    outer loop
      vertex 3.535534e+0 -3.535534e+0 2.500000e+1
      vertex 1.148050e+0 -2.771639e+0 2.500000e+1
      vertex 2.121320e+0 -2.121320e+0 2.500000e+1
    endloop
  endfacet
  facet normal 0.000000e+0 0.000000e+0 -1.000000e+0
    outer loop
      vertex 3.535534e+0 -3.535534e+0 2.500000e+1
      vertex 2.121320e+0 -2.121320e+0 2.500000e+1
      vertex 4.619398e+0 -1.913417e+0 2.500000e+1
    endloop
  endfacet
  facet normal 0.000000e+0 0.000000e+0 -1.000000e+0
    outer loop
      vertex 4.619398e+0 -1.913417e+0 2.500000e+1
      vertex 2.121320e+0 -2.121320e+0 2.500000e+1
      vertex 2.771639e+0 -1.148050e+0 2.500000e+1
    endloop
  endfacet
  facet normal 0.000000e+0 0.000000e+0 -1.000000e+0
    outer loop
      vertex 4.619398e+0 -1.913417e+0 2.500000e+1
      vertex 2.771639e+0 -1.148050e+0 2.500000e+1
      vertex 5.000000e+0 0.000000e+0 2.500000e+1
    endloop
  endfacet
  facet normal 0.000000e+0 0.000000e+0 -1.000000e+0
    outer loop
      vertex 5.000000e+0 0.000000e+0 2.500000e+1
      vertex 2.771639e+0 -1.148050e+0 2.500000e+1
      vertex 3.000000e+0 0.000000e+0 2.500000e+1
    endloop
  endfacet
  facet normal -9.807853e-1 -1.950903e-1 0.000000e+0
    outer loop
      vertex 5.000000e+0 0.000000e+0 2.500000e+1
      vertex 5.000000e+0 0.000000e+0 3.100000e+1
      vertex 4.619398e+0 1.913417e+0 2.500000e+1
    endloop
  endfacet
  facet normal -9.807853e-1 -1.950903e-1 0.000000e+0
    outer loop
      vertex 5.000000e+0 0.000000e+0 3.100000e+1
      vertex 4.619398e+0 1.913417e+0 3.100000e+1
      vertex 4.619398e+0 1.913417e+0 2.500000e+1
    endloop
  endfacet
  facet normal -8.314696e-1 -5.555702e-1 0.000000e+0
    outer loop
      vertex 4.619398e+0 1.913417e+0 2.500000e+1
      vertex 4.619398e+0 1.913417e+0 3.100000e+1
      vertex 3.535534e+0 3.535534e+0 2.500000e+1
    endloop
  endfacet
  facet normal -8.314696e-1 -5.555702e-1 0.000000e+0
    outer loop
      vertex 4.619398e+0 1.913417e+0 3.100000e+1
      vertex 3.535534e+0 3.535534e+0 3.100000e+1
      vertex 3.535534e+0 3.535534e+0 2.500000e+1
    endloop
  endfacet
  facet normal -5.555702e-1 -8.314696e-1 0.000000e+0
    outer loop
      vertex 3.535534e+0 3.535534e+0 2.500000e+1
      vertex 3.535534e+0 3.535534e+0 3.100000e+1
      vertex 1.913417e+0 4.619398e+0 2.500000e+1
    endloop
  endfacet
  facet normal -5.555702e-1 -8.314696e-1 0.000000e+0
    outer loop
      vertex 3.535534e+0 3.535534e+0 3.100000e+1
      vertex 1.913417e+0 4.619398e+0 3.100000e+1
      vertex 1.913417e+0 4.619398e+0 2.500000e+1
    endloop
  endfacet
  facet normal -1.950903e-1 -9.807853e-1 0.000000e+0
    outer loop
      vertex 1.913417e+0 4.619398e+0 2.500000e+1
      vertex 1.913417e+0 4.619398e+0 3.100000e+1
      vertex 0.000000e+0 5.000000e+0 2.500000e+1
    endloop
  endfacet
  facet normal -1.950903e-1 -9.807853e-1 0.000000e+0
    outer loop
      vertex 1.913417e+0 4.619398e+0 3.100000e+1
      vertex 0.000000e+0 5.000000e+0 3.100000e+1
      vertex 0.000000e+0 5.000000e+0 2.500000e+1
    endloop
  endfacet
  facet normal 1.950903e-1 -9.807853e-1 0.000000e+0
    outer loop
      vertex 0.000000e+0 5.000000e+0 2.500000e+1
      vertex 0.000000e+0 5.000000e+0 3.100000e+1
      vertex -1.913417e+0 4.619398e+0 2.500000e+1
    endloop
  endfacet
  facet normal 1.950903e-1 -9.807853e-1 0.000000e+0
    outer loop
      vertex 0.000000e+0 5.000000e+0 3.100000e+1
      vertex -1.913417e+0 4.619398e+0 3.100000e+1
      vertex -1.913417e+0 4.619398e+0 2.500000e+1
    endloop
  endfacet
  facet normal 5.555702e-1 -8.314696e-1 0.000000e+0
    outer loop
      vertex -1.913417e+0 4.619398e+0 2.500000e+1
      vertex -1.913417e+0 4.619398e+0 3.100000e+1
      vertex -3.535534e+0 3.535534e+0 2.500000e+1
    endloop
  endfacet
  facet normal 5.555702e-1 -8.314696e-1 0.000000e+0
    outer loop
      vertex -1.913417e+0 4.619398e+0 3.100000e+1
      vertex -3.535534e+0 3.535534e+0 3.100000e+1
      vertex -3.535534e+0 3.535534e+0 2.500000e+1
    endloop
  endfacet
  facet normal 8.314696e-1 -5.555702e-1 0.000000e+0
    outer loop
      vertex -3.535534e+0 3.535534e+0 2.500000e+1
      vertex -3.535534e+0 3.535534e+0 3.100000e+1
      vertex -4.619398e+0 1.913417e+0 2.500000e+1
    endloop
  endfacet
  facet normal 8.314696e-1 -5.555702e-1 0.000000e+0
    outer loop
      vertex -3.535534e+0 3.535534e+0 3.100000e+1
      vertex -4.619398e+0 1.913417e+0 3.100000e+1
      vertex -4.619398e+0 1.913417e+0 2.500000e+1
    endloop
  endfacet
  facet normal 9.807853e-1 -1.950903e-1 0.000000e+0
    outer loop
      vertex -4.619398e+0 1.913417e+0 2.500000e+1
      vertex -4.619398e+0 1.913417e+0 3.100000e+1
      vertex -5.000000e+0 0.000000e+0 2.500000e+1
    endloop
  endfacet
  facet normal 9.807853e-1 -1.950903e-1 0.000000e+0
    outer loop
      vertex -4.619398e+0 1.913417e+0 3.100000e+1
      vertex -5.000000e+0 0.000000e+0 3.100000e+1
      vertex -5.000000e+0 0.000000e+0 2.500000e+1
    endloop
  endfacet
  facet normal 9.807853e-1 1.950903e-1 0.000000e+0
    outer loop
      vertex -5.000000e+0 0.000000e+0 2.500000e+1
      vertex -5.000000e+0 0.000000e+0 3.100000e+1
      vertex -4.619398e+0 -1.913417e+0 2.500000e+1
    endloop
  endfacet
  facet normal 9.807853e-1 1.950903e-1 0.000000e+0
    outer loop
      vertex -5.000000e+0 0.000000e+0 3.100000e+1
      vertex -4.619398e+0 -1.913417e+0 3.100000e+1
      vertex -4.619398e+0 -1.913417e+0 2.500000e+1
    endloop
  endfacet
  facet normal 8.314696e-1 5.555702e-1 0.000000e+0
    outer loop
      vertex -4.619398e+0 -1.913417e+0 2.500000e+1
      vertex -4.619398e+0 -1.913417e+0 3.100000e+1
      vertex -3.535534e+0 -3.535534e+0 2.500000e+1
    endloop
  endfacet
  facet normal 8.314696e-1 5.555702e-1 0.000000e+0
    outer loop
      vertex -4.619398e+0 -1.913417e+0 3.100000e+1
      vertex -3.535534e+0 -3.535534e+0 3.100000e+1
      vertex -3.535534e+0 -3.535534e+0 2.500000e+1
    endloop
  endfacet
  facet normal 5.555702e-1 8.314696e-1 0.000000e+0
    outer loop
      vertex -3.535534e+0 -3.535534e+0 2.500000e+1
      vertex -3.535534e+0 -3.535534e+0 3.100000e+1
      vertex -1.913417e+0 -4.619398e+0 2.500000e+1
    endloop
  endfacet
  facet normal 5.555702e-1 8.314696e-1 0.000000e+0
    outer loop
      vertex -3.535534e+0 -3.535534e+0 3.100000e+1
      vertex -1.913417e+0 -4.619398e+0 3.100000e+1
      vertex -1.913417e+0 -4.619398e+0 2.500000e+1
    endloop
  endfacet
  facet normal 1.950903e-1 9.807853e-1 0.000000e+0
    outer loop
      vertex -1.913417e+0 -4.619398e+0 2.500000e+1
      vertex -1.913417e+0 -4.619398e+0 3.100000e+1
      vertex 0.000000e+0 -5.000000e+0 2.500000e+1
    endloop
  endfacet
  facet normal 1.950903e-1 9.807853e-1 0.000000e+0
    outer loop
      vertex -1.913417e+0 -4.619398e+0 3.100000e+1
      vertex 0.000000e+0 -5.000000e+0 3.100000e+1
      vertex 0.000000e+0 -5.000000e+0 2.500000e+1
    endloop
  endfacet
  facet normal -1.950903e-1 9.807853e-1 0.000000e+0
    outer loop
      vertex 0.000000e+0 -5.000000e+0 2.500000e+1
      vertex 0.000000e+0 -5.000000e+0 3.100000e+1
      vertex 1.913417e+0 -4.619398e+0 2.500000e+1
    endloop
  endfacet
  facet normal -1.950903e-1 9.807853e-1 0.000000e+0
    outer loop
      vertex 0.000000e+0 -5.000000e+0 3.100000e+1
      vertex 1.913417e+0 -4.619398e+0 3.100000e+1
      vertex 1.913417e+0 -4.619398e+0 2.500000e+1
    endloop
  endfacet
  facet normal -5.555702e-1 8.314696e-1 0.000000e+0
    outer loop
      vertex 1.913417e+0 -4.619398e+0 2.500000e+1
      vertex 1.913417e+0 -4.619398e+0 3.100000e+1
      vertex 3.535534e+0 -3.535534e+0 2.500000e+1
    endloop
  endfacet
  facet normal -5.555702e-1 8.314696e-1 0.000000e+0
    outer loop
      vertex 1.913417e+0 -4.619398e+0 3.100000e+1
      vertex 3.535534e+0 -3.535534e+0 3.100000e+1
      vertex 3.535534e+0 -3.535534e+0 2.500000e+1
    endloop
  endfacet
  facet normal -8.314696e-1 5.555702e-1 0.000000e+0
    outer loop
      vertex 3.535534e+0 -3.535534e+0 2.500000e+1
      vertex 3.535534e+0 -3.535534e+0 3.100000e+1
      vertex 4.619398e+0 -1.913417e+0 2.500000e+1
    endloop
  endfacet
  facet normal -8.314696e-1 5.555702e-1 0.000000e+0
    outer loop
      vertex 3.535534e+0 -3.535534e+0 3.100000e+1
      vertex 4.619398e+0 -1.913417e+0 3.100000e+1
      vertex 4.619398e+0 -1.913417e+0 2.500000e+1
    endloop
  endfacet
  facet normal -9.807853e-1 1.950903e-1 0.000000e+0
    outer loop
      vertex 4.619398e+0 -1.913417e+0 2.500000e+1
      vertex 4.619398e+0 -1.913417e+0 3.100000e+1
      vertex 5.000000e+0 0.000000e+0 2.500000e+1
    endloop
  endfacet
  facet normal -9.807853e-1 1.950903e-1 0.000000e+0
    outer loop
      vertex 4.619398e+0 -1.913417e+0 3.100000e+1
      vertex 5.000000e+0 0.000000e+0 3.100000e+1
      vertex 5.000000e+0 0.000000e+0 2.500000e+1
    endloop
  endfacet
  facet normal 0.000000e+0 0.000000e+0 1.000000e+0
    outer loop
      vertex 0.000000e+0 0.000000e+0 3.100000e+1
      vertex 5.000000e+0 0.000000e+0 3.100000e+1
      vertex 4.619398e+0 1.913417e+0 3.100000e+1
    endloop
  endfacet
  facet normal 0.000000e+0 0.000000e+0 1.000000e+0
    outer loop
      vertex 0.000000e+0 0.000000e+0 3.100000e+1
      vertex 4.619398e+0 1.913417e+0 3.100000e+1
      vertex 3.535534e+0 3.535534e+0 3.100000e+1
    endloop
  endfacet
  facet normal 0.000000e+0 0.000000e+0 1.000000e+0
    outer loop
      vertex 0.000000e+0 0.000000e+0 3.100000e+1
      vertex 3.535534e+0 3.535534e+0 3.100000e+1
      vertex 1.913417e+0 4.619398e+0 3.100000e+1
    endloop
  endfacet
  facet normal 0.000000e+0 0.000000e+0 1.000000e+0
    outer loop
      vertex 0.000000e+0 0.000000e+0 3.100000e+1
      vertex 1.913417e+0 4.619398e+0 3.100000e+1
      vertex 0.000000e+0 5.000000e+0 3.100000e+1
    endloop
  endfacet
  facet normal 0.000000e+0 0.000000e+0 1.000000e+0
    outer loop
      vertex 0.000000e+0 0.000000e+0 3.100000e+1
      vertex 0.000000e+0 5.000000e+0 3.100000e+1
      vertex -1.913417e+0 4.619398e+0 3.100000e+1
    endloop
  endfacet
  facet normal 0.000000e+0 0.000000e+0 1.000000e+0
    outer loop
      vertex 0.000000e+0 0.000000e+0 3.100000e+1
      vertex -1.913417e+0 4.619398e+0 3.100000e+1
      vertex -3.535534e+0 3.535534e+0 3.100000e+1
    endloop
  endfacet
  facet normal 0.000000e+0 0.000000e+0 1.000000e+0
    outer loop
      vertex 0.000000e+0 0.000000e+0 3.100000e+1
      vertex -3.535534e+0 3.535534e+0 3.100000e+1
      vertex -4.619398e+0 1.913417e+0 3.100000e+1
    endloop
  endfacet
  facet normal 0.000000e+0 0.000000e+0 1.000000e+0
    outer loop
      vertex 0.000000e+0 0.000000e+0 3.100000e+1
      vertex -4.619398e+0 1.913417e+0 3.100000e+1
      vertex -5.000000e+0 0.000000e+0 3.100000e+1
    endloop
  endfacet
  facet normal 0.000000e+0 0.000000e+0 1.000000e+0
    outer loop
      vertex 0.000000e+0 0.000000e+0 3.100000e+1
      vertex -5.000000e+0 0.000000e+0 3.100000e+1
      vertex -4.619398e+0 -1.913417e+0 3.100000e+1
    endloop
  endfacet
  facet normal 0.000000e+0 0.000000e+0 1.000000e+0
    outer loop
      vertex 0.000000e+0 0.000000e+0 3.100000e+1
      vertex -4.619398e+0 -1.913417e+0 3.100000e+1
      vertex -3.535534e+0 -3.535534e+0 3.100000e+1
    endloop
  endfacet
  facet normal 0.000000e+0 0.000000e+0 1.000000e+0
    outer loop
      vertex 0.000000e+0 0.000000e+0 3.100000e+1
      vertex -3.535534e+0 -3.535534e+0 3.100000e+1
      vertex -1.913417e+0 -4.619398e+0 3.100000e+1
    endloop
  endfacet
  facet normal 0.000000e+0 0.000000e+0 1.000000e+0
    outer loop
      vertex 0.000000e+0 0.000000e+0 3.100000e+1
      vertex -1.913417e+0 -4.619398e+0 3.100000e+1
      vertex 0.000000e+0 -5.000000e+0 3.100000e+1
    endloop
  endfacet
  facet normal 0.000000e+0 0.000000e+0 1.000000e+0
    outer loop
      vertex 0.000000e+0 0.000000e+0 3.100000e+1
      vertex 0.000000e+0 -5.000000e+0 3.100000e+1
      vertex 1.913417e+0 -4.619398e+0 3.100000e+1
    endloop
  endfacet
  facet normal 0.000000e+0 0.000000e+0 1.000000e+0
    outer loop
      vertex 0.000000e+0 0.000000e+0 3.100000e+1
      vertex 1.913417e+0 -4.619398e+0 3.100000e+1
      vertex 3.535534e+0 -3.535534e+0 3.100000e+1
    endloop
  endfacet
  facet normal 0.000000e+0 0.000000e+0 1.000000e+0
    outer loop
      vertex 0.000000e+0 0.000000e+0 3.100000e+1
      vertex 3.535534e+0 -3.535534e+0 3.100000e+1
      vertex 4.619398e+0 -1.913417e+0 3.100000e+1
    endloop
  endfacet
  facet normal 0.000000e+0 0.000000e+0 1.000000e+0
    outer loop
      vertex 0.000000e+0 0.000000e+0 3.100000e+1
      vertex 4.619398e+0 -1.913417e+0 3.100000e+1
      vertex 5.000000e+0 0.000000e+0 3.100000e+1
    endloop
  endfacet
endsolid iso-4762-m6-25
