solid iso-1207-m4-12
  facet normal -9.807853e-1 -1.950903e-1 0.000000e+0
    outer loop
      vertex 2.000000e+0 0.000000e+0 0.000000e+0
      vertex 2.000000e+0 0.000000e+0 1.200000e+1
      vertex 1.847759e+0 7.653669e-1 0.000000e+0
    endloop
  endfacet
  facet normal -9.807853e-1 -1.950903e-1 0.000000e+0
    outer loop
      vertex 2.000000e+0 0.000000e+0 1.200000e+1
      vertex 1.847759e+0 7.653669e-1 1.200000e+1
      vertex 1.847759e+0 7.653669e-1 0.000000e+0
    endloop
  endfacet
  facet normal 0.000000e+0 0.000000e+0 -1.000000e+0
    outer loop
      vertex 0.000000e+0 0.000000e+0 0.000000e+0
      vertex 1.847759e+0 7.653669e-1 0.000000e+0
      vertex 2.000000e+0 0.000000e+0 0.000000e+0
    endloop
  endfacet
  facet normal 0.000000e+0 0.000000e+0 1.000000e+0
    outer loop
      vertex 0.000000e+0 0.000000e+0 1.200000e+1
      vertex 2.000000e+0 0.000000e+0 1.200000e+1
      vertex 1.847759e+0 7.653669e-1 1.200000e+1
    endloop
  endfacet
  facet normal -8.314696e-1 -5.555702e-1 0.000000e+0
    outer loop
      vertex 1.847759e+0 7.653669e-1 0.000000e+0
      vertex 1.847759e+0 7.653669e-1 1.200000e+1
      vertex 1.414214e+0 1.414214e+0 0.000000e+0
    endloop
  endfacet
  facet normal -8.314696e-1 -5.555702e-1 0.000000e+0
    outer loop
      vertex 1.847759e+0 7.653669e-1 1.200000e+1
      vertex 1.414214e+0 1.414214e+0 1.200000e+1
      vertex 1.414214e+0 1.414214e+0 0.000000e+0
    endloop
  endfacet
  facet normal 0.000000e+0 0.000000e+0 -1.000000e+0
    outer loop
      vertex 0.000000e+0 0.000000e+0 0.000000e+0
      vertex 1.414214e+0 1.414214e+0 0.000000e+0
      vertex 1.847759e+0 7.653669e-1 0.000000e+0
    endloop
  endfacet
  facet normal 0.000000e+0 0.000000e+0 1.000000e+0
    outer loop
      vertex 0.000000e+0 0.000000e+0 1.200000e+1
      vertex 1.847759e+0 7.653669e-1 1.200000e+1
      vertex 1.414214e+0 1.414214e+0 1.200000e+1
    endloop
  endfacet
  facet normal -5.555702e-1 -8.314696e-1 0.000000e+0
    outer loop
      vertex 1.414214e+0 1.414214e+0 0.000000e+0
      vertex 1.414214e+0 1.414214e+0 1.200000e+1
      vertex 7.653669e-1 1.847759e+0 0.000000e+0
    endloop
  endfacet
  facet normal -5.555702e-1 -8.314696e-1 0.000000e+0
    outer loop
      vertex 1.414214e+0 1.414214e+0 1.200000e+1
      vertex 7.653669e-1 1.847759e+0 1.200000e+1
      vertex 7.653669e-1 1.847759e+0 0.000000e+0
    endloop
  endfacet
  facet normal 0.000000e+0 0.000000e+0 -1.000000e+0
    outer loop
      vertex 0.000000e+0 0.000000e+0 0.000000e+0
      vertex 7.653669e-1 1.847759e+0 0.000000e+0
      vertex 1.414214e+0 1.414214e+0 0.000000e+0
    endloop
  endfacet
  facet normal 0.000000e+0 0.000000e+0 1.000000e+0
    outer loop
      vertex 0.000000e+0 0.000000e+0 1.200000e+1
      vertex 1.414214e+0 1.414214e+0 1.200000e+1
      vertex 7.653669e-1 1.847759e+0 1.200000e+1
    endloop
  endfacet
  facet normal -1.950903e-1 -9.807853e-1 0.000000e+0
    outer loop
      vertex 7.653669e-1 1.847759e+0 0.000000e+0
      vertex 7.653669e-1 1.847759e+0 1.200000e+1
      vertex 1.224647e-16 2.000000e+0 0.000000e+0
    endloop
  endfacet
  facet normal -1.950903e-1 -9.807853e-1 0.000000e+0
    outer loop
      vertex 7.653669e-1 1.847759e+0 1.200000e+1
      vertex 1.224647e-16 2.000000e+0 1.200000e+1
      vertex 1.224647e-16 2.000000e+0 0.000000e+0
    endloop
  endfacet
  facet normal 0.000000e+0 0.000000e+0 -1.000000e+0
    outer loop
      vertex 0.000000e+0 0.000000e+0 0.000000e+0
      vertex 1.224647e-16 2.000000e+0 0.000000e+0
      vertex 7.653669e-1 1.847759e+0 0.000000e+0
    endloop
  endfacet
  facet normal 0.000000e+0 0.000000e+0 1.000000e+0
    outer loop
      vertex 0.000000e+0 0.000000e+0 1.200000e+1
      vertex 7.653669e-1 1.847759e+0 1.200000e+1
      vertex 1.224647e-16 2.000000e+0 1.200000e+1
    endloop
  endfacet
  facet normal 1.950903e-1 -9.807853e-1 0.000000e+0
    outer loop
      vertex 1.224647e-16 2.000000e+0 0.000000e+0
      vertex 1.224647e-16 2.000000e+0 1.200000e+1
      vertex -7.653669e-1 1.847759e+0 0.000000e+0
    endloop
  endfacet
  facet normal 1.950903e-1 -9.807853e-1 0.000000e+0
    outer loop
      vertex 1.224647e-16 2.000000e+0 1.200000e+1
      vertex -7.653669e-1 1.847759e+0 1.200000e+1
      vertex -7.653669e-1 1.847759e+0 0.000000e+0
    endloop
  endfacet
  facet normal 0.000000e+0 0.000000e+0 -1.000000e+0
    outer loop
      vertex 0.000000e+0 0.000000e+0 0.000000e+0
      vertex -7.653669e-1 1.847759e+0 0.000000e+0
      vertex 1.224647e-16 2.000000e+0 0.000000e+0
    endloop
  endfacet
  facet normal 0.000000e+0 0.000000e+0 1.000000e+0
    outer loop
      vertex 0.000000e+0 0.000000e+0 1.200000e+1
      vertex 1.224647e-16 2.000000e+0 1.200000e+1
      vertex -7.653669e-1 1.847759e+0 1.200000e+1
    endloop
  endfacet
  facet normal 5.555702e-1 -8.314696e-1 0.000000e+0
    outer loop
      vertex -7.653669e-1 1.847759e+0 0.000000e+0
      vertex -7.653669e-1 1.847759e+0 1.200000e+1
      vertex -1.414214e+0 1.414214e+0 0.000000e+0
    endloop
  endfacet
  facet normal 5.555702e-1 -8.314696e-1 0.000000e+0
    outer loop
      vertex -7.653669e-1 1.847759e+0 1.200000e+1
      vertex -1.414214e+0 1.414214e+0 1.200000e+1
      vertex -1.414214e+0 1.414214e+0 0.000000e+0
    endloop
  endfacet
  facet normal 0.000000e+0 0.000000e+0 -1.000000e+0
    outer loop
      vertex 0.000000e+0 0.000000e+0 0.000000e+0
      vertex -1.414214e+0 1.414214e+0 0.000000e+0
      vertex -7.653669e-1 1.847759e+0 0.000000e+0
    endloop
  endfacet
  facet normal 0.000000e+0 0.000000e+0 1.000000e+0
    outer loop
      vertex 0.000000e+0 0.000000e+0 1.200000e+1
      vertex -7.653669e-1 1.847759e+0 1.200000e+1
      vertex -1.414214e+0 1.414214e+0 1.200000e+1
    endloop
  endfacet
  facet normal 8.314696e-1 -5.555702e-1 0.000000e+0
    outer loop
      vertex -1.414214e+0 1.414214e+0 0.000000e+0
      vertex -1.414214e+0 1.414214e+0 1.200000e+1
      vertex -1.847759e+0 7.653669e-1 0.000000e+0
    endloop
  endfacet
  facet normal 8.314696e-1 -5.555702e-1 0.000000e+0
    outer loop
      vertex -1.414214e+0 1.414214e+0 1.200000e+1
      vertex -1.847759e+0 7.653669e-1 1.200000e+1
      vertex -1.847759e+0 7.653669e-1 0.000000e+0
    endloop
  endfacet
  facet normal 0.000000e+0 0.000000e+0 -1.000000e+0
    outer loop
      vertex 0.000000e+0 0.000000e+0 0.000000e+0
      vertex -1.847759e+0 7.653669e-1 0.000000e+0
      vertex -1.414214e+0 1.414214e+0 0.000000e+0
    endloop
  endfacet
  facet normal 0.000000e+0 0.000000e+0 1.000000e+0
    outer loop
      vertex 0.000000e+0 0.000000e+0 1.200000e+1
      vertex -1.414214e+0 1.414214e+0 1.200000e+1
      vertex -1.847759e+0 7.653669e-1 1.200000e+1
    endloop
  endfacet
  facet normal 9.807853e-1 -1.950903e-1 0.000000e+0
    outer loop
      vertex -1.847759e+0 7.653669e-1 0.000000e+0
      vertex -1.847759e+0 7.653669e-1 1.200000e+1
      vertex -2.000000e+0 2.449294e-16 0.000000e+0
    endloop
  endfacet
  facet normal 9.807853e-1 -1.950903e-1 0.000000e+0
    outer loop
      vertex -1.847759e+0 7.653669e-1 1.200000e+1
      vertex -2.000000e+0 2.449294e-16 1.200000e+1
      vertex -2.000000e+0 2.449294e-16 0.000000e+0
    endloop
  endfacet
  facet normal 0.000000e+0 0.000000e+0 -1.000000e+0
    outer loop
      vertex 0.000000e+0 0.000000e+0 0.000000e+0
      vertex -2.000000e+0 2.449294e-16 0.000000e+0
      vertex -1.847759e+0 7.653669e-1 0.000000e+0
    endloop
  endfacet
  facet normal 0.000000e+0 0.000000e+0 1.000000e+0
    outer loop
      vertex 0.000000e+0 0.000000e+0 1.200000e+1
      vertex -1.847759e+0 7.653669e-1 1.200000e+1
      vertex -2.000000e+0 2.449294e-16 1.200000e+1
    endloop
  endfacet
  facet normal 9.807853e-1 1.950903e-1 0.000000e+0
    outer loop
      vertex -2.000000e+0 2.449294e-16 0.000000e+0
      vertex -2.000000e+0 2.449294e-16 1.200000e+1
      vertex -1.847759e+0 -7.653669e-1 0.000000e+0
    endloop
  endfacet
  facet normal 9.807853e-1 1.950903e-1 0.000000e+0
    outer loop
      vertex -2.000000e+0 2.449294e-16 1.200000e+1
      vertex -1.847759e+0 -7.653669e-1 1.200000e+1
      vertex -1.847759e+0 -7.653669e-1 0.000000e+0
    endloop
  endfacet
  facet normal 0.000000e+0 0.000000e+0 -1.000000e+0
    outer loop
      vertex 0.000000e+0 0.000000e+0 0.000000e+0
      vertex -1.847759e+0 -7.653669e-1 0.000000e+0
      vertex -2.000000e+0 2.449294e-16 0.000000e+0
    endloop
  endfacet
  facet normal 0.000000e+0 0.000000e+0 1.000000e+0
    outer loop
      vertex 0.000000e+0 0.000000e+0 1.200000e+1
      vertex -2.000000e+0 2.449294e-16 1.200000e+1
      vertex -1.847759e+0 -7.653669e-1 1.200000e+1
    endloop
  endfacet
  facet normal 8.314696e-1 5.555702e-1 0.000000e+0
    outer loop
      vertex -1.847759e+0 -7.653669e-1 0.000000e+0
      vertex -1.847759e+0 -7.653669e-1 1.200000e+1
      vertex -1.414214e+0 -1.414214e+0 0.000000e+0
    endloop
  endfacet
  facet normal 8.314696e-1 5.555702e-1 0.000000e+0
    outer loop
      vertex -1.847759e+0 -7.653669e-1 1.200000e+1
      vertex -1.414214e+0 -1.414214e+0 1.200000e+1
      vertex -1.414214e+0 -1.414214e+0 0.000000e+0
    endloop
  endfacet
  facet normal 0.000000e+0 0.000000e+0 -1.000000e+0
    outer loop
      vertex 0.000000e+0 0.000000e+0 0.000000e+0
      vertex -1.414214e+0 -1.414214e+0 0.000000e+0
      vertex -1.847759e+0 -7.653669e-1 0.000000e+0
    endloop
  endfacet
  facet normal 0.000000e+0 0.000000e+0 1.000000e+0
    outer loop
      vertex 0.000000e+0 0.000000e+0 1.200000e+1
      vertex -1.847759e+0 -7.653669e-1 1.200000e+1
      vertex -1.414214e+0 -1.414214e+0 1.200000e+1
    endloop
  endfacet
  facet normal 5.555702e-1 8.314696e-1 0.000000e+0
    outer loop
      vertex -1.414214e+0 -1.414214e+0 0.000000e+0
      vertex -1.414214e+0 -1.414214e+0 1.200000e+1
      vertex -7.653669e-1 -1.847759e+0 0.000000e+0
    endloop
  endfacet
  facet normal 5.555702e-1 8.314696e-1 0.000000e+0
    outer loop
      vertex -1.414214e+0 -1.414214e+0 1.200000e+1
      vertex -7.653669e-1 -1.847759e+0 1.200000e+1
      vertex -7.653669e-1 -1.847759e+0 0.000000e+0
    endloop
  endfacet
  facet normal 0.000000e+0 0.000000e+0 -1.000000e+0
    outer loop
      vertex 0.000000e+0 0.000000e+0 0.000000e+0
      vertex -7.653669e-1 -1.847759e+0 0.000000e+0
      vertex -1.414214e+0 -1.414214e+0 0.000000e+0
    endloop
  endfacet
  facet normal 0.000000e+0 0.000000e+0 1.000000e+0
    outer loop
      vertex 0.000000e+0 0.000000e+0 1.200000e+1
      vertex -1.414214e+0 -1.414214e+0 1.200000e+1
      vertex -7.653669e-1 -1.847759e+0 1.200000e+1
    endloop
  endfacet
  facet normal 1.950903e-1 9.807853e-1 0.000000e+0
    outer loop
      vertex -7.653669e-1 -1.847759e+0 0.000000e+0
      vertex -7.653669e-1 -1.847759e+0 1.200000e+1
      vertex -3.673940e-16 -2.000000e+0 0.000000e+0
    endloop
  endfacet
  facet normal 1.950903e-1 9.807853e-1 0.000000e+0
    outer loop
      vertex -7.653669e-1 -1.847759e+0 1.200000e+1
      vertex -3.673940e-16 -2.000000e+0 1.200000e+1
      vertex -3.673940e-16 -2.000000e+0 0.000000e+0
    endloop
  endfacet
  facet normal 0.000000e+0 0.000000e+0 -1.000000e+0
    outer loop
      vertex 0.000000e+0 0.000000e+0 0.000000e+0
      vertex -3.673940e-16 -2.000000e+0 0.000000e+0
      vertex -7.653669e-1 -1.847759e+0 0.000000e+0
    endloop
  endfacet
  facet normal 0.000000e+0 0.000000e+0 1.000000e+0
    outer loop
      vertex 0.000000e+0 0.000000e+0 1.200000e+1
      vertex -7.653669e-1 -1.847759e+0 1.200000e+1
      vertex -3.673940e-16 -2.000000e+0 1.200000e+1
    endloop
  endfacet
  facet normal -1.950903e-1 9.807853e-1 0.000000e+0
    outer loop
      vertex -3.673940e-16 -2.000000e+0 0.000000e+0
      vertex -3.673940e-16 -2.000000e+0 1.200000e+1
      vertex 7.653669e-1 -1.847759e+0 0.000000e+0
    endloop
  endfacet
  facet normal -1.950903e-1 9.807853e-1 0.000000e+0
    outer loop
      vertex -3.673940e-16 -2.000000e+0 1.200000e+1
      vertex 7.653669e-1 -1.847759e+0 1.200000e+1
      vertex 7.653669e-1 -1.847759e+0 0.000000e+0
    endloop
  endfacet
  facet normal 0.000000e+0 0.000000e+0 -1.000000e+0
    outer loop
      vertex 0.000000e+0 0.000000e+0 0.000000e+0
      vertex 7.653669e-1 -1.847759e+0 0.000000e+0
      vertex -3.673940e-16 -2.000000e+0 0.000000e+0
    endloop
  endfacet
  facet normal 0.000000e+0 0.000000e+0 1.000000e+0
    outer loop
      vertex 0.000000e+0 0.000000e+0 1.200000e+1
      vertex -3.673940e-16 -2.000000e+0 1.200000e+1
      vertex 7.653669e-1 -1.847759e+0 1.200000e+1
    endloop
  endfacet
  facet normal -5.555702e-1 8.314696e-1 0.000000e+0
    outer loop
      vertex 7.653669e-1 -1.847759e+0 0.000000e+0
      vertex 7.653669e-1 -1.847759e+0 1.200000e+1
      vertex 1.414214e+0 -1.414214e+0 0.000000e+0
    endloop
  endfacet
  facet normal -5.555702e-1 8.314696e-1 0.000000e+0
    outer loop
      vertex 7.653669e-1 -1.847759e+0 1.200000e+1
      vertex 1.414214e+0 -1.414214e+0 1.200000e+1
      vertex 1.414214e+0 -1.414214e+0 0.000000e+0
    endloop
  endfacet
  facet normal 0.000000e+0 0.000000e+0 -1.000000e+0
    outer loop
      vertex 0.000000e+0 0.000000e+0 0.000000e+0
      vertex 1.414214e+0 -1.414214e+0 0.000000e+0
      vertex 7.653669e-1 -1.847759e+0 0.000000e+0
    endloop
  endfacet
  facet normal 0.000000e+0 0.000000e+0 1.000000e+0
    outer loop
      vertex 0.000000e+0 0.000000e+0 1.200000e+1
      vertex 7.653669e-1 -1.847759e+0 1.200000e+1
      vertex 1.414214e+0 -1.414214e+0 1.200000e+1
    endloop
  endfacet
  facet normal -8.314696e-1 5.555702e-1 0.000000e+0
    outer loop
      vertex 1.414214e+0 -1.414214e+0 0.000000e+0
      vertex 1.414214e+0 -1.414214e+0 1.200000e+1
      vertex 1.847759e+0 -7.653669e-1 0.000000e+0
    endloop
  endfacet
  facet normal -8.314696e-1 5.555702e-1 0.000000e+0
    outer loop
      vertex 1.414214e+0 -1.414214e+0 1.200000e+1
      vertex 1.847759e+0 -7.653669e-1 1.200000e+1
      vertex 1.847759e+0 -7.653669e-1 0.000000e+0
    endloop
  endfacet
  facet normal 0.000000e+0 0.000000e+0 -1.000000e+0
    outer loop
      vertex 0.000000e+0 0.000000e+0 0.000000e+0
      vertex 1.847759e+0 -7.653669e-1 0.000000e+0
      vertex 1.414214e+0 -1.414214e+0 0.000000e+0
    endloop
  endfacet
  facet normal 0.000000e+0 0.000000e+0 1.000000e+0
    outer loop
      vertex 0.000000e+0 0.000000e+0 1.200000e+1
      vertex 1.414214e+0 -1.414214e+0 1.200000e+1
      vertex 1.847759e+0 -7.653669e-1 1.200000e+1
    endloop
  endfacet
  facet normal -9.807853e-1 1.950903e-1 0.000000e+0
    outer loop
      vertex 1.847759e+0 -7.653669e-1 0.000000e+0
      vertex 1.847759e+0 -7.653669e-1 1.200000e+1
      vertex 2.000000e+0 -4.898587e-16 0.000000e+0
    endloop
  endfacet
  facet normal -9.807853e-1 1.950903e-1 0.000000e+0
    outer loop
      vertex 1.847759e+0 -7.653669e-1 1.200000e+1
      vertex 2.000000e+0 -4.898587e-16 1.200000e+1
      vertex 2.000000e+0 -4.898587e-16 0.000000e+0
    endloop
  endfacet
  facet normal 0.000000e+0 0.000000e+0 -1.000000e+0
    outer loop
      vertex 0.000000e+0 0.000000e+0 0.000000e+0
      vertex 2.000000e+0 -4.898587e-16 0.000000e+0
      vertex 1.847759e+0 -7.653669e-1 0.000000e+0
    endloop
  endfacet
  facet normal 0.000000e+0 0.000000e+0 1.000000e+0
    outer loop
      vertex 0.000000e+0 0.000000e+0 1.200000e+1
      vertex 1.847759e+0 -7.653669e-1 1.200000e+1
      vertex 2.000000e+0 -4.898587e-16 1.200000e+1
    endloop
  endfacet
  facet normal -8.660254e-1 -5.000000e-1 0.000000e+0
    outer loop
      vertex 3.500000e+0 0.000000e+0 1.200000e+1
      vertex 3.500000e+0 0.000000e+0 1.470000e+1
      vertex 1.750000e+0 3.031089e+0 1.200000e+1
    endloop
  endfacet
  facet normal -8.660254e-1 -5.000000e-1 0.000000e+0
    outer loop
      vertex 3.500000e+0 0.000000e+0 1.470000e+1
      vertex 1.750000e+0 3.031089e+0 1.470000e+1
      vertex 1.750000e+0 3.031089e+0 1.200000e+1
    endloop
  endfacet
  facet normal 0.000000e+0 0.000000e+0 -1.000000e+0
    outer loop
      vertex 0.000000e+0 0.000000e+0 1.200000e+1
      vertex 1.750000e+0 3.031089e+0 1.200000e+1
      vertex 3.500000e+0 0.000000e+0 1.200000e+1
    endloop
  endfacet
  facet normal 0.000000e+0 0.000000e+0 1.000000e+0
    outer loop
      vertex 0.000000e+0 0.000000e+0 1.470000e+1
      vertex 3.500000e+0 0.000000e+0 1.470000e+1
      vertex 1.750000e+0 3.031089e+0 1.470000e+1
    endloop
  endfacet
  facet normal -1.268826e-16 -1.000000e+0 0.000000e+0
    outer loop
      vertex 1.750000e+0 3.031089e+0 1.200000e+1
      vertex 1.750000e+0 3.031089e+0 1.470000e+1
      vertex -1.750000e+0 3.031089e+0 1.200000e+1
    endloop
  endfacet
  facet normal -1.268826e-16 -1.000000e+0 0.000000e+0
    outer loop
      vertex 1.750000e+0 3.031089e+0 1.470000e+1
      vertex -1.750000e+0 3.031089e+0 1.470000e+1
      vertex -1.750000e+0 3.031089e+0 1.200000e+1
    endloop
  endfacet
  facet normal 0.000000e+0 0.000000e+0 -1.000000e+0
    outer loop
      vertex 0.000000e+0 0.000000e+0 1.200000e+1
      vertex -1.750000e+0 3.031089e+0 1.200000e+1
      vertex 1.750000e+0 3.031089e+0 1.200000e+1
    endloop
  endfacet
  facet normal 0.000000e+0 0.000000e+0 1.000000e+0
    outer loop
      vertex 0.000000e+0 0.000000e+0 1.470000e+1
      vertex 1.750000e+0 3.031089e+0 1.470000e+1
      vertex -1.750000e+0 3.031089e+0 1.470000e+1
    endloop
  endfacet
  facet normal 8.660254e-1 -5.000000e-1 0.000000e+0
    outer loop
      vertex -1.750000e+0 3.031089e+0 1.200000e+1
      vertex -1.750000e+0 3.031089e+0 1.470000e+1
      vertex -3.500000e+0 4.286264e-16 1.200000e+1
    endloop
  endfacet
  facet normal 8.660254e-1 -5.000000e-1 0.000000e+0
    outer loop
      vertex -1.750000e+0 3.031089e+0 1.470000e+1
      vertex -3.500000e+0 4.286264e-16 1.470000e+1
      vertex -3.500000e+0 4.286264e-16 1.200000e+1
    endloop
  endfacet
  facet normal 0.000000e+0 0.000000e+0 -1.000000e+0
    outer loop
      vertex 0.000000e+0 0.000000e+0 1.200000e+1
      vertex -3.500000e+0 4.286264e-16 1.200000e+1
      vertex -1.750000e+0 3.031089e+0 1.200000e+1
    endloop
  endfacet
  facet normal 0.000000e+0 0.000000e+0 1.000000e+0
    outer loop
      vertex 0.000000e+0 0.000000e+0 1.470000e+1
      vertex -1.750000e+0 3.031089e+0 1.470000e+1
      vertex -3.500000e+0 4.286264e-16 1.470000e+1
    endloop
  endfacet
  facet normal 8.660254e-1 5.000000e-1 0.000000e+0
    outer loop
      vertex -3.500000e+0 4.286264e-16 1.200000e+1
      vertex -3.500000e+0 4.286264e-16 1.470000e+1
      vertex -1.750000e+0 -3.031089e+0 1.200000e+1
    endloop
  endfacet
  facet normal 8.660254e-1 5.000000e-1 0.000000e+0
    outer loop
      vertex -3.500000e+0 4.286264e-16 1.470000e+1
      vertex -1.750000e+0 -3.031089e+0 1.470000e+1
      vertex -1.750000e+0 -3.031089e+0 1.200000e+1
    endloop
  endfacet
  facet normal 0.000000e+0 0.000000e+0 -1.000000e+0
    outer loop
      vertex 0.000000e+0 0.000000e+0 1.200000e+1
      vertex -1.750000e+0 -3.031089e+0 1.200000e+1
      vertex -3.500000e+0 4.286264e-16 1.200000e+1
    endloop
  endfacet
  facet normal 0.000000e+0 0.000000e+0 1.000000e+0
    outer loop
      vertex 0.000000e+0 0.000000e+0 1.470000e+1
      vertex -3.500000e+0 4.286264e-16 1.470000e+1
      vertex -1.750000e+0 -3.031089e+0 1.470000e+1
    endloop
  endfacet
  facet normal 1.268826e-16 1.000000e+0 0.000000e+0
    outer loop
      vertex -1.750000e+0 -3.031089e+0 1.200000e+1
      vertex -1.750000e+0 -3.031089e+0 1.470000e+1
      vertex 1.750000e+0 -3.031089e+0 1.200000e+1
    endloop
  endfacet
  facet normal 1.268826e-16 1.000000e+0 0.000000e+0
    outer loop
      vertex -1.750000e+0 -3.031089e+0 1.470000e+1
      vertex 1.750000e+0 -3.031089e+0 1.470000e+1
      vertex 1.750000e+0 -3.031089e+0 1.200000e+1
    endloop
  endfacet
  facet normal 0.000000e+0 0.000000e+0 -1.000000e+0
    outer loop
      vertex 0.000000e+0 0.000000e+0 1.200000e+1
      vertex 1.750000e+0 -3.031089e+0 1.200000e+1
      vertex -1.750000e+0 -3.031089e+0 1.200000e+1
    endloop
  endfacet
  facet normal 0.000000e+0 0.000000e+0 1.000000e+0
    outer loop
      vertex 0.000000e+0 0.000000e+0 1.470000e+1
      vertex -1.750000e+0 -3.031089e+0 1.470000e+1
      vertex 1.750000e+0 -3.031089e+0 1.470000e+1
    endloop
  endfacet
  facet normal -8.660254e-1 5.000000e-1 0.000000e+0
    outer loop
      vertex 1.750000e+0 -3.031089e+0 1.200000e+1
      vertex 1.750000e+0 -3.031089e+0 1.470000e+1
      vertex 3.500000e+0 -8.572528e-16 1.200000e+1
    endloop
  endfacet
  facet normal -8.660254e-1 5.000000e-1 0.000000e+0
    outer loop
      vertex 1.750000e+0 -3.031089e+0 1.470000e+1
      vertex 3.500000e+0 -8.572528e-16 1.470000e+1
      vertex 3.500000e+0 -8.572528e-16 1.200000e+1
    endloop
  endfacet
  facet normal 0.000000e+0 0.000000e+0 -1.000000e+0
    outer loop
      vertex 0.000000e+0 0.000000e+0 1.200000e+1
      vertex 3.500000e+0 -8.572528e-16 1.200000e+1
      vertex 1.750000e+0 -3.031089e+0 1.200000e+1
    endloop
  endfacet
  facet normal 0.000000e+0 0.000000e+0 1.000000e+0
    outer loop
      vertex 0.000000e+0 0.000000e+0 1.470000e+1
      vertex 1.750000e+0 -3.031089e+0 1.470000e+1
      vertex 3.500000e+0 -8.572528e-16 1.470000e+1
    endloop
  endfacet
endsolid iso-1207-m4-12
