solid iso-4762-m5-20
  facet normal -9.807853e-1 -1.950903e-1 0.000000e+0
    outer loop
      vertex 2.500000e+0 0.000000e+0 0.000000e+0
      vertex 2.500000e+0 0.000000e+0 2.000000e+1
      vertex 2.309699e+0 9.567086e-1 0.000000e+0
    endloop
  endfacet
  facet normal -9.807853e-1 -1.950903e-1 0.000000e+0
    outer loop
      vertex 2.500000e+0 0.000000e+0 2.000000e+1
      vertex 2.309699e+0 9.567086e-1 2.000000e+1
      vertex 2.309699e+0 9.567086e-1 0.000000e+0
    endloop
  endfacet
  facet normal -8.314696e-1 -5.555702e-1 0.000000e+0
    outer loop
      vertex 2.309699e+0 9.567086e-1 0.000000e+0
      vertex 2.309699e+0 9.567086e-1 2.000000e+1
      vertex 1.767767e+0 1.767767e+0 0.000000e+0
    endloop
  endfacet
  facet normal -8.314696e-1 -5.555702e-1 0.000000e+0
    outer loop
      vertex 2.309699e+0 9.567086e-1 2.000000e+1
      vertex 1.767767e+0 1.767767e+0 2.000000e+1
      vertex 1.767767e+0 1.767767e+0 0.000000e+0
    endloop
  endfacet
  facet normal -5.555702e-1 -8.314696e-1 0.000000e+0
    outer loop
      vertex 1.767767e+0 1.767767e+0 0.000000e+0
      vertex 1.767767e+0 1.767767e+0 2.000000e+1
      vertex 9.567086e-1 2.309699e+0 0.000000e+0
    endloop
  endfacet
  facet normal -5.555702e-1 -8.314696e-1 0.000000e+0
    outer loop
      vertex 1.767767e+0 1.767767e+0 2.000000e+1
      vertex 9.567086e-1 2.309699e+0 2.000000e+1
      vertex 9.567086e-1 2.309699e+0 0.000000e+0
    endloop
  endfacet
  facet normal -1.950903e-1 -9.807853e-1 0.000000e+0
    outer loop
      vertex 9.567086e-1 2.309699e+0 0.000000e+0
      vertex 9.567086e-1 2.309699e+0 2.000000e+1
      vertex 0.000000e+0 2.500000e+0 0.000000e+0
    endloop
  endfacet
  facet normal -1.950903e-1 -9.807853e-1 0.000000e+0
    outer loop
      vertex 9.567086e-1 2.309699e+0 2.000000e+1
      vertex 0.000000e+0 2.500000e+0 2.000000e+1
      vertex 0.000000e+0 2.500000e+0 0.000000e+0
    endloop
  endfacet
  facet normal 1.950903e-1 -9.807853e-1 0.000000e+0
    outer loop
      vertex 0.000000e+0 2.500000e+0 0.000000e+0
      vertex 0.000000e+0 2.500000e+0 2.000000e+1
      vertex -9.567086e-1 2.309699e+0 0.000000e+0
    endloop
  endfacet
  facet normal 1.950903e-1 -9.807853e-1 0.000000e+0
    outer loop
      vertex 0.000000e+0 2.500000e+0 2.000000e+1
      vertex -9.567086e-1 2.309699e+0 2.000000e+1
      vertex -9.567086e-1 2.309699e+0 0.000000e+0
    endloop
  endfacet
  facet normal 5.555702e-1 -8.314696e-1 0.000000e+0
    outer loop
      vertex -9.567086e-1 2.309699e+0 0.000000e+0
      vertex -9.567086e-1 2.309699e+0 2.000000e+1
      vertex -1.767767e+0 1.767767e+0 0.000000e+0
    endloop
  endfacet
  facet normal 5.555702e-1 -8.314696e-1 0.000000e+0
    outer loop
      vertex -9.567086e-1 2.309699e+0 2.000000e+1
      vertex -1.767767e+0 1.767767e+0 2.000000e+1
      vertex -1.767767e+0 1.767767e+0 0.000000e+0
    endloop
  endfacet
  facet normal 8.314696e-1 -5.555702e-1 0.000000e+0
    outer loop
      vertex -1.767767e+0 1.767767e+0 0.000000e+0
      vertex -1.767767e+0 1.767767e+0 2.000000e+1
      vertex -2.309699e+0 9.567086e-1 0.000000e+0
    endloop
  endfacet
  facet normal 8.314696e-1 -5.555702e-1 0.000000e+0
    outer loop
      vertex -1.767767e+0 1.767767e+0 2.000000e+1
      vertex -2.309699e+0 9.567086e-1 2.000000e+1
      vertex -2.309699e+0 9.567086e-1 0.000000e+0
    endloop
  endfacet
  facet normal 9.807853e-1 -1.950903e-1 0.000000e+0
    outer loop
      vertex -2.309699e+0 9.567086e-1 0.000000e+0
      vertex -2.309699e+0 9.567086e-1 2.000000e+1
      vertex -2.500000e+0 0.000000e+0 0.000000e+0
    endloop
  endfacet
  facet normal 9.807853e-1 -1.950903e-1 0.000000e+0
    outer loop
      vertex -2.309699e+0 9.567086e-1 2.000000e+1
      vertex -2.500000e+0 0.000000e+0 2.000000e+1
      vertex -2.500000e+0 0.000000e+0 0.000000e+0
    endloop
  endfacet
  facet normal 9.807853e-1 1.950903e-1 0.000000e+0
    outer loop
      vertex -2.500000e+0 0.000000e+0 0.000000e+0
      vertex -2.500000e+0 0.000000e+0 2.000000e+1
      vertex -2.309699e+0 -9.567086e-1 0.000000e+0
    endloop
  endfacet
  facet normal 9.807853e-1 1.950903e-1 0.000000e+0
    outer loop
      vertex -2.500000e+0 0.000000e+0 2.000000e+1
      vertex -2.309699e+0 -9.567086e-1 2.000000e+1
      vertex -2.309699e+0 -9.567086e-1 0.000000e+0
    endloop
  endfacet
  facet normal 8.314696e-1 5.555702e-1 0.000000e+0
    outer loop
      vertex -2.309699e+0 -9.567086e-1 0.000000e+0
      vertex -2.309699e+0 -9.567086e-1 2.000000e+1
      vertex -1.767767e+0 -1.767767e+0 0.000000e+0
    endloop
  endfacet
  facet normal 8.314696e-1 5.555702e-1 0.000000e+0
    outer loop
      vertex -2.309699e+0 -9.567086e-1 2.000000e+1
      vertex -1.767767e+0 -1.767767e+0 2.000000e+1
      vertex -1.767767e+0 -1.767767e+0 0.000000e+0
    endloop
  endfacet
  facet normal 5.555702e-1 8.314696e-1 0.000000e+0
    outer loop
      vertex -1.767767e+0 -1.767767e+0 0.000000e+0
      vertex -1.767767e+0 -1.767767e+0 2.000000e+1
      vertex -9.567086e-1 -2.309699e+0 0.000000e+0
    endloop
  endfacet
  facet normal 5.555702e-1 8.314696e-1 0.000000e+0
    outer loop
      vertex -1.767767e+0 -1.767767e+0 2.000000e+1
      vertex -9.567086e-1 -2.309699e+0 2.000000e+1
      vertex -9.567086e-1 -2.309699e+0 0.000000e+0
    endloop
  endfacet
  facet normal 1.950903e-1 9.807853e-1 0.000000e+0
    outer loop
      vertex -9.567086e-1 -2.309699e+0 0.000000e+0
      vertex -9.567086e-1 -2.309699e+0 2.000000e+1
      vertex 0.000000e+0 -2.500000e+0 0.000000e+0
    endloop
  endfacet
  facet normal 1.950903e-1 9.807853e-1 0.000000e+0
    outer loop
      vertex -9.567086e-1 -2.309699e+0 2.000000e+1
      vertex 0.000000e+0 -2.500000e+0 2.000000e+1
      vertex 0.000000e+0 -2.500000e+0 0.000000e+0
    endloop
  endfacet
  facet normal -1.950903e-1 9.807853e-1 0.000000e+0
    outer loop
      vertex 0.000000e+0 -2.500000e+0 0.000000e+0
      vertex 0.000000e+0 -2.500000e+0 2.000000e+1
      vertex 9.567086e-1 -2.309699e+0 0.000000e+0
    endloop
  endfacet
  facet normal -1.950903e-1 9.807853e-1 0.000000e+0
    outer loop
      vertex 0.000000e+0 -2.500000e+0 2.000000e+1
      vertex 9.567086e-1 -2.309699e+0 2.000000e+1
      vertex 9.567086e-1 -2.309699e+0 0.000000e+0
    endloop
  endfacet
  facet normal -5.555702e-1 8.314696e-1 0.000000e+0
    outer loop
      vertex 9.567086e-1 -2.309699e+0 0.000000e+0
      vertex 9.567086e-1 -2.309699e+0 2.000000e+1
      vertex 1.767767e+0 -1.767767e+0 0.000000e+0
    endloop
  endfacet
  facet normal -5.555702e-1 8.314696e-1 0.000000e+0
    outer loop
      vertex 9.567086e-1 -2.309699e+0 2.000000e+1
      vertex 1.767767e+0 -1.767767e+0 2.000000e+1
      vertex 1.767767e+0 -1.767767e+0 0.000000e+0
    endloop
  endfacet
  facet normal -8.314696e-1 5.555702e-1 0.000000e+0
    outer loop
      vertex 1.767767e+0 -1.767767e+0 0.000000e+0
      vertex 1.767767e+0 -1.767767e+0 2.000000e+1
      vertex 2.309699e+0 -9.567086e-1 0.000000e+0
    endloop
  endfacet
  facet normal -8.314696e-1 5.555702e-1 0.000000e+0
    outer loop
      vertex 1.767767e+0 -1.767767e+0 2.000000e+1
      vertex 2.309699e+0 -9.567086e-1 2.000000e+1
      vertex 2.309699e+0 -9.567086e-1 0.000000e+0
    endloop
  endfacet
  facet normal -9.807853e-1 1.950903e-1 0.000000e+0
    outer loop
      vertex 2.309699e+0 -9.567086e-1 0.000000e+0
      vertex 2.309699e+0 -9.567086e-1 2.000000e+1
      vertex 2.500000e+0 0.000000e+0 0.000000e+0
    endloop
  endfacet
  facet normal -9.807853e-1 1.950903e-1 0.000000e+0
    outer loop
      vertex 2.309699e+0 -9.567086e-1 2.000000e+1
      vertex 2.500000e+0 0.000000e+0 2.000000e+1
      vertex 2.500000e+0 0.000000e+0 0.000000e+0
    endloop
  endfacet
  facet normal 0.000000e+0 0.000000e+0 -1.000000e+0
    outer loop
      vertex 0.000000e+0 0.000000e+0 0.000000e+0
      vertex 2.309699e+0 9.567086e-1 0.000000e+0
      vertex 2.500000e+0 0.000000e+0 0.000000e+0
    endloop
  endfacet
  facet normal 0.000000e+0 0.000000e+0 -1.000000e+0
    outer loop
      vertex 0.000000e+0 0.000000e+0 0.000000e+0
      vertex 1.767767e+0 1.767767e+0 0.000000e+0
      vertex 2.309699e+0 9.567086e-1 0.000000e+0
    endloop
  endfacet
  facet normal 0.000000e+0 0.000000e+0 -1.000000e+0
    outer loop
      vertex 0.000000e+0 0.000000e+0 0.000000e+0
      vertex 9.567086e-1 2.309699e+0 0.000000e+0
      vertex 1.767767e+0 1.767767e+0 0.000000e+0
    endloop
  endfacet
  facet normal 0.000000e+0 0.000000e+0 -1.000000e+0
    outer loop
      vertex 0.000000e+0 0.000000e+0 0.000000e+0
      vertex 0.000000e+0 2.500000e+0 0.000000e+0
      vertex 9.567086e-1 2.309699e+0 0.000000e+0
    endloop
  endfacet
  facet normal 0.000000e+0 0.000000e+0 -1.000000e+0
    outer loop
      vertex 0.000000e+0 0.000000e+0 0.000000e+0
      vertex -9.567086e-1 2.309699e+0 0.000000e+0
      vertex 0.000000e+0 2.500000e+0 0.000000e+0
    endloop
  endfacet
  facet normal 0.000000e+0 0.000000e+0 -1.000000e+0
    outer loop
      vertex 0.000000e+0 0.000000e+0 0.000000e+0
      vertex -1.767767e+0 1.767767e+0 0.000000e+0
      vertex -9.567086e-1 2.309699e+0 0.000000e+0
    endloop
  endfacet
  facet normal 0.000000e+0 0.000000e+0 -1.000000e+0
    outer loop
      vertex 0.000000e+0 0.000000e+0 0.000000e+0
      vertex -2.309699e+0 9.567086e-1 0.000000e+0
      vertex -1.767767e+0 1.767767e+0 0.000000e+0
    endloop
  endfacet
  facet normal 0.000000e+0 0.000000e+0 -1.000000e+0
    outer loop
      vertex 0.000000e+0 0.000000e+0 0.000000e+0
      vertex -2.500000e+0 0.000000e+0 0.000000e+0
      vertex -2.309699e+0 9.567086e-1 0.000000e+0
    endloop
  endfacet
  facet normal 0.000000e+0 0.000000e+0 -1.000000e+0
    outer loop
      vertex 0.000000e+0 0.000000e+0 0.000000e+0
      vertex -2.309699e+0 -9.567086e-1 0.000000e+0
      vertex -2.500000e+0 0.000000e+0 0.000000e+0
    endloop
  endfacet
  facet normal 0.000000e+0 0.000000e+0 -1.000000e+0
    outer loop
      vertex 0.000000e+0 0.000000e+0 0.000000e+0
      vertex -1.767767e+0 -1.767767e+0 0.000000e+0
      vertex -2.309699e+0 -9.567086e-1 0.000000e+0
    endloop
  endfacet
  facet normal 0.000000e+0 0.000000e+0 -1.000000e+0
    outer loop
      vertex 0.000000e+0 0.000000e+0 0.000000e+0
      vertex -9.567086e-1 -2.309699e+0 0.000000e+0
      vertex -1.767767e+0 -1.767767e+0 0.000000e+0
    endloop
  endfacet
  facet normal 0.000000e+0 0.000000e+0 -1.000000e+0
    outer loop
      vertex 0.000000e+0 0.000000e+0 0.000000e+0
      vertex 0.000000e+0 -2.500000e+0 0.000000e+0
      vertex -9.567086e-1 -2.309699e+0 0.000000e+0
    endloop
  endfacet
  facet normal 0.000000e+0 0.000000e+0 -1.000000e+0
    outer loop
      vertex 0.000000e+0 0.000000e+0 0.000000e+0
      vertex 9.567086e-1 -2.309699e+0 0.000000e+0
      vertex 0.000000e+0 -2.500000e+0 0.000000e+0
    endloop
  endfacet
  facet normal 0.000000e+0 0.000000e+0 -1.000000e+0
    outer loop
      vertex 0.000000e+0 0.000000e+0 0.000000e+0
      vertex 1.767767e+0 -1.767767e+0 0.000000e+0
      vertex 9.567086e-1 -2.309699e+0 0.000000e+0
    endloop
  endfacet
  facet normal 0.000000e+0 0.000000e+0 -1.000000e+0
    outer loop
      vertex 0.000000e+0 0.000000e+0 0.000000e+0
      vertex 2.309699e+0 -9.567086e-1 0.000000e+0
      vertex 1.767767e+0 -1.767767e+0 0.000000e+0
    endloop
  endfacet
  facet normal 0.000000e+0 0.000000e+0 -1.000000e+0
    outer loop
      vertex 0.000000e+0 0.000000e+0 0.000000e+0
      vertex 2.500000e+0 0.000000e+0 0.000000e+0
      vertex 2.309699e+0 -9.567086e-1 0.000000e+0
    endloop
  endfacet
  facet normal 0.000000e+0 0.000000e+0 -1.000000e+0
    outer loop
      vertex 4.250000e+0 0.000000e+0 2.000000e+1
      vertex 2.500000e+0 0.000000e+0 2.000000e+1
      vertex 3.926488e+0 1.626405e+0 2.000000e+1
    endloop
  endfacet
  facet normal 0.000000e+0 0.000000e+0 -1.000000e+0
    outer loop
      vertex 3.926488e+0 1.626405e+0 2.000000e+1
      vertex 2.500000e+0 0.000000e+0 2.000000e+1
      vertex 2.309699e+0 9.567086e-1 2.000000e+1
    endloop
  endfacet
  facet normal 0.000000e+0 0.000000e+0 -1.000000e+0
    outer loop
      vertex 3.926488e+0 1.626405e+0 2.000000e+1
      vertex 2.309699e+0 9.567086e-1 2.000000e+1
      vertex 3.005204e+0 3.005204e+0 2.000000e+1
    endloop
  endfacet
  facet normal 0.000000e+0 0.000000e+0 -1.000000e+0
    outer loop
      vertex 3.005204e+0 3.005204e+0 2.000000e+1
      vertex 2.309699e+0 9.567086e-1 2.000000e+1
      vertex 1.767767e+0 1.767767e+0 2.000000e+1
    endloop
  endfacet
  facet normal 0.000000e+0 0.000000e+0 -1.000000e+0
    outer loop
      vertex 3.005204e+0 3.005204e+0 2.000000e+1
      vertex 1.767767e+0 1.767767e+0 2.000000e+1
      vertex 1.626405e+0 3.926488e+0 2.000000e+1
    endloop
  endfacet
  facet normal 0.000000e+0 0.000000e+0 -1.000000e+0
    outer loop
      vertex 1.626405e+0 3.926488e+0 2.000000e+1
      vertex 1.767767e+0 1.767767e+0 2.000000e+1
      vertex 9.567086e-1 2.309699e+0 2.000000e+1
    endloop
  endfacet
  facet normal 0.000000e+0 0.000000e+0 -1.000000e+0
    outer loop
      vertex 1.626405e+0 3.926488e+0 2.000000e+1
      vertex 9.567086e-1 2.309699e+0 2.000000e+1
      vertex 0.000000e+0 4.250000e+0 2.000000e+1
    endloop
  endfacet
  facet normal 0.000000e+0 0.000000e+0 -1.000000e+0
    outer loop
      vertex 0.000000e+0 4.250000e+0 2.000000e+1
      vertex 9.567086e-1 2.309699e+0 2.000000e+1
      vertex 0.000000e+0 2.500000e+0 2.000000e+1
    endloop
  endfacet
  facet normal 0.000000e+0 0.000000e+0 -1.000000e+0
    outer loop
      vertex 0.000000e+0 4.250000e+0 2.000000e+1
      vertex 0.000000e+0 2.500000e+0 2.000000e+1
      vertex -1.626405e+0 3.926488e+0 2.000000e+1
    endloop
  endfacet
  facet normal 0.000000e+0 0.000000e+0 -1.000000e+0
    outer loop
      vertex -1.626405e+0 3.926488e+0 2.000000e+1
      vertex 0.000000e+0 2.500000e+0 2.000000e+1
      vertex -9.567086e-1 2.309699e+0 2.000000e+1
    endloop
  endfacet
  facet normal 0.000000e+0 0.000000e+0 -1.000000e+0
    outer loop
      vertex -1.626405e+0 3.926488e+0 2.000000e+1
      vertex -9.567086e-1 2.309699e+0 2.000000e+1
      vertex -3.005204e+0 3.005204e+0 2.000000e+1
    endloop
  endfacet
  facet normal 0.000000e+0 0.000000e+0 -1.000000e+0
    outer loop
      vertex -3.005204e+0 3.005204e+0 2.000000e+1
      vertex -9.567086e-1 2.309699e+0 2.000000e+1
      vertex -1.767767e+0 1.767767e+0 2.000000e+1
    endloop
  endfacet
  facet normal 0.000000e+0 0.000000e+0 -1.000000e+0
    outer loop
      vertex -3.005204e+0 3.005204e+0 2.000000e+1
      vertex -1.767767e+0 1.767767e+0 2.000000e+1
      vertex -3.926488e+0 1.626405e+0 2.000000e+1
    endloop
  endfacet
  facet normal 0.000000e+0 0.000000e+0 -1.000000e+0
    outer loop
      vertex -3.926488e+0 1.626405e+0 2.000000e+1
      vertex -1.767767e+0 1.767767e+0 2.000000e+1
      vertex -2.309699e+0 9.567086e-1 2.000000e+1
    endloop
  endfacet
  facet normal 0.000000e+0 0.000000e+0 -1.000000e+0
    outer loop
      vertex -3.926488e+0 1.626405e+0 2.000000e+1
      vertex -2.309699e+0 9.567086e-1 2.000000e+1
      vertex -4.250000e+0 0.000000e+0 2.000000e+1
    endloop
  endfacet
  facet normal 0.000000e+0 0.000000e+0 -1.000000e+0
    outer loop
      vertex -4.250000e+0 0.000000e+0 2.000000e+1
      vertex -2.309699e+0 9.567086e-1 2.000000e+1
      vertex -2.500000e+0 0.000000e+0 2.000000e+1
    endloop
  endfacet
  facet normal 0.000000e+0 0.000000e+0 -1.000000e+0
    outer loop
      vertex -4.250000e+0 0.000000e+0 2.000000e+1
      vertex -2.500000e+0 0.000000e+0 2.000000e+1
      vertex -3.926488e+0 -1.626405e+0 2.000000e+1
    endloop
  endfacet
  facet normal 0.000000e+0 0.000000e+0 -1.000000e+0
    outer loop
      vertex -3.926488e+0 -1.626405e+0 2.000000e+1
      vertex -2.500000e+0 0.000000e+0 2.000000e+1
      vertex -2.309699e+0 -9.567086e-1 2.000000e+1
    endloop
  endfacet
  facet normal 0.000000e+0 0.000000e+0 -1.000000e+0
    outer loop
      vertex -3.926488e+0 -1.626405e+0 2.000000e+1
      vertex -2.309699e+0 -9.567086e-1 2.000000e+1
      vertex -3.005204e+0 -3.005204e+0 2.000000e+1
    endloop
  endfacet
  facet normal 0.000000e+0 0.000000e+0 -1.000000e+0
    outer loop
      vertex -3.005204e+0 -3.005204e+0 2.000000e+1
      vertex -2.309699e+0 -9.567086e-1 2.000000e+1
      vertex -1.767767e+0 -1.767767e+0 2.000000e+1
    endloop
  endfacet
  facet normal 0.000000e+0 0.000000e+0 -1.000000e+0
    outer loop
      vertex -3.005204e+0 -3.005204e+0 2.000000e+1
      vertex -1.767767e+0 -1.767767e+0 2.000000e+1
      vertex -1.626405e+0 -3.926488e+0 2.000000e+1
    endloop
  endfacet
  facet normal 0.000000e+0 0.000000e+0 -1.000000e+0
    outer loop
      vertex -1.626405e+0 -3.926488e+0 2.000000e+1
      vertex -1.767767e+0 -1.767767e+0 2.000000e+1
      vertex -9.567086e-1 -2.309699e+0 2.000000e+1
    endloop
  endfacet
  facet normal 0.000000e+0 0.000000e+0 -1.000000e+0
    outer loop
      vertex -1.626405e+0 -3.926488e+0 2.000000e+1
      vertex -9.567086e-1 -2.309699e+0 2.000000e+1
      vertex 0.000000e+0 -4.250000e+0 2.000000e+1
    endloop
  endfacet
  facet normal 0.000000e+0 0.000000e+0 -1.000000e+0
    outer loop
      vertex 0.000000e+0 -4.250000e+0 2.000000e+1
      vertex -9.567086e-1 -2.309699e+0 2.000000e+1
      vertex 0.000000e+0 -2.500000e+0 2.000000e+1
    endloop
  endfacet
  facet normal 0.000000e+0 0.000000e+0 -1.000000e+0
    outer loop
      vertex 0.000000e+0 -4.250000e+0 2.000000e+1
      vertex 0.000000e+0 -2.500000e+0 2.000000e+1
      vertex 1.626405e+0 -3.926488e+0 2.000000e+1
    endloop
  endfacet
  facet normal 0.000000e+0 0.000000e+0 -1.000000e+0
    outer loop
      vertex 1.626405e+0 -3.926488e+0 2.000000e+1
      vertex 0.000000e+0 -2.500000e+0 2.000000e+1
      vertex 9.567086e-1 -2.309699e+0 2.000000e+1
    endloop
  endfacet
  facet normal 0.000000e+0 0.000000e+0 -1.000000e+0
    outer loop
      vertex 1.626405e+0 -3.926488e+0 2.000000e+1
      vertex 9.567086e-1 -2.309699e+0 2.000000e+1
      vertex 3.005204e+0 -3.005204e+0 2.000000e+1
    endloop
  endfacet
  facet normal 0.000000e+0 0.000000e+0 -1.000000e+0
    outer loop
      vertex 3.005204e+0 -3.005204e+0 2.000000e+1
      vertex 9.567086e-1 -2.309699e+0 2.000000e+1
      vertex 1.767767e+0 -1.767767e+0 2.000000e+1
    endloop
  endfacet
  facet normal 0.000000e+0 0.000000e+0 -1.000000e+0
    outer loop
      vertex 3.005204e+0 -3.005204e+0 2.000000e+1
      vertex 1.767767e+0 -1.767767e+0 2.000000e+1
      vertex 3.926488e+0 -1.626405e+0 2.000000e+1
    endloop
  endfacet
  facet normal 0.000000e+0 0.000000e+0 -1.000000e+0
    outer loop
      vertex 3.926488e+0 -1.626405e+0 2.000000e+1
      vertex 1.767767e+0 -1.767767e+0 2.000000e+1
      vertex 2.309699e+0 -9.567086e-1 2.000000e+1
    endloop
  endfacet
  facet normal 0.000000e+0 0.000000e+0 -1.000000e+0
    outer loop
      vertex 3.926488e+0 -1.626405e+0 2.000000e+1
      vertex 2.309699e+0 -9.567086e-1 2.000000e+1
      vertex 4.250000e+0 0.000000e+0 2.000000e+1
    endloop
  endfacet
  facet normal 0.000000e+0 0.000000e+0 -1.000000e+0
    outer loop
      vertex 4.250000e+0 0.000000e+0 2.000000e+1
      vertex 2.309699e+0 -9.567086e-1 2.000000e+1
      vertex 2.500000e+0 0.000000e+0 2.000000e+1
    endloop
  endfacet
  facet normal -9.807853e-1 -1.950903e-1 0.000000e+0
    outer loop
      vertex 4.250000e+0 0.000000e+0 2.000000e+1
      vertex 4.250000e+0 0.000000e+0 2.500000e+1
      vertex 3.926488e+0 1.626405e+0 2.000000e+1
    endloop
  endfacet
  facet normal -9.807853e-1 -1.950903e-1 0.000000e+0
    outer loop
      vertex 4.250000e+0 0.000000e+0 2.500000e+1
      vertex 3.926488e+0 1.626405e+0 2.500000e+1
      vertex 3.926488e+0 1.626405e+0 2.000000e+1
    endloop
  endfacet
  facet normal -8.314696e-1 -5.555702e-1 0.000000e+0
    outer loop
      vertex 3.926488e+0 1.626405e+0 2.000000e+1
      vertex 3.926488e+0 1.626405e+0 2.500000e+1
      vertex 3.005204e+0 3.005204e+0 2.000000e+1
    endloop
  endfacet
  facet normal -8.314696e-1 -5.555702e-1 0.000000e+0
    outer loop
      vertex 3.926488e+0 1.626405e+0 2.500000e+1
      vertex 3.005204e+0 3.005204e+0 2.500000e+1
      vertex 3.005204e+0 3.005204e+0 2.000000e+1
    endloop
  endfacet
  facet normal -5.555702e-1 -8.314696e-1 0.000000e+0
    outer loop
      vertex 3.005204e+0 3.005204e+0 2.000000e+1
      vertex 3.005204e+0 3.005204e+0 2.500000e+1
      vertex 1.626405e+0 3.926488e+0 2.000000e+1
    endloop
  endfacet
  facet normal -5.555702e-1 -8.314696e-1 0.000000e+0
    outer loop
      vertex 3.005204e+0 3.005204e+0 2.500000e+1
      vertex 1.626405e+0 3.926488e+0 2.500000e+1
      vertex 1.626405e+0 3.926488e+0 2.000000e+1
    endloop
  endfacet
  facet normal -1.950903e-1 -9.807853e-1 0.000000e+0
    outer loop
      vertex 1.626405e+0 3.926488e+0 2.000000e+1
      vertex 1.626405e+0 3.926488e+0 2.500000e+1
      vertex 0.000000e+0 4.250000e+0 2.000000e+1
    endloop
  endfacet
  facet normal -1.950903e-1 -9.807853e-1 0.000000e+0
    outer loop
      vertex 1.626405e+0 3.926488e+0 2.500000e+1
      vertex 0.000000e+0 4.250000e+0 2.500000e+1
      vertex 0.000000e+0 4.250000e+0 2.000000e+1
    endloop
  endfacet
  facet normal 1.950903e-1 -9.807853e-1 0.000000e+0
    outer loop
      vertex 0.000000e+0 4.250000e+0 2.000000e+1
      vertex 0.000000e+0 4.250000e+0 2.500000e+1
      vertex -1.626405e+0 3.926488e+0 2.000000e+1
    endloop
  endfacet
  facet normal 1.950903e-1 -9.807853e-1 0.000000e+0
    outer loop
      vertex 0.000000e+0 4.250000e+0 2.500000e+1
      vertex -1.626405e+0 3.926488e+0 2.500000e+1
      vertex -1.626405e+0 3.926488e+0 2.000000e+1
    endloop
  endfacet
  facet normal 5.555702e-1 -8.314696e-1 0.000000e+0
    outer loop
      vertex -1.626405e+0 3.926488e+0 2.000000e+1
      vertex -1.626405e+0 3.926488e+0 2.500000e+1
      vertex -3.005204e+0 3.005204e+0 2.000000e+1
    endloop
  endfacet
  facet normal 5.555702e-1 -8.314696e-1 0.000000e+0
    outer loop
      vertex -1.626405e+0 3.926488e+0 2.500000e+1
      vertex -3.005204e+0 3.005204e+0 2.500000e+1
      vertex -3.005204e+0 3.005204e+0 2.000000e+1
    endloop
  endfacet
  facet normal 8.314696e-1 -5.555702e-1 0.000000e+0
    outer loop
      vertex -3.005204e+0 3.005204e+0 2.000000e+1
      vertex -3.005204e+0 3.005204e+0 2.500000e+1
      vertex -3.926488e+0 1.626405e+0 2.000000e+1
    endloop
  endfacet
  facet normal 8.314696e-1 -5.555702e-1 0.000000e+0
    outer loop
      vertex -3.005204e+0 3.005204e+0 2.500000e+1
      vertex -3.926488e+0 1.626405e+0 2.500000e+1
      vertex -3.926488e+0 1.626405e+0 2.000000e+1
    endloop
  endfacet
  facet normal 9.807853e-1 -1.950903e-1 0.000000e+0
    outer loop
      vertex -3.926488e+0 1.626405e+0 2.000000e+1
      vertex -3.926488e+0 1.626405e+0 2.500000e+1
      vertex -4.250000e+0 0.000000e+0 2.000000e+1
    endloop
  endfacet
  facet normal 9.807853e-1 -1.950903e-1 0.000000e+0
    outer loop
      vertex -3.926488e+0 1.626405e+0 2.500000e+1
      vertex -4.250000e+0 0.000000e+0 2.500000e+1
      vertex -4.250000e+0 0.000000e+0 2.000000e+1
    endloop
  endfacet
  facet normal 9.807853e-1 1.950903e-1 0.000000e+0
    outer loop
      vertex -4.250000e+0 0.000000e+0 2.000000e+1
      vertex -4.250000e+0 0.000000e+0 2.500000e+1
      vertex -3.926488e+0 -1.626405e+0 2.000000e+1
    endloop
  endfacet
  facet normal 9.807853e-1 1.950903e-1 0.000000e+0
    outer loop
      vertex -4.250000e+0 0.000000e+0 2.500000e+1
      vertex -3.926488e+0 -1.626405e+0 2.500000e+1
      vertex -3.926488e+0 -1.626405e+0 2.000000e+1
    endloop
  endfacet
  facet normal 8.314696e-1 5.555702e-1 0.000000e+0
    outer loop
      vertex -3.926488e+0 -1.626405e+0 2.000000e+1
      vertex -3.926488e+0 -1.626405e+0 2.500000e+1
      vertex -3.005204e+0 -3.005204e+0 2.000000e+1
    endloop
  endfacet
  facet normal 8.314696e-1 5.555702e-1 0.000000e+0
    outer loop
      vertex -3.926488e+0 -1.626405e+0 2.500000e+1
      vertex -3.005204e+0 -3.005204e+0 2.500000e+1
      vertex -3.005204e+0 -3.005204e+0 2.000000e+1
    endloop
  endfacet
  facet normal 5.555702e-1 8.314696e-1 0.000000e+0
    outer loop
      vertex -3.005204e+0 -3.005204e+0 2.000000e+1
      vertex -3.005204e+0 -3.005204e+0 2.500000e+1
      vertex -1.626405e+0 -3.926488e+0 2.000000e+1
    endloop
  endfacet
  facet normal 5.555702e-1 8.314696e-1 0.000000e+0
    outer loop
      vertex -3.005204e+0 -3.005204e+0 2.500000e+1
      vertex -1.626405e+0 -3.926488e+0 2.500000e+1
      vertex -1.626405e+0 -3.926488e+0 2.000000e+1
    endloop
  endfacet
  facet normal 1.950903e-1 9.807853e-1 0.000000e+0
    outer loop
      vertex -1.626405e+0 -3.926488e+0 2.000000e+1
      vertex -1.626405e+0 -3.926488e+0 2.500000e+1
      vertex 0.000000e+0 -4.250000e+0 2.000000e+1
    endloop
  endfacet
  facet normal 1.950903e-1 9.807853e-1 0.000000e+0
    outer loop
      vertex -1.626405e+0 -3.926488e+0 2.500000e+1
      vertex 0.000000e+0 -4.250000e+0 2.500000e+1
      vertex 0.000000e+0 -4.250000e+0 2.000000e+1
    endloop
  endfacet
  facet normal -1.950903e-1 9.807853e-1 0.000000e+0
    outer loop
      vertex 0.000000e+0 -4.250000e+0 2.000000e+1
      vertex 0.000000e+0 -4.250000e+0 2.500000e+1
      vertex 1.626405e+0 -3.926488e+0 2.000000e+1
    endloop
  endfacet
  facet normal -1.950903e-1 9.807853e-1 0.000000e+0
    outer loop
      vertex 0.000000e+0 -4.250000e+0 2.500000e+1
      vertex 1.626405e+0 -3.926488e+0 2.500000e+1
      vertex 1.626405e+0 -3.926488e+0 2.000000e+1
    endloop
  endfacet
  facet normal -5.555702e-1 8.314696e-1 0.000000e+0
    outer loop
      vertex 1.626405e+0 -3.926488e+0 2.000000e+1
      vertex 1.626405e+0 -3.926488e+0 2.500000e+1
      vertex 3.005204e+0 -3.005204e+0 2.000000e+1
    endloop
  endfacet
  facet normal -5.555702e-1 8.314696e-1 0.000000e+0
    outer loop
      vertex 1.626405e+0 -3.926488e+0 2.500000e+1
      vertex 3.005204e+0 -3.005204e+0 2.500000e+1
      vertex 3.005204e+0 -3.005204e+0 2.000000e+1
    endloop
  endfacet
  facet normal -8.314696e-1 5.555702e-1 0.000000e+0
    outer loop
      vertex 3.005204e+0 -3.005204e+0 2.000000e+1
      vertex 3.005204e+0 -3.005204e+0 2.500000e+1
      vertex 3.926488e+0 -1.626405e+0 2.000000e+1
    endloop
  endfacet
  facet normal -8.314696e-1 5.555702e-1 0.000000e+0
    outer loop
      vertex 3.005204e+0 -3.005204e+0 2.500000e+1
      vertex 3.926488e+0 -1.626405e+0 2.500000e+1
      vertex 3.926488e+0 -1.626405e+0 2.000000e+1
    endloop
  endfacet
  facet normal -9.807853e-1 1.950903e-1 0.000000e+0
    outer loop
      vertex 3.926488e+0 -1.626405e+0 2.000000e+1
      vertex 3.926488e+0 -1.626405e+0 2.500000e+1
      vertex 4.250000e+0 0.000000e+0 2.000000e+1
    endloop
  endfacet
  facet normal -9.807853e-1 1.950903e-1 0.000000e+0
    outer loop
      vertex 3.926488e+0 -1.626405e+0 2.500000e+1
      vertex 4.250000e+0 0.000000e+0 2.500000e+1
      vertex 4.250000e+0 0.000000e+0 2.000000e+1
    endloop
  endfacet
  facet normal 0.000000e+0 0.000000e+0 1.000000e+0
    outer loop
      vertex 0.000000e+0 0.000000e+0 2.500000e+1
      vertex 4.250000e+0 0.000000e+0 2.500000e+1
      vertex 3.926488e+0 1.626405e+0 2.500000e+1
    endloop
  endfacet
  facet normal 0.000000e+0 0.000000e+0 1.000000e+0
    outer loop
      vertex 0.000000e+0 0.000000e+0 2.500000e+1
      vertex 3.926488e+0 1.626405e+0 2.500000e+1
      vertex 3.005204e+0 3.005204e+0 2.500000e+1
    endloop
  endfacet
  facet normal 0.000000e+0 0.000000e+0 1.000000e+0
    outer loop
      vertex 0.000000e+0 0.000000e+0 2.500000e+1
      vertex 3.005204e+0 3.005204e+0 2.500000e+1
      vertex 1.626405e+0 3.926488e+0 2.500000e+1
    endloop
  endfacet
  facet normal 0.000000e+0 0.000000e+0 1.000000e+0
    outer loop
      vertex 0.000000e+0 0.000000e+0 2.500000e+1
      vertex 1.626405e+0 3.926488e+0 2.500000e+1
      vertex 0.000000e+0 4.250000e+0 2.500000e+1
    endloop
  endfacet
  facet normal 0.000000e+0 0.000000e+0 1.000000e+0
    outer loop
      vertex 0.000000e+0 0.000000e+0 2.500000e+1
      vertex 0.000000e+0 4.250000e+0 2.500000e+1
      vertex -1.626405e+0 3.926488e+0 2.500000e+1
    endloop
  endfacet
  facet normal 0.000000e+0 0.000000e+0 1.000000e+0
    outer loop
      vertex 0.000000e+0 0.000000e+0 2.500000e+1
      vertex -1.626405e+0 3.926488e+0 2.500000e+1
      vertex -3.005204e+0 3.005204e+0 2.500000e+1
    endloop
  endfacet
  facet normal 0.000000e+0 0.000000e+0 1.000000e+0
    outer loop
      vertex 0.000000e+0 0.000000e+0 2.500000e+1
      vertex -3.005204e+0 3.005204e+0 2.500000e+1
      vertex -3.926488e+0 1.626405e+0 2.500000e+1
    endloop
  endfacet
  facet normal 0.000000e+0 0.000000e+0 1.000000e+0
    outer loop
      vertex 0.000000e+0 0.000000e+0 2.500000e+1
      vertex -3.926488e+0 1.626405e+0 2.500000e+1
      vertex -4.250000e+0 0.000000e+0 2.500000e+1
    endloop
  endfacet
  facet normal 0.000000e+0 0.000000e+0 1.000000e+0
    outer loop
      vertex 0.000000e+0 0.000000e+0 2.500000e+1
      vertex -4.250000e+0 0.000000e+0 2.500000e+1
      vertex -3.926488e+0 -1.626405e+0 2.500000e+1
    endloop
  endfacet
  facet normal 0.000000e+0 0.000000e+0 1.000000e+0
    outer loop
      vertex 0.000000e+0 0.000000e+0 2.500000e+1
      vertex -3.926488e+0 -1.626405e+0 2.500000e+1
      vertex -3.005204e+0 -3.005204e+0 2.500000e+1
    endloop
  endfacet
  facet normal 0.000000e+0 0.000000e+0 1.000000e+0
    outer loop
      vertex 0.000000e+0 0.000000e+0 2.500000e+1
      vertex -3.005204e+0 -3.005204e+0 2.500000e+1
      vertex -1.626405e+0 -3.926488e+0 2.500000e+1
    endloop
  endfacet
  facet normal 0.000000e+0 0.000000e+0 1.000000e+0
    outer loop
      vertex 0.000000e+0 0.000000e+0 2.500000e+1
      vertex -1.626405e+0 -3.926488e+0 2.500000e+1
      vertex 0.000000e+0 -4.250000e+0 2.500000e+1
    endloop
  endfacet
  facet normal 0.000000e+0 0.000000e+0 1.000000e+0
    outer loop
      vertex 0.000000e+0 0.000000e+0 2.500000e+1
      vertex 0.000000e+0 -4.250000e+0 2.500000e+1
      vertex 1.626405e+0 -3.926488e+0 2.500000e+1
    endloop
  endfacet
  facet normal 0.000000e+0 0.000000e+0 1.000000e+0
    outer loop
      vertex 0.000000e+0 0.000000e+0 2.500000e+1
      vertex 1.626405e+0 -3.926488e+0 2.500000e+1
      vertex 3.005204e+0 -3.005204e+0 2.500000e+1
    endloop
  endfacet
  facet normal 0.000000e+0 0.000000e+0 1.000000e+0
    outer loop
      vertex 0.000000e+0 0.000000e+0 2.500000e+1
      vertex 3.005204e+0 -3.005204e+0 2.500000e+1
      vertex 3.926488e+0 -1.626405e+0 2.500000e+1
    endloop
  endfacet
  facet normal 0.000000e+0 0.000000e+0 1.000000e+0
    outer loop
      vertex 0.000000e+0 0.000000e+0 2.500000e+1
      vertex 3.926488e+0 -1.626405e+0 2.500000e+1
      vertex 4.250000e+0 0.000000e+0 2.500000e+1
    endloop
  endfacet
endsolid iso-4762-m5-20
