solid ms20470ad5-8
  facet normal -9.807853e-1 -1.950903e-1 0.000000e+0
    outer loop
      vertex 7.812500e-2 0.000000e+0 0.000000e+0
      vertex 7.812500e-2 0.000000e+0 2.032000e+1
      vertex 7.217809e-2 2.989714e-2 0.000000e+0
    endloop
  endfacet
  facet normal -9.807853e-1 -1.950903e-1 0.000000e+0
    outer loop
      vertex 7.812500e-2 0.000000e+0 2.032000e+1
      vertex 7.217809e-2 2.989714e-2 2.032000e+1
      vertex 7.217809e-2 2.989714e-2 0.000000e+0
    endloop
  endfacet
  facet normal 0.000000e+0 0.000000e+0 -1.000000e+0
    outer loop
      vertex 0.000000e+0 0.000000e+0 0.000000e+0
      vertex 7.217809e-2 2.989714e-2 0.000000e+0
      vertex 7.812500e-2 0.000000e+0 0.000000e+0
    endloop
  endfacet
  facet normal 0.000000e+0 0.000000e+0 1.000000e+0
    outer loop
      vertex 0.000000e+0 0.000000e+0 2.032000e+1
      vertex 7.812500e-2 0.000000e+0 2.032000e+1
      vertex 7.217809e-2 2.989714e-2 2.032000e+1
    endloop
  endfacet
  facet normal -8.314696e-1 -5.555702e-1 0.000000e+0
    outer loop
      vertex 7.217809e-2 2.989714e-2 0.000000e+0
      vertex 7.217809e-2 2.989714e-2 2.032000e+1
      vertex 5.524272e-2 5.524272e-2 0.000000e+0
    endloop
  endfacet
  facet normal -8.314696e-1 -5.555702e-1 0.000000e+0
    outer loop
      vertex 7.217809e-2 2.989714e-2 2.032000e+1
      vertex 5.524272e-2 5.524272e-2 2.032000e+1
      vertex 5.524272e-2 5.524272e-2 0.000000e+0
    endloop
  endfacet
  facet normal 0.000000e+0 0.000000e+0 -1.000000e+0
    outer loop
      vertex 0.000000e+0 0.000000e+0 0.000000e+0
      vertex 5.524272e-2 5.524272e-2 0.000000e+0
      vertex 7.217809e-2 2.989714e-2 0.000000e+0
    endloop
  endfacet
  facet normal 0.000000e+0 0.000000e+0 1.000000e+0
    outer loop
      vertex 0.000000e+0 0.000000e+0 2.032000e+1
      vertex 7.217809e-2 2.989714e-2 2.032000e+1
      vertex 5.524272e-2 5.524272e-2 2.032000e+1
    endloop
  endfacet
  facet normal -5.555702e-1 -8.314696e-1 0.000000e+0
    outer loop
      vertex 5.524272e-2 5.524272e-2 0.000000e+0
      vertex 5.524272e-2 5.524272e-2 2.032000e+1
      vertex 2.989714e-2 7.217809e-2 0.000000e+0
    endloop
  endfacet
  facet normal -5.555702e-1 -8.314696e-1 0.000000e+0
    outer loop
      vertex 5.524272e-2 5.524272e-2 2.032000e+1
      vertex 2.989714e-2 7.217809e-2 2.032000e+1
      vertex 2.989714e-2 7.217809e-2 0.000000e+0
    endloop
  endfacet
  facet normal 0.000000e+0 0.000000e+0 -1.000000e+0
    outer loop
      vertex 0.000000e+0 0.000000e+0 0.000000e+0
      vertex 2.989714e-2 7.217809e-2 0.000000e+0
      vertex 5.524272e-2 5.524272e-2 0.000000e+0
    endloop
  endfacet
  facet normal 0.000000e+0 0.000000e+0 1.000000e+0
    outer loop
      vertex 0.000000e+0 0.000000e+0 2.032000e+1
      vertex 5.524272e-2 5.524272e-2 2.032000e+1
      vertex 2.989714e-2 7.217809e-2 2.032000e+1
    endloop
  endfacet
  facet normal -1.950903e-1 -9.807853e-1 0.000000e+0
    outer loop
      vertex 2.989714e-2 7.217809e-2 0.000000e+0
      vertex 2.989714e-2 7.217809e-2 2.032000e+1
      vertex 4.783777e-18 7.812500e-2 0.000000e+0
    endloop
  endfacet
  facet normal -1.950903e-1 -9.807853e-1 0.000000e+0
    outer loop
      vertex 2.989714e-2 7.217809e-2 2.032000e+1
      vertex 4.783777e-18 7.812500e-2 2.032000e+1
      vertex 4.783777e-18 7.812500e-2 0.000000e+0
    endloop
  endfacet
  facet normal 0.000000e+0 0.000000e+0 -1.000000e+0
    outer loop
      vertex 0.000000e+0 0.000000e+0 0.000000e+0
      vertex 4.783777e-18 7.812500e-2 0.000000e+0
      vertex 2.989714e-2 7.217809e-2 0.000000e+0
    endloop
  endfacet
  facet normal 0.000000e+0 0.000000e+0 1.000000e+0
    outer loop
      vertex 0.000000e+0 0.000000e+0 2.032000e+1
      vertex 2.989714e-2 7.217809e-2 2.032000e+1
      vertex 4.783777e-18 7.812500e-2 2.032000e+1
    endloop
  endfacet
  facet normal 1.950903e-1 -9.807853e-1 0.000000e+0
    outer loop
      vertex 4.783777e-18 7.812500e-2 0.000000e+0
      vertex 4.783777e-18 7.812500e-2 2.032000e+1
      vertex -2.989714e-2 7.217809e-2 0.000000e+0
    endloop
  endfacet
  facet normal 1.950903e-1 -9.807853e-1 0.000000e+0
    outer loop
      vertex 4.783777e-18 7.812500e-2 2.032000e+1
      vertex -2.989714e-2 7.217809e-2 2.032000e+1
      vertex -2.989714e-2 7.217809e-2 0.000000e+0
    endloop
  endfacet
  facet normal 0.000000e+0 0.000000e+0 -1.000000e+0
    outer loop
      vertex 0.000000e+0 0.000000e+0 0.000000e+0
      vertex -2.989714e-2 7.217809e-2 0.000000e+0
      vertex 4.783777e-18 7.812500e-2 0.000000e+0
    endloop
  endfacet
  facet normal 0.000000e+0 0.000000e+0 1.000000e+0
    outer loop
      vertex 0.000000e+0 0.000000e+0 2.032000e+1
      vertex 4.783777e-18 7.812500e-2 2.032000e+1
      vertex -2.989714e-2 7.217809e-2 2.032000e+1
    endloop
  endfacet
  facet normal 5.555702e-1 -8.314696e-1 0.000000e+0
    outer loop
      vertex -2.989714e-2 7.217809e-2 0.000000e+0
      vertex -2.989714e-2 7.217809e-2 2.032000e+1
      vertex -5.524272e-2 5.524272e-2 0.000000e+0
    endloop
  endfacet
  facet normal 5.555702e-1 -8.314696e-1 0.000000e+0
    outer loop
      vertex -2.989714e-2 7.217809e-2 2.032000e+1
      vertex -5.524272e-2 5.524272e-2 2.032000e+1
      vertex -5.524272e-2 5.524272e-2 0.000000e+0
    endloop
  endfacet
  facet normal 0.000000e+0 0.000000e+0 -1.000000e+0
    outer loop
      vertex 0.000000e+0 0.000000e+0 0.000000e+0
      vertex -5.524272e-2 5.524272e-2 0.000000e+0
      vertex -2.989714e-2 7.217809e-2 0.000000e+0
    endloop
  endfacet
  facet normal 0.000000e+0 0.000000e+0 1.000000e+0
    outer loop
      vertex 0.000000e+0 0.000000e+0 2.032000e+1
      vertex -2.989714e-2 7.217809e-2 2.032000e+1
      vertex -5.524272e-2 5.524272e-2 2.032000e+1
    endloop
  endfacet
  facet normal 8.314696e-1 -5.555702e-1 0.000000e+0
    outer loop
      vertex -5.524272e-2 5.524272e-2 0.000000e+0
      vertex -5.524272e-2 5.524272e-2 2.032000e+1
      vertex -7.217809e-2 2.989714e-2 0.000000e+0
    endloop
  endfacet
  facet normal 8.314696e-1 -5.555702e-1 0.000000e+0
    outer loop
      vertex -5.524272e-2 5.524272e-2 2.032000e+1
      vertex -7.217809e-2 2.989714e-2 2.032000e+1
      vertex -7.217809e-2 2.989714e-2 0.000000e+0
    endloop
  endfacet
  facet normal 0.000000e+0 0.000000e+0 -1.000000e+0
    outer loop
      vertex 0.000000e+0 0.000000e+0 0.000000e+0
      vertex -7.217809e-2 2.989714e-2 0.000000e+0
      vertex -5.524272e-2 5.524272e-2 0.000000e+0
    endloop
  endfacet
  facet normal 0.000000e+0 0.000000e+0 1.000000e+0
    outer loop
      vertex 0.000000e+0 0.000000e+0 2.032000e+1
      vertex -5.524272e-2 5.524272e-2 2.032000e+1
      vertex -7.217809e-2 2.989714e-2 2.032000e+1
    endloop
  endfacet
  facet normal 9.807853e-1 -1.950903e-1 0.000000e+0
    outer loop
      vertex -7.217809e-2 2.989714e-2 0.000000e+0
      vertex -7.217809e-2 2.989714e-2 2.032000e+1
      vertex -7.812500e-2 9.567553e-18 0.000000e+0
    endloop
  endfacet
  facet normal 9.807853e-1 -1.950903e-1 0.000000e+0
    outer loop
      vertex -7.217809e-2 2.989714e-2 2.032000e+1
      vertex -7.812500e-2 9.567553e-18 2.032000e+1
      vertex -7.812500e-2 9.567553e-18 0.000000e+0
    endloop
  endfacet
  facet normal 0.000000e+0 0.000000e+0 -1.000000e+0
    outer loop
      vertex 0.000000e+0 0.000000e+0 0.000000e+0
      vertex -7.812500e-2 9.567553e-18 0.000000e+0
      vertex -7.217809e-2 2.989714e-2 0.000000e+0
    endloop
  endfacet
  facet normal 0.000000e+0 0.000000e+0 1.000000e+0
    outer loop
      vertex 0.000000e+0 0.000000e+0 2.032000e+1
      vertex -7.217809e-2 2.989714e-2 2.032000e+1
      vertex -7.812500e-2 9.567553e-18 2.032000e+1
    endloop
  endfacet
  facet normal 9.807853e-1 1.950903e-1 0.000000e+0
    outer loop
      vertex -7.812500e-2 9.567553e-18 0.000000e+0
      vertex -7.812500e-2 9.567553e-18 2.032000e+1
      vertex -7.217809e-2 -2.989714e-2 0.000000e+0
    endloop
  endfacet
  facet normal 9.807853e-1 1.950903e-1 0.000000e+0
    outer loop
      vertex -7.812500e-2 9.567553e-18 2.032000e+1
      vertex -7.217809e-2 -2.989714e-2 2.032000e+1
      vertex -7.217809e-2 -2.989714e-2 0.000000e+0
    endloop
  endfacet
  facet normal 0.000000e+0 0.000000e+0 -1.000000e+0
    outer loop
      vertex 0.000000e+0 0.000000e+0 0.000000e+0
      vertex -7.217809e-2 -2.989714e-2 0.000000e+0
      vertex -7.812500e-2 9.567553e-18 0.000000e+0
    endloop
  endfacet
  facet normal 0.000000e+0 0.000000e+0 1.000000e+0
    outer loop
      vertex 0.000000e+0 0.000000e+0 2.032000e+1
      vertex -7.812500e-2 9.567553e-18 2.032000e+1
      vertex -7.217809e-2 -2.989714e-2 2.032000e+1
    endloop
  endfacet
  facet normal 8.314696e-1 5.555702e-1 0.000000e+0
    outer loop
      vertex -7.217809e-2 -2.989714e-2 0.000000e+0
      vertex -7.217809e-2 -2.989714e-2 2.032000e+1
      vertex -5.524272e-2 -5.524272e-2 0.000000e+0
    endloop
  endfacet
  facet normal 8.314696e-1 5.555702e-1 0.000000e+0
    outer loop
      vertex -7.217809e-2 -2.989714e-2 2.032000e+1
      vertex -5.524272e-2 -5.524272e-2 2.032000e+1
      vertex -5.524272e-2 -5.524272e-2 0.000000e+0
    endloop
  endfacet
  facet normal 0.000000e+0 0.000000e+0 -1.000000e+0
    outer loop
      vertex 0.000000e+0 0.000000e+0 0.000000e+0
      vertex -5.524272e-2 -5.524272e-2 0.000000e+0
      vertex -7.217809e-2 -2.989714e-2 0.000000e+0
    endloop
  endfacet
  facet normal 0.000000e+0 0.000000e+0 1.000000e+0
    outer loop
      vertex 0.000000e+0 0.000000e+0 2.032000e+1
      vertex -7.217809e-2 -2.989714e-2 2.032000e+1
      vertex -5.524272e-2 -5.524272e-2 2.032000e+1
    endloop
  endfacet
  facet normal 5.555702e-1 8.314696e-1 0.000000e+0
    outer loop
      vertex -5.524272e-2 -5.524272e-2 0.000000e+0
      vertex -5.524272e-2 -5.524272e-2 2.032000e+1
      vertex -2.989714e-2 -7.217809e-2 0.000000e+0
    endloop
  endfacet
  facet normal 5.555702e-1 8.314696e-1 0.000000e+0
    outer loop
      vertex -5.524272e-2 -5.524272e-2 2.032000e+1
      vertex -2.989714e-2 -7.217809e-2 2.032000e+1
      vertex -2.989714e-2 -7.217809e-2 0.000000e+0
    endloop
  endfacet
  facet normal 0.000000e+0 0.000000e+0 -1.000000e+0
    outer loop
      vertex 0.000000e+0 0.000000e+0 0.000000e+0
      vertex -2.989714e-2 -7.217809e-2 0.000000e+0
      vertex -5.524272e-2 -5.524272e-2 0.000000e+0
    endloop
  endfacet
  facet normal 0.000000e+0 0.000000e+0 1.000000e+0
    outer loop
      vertex 0.000000e+0 0.000000e+0 2.032000e+1
      vertex -5.524272e-2 -5.524272e-2 2.032000e+1
      vertex -2.989714e-2 -7.217809e-2 2.032000e+1
    endloop
  endfacet
  facet normal 1.950903e-1 9.807853e-1 0.000000e+0
    outer loop
      vertex -2.989714e-2 -7.217809e-2 0.000000e+0
      vertex -2.989714e-2 -7.217809e-2 2.032000e+1
      vertex -1.435133e-17 -7.812500e-2 0.000000e+0
    endloop
  endfacet
  facet normal 1.950903e-1 9.807853e-1 0.000000e+0
    outer loop
      vertex -2.989714e-2 -7.217809e-2 2.032000e+1
      vertex -1.435133e-17 -7.812500e-2 2.032000e+1
      vertex -1.435133e-17 -7.812500e-2 0.000000e+0
    endloop
  endfacet
  facet normal 0.000000e+0 0.000000e+0 -1.000000e+0
    outer loop
      vertex 0.000000e+0 0.000000e+0 0.000000e+0
      vertex -1.435133e-17 -7.812500e-2 0.000000e+0
      vertex -2.989714e-2 -7.217809e-2 0.000000e+0
    endloop
  endfacet
  facet normal 0.000000e+0 0.000000e+0 1.000000e+0
    outer loop
      vertex 0.000000e+0 0.000000e+0 2.032000e+1
      vertex -2.989714e-2 -7.217809e-2 2.032000e+1
      vertex -1.435133e-17 -7.812500e-2 2.032000e+1
    endloop
  endfacet
  facet normal -1.950903e-1 9.807853e-1 0.000000e+0
    outer loop
      vertex -1.435133e-17 -7.812500e-2 0.000000e+0
      vertex -1.435133e-17 -7.812500e-2 2.032000e+1
      vertex 2.989714e-2 -7.217809e-2 0.000000e+0
    endloop
  endfacet
  facet normal -1.950903e-1 9.807853e-1 0.000000e+0
    outer loop
      vertex -1.435133e-17 -7.812500e-2 2.032000e+1
      vertex 2.989714e-2 -7.217809e-2 2.032000e+1
      vertex 2.989714e-2 -7.217809e-2 0.000000e+0
    endloop
  endfacet
  facet normal 0.000000e+0 0.000000e+0 -1.000000e+0
    outer loop
      vertex 0.000000e+0 0.000000e+0 0.000000e+0
      vertex 2.989714e-2 -7.217809e-2 0.000000e+0
      vertex -1.435133e-17 -7.812500e-2 0.000000e+0
    endloop
  endfacet
  facet normal 0.000000e+0 0.000000e+0 1.000000e+0
    outer loop
      vertex 0.000000e+0 0.000000e+0 2.032000e+1
      vertex -1.435133e-17 -7.812500e-2 2.032000e+1
      vertex 2.989714e-2 -7.217809e-2 2.032000e+1
    endloop
  endfacet
  facet normal -5.555702e-1 8.314696e-1 0.000000e+0
    outer loop
      vertex 2.989714e-2 -7.217809e-2 0.000000e+0
      vertex 2.989714e-2 -7.217809e-2 2.032000e+1
      vertex 5.524272e-2 -5.524272e-2 0.000000e+0
    endloop
  endfacet
  facet normal -5.555702e-1 8.314696e-1 0.000000e+0
    outer loop
      vertex 2.989714e-2 -7.217809e-2 2.032000e+1
      vertex 5.524272e-2 -5.524272e-2 2.032000e+1
      vertex 5.524272e-2 -5.524272e-2 0.000000e+0
    endloop
  endfacet
  facet normal 0.000000e+0 0.000000e+0 -1.000000e+0
    outer loop
      vertex 0.000000e+0 0.000000e+0 0.000000e+0
      vertex 5.524272e-2 -5.524272e-2 0.000000e+0
      vertex 2.989714e-2 -7.217809e-2 0.000000e+0
    endloop
  endfacet
  facet normal 0.000000e+0 0.000000e+0 1.000000e+0
    outer loop
      vertex 0.000000e+0 0.000000e+0 2.032000e+1
      vertex 2.989714e-2 -7.217809e-2 2.032000e+1
      vertex 5.524272e-2 -5.524272e-2 2.032000e+1
    endloop
  endfacet
  facet normal -8.314696e-1 5.555702e-1 0.000000e+0
    outer loop
      vertex 5.524272e-2 -5.524272e-2 0.000000e+0
      vertex 5.524272e-2 -5.524272e-2 2.032000e+1
      vertex 7.217809e-2 -2.989714e-2 0.000000e+0
    endloop
  endfacet
  facet normal -8.314696e-1 5.555702e-1 0.000000e+0
    outer loop
      vertex 5.524272e-2 -5.524272e-2 2.032000e+1
      vertex 7.217809e-2 -2.989714e-2 2.032000e+1
      vertex 7.217809e-2 -2.989714e-2 0.000000e+0
    endloop
  endfacet
  facet normal 0.000000e+0 0.000000e+0 -1.000000e+0
    outer loop
      vertex 0.000000e+0 0.000000e+0 0.000000e+0
      vertex 7.217809e-2 -2.989714e-2 0.000000e+0
      vertex 5.524272e-2 -5.524272e-2 0.000000e+0
    endloop
  endfacet
  facet normal 0.000000e+0 0.000000e+0 1.000000e+0
    outer loop
      vertex 0.000000e+0 0.000000e+0 2.032000e+1
      vertex 5.524272e-2 -5.524272e-2 2.032000e+1
      vertex 7.217809e-2 -2.989714e-2 2.032000e+1
    endloop
  endfacet
  facet normal -9.807853e-1 1.950903e-1 0.000000e+0
    outer loop
      vertex 7.217809e-2 -2.989714e-2 0.000000e+0
      vertex 7.217809e-2 -2.989714e-2 2.032000e+1
      vertex 7.812500e-2 -1.913511e-17 0.000000e+0
    endloop
  endfacet
  facet normal -9.807853e-1 1.950903e-1 0.000000e+0
    outer loop
      vertex 7.217809e-2 -2.989714e-2 2.032000e+1
      vertex 7.812500e-2 -1.913511e-17 2.032000e+1
      vertex 7.812500e-2 -1.913511e-17 0.000000e+0
    endloop
  endfacet
  facet normal 0.000000e+0 0.000000e+0 -1.000000e+0
    outer loop
      vertex 0.000000e+0 0.000000e+0 0.000000e+0
      vertex 7.812500e-2 -1.913511e-17 0.000000e+0
      vertex 7.217809e-2 -2.989714e-2 0.000000e+0
    endloop
  endfacet
  facet normal 0.000000e+0 0.000000e+0 1.000000e+0
    outer loop
      vertex 0.000000e+0 0.000000e+0 2.032000e+1
      vertex 7.217809e-2 -2.989714e-2 2.032000e+1
      vertex 7.812500e-2 -1.913511e-17 2.032000e+1
    endloop
  endfacet
  facet normal -8.660254e-1 -5.000000e-1 0.000000e+0
    outer loop
      vertex 1.171875e-1 0.000000e+0 2.032000e+1
      vertex 1.171875e-1 0.000000e+0 2.042156e+1
      vertex 5.859375e-2 1.014874e-1 2.032000e+1
    endloop
  endfacet
  facet normal -8.660254e-1 -5.000000e-1 0.000000e+0
    outer loop
      vertex 1.171875e-1 0.000000e+0 2.042156e+1
      vertex 5.859375e-2 1.014874e-1 2.042156e+1
      vertex 5.859375e-2 1.014874e-1 2.032000e+1
    endloop
  endfacet
  facet normal 0.000000e+0 0.000000e+0 -1.000000e+0
    outer loop
      vertex 0.000000e+0 0.000000e+0 2.032000e+1
      vertex 5.859375e-2 1.014874e-1 2.032000e+1
      vertex 1.171875e-1 0.000000e+0 2.032000e+1
    endloop
  endfacet
  facet normal 0.000000e+0 0.000000e+0 1.000000e+0
    outer loop
      vertex 0.000000e+0 0.000000e+0 2.042156e+1
      vertex 1.171875e-1 0.000000e+0 2.042156e+1
      vertex 5.859375e-2 1.014874e-1 2.042156e+1
    endloop
  endfacet
  facet normal -1.184238e-16 -1.000000e+0 0.000000e+0
    outer loop
      vertex 5.859375e-2 1.014874e-1 2.032000e+1
      vertex 5.859375e-2 1.014874e-1 2.042156e+1
      vertex -5.859375e-2 1.014874e-1 2.032000e+1
    endloop
  endfacet
  facet normal -1.184238e-16 -1.000000e+0 0.000000e+0
    outer loop
      vertex 5.859375e-2 1.014874e-1 2.042156e+1
      vertex -5.859375e-2 1.014874e-1 2.042156e+1
      vertex -5.859375e-2 1.014874e-1 2.032000e+1
    endloop
  endfacet
  facet normal 0.000000e+0 0.000000e+0 -1.000000e+0
    outer loop
      vertex 0.000000e+0 0.000000e+0 2.032000e+1
      vertex -5.859375e-2 1.014874e-1 2.032000e+1
      vertex 5.859375e-2 1.014874e-1 2.032000e+1
    endloop
  endfacet
  facet normal 0.000000e+0 0.000000e+0 1.000000e+0
    outer loop
      vertex 0.000000e+0 0.000000e+0 2.042156e+1
      vertex 5.859375e-2 1.014874e-1 2.042156e+1
      vertex -5.859375e-2 1.014874e-1 2.042156e+1
    endloop
  endfacet
  facet normal 8.660254e-1 -5.000000e-1 0.000000e+0
    outer loop
      vertex -5.859375e-2 1.014874e-1 2.032000e+1
      vertex -5.859375e-2 1.014874e-1 2.042156e+1
      vertex -1.171875e-1 1.435133e-17 2.032000e+1
    endloop
  endfacet
  facet normal 8.660254e-1 -5.000000e-1 0.000000e+0
    outer loop
      vertex -5.859375e-2 1.014874e-1 2.042156e+1
      vertex -1.171875e-1 1.435133e-17 2.042156e+1
      vertex -1.171875e-1 1.435133e-17 2.032000e+1
    endloop
  endfacet
  facet normal 0.000000e+0 0.000000e+0 -1.000000e+0
    outer loop
      vertex 0.000000e+0 0.000000e+0 2.032000e+1
      vertex -1.171875e-1 1.435133e-17 2.032000e+1
      vertex -5.859375e-2 1.014874e-1 2.032000e+1
    endloop
  endfacet
  facet normal 0.000000e+0 0.000000e+0 1.000000e+0
    outer loop
      vertex 0.000000e+0 0.000000e+0 2.042156e+1
      vertex -5.859375e-2 1.014874e-1 2.042156e+1
      vertex -1.171875e-1 1.435133e-17 2.042156e+1
    endloop
  endfacet
  facet normal 8.660254e-1 5.000000e-1 0.000000e+0
    outer loop
      vertex -1.171875e-1 1.435133e-17 2.032000e+1
      vertex -1.171875e-1 1.435133e-17 2.042156e+1
      vertex -5.859375e-2 -1.014874e-1 2.032000e+1
    endloop
  endfacet
  facet normal 8.660254e-1 5.000000e-1 0.000000e+0
    outer loop
      vertex -1.171875e-1 1.435133e-17 2.042156e+1
      vertex -5.859375e-2 -1.014874e-1 2.042156e+1
      vertex -5.859375e-2 -1.014874e-1 2.032000e+1
    endloop
  endfacet
  facet normal 0.000000e+0 0.000000e+0 -1.000000e+0
    outer loop
      vertex 0.000000e+0 0.000000e+0 2.032000e+1
      vertex -5.859375e-2 -1.014874e-1 2.032000e+1
      vertex -1.171875e-1 1.435133e-17 2.032000e+1
    endloop
  endfacet
  facet normal 0.000000e+0 0.000000e+0 1.000000e+0
    outer loop
      vertex 0.000000e+0 0.000000e+0 2.042156e+1
      vertex -1.171875e-1 1.435133e-17 2.042156e+1
      vertex -5.859375e-2 -1.014874e-1 2.042156e+1
    endloop
  endfacet
  facet normal 1.184238e-16 1.000000e+0 0.000000e+0
    outer loop
      vertex -5.859375e-2 -1.014874e-1 2.032000e+1
      vertex -5.859375e-2 -1.014874e-1 2.042156e+1
      vertex 5.859375e-2 -1.014874e-1 2.032000e+1
    endloop
  endfacet
  facet normal 1.184238e-16 1.000000e+0 0.000000e+0
    outer loop
      vertex -5.859375e-2 -1.014874e-1 2.042156e+1
      vertex 5.859375e-2 -1.014874e-1 2.042156e+1
      vertex 5.859375e-2 -1.014874e-1 2.032000e+1
    endloop
  endfacet
  facet normal 0.000000e+0 0.000000e+0 -1.000000e+0
    outer loop
      vertex 0.000000e+0 0.000000e+0 2.032000e+1
      vertex 5.859375e-2 -1.014874e-1 2.032000e+1
      vertex -5.859375e-2 -1.014874e-1 2.032000e+1
    endloop
  endfacet
  facet normal 0.000000e+0 0.000000e+0 1.000000e+0
    outer loop
      vertex 0.000000e+0 0.000000e+0 2.042156e+1
      vertex -5.859375e-2 -1.014874e-1 2.042156e+1
      vertex 5.859375e-2 -1.014874e-1 2.042156e+1
    endloop
  endfacet
  facet normal -8.660254e-1 5.000000e-1 0.000000e+0
    outer loop
      vertex 5.859375e-2 -1.014874e-1 2.032000e+1
      vertex 5.859375e-2 -1.014874e-1 2.042156e+1
      vertex 1.171875e-1 -2.870266e-17 2.032000e+1
    endloop
  endfacet
  facet normal -8.660254e-1 5.000000e-1 0.000000e+0
    outer loop
      vertex 5.859375e-2 -1.014874e-1 2.042156e+1
      vertex 1.171875e-1 -2.870266e-17 2.042156e+1
      vertex 1.171875e-1 -2.870266e-17 2.032000e+1
    endloop
  endfacet
  facet normal 0.000000e+0 0.000000e+0 -1.000000e+0
    outer loop
      vertex 0.000000e+0 0.000000e+0 2.032000e+1
      vertex 1.171875e-1 -2.870266e-17 2.032000e+1
      vertex 5.859375e-2 -1.014874e-1 2.032000e+1
    endloop
  endfacet
  facet normal 0.000000e+0 0.000000e+0 1.000000e+0
    outer loop
      vertex 0.000000e+0 0.000000e+0 2.042156e+1
      vertex 5.859375e-2 -1.014874e-1 2.042156e+1
      vertex 1.171875e-1 -2.870266e-17 2.042156e+1
    endloop
  endfacet
endsolid ms20470ad5-8
