solid ms20392-2c12
  facet normal -9.807853e-1 -1.950903e-1 0.000000e+0
    outer loop
      vertex 6.250000e-2 0.000000e+0 0.000000e+0
      vertex 6.250000e-2 0.000000e+0 3.048000e+1
      vertex 5.774247e-2 2.391771e-2 0.000000e+0
    endloop
  endfacet
  facet normal -9.807853e-1 -1.950903e-1 0.000000e+0
    outer loop
      vertex 6.250000e-2 0.000000e+0 3.048000e+1
      vertex 5.774247e-2 2.391771e-2 3.048000e+1
      vertex 5.774247e-2 2.391771e-2 0.000000e+0
    endloop
  endfacet
  facet normal 0.000000e+0 0.000000e+0 -1.000000e+0
    outer loop
      vertex 0.000000e+0 0.000000e+0 0.000000e+0
      vertex 5.774247e-2 2.391771e-2 0.000000e+0
      vertex 6.250000e-2 0.000000e+0 0.000000e+0
    endloop
  endfacet
  facet normal -8.314696e-1 -5.555702e-1 0.000000e+0
    outer loop
      vertex 5.774247e-2 2.391771e-2 0.000000e+0
      vertex 5.774247e-2 2.391771e-2 3.048000e+1
      vertex 4.419417e-2 4.419417e-2 0.000000e+0
    endloop
  endfacet
  facet normal -8.314696e-1 -5.555702e-1 0.000000e+0
    outer loop
      vertex 5.774247e-2 2.391771e-2 3.048000e+1
      vertex 4.419417e-2 4.419417e-2 3.048000e+1
      vertex 4.419417e-2 4.419417e-2 0.000000e+0
    endloop
  endfacet
  facet normal 0.000000e+0 0.000000e+0 -1.000000e+0
    outer loop
      vertex 0.000000e+0 0.000000e+0 0.000000e+0
      vertex 4.419417e-2 4.419417e-2 0.000000e+0
      vertex 5.774247e-2 2.391771e-2 0.000000e+0
    endloop
  endfacet
  facet normal -5.555702e-1 -8.314696e-1 0.000000e+0
    outer loop
      vertex 4.419417e-2 4.419417e-2 0.000000e+0
      vertex 4.419417e-2 4.419417e-2 3.048000e+1
      vertex 2.391771e-2 5.774247e-2 0.000000e+0
    endloop
  endfacet
  facet normal -5.555702e-1 -8.314696e-1 0.000000e+0
    outer loop
      vertex 4.419417e-2 4.419417e-2 3.048000e+1
      vertex 2.391771e-2 5.774247e-2 3.048000e+1
      vertex 2.391771e-2 5.774247e-2 0.000000e+0
    endloop
  endfacet
  facet normal 0.000000e+0 0.000000e+0 -1.000000e+0
    outer loop
      vertex 0.000000e+0 0.000000e+0 0.000000e+0
      vertex 2.391771e-2 5.774247e-2 0.000000e+0
      vertex 4.419417e-2 4.419417e-2 0.000000e+0
    endloop
  endfacet
  facet normal -1.950903e-1 -9.807853e-1 0.000000e+0
    outer loop
      vertex 2.391771e-2 5.774247e-2 0.000000e+0
      vertex 2.391771e-2 5.774247e-2 3.048000e+1
      vertex 3.827021e-18 6.250000e-2 0.000000e+0
    endloop
  endfacet
  facet normal -1.950903e-1 -9.807853e-1 0.000000e+0
    outer loop
      vertex 2.391771e-2 5.774247e-2 3.048000e+1
      vertex 3.827021e-18 6.250000e-2 3.048000e+1
      vertex 3.827021e-18 6.250000e-2 0.000000e+0
    endloop
  endfacet
  facet normal 0.000000e+0 0.000000e+0 -1.000000e+0
    outer loop
      vertex 0.000000e+0 0.000000e+0 0.000000e+0
      vertex 3.827021e-18 6.250000e-2 0.000000e+0
      vertex 2.391771e-2 5.774247e-2 0.000000e+0
    endloop
  endfacet
  facet normal 1.950903e-1 -9.807853e-1 0.000000e+0
    outer loop
      vertex 3.827021e-18 6.250000e-2 0.000000e+0
      vertex 3.827021e-18 6.250000e-2 3.048000e+1
      vertex -2.391771e-2 5.774247e-2 0.000000e+0
    endloop
  endfacet
  facet normal 1.950903e-1 -9.807853e-1 0.000000e+0
    outer loop
      vertex 3.827021e-18 6.250000e-2 3.048000e+1
      vertex -2.391771e-2 5.774247e-2 3.048000e+1
      vertex -2.391771e-2 5.774247e-2 0.000000e+0
    endloop
  endfacet
  facet normal 0.000000e+0 0.000000e+0 -1.000000e+0
    outer loop
      vertex 0.000000e+0 0.000000e+0 0.000000e+0
      vertex -2.391771e-2 5.774247e-2 0.000000e+0
      vertex 3.827021e-18 6.250000e-2 0.000000e+0
    endloop
  endfacet
  facet normal 5.555702e-1 -8.314696e-1 0.000000e+0
    outer loop
      vertex -2.391771e-2 5.774247e-2 0.000000e+0
      vertex -2.391771e-2 5.774247e-2 3.048000e+1
      vertex -4.419417e-2 4.419417e-2 0.000000e+0
    endloop
  endfacet
  facet normal 5.555702e-1 -8.314696e-1 0.000000e+0
    outer loop
      vertex -2.391771e-2 5.774247e-2 3.048000e+1
      vertex -4.419417e-2 4.419417e-2 3.048000e+1
      vertex -4.419417e-2 4.419417e-2 0.000000e+0
    endloop
  endfacet
  facet normal 0.000000e+0 0.000000e+0 -1.000000e+0
    outer loop
      vertex 0.000000e+0 0.000000e+0 0.000000e+0
      vertex -4.419417e-2 4.419417e-2 0.000000e+0
      vertex -2.391771e-2 5.774247e-2 0.000000e+0
    endloop
  endfacet
  facet normal 8.314696e-1 -5.555702e-1 0.000000e+0
    outer loop
      vertex -4.419417e-2 4.419417e-2 0.000000e+0
      vertex -4.419417e-2 4.419417e-2 3.048000e+1
      vertex -5.774247e-2 2.391771e-2 0.000000e+0
    endloop
  endfacet
  facet normal 8.314696e-1 -5.555702e-1 0.000000e+0
    outer loop
      vertex -4.419417e-2 4.419417e-2 3.048000e+1
      vertex -5.774247e-2 2.391771e-2 3.048000e+1
      vertex -5.774247e-2 2.391771e-2 0.000000e+0
    endloop
  endfacet
  facet normal 0.000000e+0 0.000000e+0 -1.000000e+0
    outer loop
      vertex 0.000000e+0 0.000000e+0 0.000000e+0
      vertex -5.774247e-2 2.391771e-2 0.000000e+0
      vertex -4.419417e-2 4.419417e-2 0.000000e+0
    endloop
  endfacet
  facet normal 9.807853e-1 -1.950903e-1 0.000000e+0
    outer loop
      vertex -5.774247e-2 2.391771e-2 0.000000e+0
      vertex -5.774247e-2 2.391771e-2 3.048000e+1
      vertex -6.250000e-2 7.654042e-18 0.000000e+0
    endloop
  endfacet
  facet normal 9.807853e-1 -1.950903e-1 0.000000e+0
    outer loop
      vertex -5.774247e-2 2.391771e-2 3.048000e+1
      vertex -6.250000e-2 7.654042e-18 3.048000e+1
      vertex -6.250000e-2 7.654042e-18 0.000000e+0
    endloop
  endfacet
  facet normal 0.000000e+0 0.000000e+0 -1.000000e+0
    outer loop
      vertex 0.000000e+0 0.000000e+0 0.000000e+0
      vertex -6.250000e-2 7.654042e-18 0.000000e+0
      vertex -5.774247e-2 2.391771e-2 0.000000e+0
    endloop
  endfacet
  facet normal 9.807853e-1 1.950903e-1 0.000000e+0
    outer loop
      vertex -6.250000e-2 7.654042e-18 0.000000e+0
      vertex -6.250000e-2 7.654042e-18 3.048000e+1
      vertex -5.774247e-2 -2.391771e-2 0.000000e+0
    endloop
  endfacet
  facet normal 9.807853e-1 1.950903e-1 0.000000e+0
    outer loop
      vertex -6.250000e-2 7.654042e-18 3.048000e+1
      vertex -5.774247e-2 -2.391771e-2 3.048000e+1
      vertex -5.774247e-2 -2.391771e-2 0.000000e+0
    endloop
  endfacet
  facet normal 0.000000e+0 0.000000e+0 -1.000000e+0
    outer loop
      vertex 0.000000e+0 0.000000e+0 0.000000e+0
      vertex -5.774247e-2 -2.391771e-2 0.000000e+0
      vertex -6.250000e-2 7.654042e-18 0.000000e+0
    endloop
  endfacet
  facet normal 8.314696e-1 5.555702e-1 0.000000e+0
    outer loop
      vertex -5.774247e-2 -2.391771e-2 0.000000e+0
      vertex -5.774247e-2 -2.391771e-2 3.048000e+1
      vertex -4.419417e-2 -4.419417e-2 0.000000e+0
    endloop
  endfacet
  facet normal 8.314696e-1 5.555702e-1 0.000000e+0
    outer loop
      vertex -5.774247e-2 -2.391771e-2 3.048000e+1
      vertex -4.419417e-2 -4.419417e-2 3.048000e+1
      vertex -4.419417e-2 -4.419417e-2 0.000000e+0
    endloop
  endfacet
  facet normal 0.000000e+0 0.000000e+0 -1.000000e+0
    outer loop
      vertex 0.000000e+0 0.000000e+0 0.000000e+0
      vertex -4.419417e-2 -4.419417e-2 0.000000e+0
      vertex -5.774247e-2 -2.391771e-2 0.000000e+0
    endloop
  endfacet
  facet normal 5.555702e-1 8.314696e-1 0.000000e+0
    outer loop
      vertex -4.419417e-2 -4.419417e-2 0.000000e+0
      vertex -4.419417e-2 -4.419417e-2 3.048000e+1
      vertex -2.391771e-2 -5.774247e-2 0.000000e+0
    endloop
  endfacet
  facet normal 5.555702e-1 8.314696e-1 0.000000e+0
    outer loop
      vertex -4.419417e-2 -4.419417e-2 3.048000e+1
      vertex -2.391771e-2 -5.774247e-2 3.048000e+1
      vertex -2.391771e-2 -5.774247e-2 0.000000e+0
    endloop
  endfacet
  facet normal 0.000000e+0 0.000000e+0 -1.000000e+0
    outer loop
      vertex 0.000000e+0 0.000000e+0 0.000000e+0
      vertex -2.391771e-2 -5.774247e-2 0.000000e+0
      vertex -4.419417e-2 -4.419417e-2 0.000000e+0
    endloop
  endfacet
  facet normal 1.950903e-1 9.807853e-1 0.000000e+0
    outer loop
      vertex -2.391771e-2 -5.774247e-2 0.000000e+0
      vertex -2.391771e-2 -5.774247e-2 3.048000e+1
      vertex -1.148106e-17 -6.250000e-2 0.000000e+0
    endloop
  endfacet
  facet normal 1.950903e-1 9.807853e-1 0.000000e+0
    outer loop
      vertex -2.391771e-2 -5.774247e-2 3.048000e+1
      vertex -1.148106e-17 -6.250000e-2 3.048000e+1
      vertex -1.148106e-17 -6.250000e-2 0.000000e+0
    endloop
  endfacet
  facet normal 0.000000e+0 0.000000e+0 -1.000000e+0
    outer loop
      vertex 0.000000e+0 0.000000e+0 0.000000e+0
      vertex -1.148106e-17 -6.250000e-2 0.000000e+0
      vertex -2.391771e-2 -5.774247e-2 0.000000e+0
    endloop
  endfacet
  facet normal -1.950903e-1 9.807853e-1 0.000000e+0
    outer loop
      vertex -1.148106e-17 -6.250000e-2 0.000000e+0
      vertex -1.148106e-17 -6.250000e-2 3.048000e+1
      vertex 2.391771e-2 -5.774247e-2 0.000000e+0
    endloop
  endfacet
  facet normal -1.950903e-1 9.807853e-1 0.000000e+0
    outer loop
      vertex -1.148106e-17 -6.250000e-2 3.048000e+1
      vertex 2.391771e-2 -5.774247e-2 3.048000e+1
      vertex 2.391771e-2 -5.774247e-2 0.000000e+0
    endloop
  endfacet
  facet normal 0.000000e+0 0.000000e+0 -1.000000e+0
    outer loop
      vertex 0.000000e+0 0.000000e+0 0.000000e+0
      vertex 2.391771e-2 -5.774247e-2 0.000000e+0
      vertex -1.148106e-17 -6.250000e-2 0.000000e+0
    endloop
  endfacet
  facet normal -5.555702e-1 8.314696e-1 0.000000e+0
    outer loop
      vertex 2.391771e-2 -5.774247e-2 0.000000e+0
      vertex 2.391771e-2 -5.774247e-2 3.048000e+1
      vertex 4.419417e-2 -4.419417e-2 0.000000e+0
    endloop
  endfacet
  facet normal -5.555702e-1 8.314696e-1 0.000000e+0
    outer loop
      vertex 2.391771e-2 -5.774247e-2 3.048000e+1
      vertex 4.419417e-2 -4.419417e-2 3.048000e+1
      vertex 4.419417e-2 -4.419417e-2 0.000000e+0
    endloop
  endfacet
  facet normal 0.000000e+0 0.000000e+0 -1.000000e+0
    outer loop
      vertex 0.000000e+0 0.000000e+0 0.000000e+0
      vertex 4.419417e-2 -4.419417e-2 0.000000e+0
      vertex 2.391771e-2 -5.774247e-2 0.000000e+0
    endloop
  endfacet
  facet normal -8.314696e-1 5.555702e-1 0.000000e+0
    outer loop
      vertex 4.419417e-2 -4.419417e-2 0.000000e+0
      vertex 4.419417e-2 -4.419417e-2 3.048000e+1
      vertex 5.774247e-2 -2.391771e-2 0.000000e+0
    endloop
  endfacet
  facet normal -8.314696e-1 5.555702e-1 0.000000e+0
    outer loop
      vertex 4.419417e-2 -4.419417e-2 3.048000e+1
      vertex 5.774247e-2 -2.391771e-2 3.048000e+1
      vertex 5.774247e-2 -2.391771e-2 0.000000e+0
    endloop
  endfacet
  facet normal 0.000000e+0 0.000000e+0 -1.000000e+0
    outer loop
      vertex 0.000000e+0 0.000000e+0 0.000000e+0
      vertex 5.774247e-2 -2.391771e-2 0.000000e+0
      vertex 4.419417e-2 -4.419417e-2 0.000000e+0
    endloop
  endfacet
  facet normal -9.807853e-1 1.950903e-1 0.000000e+0
    outer loop
      vertex 5.774247e-2 -2.391771e-2 0.000000e+0
      vertex 5.774247e-2 -2.391771e-2 3.048000e+1
      vertex 6.250000e-2 -1.530808e-17 0.000000e+0
    endloop
  endfacet
  facet normal -9.807853e-1 1.950903e-1 0.000000e+0
    outer loop
      vertex 5.774247e-2 -2.391771e-2 3.048000e+1
      vertex 6.250000e-2 -1.530808e-17 3.048000e+1
      vertex 6.250000e-2 -1.530808e-17 0.000000e+0
    endloop
  endfacet
  facet normal 0.000000e+0 0.000000e+0 -1.000000e+0
    outer loop
      vertex 0.000000e+0 0.000000e+0 0.000000e+0
      vertex 6.250000e-2 -1.530808e-17 0.000000e+0
      vertex 5.774247e-2 -2.391771e-2 0.000000e+0
    endloop
  endfacet
  facet normal 0.000000e+0 0.000000e+0 -1.000000e+0
    outer loop
      vertex 9.375000e-2 0.000000e+0 3.048000e+1
      vertex 6.250000e-2 0.000000e+0 3.048000e+1
      vertex 8.661371e-2 3.587657e-2 3.048000e+1
    endloop
  endfacet
  facet normal 0.000000e+0 0.000000e+0 -1.000000e+0
    outer loop
      vertex 8.661371e-2 3.587657e-2 3.048000e+1
      vertex 6.250000e-2 0.000000e+0 3.048000e+1
      vertex 5.774247e-2 2.391771e-2 3.048000e+1
    endloop
  endfacet
  facet normal 0.000000e+0 0.000000e+0 -1.000000e+0
    outer loop
      vertex 8.661371e-2 3.587657e-2 3.048000e+1
      vertex 5.774247e-2 2.391771e-2 3.048000e+1
      vertex 6.629126e-2 6.629126e-2 3.048000e+1
    endloop
  endfacet
  facet normal 0.000000e+0 0.000000e+0 -1.000000e+0
    outer loop
      vertex 6.629126e-2 6.629126e-2 3.048000e+1
      vertex 5.774247e-2 2.391771e-2 3.048000e+1
      vertex 4.419417e-2 4.419417e-2 3.048000e+1
    endloop
  endfacet
  facet normal 0.000000e+0 0.000000e+0 -1.000000e+0
    outer loop
      vertex 6.629126e-2 6.629126e-2 3.048000e+1
      vertex 4.419417e-2 4.419417e-2 3.048000e+1
      vertex 3.587657e-2 8.661371e-2 3.048000e+1
    endloop
  endfacet
  facet normal 0.000000e+0 0.000000e+0 -1.000000e+0
    outer loop
      vertex 3.587657e-2 8.661371e-2 3.048000e+1
      vertex 4.419417e-2 4.419417e-2 3.048000e+1
      vertex 2.391771e-2 5.774247e-2 3.048000e+1
    endloop
  endfacet
  facet normal 0.000000e+0 0.000000e+0 -1.000000e+0
    outer loop
      vertex 3.587657e-2 8.661371e-2 3.048000e+1
      vertex 2.391771e-2 5.774247e-2 3.048000e+1
      vertex 5.740532e-18 9.375000e-2 3.048000e+1
    endloop
  endfacet
  facet normal 0.000000e+0 0.000000e+0 -1.000000e+0
    outer loop
      vertex 5.740532e-18 9.375000e-2 3.048000e+1
      vertex 2.391771e-2 5.774247e-2 3.048000e+1
      vertex 3.827021e-18 6.250000e-2 3.048000e+1
    endloop
  endfacet
  facet normal 0.000000e+0 0.000000e+0 -1.000000e+0
    outer loop
      vertex 5.740532e-18 9.375000e-2 3.048000e+1
      vertex 3.827021e-18 6.250000e-2 3.048000e+1
      vertex -3.587657e-2 8.661371e-2 3.048000e+1
    endloop
  endfacet
  facet normal 0.000000e+0 0.000000e+0 -1.000000e+0
    outer loop
      vertex -3.587657e-2 8.661371e-2 3.048000e+1
      vertex 3.827021e-18 6.250000e-2 3.048000e+1
      vertex -2.391771e-2 5.774247e-2 3.048000e+1
    endloop
  endfacet
  facet normal 0.000000e+0 0.000000e+0 -1.000000e+0
    outer loop
      vertex -3.587657e-2 8.661371e-2 3.048000e+1
      vertex -2.391771e-2 5.774247e-2 3.048000e+1
      vertex -6.629126e-2 6.629126e-2 3.048000e+1
    endloop
  endfacet
  facet normal 0.000000e+0 0.000000e+0 -1.000000e+0
    outer loop
      vertex -6.629126e-2 6.629126e-2 3.048000e+1
      vertex -2.391771e-2 5.774247e-2 3.048000e+1
      vertex -4.419417e-2 4.419417e-2 3.048000e+1
    endloop
  endfacet
  facet normal 0.000000e+0 0.000000e+0 -1.000000e+0
    outer loop
      vertex -6.629126e-2 6.629126e-2 3.048000e+1
      vertex -4.419417e-2 4.419417e-2 3.048000e+1
      vertex -8.661371e-2 3.587657e-2 3.048000e+1
    endloop
  endfacet
  facet normal 0.000000e+0 0.000000e+0 -1.000000e+0
    outer loop
      vertex -8.661371e-2 3.587657e-2 3.048000e+1
      vertex -4.419417e-2 4.419417e-2 3.048000e+1
      vertex -5.774247e-2 2.391771e-2 3.048000e+1
    endloop
  endfacet
  facet normal 0.000000e+0 0.000000e+0 -1.000000e+0
    outer loop
      vertex -8.661371e-2 3.587657e-2 3.048000e+1
      vertex -5.774247e-2 2.391771e-2 3.048000e+1
      vertex -9.375000e-2 1.148106e-17 3.048000e+1
    endloop
  endfacet
  facet normal 0.000000e+0 0.000000e+0 -1.000000e+0
    outer loop
      vertex -9.375000e-2 1.148106e-17 3.048000e+1
      vertex -5.774247e-2 2.391771e-2 3.048000e+1
      vertex -6.250000e-2 7.654042e-18 3.048000e+1
    endloop
  endfacet
  facet normal 0.000000e+0 0.000000e+0 -1.000000e+0
    outer loop
      vertex -9.375000e-2 1.148106e-17 3.048000e+1
      vertex -6.250000e-2 7.654042e-18 3.048000e+1
      vertex -8.661371e-2 -3.587657e-2 3.048000e+1
    endloop
  endfacet
  facet normal 0.000000e+0 0.000000e+0 -1.000000e+0
    outer loop
      vertex -8.661371e-2 -3.587657e-2 3.048000e+1
      vertex -6.250000e-2 7.654042e-18 3.048000e+1
      vertex -5.774247e-2 -2.391771e-2 3.048000e+1
    endloop
  endfacet
  facet normal 0.000000e+0 0.000000e+0 -1.000000e+0
    outer loop
      vertex -8.661371e-2 -3.587657e-2 3.048000e+1
      vertex -5.774247e-2 -2.391771e-2 3.048000e+1
      vertex -6.629126e-2 -6.629126e-2 3.048000e+1
    endloop
  endfacet
  facet normal 0.000000e+0 0.000000e+0 -1.000000e+0
    outer loop
      vertex -6.629126e-2 -6.629126e-2 3.048000e+1
      vertex -5.774247e-2 -2.391771e-2 3.048000e+1
      vertex -4.419417e-2 -4.419417e-2 3.048000e+1
    endloop
  endfacet
  facet normal 0.000000e+0 0.000000e+0 -1.000000e+0
    outer loop
      vertex -6.629126e-2 -6.629126e-2 3.048000e+1
      vertex -4.419417e-2 -4.419417e-2 3.048000e+1
      vertex -3.587657e-2 -8.661371e-2 3.048000e+1
    endloop
  endfacet
  facet normal 0.000000e+0 0.000000e+0 -1.000000e+0
    outer loop
      vertex -3.587657e-2 -8.661371e-2 3.048000e+1
      vertex -4.419417e-2 -4.419417e-2 3.048000e+1
      vertex -2.391771e-2 -5.774247e-2 3.048000e+1
    endloop
  endfacet
  facet normal 0.000000e+0 0.000000e+0 -1.000000e+0
    outer loop
      vertex -3.587657e-2 -8.661371e-2 3.048000e+1
      vertex -2.391771e-2 -5.774247e-2 3.048000e+1
      vertex -1.722160e-17 -9.375000e-2 3.048000e+1
    endloop
  endfacet
  facet normal 0.000000e+0 0.000000e+0 -1.000000e+0
    outer loop
      vertex -1.722160e-17 -9.375000e-2 3.048000e+1
      vertex -2.391771e-2 -5.774247e-2 3.048000e+1
      vertex -1.148106e-17 -6.250000e-2 3.048000e+1
    endloop
  endfacet
  facet normal 0.000000e+0 0.000000e+0 -1.000000e+0
    outer loop
      vertex -1.722160e-17 -9.375000e-2 3.048000e+1
      vertex -1.148106e-17 -6.250000e-2 3.048000e+1
      vertex 3.587657e-2 -8.661371e-2 3.048000e+1
    endloop
  endfacet
  facet normal 0.000000e+0 0.000000e+0 -1.000000e+0
    outer loop
      vertex 3.587657e-2 -8.661371e-2 3.048000e+1
      vertex -1.148106e-17 -6.250000e-2 3.048000e+1
      vertex 2.391771e-2 -5.774247e-2 3.048000e+1
    endloop
  endfacet
  facet normal 0.000000e+0 0.000000e+0 -1.000000e+0
    outer loop
      vertex 3.587657e-2 -8.661371e-2 3.048000e+1
      vertex 2.391771e-2 -5.774247e-2 3.048000e+1
      vertex 6.629126e-2 -6.629126e-2 3.048000e+1
    endloop
  endfacet
  facet normal 0.000000e+0 0.000000e+0 -1.000000e+0
    outer loop
      vertex 6.629126e-2 -6.629126e-2 3.048000e+1
      vertex 2.391771e-2 -5.774247e-2 3.048000e+1
      vertex 4.419417e-2 -4.419417e-2 3.048000e+1
    endloop
  endfacet
  facet normal 0.000000e+0 0.000000e+0 -1.000000e+0
    outer loop
      vertex 6.629126e-2 -6.629126e-2 3.048000e+1
      vertex 4.419417e-2 -4.419417e-2 3.048000e+1
      vertex 8.661371e-2 -3.587657e-2 3.048000e+1
    endloop
  endfacet
  facet normal 0.000000e+0 0.000000e+0 -1.000000e+0
    outer loop
      vertex 8.661371e-2 -3.587657e-2 3.048000e+1
      vertex 4.419417e-2 -4.419417e-2 3.048000e+1
      vertex 5.774247e-2 -2.391771e-2 3.048000e+1
    endloop
  endfacet
  facet normal 0.000000e+0 0.000000e+0 -1.000000e+0
    outer loop
      vertex 8.661371e-2 -3.587657e-2 3.048000e+1
      vertex 5.774247e-2 -2.391771e-2 3.048000e+1
      vertex 9.375000e-2 -2.296213e-17 3.048000e+1
    endloop
  endfacet
  facet normal 0.000000e+0 0.000000e+0 -1.000000e+0
    outer loop
      vertex 9.375000e-2 -2.296213e-17 3.048000e+1
      vertex 5.774247e-2 -2.391771e-2 3.048000e+1
      vertex 6.250000e-2 -1.530808e-17 3.048000e+1
    endloop
  endfacet
  facet normal -8.660254e-1 -5.000000e-1 0.000000e+0
    outer loop
      vertex 9.375000e-2 0.000000e+0 3.048000e+1
      vertex 9.375000e-2 0.000000e+0 3.056125e+1
      vertex 4.687500e-2 8.118988e-2 3.048000e+1
    endloop
  endfacet
  facet normal -8.660254e-1 -5.000000e-1 0.000000e+0
    outer loop
      vertex 9.375000e-2 0.000000e+0 3.056125e+1
      vertex 4.687500e-2 8.118988e-2 3.056125e+1
      vertex 4.687500e-2 8.118988e-2 3.048000e+1
    endloop
  endfacet
  facet normal 0.000000e+0 0.000000e+0 1.000000e+0
    outer loop
      vertex 0.000000e+0 0.000000e+0 3.056125e+1
      vertex 9.375000e-2 0.000000e+0 3.056125e+1
      vertex 4.687500e-2 8.118988e-2 3.056125e+1
    endloop
  endfacet
  facet normal 0.000000e+0 -1.000000e+0 0.000000e+0
    outer loop
      vertex 4.687500e-2 8.118988e-2 3.048000e+1
      vertex 4.687500e-2 8.118988e-2 3.056125e+1
      vertex -4.687500e-2 8.118988e-2 3.048000e+1
    endloop
  endfacet
  facet normal 0.000000e+0 -1.000000e+0 0.000000e+0
    outer loop
      vertex 4.687500e-2 8.118988e-2 3.056125e+1
      vertex -4.687500e-2 8.118988e-2 3.056125e+1
      vertex -4.687500e-2 8.118988e-2 3.048000e+1
    endloop
  endfacet
  facet normal 0.000000e+0 0.000000e+0 1.000000e+0
    outer loop
      vertex 0.000000e+0 0.000000e+0 3.056125e+1
      vertex 4.687500e-2 8.118988e-2 3.056125e+1
      vertex -4.687500e-2 8.118988e-2 3.056125e+1
    endloop
  endfacet
  facet normal 8.660254e-1 -5.000000e-1 0.000000e+0
    outer loop
      vertex -4.687500e-2 8.118988e-2 3.048000e+1
      vertex -4.687500e-2 8.118988e-2 3.056125e+1
      vertex -9.375000e-2 1.148106e-17 3.048000e+1
    endloop
  endfacet
  facet normal 8.660254e-1 -5.000000e-1 0.000000e+0
    outer loop
      vertex -4.687500e-2 8.118988e-2 3.056125e+1
      vertex -9.375000e-2 1.148106e-17 3.056125e+1
      vertex -9.375000e-2 1.148106e-17 3.048000e+1
    endloop
  endfacet
  facet normal 0.000000e+0 0.000000e+0 1.000000e+0
    outer loop
      vertex 0.000000e+0 0.000000e+0 3.056125e+1
      vertex -4.687500e-2 8.118988e-2 3.056125e+1
      vertex -9.375000e-2 1.148106e-17 3.056125e+1
    endloop
  endfacet
  facet normal 8.660254e-1 5.000000e-1 0.000000e+0
    outer loop
      vertex -9.375000e-2 1.148106e-17 3.048000e+1
      vertex -9.375000e-2 1.148106e-17 3.056125e+1
      vertex -4.687500e-2 -8.118988e-2 3.048000e+1
    endloop
  endfacet
  facet normal 8.660254e-1 5.000000e-1 0.000000e+0
    outer loop
      vertex -9.375000e-2 1.148106e-17 3.056125e+1
      vertex -4.687500e-2 -8.118988e-2 3.056125e+1
      vertex -4.687500e-2 -8.118988e-2 3.048000e+1
    endloop
  endfacet
  facet normal 0.000000e+0 0.000000e+0 1.000000e+0
    outer loop
      vertex 0.000000e+0 0.000000e+0 3.056125e+1
      vertex -9.375000e-2 1.148106e-17 3.056125e+1
      vertex -4.687500e-2 -8.118988e-2 3.056125e+1
    endloop
  endfacet
  facet normal 1.480297e-16 1.000000e+0 0.000000e+0
    outer loop
      vertex -4.687500e-2 -8.118988e-2 3.048000e+1
      vertex -4.687500e-2 -8.118988e-2 3.056125e+1
      vertex 4.687500e-2 -8.118988e-2 3.048000e+1
    endloop
  endfacet
  facet normal 1.480297e-16 1.000000e+0 0.000000e+0
    outer loop
      vertex -4.687500e-2 -8.118988e-2 3.056125e+1
      vertex 4.687500e-2 -8.118988e-2 3.056125e+1
      vertex 4.687500e-2 -8.118988e-2 3.048000e+1
    endloop
  endfacet
  facet normal 0.000000e+0 0.000000e+0 1.000000e+0
    outer loop
      vertex 0.000000e+0 0.000000e+0 3.056125e+1
      vertex -4.687500e-2 -8.118988e-2 3.056125e+1
      vertex 4.687500e-2 -8.118988e-2 3.056125e+1
    endloop
  endfacet
  facet normal -8.660254e-1 5.000000e-1 0.000000e+0
    outer loop
      vertex 4.687500e-2 -8.118988e-2 3.048000e+1
      vertex 4.687500e-2 -8.118988e-2 3.056125e+1
      vertex 9.375000e-2 -2.296213e-17 3.048000e+1
    endloop
  endfacet
  facet normal -8.660254e-1 5.000000e-1 0.000000e+0
    outer loop
      vertex 4.687500e-2 -8.118988e-2 3.056125e+1
      vertex 9.375000e-2 -2.296213e-17 3.056125e+1
      vertex 9.375000e-2 -2.296213e-17 3.048000e+1
    endloop
  endfacet
  facet normal 0.000000e+0 0.000000e+0 1.000000e+0
    outer loop
      vertex 0.000000e+0 0.000000e+0 3.056125e+1
      vertex 4.687500e-2 -8.118988e-2 3.056125e+1
      vertex 9.375000e-2 -2.296213e-17 3.056125e+1
    endloop
  endfacet
endsolid ms20392-2c12
