solid ms20613-5c12
  facet normal -9.807853e-1 -1.950903e-1 0.000000e+0
    outer loop
      vertex 1.562500e-1 0.000000e+0 0.000000e+0
      vertex 1.562500e-1 0.000000e+0 3.048000e+1
      vertex 1.443562e-1 5.979429e-2 0.000000e+0
    endloop
  endfacet
  facet normal -9.807853e-1 -1.950903e-1 0.000000e+0
    outer loop
      vertex 1.562500e-1 0.000000e+0 3.048000e+1
      vertex 1.443562e-1 5.979429e-2 3.048000e+1
      vertex 1.443562e-1 5.979429e-2 0.000000e+0
    endloop
  endfacet
  facet normal 0.000000e+0 0.000000e+0 -1.000000e+0
    outer loop
      vertex 0.000000e+0 0.000000e+0 0.000000e+0
      vertex 1.443562e-1 5.979429e-2 0.000000e+0
      vertex 1.562500e-1 0.000000e+0 0.000000e+0
    endloop
  endfacet
  facet normal -8.314696e-1 -5.555702e-1 0.000000e+0
    outer loop
      vertex 1.443562e-1 5.979429e-2 0.000000e+0
      vertex 1.443562e-1 5.979429e-2 3.048000e+1
      vertex 1.104854e-1 1.104854e-1 0.000000e+0
    endloop
  endfacet
  facet normal -8.314696e-1 -5.555702e-1 0.000000e+0
    outer loop
      vertex 1.443562e-1 5.979429e-2 3.048000e+1
      vertex 1.104854e-1 1.104854e-1 3.048000e+1
      vertex 1.104854e-1 1.104854e-1 0.000000e+0
    endloop
  endfacet
  facet normal 0.000000e+0 0.000000e+0 -1.000000e+0
    outer loop
      vertex 0.000000e+0 0.000000e+0 0.000000e+0
      vertex 1.104854e-1 1.104854e-1 0.000000e+0
      vertex 1.443562e-1 5.979429e-2 0.000000e+0
    endloop
  endfacet
  facet normal -5.555702e-1 -8.314696e-1 0.000000e+0
    outer loop
      vertex 1.104854e-1 1.104854e-1 0.000000e+0
      vertex 1.104854e-1 1.104854e-1 3.048000e+1
      vertex 5.979429e-2 1.443562e-1 0.000000e+0
    endloop
  endfacet
  facet normal -5.555702e-1 -8.314696e-1 0.000000e+0
    outer loop
      vertex 1.104854e-1 1.104854e-1 3.048000e+1
      vertex 5.979429e-2 1.443562e-1 3.048000e+1
      vertex 5.979429e-2 1.443562e-1 0.000000e+0
    endloop
  endfacet
  facet normal 0.000000e+0 0.000000e+0 -1.000000e+0
    outer loop
      vertex 0.000000e+0 0.000000e+0 0.000000e+0
      vertex 5.979429e-2 1.443562e-1 0.000000e+0
      vertex 1.104854e-1 1.104854e-1 0.000000e+0
    endloop
  endfacet
  facet normal -1.950903e-1 -9.807853e-1 0.000000e+0
    outer loop
      vertex 5.979429e-2 1.443562e-1 0.000000e+0
      vertex 5.979429e-2 1.443562e-1 3.048000e+1
      vertex 9.567553e-18 1.562500e-1 0.000000e+0
    endloop
  endfacet
  facet normal -1.950903e-1 -9.807853e-1 0.000000e+0
    outer loop
      vertex 5.979429e-2 1.443562e-1 3.048000e+1
      vertex 9.567553e-18 1.562500e-1 3.048000e+1
      vertex 9.567553e-18 1.562500e-1 0.000000e+0
    endloop
  endfacet
  facet normal 0.000000e+0 0.000000e+0 -1.000000e+0
    outer loop
      vertex 0.000000e+0 0.000000e+0 0.000000e+0
      vertex 9.567553e-18 1.562500e-1 0.000000e+0
      vertex 5.979429e-2 1.443562e-1 0.000000e+0
    endloop
  endfacet
  facet normal 1.950903e-1 -9.807853e-1 0.000000e+0
    outer loop
      vertex 9.567553e-18 1.562500e-1 0.000000e+0
      vertex 9.567553e-18 1.562500e-1 3.048000e+1
      vertex -5.979429e-2 1.443562e-1 0.000000e+0
    endloop
  endfacet
  facet normal 1.950903e-1 -9.807853e-1 0.000000e+0
    outer loop
      vertex 9.567553e-18 1.562500e-1 3.048000e+1
      vertex -5.979429e-2 1.443562e-1 3.048000e+1
      vertex -5.979429e-2 1.443562e-1 0.000000e+0
    endloop
  endfacet
  facet normal 0.000000e+0 0.000000e+0 -1.000000e+0
    outer loop
      vertex 0.000000e+0 0.000000e+0 0.000000e+0
      vertex -5.979429e-2 1.443562e-1 0.000000e+0
      vertex 9.567553e-18 1.562500e-1 0.000000e+0
    endloop
  endfacet
  facet normal 5.555702e-1 -8.314696e-1 0.000000e+0
    outer loop
      vertex -5.979429e-2 1.443562e-1 0.000000e+0
      vertex -5.979429e-2 1.443562e-1 3.048000e+1
      vertex -1.104854e-1 1.104854e-1 0.000000e+0
    endloop
  endfacet
  facet normal 5.555702e-1 -8.314696e-1 0.000000e+0
    outer loop
      vertex -5.979429e-2 1.443562e-1 3.048000e+1
      vertex -1.104854e-1 1.104854e-1 3.048000e+1
      vertex -1.104854e-1 1.104854e-1 0.000000e+0
    endloop
  endfacet
  facet normal 0.000000e+0 0.000000e+0 -1.000000e+0
    outer loop
      vertex 0.000000e+0 0.000000e+0 0.000000e+0
      vertex -1.104854e-1 1.104854e-1 0.000000e+0
      vertex -5.979429e-2 1.443562e-1 0.000000e+0
    endloop
  endfacet
  facet normal 8.314696e-1 -5.555702e-1 0.000000e+0
    outer loop
      vertex -1.104854e-1 1.104854e-1 0.000000e+0
      vertex -1.104854e-1 1.104854e-1 3.048000e+1
      vertex -1.443562e-1 5.979429e-2 0.000000e+0
    endloop
  endfacet
  facet normal 8.314696e-1 -5.555702e-1 0.000000e+0
    outer loop
      vertex -1.104854e-1 1.104854e-1 3.048000e+1
      vertex -1.443562e-1 5.979429e-2 3.048000e+1
      vertex -1.443562e-1 5.979429e-2 0.000000e+0
    endloop
  endfacet
  facet normal 0.000000e+0 0.000000e+0 -1.000000e+0
    outer loop
      vertex 0.000000e+0 0.000000e+0 0.000000e+0
      vertex -1.443562e-1 5.979429e-2 0.000000e+0
      vertex -1.104854e-1 1.104854e-1 0.000000e+0
    endloop
  endfacet
  facet normal 9.807853e-1 -1.950903e-1 0.000000e+0
    outer loop
      vertex -1.443562e-1 5.979429e-2 0.000000e+0
      vertex -1.443562e-1 5.979429e-2 3.048000e+1
      vertex -1.562500e-1 1.913511e-17 0.000000e+0
    endloop
  endfacet
  facet normal 9.807853e-1 -1.950903e-1 0.000000e+0
    outer loop
      vertex -1.443562e-1 5.979429e-2 3.048000e+1
      vertex -1.562500e-1 1.913511e-17 3.048000e+1
      vertex -1.562500e-1 1.913511e-17 0.000000e+0
    endloop
  endfacet
  facet normal 0.000000e+0 0.000000e+0 -1.000000e+0
    outer loop
      vertex 0.000000e+0 0.000000e+0 0.000000e+0
      vertex -1.562500e-1 1.913511e-17 0.000000e+0
      vertex -1.443562e-1 5.979429e-2 0.000000e+0
    endloop
  endfacet
  facet normal 9.807853e-1 1.950903e-1 0.000000e+0
    outer loop
      vertex -1.562500e-1 1.913511e-17 0.000000e+0
      vertex -1.562500e-1 1.913511e-17 3.048000e+1
      vertex -1.443562e-1 -5.979429e-2 0.000000e+0
    endloop
  endfacet
  facet normal 9.807853e-1 1.950903e-1 0.000000e+0
    outer loop
      vertex -1.562500e-1 1.913511e-17 3.048000e+1
      vertex -1.443562e-1 -5.979429e-2 3.048000e+1
      vertex -1.443562e-1 -5.979429e-2 0.000000e+0
    endloop
  endfacet
  facet normal 0.000000e+0 0.000000e+0 -1.000000e+0
    outer loop
      vertex 0.000000e+0 0.000000e+0 0.000000e+0
      vertex -1.443562e-1 -5.979429e-2 0.000000e+0
      vertex -1.562500e-1 1.913511e-17 0.000000e+0
    endloop
  endfacet
  facet normal 8.314696e-1 5.555702e-1 0.000000e+0
    outer loop
      vertex -1.443562e-1 -5.979429e-2 0.000000e+0
      vertex -1.443562e-1 -5.979429e-2 3.048000e+1
      vertex -1.104854e-1 -1.104854e-1 0.000000e+0
    endloop
  endfacet
  facet normal 8.314696e-1 5.555702e-1 0.000000e+0
    outer loop
      vertex -1.443562e-1 -5.979429e-2 3.048000e+1
      vertex -1.104854e-1 -1.104854e-1 3.048000e+1
      vertex -1.104854e-1 -1.104854e-1 0.000000e+0
    endloop
  endfacet
  facet normal 0.000000e+0 0.000000e+0 -1.000000e+0
    outer loop
      vertex 0.000000e+0 0.000000e+0 0.000000e+0
      vertex -1.104854e-1 -1.104854e-1 0.000000e+0
      vertex -1.443562e-1 -5.979429e-2 0.000000e+0
    endloop
  endfacet
  facet normal 5.555702e-1 8.314696e-1 0.000000e+0
    outer loop
      vertex -1.104854e-1 -1.104854e-1 0.000000e+0
      vertex -1.104854e-1 -1.104854e-1 3.048000e+1
      vertex -5.979429e-2 -1.443562e-1 0.000000e+0
    endloop
  endfacet
  facet normal 5.555702e-1 8.314696e-1 0.000000e+0
    outer loop
      vertex -1.104854e-1 -1.104854e-1 3.048000e+1
      vertex -5.979429e-2 -1.443562e-1 3.048000e+1
      vertex -5.979429e-2 -1.443562e-1 0.000000e+0
    endloop
  endfacet
  facet normal 0.000000e+0 0.000000e+0 -1.000000e+0
    outer loop
      vertex 0.000000e+0 0.000000e+0 0.000000e+0
      vertex -5.979429e-2 -1.443562e-1 0.000000e+0
      vertex -1.104854e-1 -1.104854e-1 0.000000e+0
    endloop
  endfacet
  facet normal 1.950903e-1 9.807853e-1 0.000000e+0
    outer loop
      vertex -5.979429e-2 -1.443562e-1 0.000000e+0
      vertex -5.979429e-2 -1.443562e-1 3.048000e+1
      vertex -2.870266e-17 -1.562500e-1 0.000000e+0
    endloop
  endfacet
  facet normal 1.950903e-1 9.807853e-1 0.000000e+0
    outer loop
      vertex -5.979429e-2 -1.443562e-1 3.048000e+1
      vertex -2.870266e-17 -1.562500e-1 3.048000e+1
      vertex -2.870266e-17 -1.562500e-1 0.000000e+0
    endloop
  endfacet
  facet normal 0.000000e+0 0.000000e+0 -1.000000e+0
    outer loop
      vertex 0.000000e+0 0.000000e+0 0.000000e+0
      vertex -2.870266e-17 -1.562500e-1 0.000000e+0
      vertex -5.979429e-2 -1.443562e-1 0.000000e+0
    endloop
  endfacet
  facet normal -1.950903e-1 9.807853e-1 0.000000e+0
    outer loop
      vertex -2.870266e-17 -1.562500e-1 0.000000e+0
      vertex -2.870266e-17 -1.562500e-1 3.048000e+1
      vertex 5.979429e-2 -1.443562e-1 0.000000e+0
    endloop
  endfacet
  facet normal -1.950903e-1 9.807853e-1 0.000000e+0
    outer loop
      vertex -2.870266e-17 -1.562500e-1 3.048000e+1
      vertex 5.979429e-2 -1.443562e-1 3.048000e+1
      vertex 5.979429e-2 -1.443562e-1 0.000000e+0
    endloop
  endfacet
  facet normal 0.000000e+0 0.000000e+0 -1.000000e+0
    outer loop
      vertex 0.000000e+0 0.000000e+0 0.000000e+0
      vertex 5.979429e-2 -1.443562e-1 0.000000e+0
      vertex -2.870266e-17 -1.562500e-1 0.000000e+0
    endloop
  endfacet
  facet normal -5.555702e-1 8.314696e-1 0.000000e+0
    outer loop
      vertex 5.979429e-2 -1.443562e-1 0.000000e+0
      vertex 5.979429e-2 -1.443562e-1 3.048000e+1
      vertex 1.104854e-1 -1.104854e-1 0.000000e+0
    endloop
  endfacet
  facet normal -5.555702e-1 8.314696e-1 0.000000e+0
    outer loop
      vertex 5.979429e-2 -1.443562e-1 3.048000e+1
      vertex 1.104854e-1 -1.104854e-1 3.048000e+1
      vertex 1.104854e-1 -1.104854e-1 0.000000e+0
    endloop
  endfacet
  facet normal 0.000000e+0 0.000000e+0 -1.000000e+0
    outer loop
      vertex 0.000000e+0 0.000000e+0 0.000000e+0
      vertex 1.104854e-1 -1.104854e-1 0.000000e+0
      vertex 5.979429e-2 -1.443562e-1 0.000000e+0
    endloop
  endfacet
  facet normal -8.314696e-1 5.555702e-1 0.000000e+0
    outer loop
      vertex 1.104854e-1 -1.104854e-1 0.000000e+0
      vertex 1.104854e-1 -1.104854e-1 3.048000e+1
      vertex 1.443562e-1 -5.979429e-2 0.000000e+0
    endloop
  endfacet
  facet normal -8.314696e-1 5.555702e-1 0.000000e+0
    outer loop
      vertex 1.104854e-1 -1.104854e-1 3.048000e+1
      vertex 1.443562e-1 -5.979429e-2 3.048000e+1
      vertex 1.443562e-1 -5.979429e-2 0.000000e+0
    endloop
  endfacet
  facet normal 0.000000e+0 0.000000e+0 -1.000000e+0
    outer loop
      vertex 0.000000e+0 0.000000e+0 0.000000e+0
      vertex 1.443562e-1 -5.979429e-2 0.000000e+0
      vertex 1.104854e-1 -1.104854e-1 0.000000e+0
    endloop
  endfacet
  facet normal -9.807853e-1 1.950903e-1 0.000000e+0
    outer loop
      vertex 1.443562e-1 -5.979429e-2 0.000000e+0
      vertex 1.443562e-1 -5.979429e-2 3.048000e+1
      vertex 1.562500e-1 -3.827021e-17 0.000000e+0
    endloop
  endfacet
  facet normal -9.807853e-1 1.950903e-1 0.000000e+0
    outer loop
      vertex 1.443562e-1 -5.979429e-2 3.048000e+1
      vertex 1.562500e-1 -3.827021e-17 3.048000e+1
      vertex 1.562500e-1 -3.827021e-17 0.000000e+0
    endloop
  endfacet
  facet normal 0.000000e+0 0.000000e+0 -1.000000e+0
    outer loop
      vertex 0.000000e+0 0.000000e+0 0.000000e+0
      vertex 1.562500e-1 -3.827021e-17 0.000000e+0
      vertex 1.443562e-1 -5.979429e-2 0.000000e+0
    endloop
  endfacet
  facet normal -8.660254e-1 -5.000000e-1 0.000000e+0
    outer loop
      vertex 2.343750e-1 0.000000e+0 3.048000e+1
      vertex 2.343750e-1 0.000000e+0 3.068313e+1
      vertex 1.171875e-1 2.029747e-1 3.048000e+1
    endloop
  endfacet
  facet normal -8.660254e-1 -5.000000e-1 0.000000e+0
    outer loop
      vertex 2.343750e-1 0.000000e+0 3.068313e+1
      vertex 1.171875e-1 2.029747e-1 3.068313e+1
      vertex 1.171875e-1 2.029747e-1 3.048000e+1
    endloop
  endfacet
  facet normal 0.000000e+0 0.000000e+0 1.000000e+0
    outer loop
      vertex 0.000000e+0 0.000000e+0 3.068313e+1
      vertex 2.343750e-1 0.000000e+0 3.068313e+1
      vertex 1.171875e-1 2.029747e-1 3.068313e+1
    endloop
  endfacet
  facet normal -1.184238e-16 -1.000000e+0 0.000000e+0
    outer loop
      vertex 1.171875e-1 2.029747e-1 3.048000e+1
      vertex 1.171875e-1 2.029747e-1 3.068313e+1
      vertex -1.171875e-1 2.029747e-1 3.048000e+1
    endloop
  endfacet
  facet normal -1.184238e-16 -1.000000e+0 0.000000e+0
    outer loop
      vertex 1.171875e-1 2.029747e-1 3.068313e+1
      vertex -1.171875e-1 2.029747e-1 3.068313e+1
      vertex -1.171875e-1 2.029747e-1 3.048000e+1
    endloop
  endfacet
  facet normal 0.000000e+0 0.000000e+0 1.000000e+0
    outer loop
      vertex 0.000000e+0 0.000000e+0 3.068313e+1
      vertex 1.171875e-1 2.029747e-1 3.068313e+1
      vertex -1.171875e-1 2.029747e-1 3.068313e+1
    endloop
  endfacet
  facet normal 8.660254e-1 -5.000000e-1 0.000000e+0
    outer loop
      vertex -1.171875e-1 2.029747e-1 3.048000e+1
      vertex -1.171875e-1 2.029747e-1 3.068313e+1
      vertex -2.343750e-1 2.870266e-17 3.048000e+1
    endloop
  endfacet
  facet normal 8.660254e-1 -5.000000e-1 0.000000e+0
    outer loop
      vertex -1.171875e-1 2.029747e-1 3.068313e+1
      vertex -2.343750e-1 2.870266e-17 3.068313e+1
      vertex -2.343750e-1 2.870266e-17 3.048000e+1
    endloop
  endfacet
  facet normal 0.000000e+0 0.000000e+0 1.000000e+0
    outer loop
      vertex 0.000000e+0 0.000000e+0 3.068313e+1
      vertex -1.171875e-1 2.029747e-1 3.068313e+1
      vertex -2.343750e-1 2.870266e-17 3.068313e+1
    endloop
  endfacet
  facet normal 8.660254e-1 5.000000e-1 0.000000e+0
    outer loop
      vertex -2.343750e-1 2.870266e-17 3.048000e+1
      vertex -2.343750e-1 2.870266e-17 3.068313e+1
      vertex -1.171875e-1 -2.029747e-1 3.048000e+1
    endloop
  endfacet
  facet normal 8.660254e-1 5.000000e-1 0.000000e+0
    outer loop
      vertex -2.343750e-1 2.870266e-17 3.068313e+1
      vertex -1.171875e-1 -2.029747e-1 3.068313e+1
      vertex -1.171875e-1 -2.029747e-1 3.048000e+1
    endloop
  endfacet
  facet normal 0.000000e+0 0.000000e+0 1.000000e+0
    outer loop
      vertex 0.000000e+0 0.000000e+0 3.068313e+1
      vertex -2.343750e-1 2.870266e-17 3.068313e+1
      vertex -1.171875e-1 -2.029747e-1 3.068313e+1
    endloop
  endfacet
  facet normal 1.184238e-16 1.000000e+0 0.000000e+0
    outer loop
      vertex -1.171875e-1 -2.029747e-1 3.048000e+1
      vertex -1.171875e-1 -2.029747e-1 3.068313e+1
      vertex 1.171875e-1 -2.029747e-1 3.048000e+1
    endloop
  endfacet
  facet normal 1.184238e-16 1.000000e+0 0.000000e+0
    outer loop
      vertex -1.171875e-1 -2.029747e-1 3.068313e+1
      vertex 1.171875e-1 -2.029747e-1 3.068313e+1
      vertex 1.171875e-1 -2.029747e-1 3.048000e+1
    endloop
  endfacet
  facet normal 0.000000e+0 0.000000e+0 1.000000e+0
    outer loop
      vertex 0.000000e+0 0.000000e+0 3.068313e+1
      vertex -1.171875e-1 -2.029747e-1 3.068313e+1
      vertex 1.171875e-1 -2.029747e-1 3.068313e+1
    endloop
  endfacet
  facet normal -8.660254e-1 5.000000e-1 0.000000e+0
    outer loop
      vertex 1.171875e-1 -2.029747e-1 3.048000e+1
      vertex 1.171875e-1 -2.029747e-1 3.068313e+1
      vertex 2.343750e-1 -5.740532e-17 3.048000e+1
    endloop
  endfacet
  facet normal -8.660254e-1 5.000000e-1 0.000000e+0
    outer loop
      vertex 1.171875e-1 -2.029747e-1 3.068313e+1
      vertex 2.343750e-1 -5.740532e-17 3.068313e+1
      vertex 2.343750e-1 -5.740532e-17 3.048000e+1
    endloop
  endfacet
  facet normal 0.000000e+0 0.000000e+0 1.000000e+0
    outer loop
      vertex 0.000000e+0 0.000000e+0 3.068313e+1
      vertex 1.171875e-1 -2.029747e-1 3.068313e+1
      vertex 2.343750e-1 -5.740532e-17 3.068313e+1
    endloop
  endfacet
endsolid ms20613-5c12
