solid ms24694-c3
  facet normal -9.807853e-1 -1.950903e-1 0.000000e+0
    outer loop
      vertex 8.200000e-2 0.000000e+0 0.000000e+0
      vertex 8.200000e-2 0.000000e+0 1.032000e+1
      vertex 7.575812e-2 3.138004e-2 0.000000e+0
    endloop
  endfacet
  facet normal -9.807853e-1 -1.950903e-1 0.000000e+0
    outer loop
      vertex 8.200000e-2 0.000000e+0 1.032000e+1
      vertex 7.575812e-2 3.138004e-2 1.032000e+1
      vertex 7.575812e-2 3.138004e-2 0.000000e+0
    endloop
  endfacet
  facet normal 0.000000e+0 0.000000e+0 -1.000000e+0
    outer loop
      vertex 0.000000e+0 0.000000e+0 0.000000e+0
      vertex 7.575812e-2 3.138004e-2 0.000000e+0
      vertex 8.200000e-2 0.000000e+0 0.000000e+0
    endloop
  endfacet
  facet normal -8.314696e-1 -5.555702e-1 0.000000e+0
    outer loop
      vertex 7.575812e-2 3.138004e-2 0.000000e+0
      vertex 7.575812e-2 3.138004e-2 1.032000e+1
      vertex 5.798276e-2 5.798276e-2 0.000000e+0
    endloop
  endfacet
  facet normal -8.314696e-1 -5.555702e-1 0.000000e+0
    outer loop
      vertex 7.575812e-2 3.138004e-2 1.032000e+1
      vertex 5.798276e-2 5.798276e-2 1.032000e+1
      vertex 5.798276e-2 5.798276e-2 0.000000e+0
    endloop
  endfacet
  facet normal 0.000000e+0 0.000000e+0 -1.000000e+0
    outer loop
      vertex 0.000000e+0 0.000000e+0 0.000000e+0
      vertex 5.798276e-2 5.798276e-2 0.000000e+0
      vertex 7.575812e-2 3.138004e-2 0.000000e+0
    endloop
  endfacet
  facet normal -5.555702e-1 -8.314696e-1 0.000000e+0
    outer loop
      vertex 5.798276e-2 5.798276e-2 0.000000e+0
      vertex 5.798276e-2 5.798276e-2 1.032000e+1
      vertex 3.138004e-2 7.575812e-2 0.000000e+0
    endloop
  endfacet
  facet normal -5.555702e-1 -8.314696e-1 0.000000e+0
    outer loop
      vertex 5.798276e-2 5.798276e-2 1.032000e+1
      vertex 3.138004e-2 7.575812e-2 1.032000e+1
      vertex 3.138004e-2 7.575812e-2 0.000000e+0
    endloop
  endfacet
  facet normal 0.000000e+0 0.000000e+0 -1.000000e+0
    outer loop
      vertex 0.000000e+0 0.000000e+0 0.000000e+0
      vertex 3.138004e-2 7.575812e-2 0.000000e+0
      vertex 5.798276e-2 5.798276e-2 0.000000e+0
    endloop
  endfacet
  facet normal -1.950903e-1 -9.807853e-1 0.000000e+0
    outer loop
      vertex 3.138004e-2 7.575812e-2 0.000000e+0
      vertex 3.138004e-2 7.575812e-2 1.032000e+1
      vertex 5.021052e-18 8.200000e-2 0.000000e+0
    endloop
  endfacet
  facet normal -1.950903e-1 -9.807853e-1 0.000000e+0
    outer loop
      vertex 3.138004e-2 7.575812e-2 1.032000e+1
      vertex 5.021052e-18 8.200000e-2 1.032000e+1
      vertex 5.021052e-18 8.200000e-2 0.000000e+0
    endloop
  endfacet
  facet normal 0.000000e+0 0.000000e+0 -1.000000e+0
    outer loop
      vertex 0.000000e+0 0.000000e+0 0.000000e+0
      vertex 5.021052e-18 8.200000e-2 0.000000e+0
      vertex 3.138004e-2 7.575812e-2 0.000000e+0
    endloop
  endfacet
  facet normal 1.950903e-1 -9.807853e-1 0.000000e+0
    outer loop
      vertex 5.021052e-18 8.200000e-2 0.000000e+0
      vertex 5.021052e-18 8.200000e-2 1.032000e+1
      vertex -3.138004e-2 7.575812e-2 0.000000e+0
    endloop
  endfacet
  facet normal 1.950903e-1 -9.807853e-1 0.000000e+0
    outer loop
      vertex 5.021052e-18 8.200000e-2 1.032000e+1
      vertex -3.138004e-2 7.575812e-2 1.032000e+1
      vertex -3.138004e-2 7.575812e-2 0.000000e+0
    endloop
  endfacet
  facet normal 0.000000e+0 0.000000e+0 -1.000000e+0
    outer loop
      vertex 0.000000e+0 0.000000e+0 0.000000e+0
      vertex -3.138004e-2 7.575812e-2 0.000000e+0
      vertex 5.021052e-18 8.200000e-2 0.000000e+0
    endloop
  endfacet
  facet normal 5.555702e-1 -8.314696e-1 0.000000e+0
    outer loop
      vertex -3.138004e-2 7.575812e-2 0.000000e+0
      vertex -3.138004e-2 7.575812e-2 1.032000e+1
      vertex -5.798276e-2 5.798276e-2 0.000000e+0
    endloop
  endfacet
  facet normal 5.555702e-1 -8.314696e-1 0.000000e+0
    outer loop
      vertex -3.138004e-2 7.575812e-2 1.032000e+1
      vertex -5.798276e-2 5.798276e-2 1.032000e+1
      vertex -5.798276e-2 5.798276e-2 0.000000e+0
    endloop
  endfacet
  facet normal 0.000000e+0 0.000000e+0 -1.000000e+0
    outer loop
      vertex 0.000000e+0 0.000000e+0 0.000000e+0
      vertex -5.798276e-2 5.798276e-2 0.000000e+0
      vertex -3.138004e-2 7.575812e-2 0.000000e+0
    endloop
  endfacet
  facet normal 8.314696e-1 -5.555702e-1 0.000000e+0
    outer loop
      vertex -5.798276e-2 5.798276e-2 0.000000e+0
      vertex -5.798276e-2 5.798276e-2 1.032000e+1
      vertex -7.575812e-2 3.138004e-2 0.000000e+0
    endloop
  endfacet
  facet normal 8.314696e-1 -5.555702e-1 0.000000e+0
    outer loop
      vertex -5.798276e-2 5.798276e-2 1.032000e+1
      vertex -7.575812e-2 3.138004e-2 1.032000e+1
      vertex -7.575812e-2 3.138004e-2 0.000000e+0
    endloop
  endfacet
  facet normal 0.000000e+0 0.000000e+0 -1.000000e+0
    outer loop
      vertex 0.000000e+0 0.000000e+0 0.000000e+0
      vertex -7.575812e-2 3.138004e-2 0.000000e+0
      vertex -5.798276e-2 5.798276e-2 0.000000e+0
    endloop
  endfacet
  facet normal 9.807853e-1 -1.950903e-1 0.000000e+0
    outer loop
      vertex -7.575812e-2 3.138004e-2 0.000000e+0
      vertex -7.575812e-2 3.138004e-2 1.032000e+1
      vertex -8.200000e-2 1.004210e-17 0.000000e+0
    endloop
  endfacet
  facet normal 9.807853e-1 -1.950903e-1 0.000000e+0
    outer loop
      vertex -7.575812e-2 3.138004e-2 1.032000e+1
      vertex -8.200000e-2 1.004210e-17 1.032000e+1
      vertex -8.200000e-2 1.004210e-17 0.000000e+0
    endloop
  endfacet
  facet normal 0.000000e+0 0.000000e+0 -1.000000e+0
    outer loop
      vertex 0.000000e+0 0.000000e+0 0.000000e+0
      vertex -8.200000e-2 1.004210e-17 0.000000e+0
      vertex -7.575812e-2 3.138004e-2 0.000000e+0
    endloop
  endfacet
  facet normal 9.807853e-1 1.950903e-1 0.000000e+0
    outer loop
      vertex -8.200000e-2 1.004210e-17 0.000000e+0
      vertex -8.200000e-2 1.004210e-17 1.032000e+1
      vertex -7.575812e-2 -3.138004e-2 0.000000e+0
    endloop
  endfacet
  facet normal 9.807853e-1 1.950903e-1 0.000000e+0
    outer loop
      vertex -8.200000e-2 1.004210e-17 1.032000e+1
      vertex -7.575812e-2 -3.138004e-2 1.032000e+1
      vertex -7.575812e-2 -3.138004e-2 0.000000e+0
    endloop
  endfacet
  facet normal 0.000000e+0 0.000000e+0 -1.000000e+0
    outer loop
      vertex 0.000000e+0 0.000000e+0 0.000000e+0
      vertex -7.575812e-2 -3.138004e-2 0.000000e+0
      vertex -8.200000e-2 1.004210e-17 0.000000e+0
    endloop
  endfacet
  facet normal 8.314696e-1 5.555702e-1 0.000000e+0
    outer loop
      vertex -7.575812e-2 -3.138004e-2 0.000000e+0
      vertex -7.575812e-2 -3.138004e-2 1.032000e+1
      vertex -5.798276e-2 -5.798276e-2 0.000000e+0
    endloop
  endfacet
  facet normal 8.314696e-1 5.555702e-1 0.000000e+0
    outer loop
      vertex -7.575812e-2 -3.138004e-2 1.032000e+1
      vertex -5.798276e-2 -5.798276e-2 1.032000e+1
      vertex -5.798276e-2 -5.798276e-2 0.000000e+0
    endloop
  endfacet
  facet normal 0.000000e+0 0.000000e+0 -1.000000e+0
    outer loop
      vertex 0.000000e+0 0.000000e+0 0.000000e+0
      vertex -5.798276e-2 -5.798276e-2 0.000000e+0
      vertex -7.575812e-2 -3.138004e-2 0.000000e+0
    endloop
  endfacet
  facet normal 5.555702e-1 8.314696e-1 0.000000e+0
    outer loop
      vertex -5.798276e-2 -5.798276e-2 0.000000e+0
      vertex -5.798276e-2 -5.798276e-2 1.032000e+1
      vertex -3.138004e-2 -7.575812e-2 0.000000e+0
    endloop
  endfacet
  facet normal 5.555702e-1 8.314696e-1 0.000000e+0
    outer loop
      vertex -5.798276e-2 -5.798276e-2 1.032000e+1
      vertex -3.138004e-2 -7.575812e-2 1.032000e+1
      vertex -3.138004e-2 -7.575812e-2 0.000000e+0
    endloop
  endfacet
  facet normal 0.000000e+0 0.000000e+0 -1.000000e+0
    outer loop
      vertex 0.000000e+0 0.000000e+0 0.000000e+0
      vertex -3.138004e-2 -7.575812e-2 0.000000e+0
      vertex -5.798276e-2 -5.798276e-2 0.000000e+0
    endloop
  endfacet
  facet normal 1.950903e-1 9.807853e-1 0.000000e+0
    outer loop
      vertex -3.138004e-2 -7.575812e-2 0.000000e+0
      vertex -3.138004e-2 -7.575812e-2 1.032000e+1
      vertex -1.506316e-17 -8.200000e-2 0.000000e+0
    endloop
  endfacet
  facet normal 1.950903e-1 9.807853e-1 0.000000e+0
    outer loop
      vertex -3.138004e-2 -7.575812e-2 1.032000e+1
      vertex -1.506316e-17 -8.200000e-2 1.032000e+1
      vertex -1.506316e-17 -8.200000e-2 0.000000e+0
    endloop
  endfacet
  facet normal 0.000000e+0 0.000000e+0 -1.000000e+0
    outer loop
      vertex 0.000000e+0 0.000000e+0 0.000000e+0
      vertex -1.506316e-17 -8.200000e-2 0.000000e+0
      vertex -3.138004e-2 -7.575812e-2 0.000000e+0
    endloop
  endfacet
  facet normal -1.950903e-1 9.807853e-1 0.000000e+0
    outer loop
      vertex -1.506316e-17 -8.200000e-2 0.000000e+0
      vertex -1.506316e-17 -8.200000e-2 1.032000e+1
      vertex 3.138004e-2 -7.575812e-2 0.000000e+0
    endloop
  endfacet
  facet normal -1.950903e-1 9.807853e-1 0.000000e+0
    outer loop
      vertex -1.506316e-17 -8.200000e-2 1.032000e+1
      vertex 3.138004e-2 -7.575812e-2 1.032000e+1
      vertex 3.138004e-2 -7.575812e-2 0.000000e+0
    endloop
  endfacet
  facet normal 0.000000e+0 0.000000e+0 -1.000000e+0
    outer loop
      vertex 0.000000e+0 0.000000e+0 0.000000e+0
      vertex 3.138004e-2 -7.575812e-2 0.000000e+0
      vertex -1.506316e-17 -8.200000e-2 0.000000e+0
    endloop
  endfacet
  facet normal -5.555702e-1 8.314696e-1 0.000000e+0
    outer loop
      vertex 3.138004e-2 -7.575812e-2 0.000000e+0
      vertex 3.138004e-2 -7.575812e-2 1.032000e+1
      vertex 5.798276e-2 -5.798276e-2 0.000000e+0
    endloop
  endfacet
  facet normal -5.555702e-1 8.314696e-1 0.000000e+0
    outer loop
      vertex 3.138004e-2 -7.575812e-2 1.032000e+1
      vertex 5.798276e-2 -5.798276e-2 1.032000e+1
      vertex 5.798276e-2 -5.798276e-2 0.000000e+0
    endloop
  endfacet
  facet normal 0.000000e+0 0.000000e+0 -1.000000e+0
    outer loop
      vertex 0.000000e+0 0.000000e+0 0.000000e+0
      vertex 5.798276e-2 -5.798276e-2 0.000000e+0
      vertex 3.138004e-2 -7.575812e-2 0.000000e+0
    endloop
  endfacet
  facet normal -8.314696e-1 5.555702e-1 0.000000e+0
    outer loop
      vertex 5.798276e-2 -5.798276e-2 0.000000e+0
      vertex 5.798276e-2 -5.798276e-2 1.032000e+1
      vertex 7.575812e-2 -3.138004e-2 0.000000e+0
    endloop
  endfacet
  facet normal -8.314696e-1 5.555702e-1 0.000000e+0
    outer loop
      vertex 5.798276e-2 -5.798276e-2 1.032000e+1
      vertex 7.575812e-2 -3.138004e-2 1.032000e+1
      vertex 7.575812e-2 -3.138004e-2 0.000000e+0
    endloop
  endfacet
  facet normal 0.000000e+0 0.000000e+0 -1.000000e+0
    outer loop
      vertex 0.000000e+0 0.000000e+0 0.000000e+0
      vertex 7.575812e-2 -3.138004e-2 0.000000e+0
      vertex 5.798276e-2 -5.798276e-2 0.000000e+0
    endloop
  endfacet
  facet normal -9.807853e-1 1.950903e-1 0.000000e+0
    outer loop
      vertex 7.575812e-2 -3.138004e-2 0.000000e+0
      vertex 7.575812e-2 -3.138004e-2 1.032000e+1
      vertex 8.200000e-2 -2.008421e-17 0.000000e+0
    endloop
  endfacet
  facet normal -9.807853e-1 1.950903e-1 0.000000e+0
    outer loop
      vertex 7.575812e-2 -3.138004e-2 1.032000e+1
      vertex 8.200000e-2 -2.008421e-17 1.032000e+1
      vertex 8.200000e-2 -2.008421e-17 0.000000e+0
    endloop
  endfacet
  facet normal 0.000000e+0 0.000000e+0 -1.000000e+0
    outer loop
      vertex 0.000000e+0 0.000000e+0 0.000000e+0
      vertex 8.200000e-2 -2.008421e-17 0.000000e+0
      vertex 7.575812e-2 -3.138004e-2 0.000000e+0
    endloop
  endfacet
  facet normal -8.660254e-1 -5.000000e-1 0.000000e+0
    outer loop
      vertex 1.230000e-1 0.000000e+0 1.032000e+1
      vertex 1.230000e-1 0.000000e+0 1.042660e+1
      vertex 6.150000e-2 1.065211e-1 1.032000e+1
    endloop
  endfacet
  facet normal -8.660254e-1 -5.000000e-1 0.000000e+0
    outer loop
      vertex 1.230000e-1 0.000000e+0 1.042660e+1
      vertex 6.150000e-2 1.065211e-1 1.042660e+1
      vertex 6.150000e-2 1.065211e-1 1.032000e+1
    endloop
  endfacet
  facet normal 0.000000e+0 0.000000e+0 1.000000e+0
    outer loop
      vertex 0.000000e+0 0.000000e+0 1.042660e+1
      vertex 1.230000e-1 0.000000e+0 1.042660e+1
      vertex 6.150000e-2 1.065211e-1 1.042660e+1
    endloop
  endfacet
  facet normal -1.128275e-16 -1.000000e+0 0.000000e+0
    outer loop
      vertex 6.150000e-2 1.065211e-1 1.032000e+1
      vertex 6.150000e-2 1.065211e-1 1.042660e+1
      vertex -6.150000e-2 1.065211e-1 1.032000e+1
    endloop
  endfacet
  facet normal -1.128275e-16 -1.000000e+0 0.000000e+0
    outer loop
      vertex 6.150000e-2 1.065211e-1 1.042660e+1
      vertex -6.150000e-2 1.065211e-1 1.042660e+1
      vertex -6.150000e-2 1.065211e-1 1.032000e+1
    endloop
  endfacet
  facet normal 0.000000e+0 0.000000e+0 1.000000e+0
    outer loop
      vertex 0.000000e+0 0.000000e+0 1.042660e+1
      vertex 6.150000e-2 1.065211e-1 1.042660e+1
      vertex -6.150000e-2 1.065211e-1 1.042660e+1
    endloop
  endfacet
  facet normal 8.660254e-1 -5.000000e-1 0.000000e+0
    outer loop
      vertex -6.150000e-2 1.065211e-1 1.032000e+1
      vertex -6.150000e-2 1.065211e-1 1.042660e+1
      vertex -1.230000e-1 1.506316e-17 1.032000e+1
    endloop
  endfacet
  facet normal 8.660254e-1 -5.000000e-1 0.000000e+0
    outer loop
      vertex -6.150000e-2 1.065211e-1 1.042660e+1
      vertex -1.230000e-1 1.506316e-17 1.042660e+1
      vertex -1.230000e-1 1.506316e-17 1.032000e+1
    endloop
  endfacet
  facet normal 0.000000e+0 0.000000e+0 1.000000e+0
    outer loop
      vertex 0.000000e+0 0.000000e+0 1.042660e+1
      vertex -6.150000e-2 1.065211e-1 1.042660e+1
      vertex -1.230000e-1 1.506316e-17 1.042660e+1
    endloop
  endfacet
  facet normal 8.660254e-1 5.000000e-1 0.000000e+0
    outer loop
      vertex -1.230000e-1 1.506316e-17 1.032000e+1
      vertex -1.230000e-1 1.506316e-17 1.042660e+1
      vertex -6.150000e-2 -1.065211e-1 1.032000e+1
    endloop
  endfacet
  facet normal 8.660254e-1 5.000000e-1 0.000000e+0
    outer loop
      vertex -1.230000e-1 1.506316e-17 1.042660e+1
      vertex -6.150000e-2 -1.065211e-1 1.042660e+1
      vertex -6.150000e-2 -1.065211e-1 1.032000e+1
    endloop
  endfacet
  facet normal 0.000000e+0 0.000000e+0 1.000000e+0
    outer loop
      vertex 0.000000e+0 0.000000e+0 1.042660e+1
      vertex -1.230000e-1 1.506316e-17 1.042660e+1
      vertex -6.150000e-2 -1.065211e-1 1.042660e+1
    endloop
  endfacet
  facet normal 0.000000e+0 1.000000e+0 0.000000e+0
    outer loop
      vertex -6.150000e-2 -1.065211e-1 1.032000e+1
      vertex -6.150000e-2 -1.065211e-1 1.042660e+1
      vertex 6.150000e-2 -1.065211e-1 1.032000e+1
    endloop
  endfacet
  facet normal 0.000000e+0 1.000000e+0 0.000000e+0
    outer loop
      vertex -6.150000e-2 -1.065211e-1 1.042660e+1
      vertex 6.150000e-2 -1.065211e-1 1.042660e+1
      vertex 6.150000e-2 -1.065211e-1 1.032000e+1
    endloop
  endfacet
  facet normal 0.000000e+0 0.000000e+0 1.000000e+0
    outer loop
      vertex 0.000000e+0 0.000000e+0 1.042660e+1
      vertex -6.150000e-2 -1.065211e-1 1.042660e+1
      vertex 6.150000e-2 -1.065211e-1 1.042660e+1
    endloop
  endfacet
  facet normal -8.660254e-1 5.000000e-1 0.000000e+0
    outer loop
      vertex 6.150000e-2 -1.065211e-1 1.032000e+1
      vertex 6.150000e-2 -1.065211e-1 1.042660e+1
      vertex 1.230000e-1 -3.012631e-17 1.032000e+1
    endloop
  endfacet
  facet normal -8.660254e-1 5.000000e-1 0.000000e+0
    outer loop
      vertex 6.150000e-2 -1.065211e-1 1.042660e+1
      vertex 1.230000e-1 -3.012631e-17 1.042660e+1
      vertex 1.230000e-1 -3.012631e-17 1.032000e+1
    endloop
  endfacet
  facet normal 0.000000e+0 0.000000e+0 1.000000e+0
    outer loop
      vertex 0.000000e+0 0.000000e+0 1.042660e+1
      vertex 6.150000e-2 -1.065211e-1 1.042660e+1
      vertex 1.230000e-1 -3.012631e-17 1.042660e+1
    endloop
  endfacet
endsolid ms24694-c3
