solid ms35206-1016
  facet normal -9.807853e-1 -1.950903e-1 0.000000e+0
    outer loop
      vertex 9.500000e-2 0.000000e+0 0.000000e+0
      vertex 9.500000e-2 0.000000e+0 1.270000e+1
      vertex 8.776856e-2 3.635493e-2 0.000000e+0
    endloop
  endfacet
  facet normal -9.807853e-1 -1.950903e-1 0.000000e+0
    outer loop
      vertex 9.500000e-2 0.000000e+0 1.270000e+1
      vertex 8.776856e-2 3.635493e-2 1.270000e+1
      vertex 8.776856e-2 3.635493e-2 0.000000e+0
    endloop
  endfacet
  facet normal 0.000000e+0 0.000000e+0 -1.000000e+0
    outer loop
      vertex 0.000000e+0 0.000000e+0 0.000000e+0
      vertex 8.776856e-2 3.635493e-2 0.000000e+0
      vertex 9.500000e-2 0.000000e+0 0.000000e+0
    endloop
  endfacet
  facet normal -8.314696e-1 -5.555702e-1 0.000000e+0
    outer loop
      vertex 8.776856e-2 3.635493e-2 0.000000e+0
      vertex 8.776856e-2 3.635493e-2 1.270000e+1
      vertex 6.717514e-2 6.717514e-2 0.000000e+0
    endloop
  endfacet
  facet normal -8.314696e-1 -5.555702e-1 0.000000e+0
    outer loop
      vertex 8.776856e-2 3.635493e-2 1.270000e+1
      vertex 6.717514e-2 6.717514e-2 1.270000e+1
      vertex 6.717514e-2 6.717514e-2 0.000000e+0
    endloop
  endfacet
  facet normal 0.000000e+0 0.000000e+0 -1.000000e+0
    outer loop
      vertex 0.000000e+0 0.000000e+0 0.000000e+0
      vertex 6.717514e-2 6.717514e-2 0.000000e+0
      vertex 8.776856e-2 3.635493e-2 0.000000e+0
    endloop
  endfacet
  facet normal -5.555702e-1 -8.314696e-1 0.000000e+0
    outer loop
      vertex 6.717514e-2 6.717514e-2 0.000000e+0
      vertex 6.717514e-2 6.717514e-2 1.270000e+1
      vertex 3.635493e-2 8.776856e-2 0.000000e+0
    endloop
  endfacet
  facet normal -5.555702e-1 -8.314696e-1 0.000000e+0
    outer loop
      vertex 6.717514e-2 6.717514e-2 1.270000e+1
      vertex 3.635493e-2 8.776856e-2 1.270000e+1
      vertex 3.635493e-2 8.776856e-2 0.000000e+0
    endloop
  endfacet
  facet normal 0.000000e+0 0.000000e+0 -1.000000e+0
    outer loop
      vertex 0.000000e+0 0.000000e+0 0.000000e+0
      vertex 3.635493e-2 8.776856e-2 0.000000e+0
      vertex 6.717514e-2 6.717514e-2 0.000000e+0
    endloop
  endfacet
  facet normal -1.950903e-1 -9.807853e-1 0.000000e+0
    outer loop
      vertex 3.635493e-2 8.776856e-2 0.000000e+0
      vertex 3.635493e-2 8.776856e-2 1.270000e+1
      vertex 5.817072e-18 9.500000e-2 0.000000e+0
    endloop
  endfacet
  facet normal -1.950903e-1 -9.807853e-1 0.000000e+0
    outer loop
      vertex 3.635493e-2 8.776856e-2 1.270000e+1
      vertex 5.817072e-18 9.500000e-2 1.270000e+1
      vertex 5.817072e-18 9.500000e-2 0.000000e+0
    endloop
  endfacet
  facet normal 0.000000e+0 0.000000e+0 -1.000000e+0
    outer loop
      vertex 0.000000e+0 0.000000e+0 0.000000e+0
      vertex 5.817072e-18 9.500000e-2 0.000000e+0
      vertex 3.635493e-2 8.776856e-2 0.000000e+0
    endloop
  endfacet
  facet normal 1.950903e-1 -9.807853e-1 0.000000e+0
    outer loop
      vertex 5.817072e-18 9.500000e-2 0.000000e+0
      vertex 5.817072e-18 9.500000e-2 1.270000e+1
      vertex -3.635493e-2 8.776856e-2 0.000000e+0
    endloop
  endfacet
  facet normal 1.950903e-1 -9.807853e-1 0.000000e+0
    outer loop
      vertex 5.817072e-18 9.500000e-2 1.270000e+1
      vertex -3.635493e-2 8.776856e-2 1.270000e+1
      vertex -3.635493e-2 8.776856e-2 0.000000e+0
    endloop
  endfacet
  facet normal 0.000000e+0 0.000000e+0 -1.000000e+0
    outer loop
      vertex 0.000000e+0 0.000000e+0 0.000000e+0
      vertex -3.635493e-2 8.776856e-2 0.000000e+0
      vertex 5.817072e-18 9.500000e-2 0.000000e+0
    endloop
  endfacet
  facet normal 5.555702e-1 -8.314696e-1 0.000000e+0
    outer loop
      vertex -3.635493e-2 8.776856e-2 0.000000e+0
      vertex -3.635493e-2 8.776856e-2 1.270000e+1
      vertex -6.717514e-2 6.717514e-2 0.000000e+0
    endloop
  endfacet
  facet normal 5.555702e-1 -8.314696e-1 0.000000e+0
    outer loop
      vertex -3.635493e-2 8.776856e-2 1.270000e+1
      vertex -6.717514e-2 6.717514e-2 1.270000e+1
      vertex -6.717514e-2 6.717514e-2 0.000000e+0
    endloop
  endfacet
  facet normal 0.000000e+0 0.000000e+0 -1.000000e+0
    outer loop
      vertex 0.000000e+0 0.000000e+0 0.000000e+0
      vertex -6.717514e-2 6.717514e-2 0.000000e+0
      vertex -3.635493e-2 8.776856e-2 0.000000e+0
    endloop
  endfacet
  facet normal 8.314696e-1 -5.555702e-1 0.000000e+0
    outer loop
      vertex -6.717514e-2 6.717514e-2 0.000000e+0
      vertex -6.717514e-2 6.717514e-2 1.270000e+1
      vertex -8.776856e-2 3.635493e-2 0.000000e+0
    endloop
  endfacet
  facet normal 8.314696e-1 -5.555702e-1 0.000000e+0
    outer loop
      vertex -6.717514e-2 6.717514e-2 1.270000e+1
      vertex -8.776856e-2 3.635493e-2 1.270000e+1
      vertex -8.776856e-2 3.635493e-2 0.000000e+0
    endloop
  endfacet
  facet normal 0.000000e+0 0.000000e+0 -1.000000e+0
    outer loop
      vertex 0.000000e+0 0.000000e+0 0.000000e+0
      vertex -8.776856e-2 3.635493e-2 0.000000e+0
      vertex -6.717514e-2 6.717514e-2 0.000000e+0
    endloop
  endfacet
  facet normal 9.807853e-1 -1.950903e-1 0.000000e+0
    outer loop
      vertex -8.776856e-2 3.635493e-2 0.000000e+0
      vertex -8.776856e-2 3.635493e-2 1.270000e+1
      vertex -9.500000e-2 1.163414e-17 0.000000e+0
    endloop
  endfacet
  facet normal 9.807853e-1 -1.950903e-1 0.000000e+0
    outer loop
      vertex -8.776856e-2 3.635493e-2 1.270000e+1
      vertex -9.500000e-2 1.163414e-17 1.270000e+1
      vertex -9.500000e-2 1.163414e-17 0.000000e+0
    endloop
  endfacet
  facet normal 0.000000e+0 0.000000e+0 -1.000000e+0
    outer loop
      vertex 0.000000e+0 0.000000e+0 0.000000e+0
      vertex -9.500000e-2 1.163414e-17 0.000000e+0
      vertex -8.776856e-2 3.635493e-2 0.000000e+0
    endloop
  endfacet
  facet normal 9.807853e-1 1.950903e-1 0.000000e+0
    outer loop
      vertex -9.500000e-2 1.163414e-17 0.000000e+0
      vertex -9.500000e-2 1.163414e-17 1.270000e+1
      vertex -8.776856e-2 -3.635493e-2 0.000000e+0
    endloop
  endfacet
  facet normal 9.807853e-1 1.950903e-1 0.000000e+0
    outer loop
      vertex -9.500000e-2 1.163414e-17 1.270000e+1
      vertex -8.776856e-2 -3.635493e-2 1.270000e+1
      vertex -8.776856e-2 -3.635493e-2 0.000000e+0
    endloop
  endfacet
  facet normal 0.000000e+0 0.000000e+0 -1.000000e+0
    outer loop
      vertex 0.000000e+0 0.000000e+0 0.000000e+0
      vertex -8.776856e-2 -3.635493e-2 0.000000e+0
      vertex -9.500000e-2 1.163414e-17 0.000000e+0
    endloop
  endfacet
  facet normal 8.314696e-1 5.555702e-1 0.000000e+0
    outer loop
      vertex -8.776856e-2 -3.635493e-2 0.000000e+0
      vertex -8.776856e-2 -3.635493e-2 1.270000e+1
      vertex -6.717514e-2 -6.717514e-2 0.000000e+0
    endloop
  endfacet
  facet normal 8.314696e-1 5.555702e-1 0.000000e+0
    outer loop
      vertex -8.776856e-2 -3.635493e-2 1.270000e+1
      vertex -6.717514e-2 -6.717514e-2 1.270000e+1
      vertex -6.717514e-2 -6.717514e-2 0.000000e+0
    endloop
  endfacet
  facet normal 0.000000e+0 0.000000e+0 -1.000000e+0
    outer loop
      vertex 0.000000e+0 0.000000e+0 0.000000e+0
      vertex -6.717514e-2 -6.717514e-2 0.000000e+0
      vertex -8.776856e-2 -3.635493e-2 0.000000e+0
    endloop
  endfacet
  facet normal 5.555702e-1 8.314696e-1 0.000000e+0
    outer loop
      vertex -6.717514e-2 -6.717514e-2 0.000000e+0
      vertex -6.717514e-2 -6.717514e-2 1.270000e+1
      vertex -3.635493e-2 -8.776856e-2 0.000000e+0
    endloop
  endfacet
  facet normal 5.555702e-1 8.314696e-1 0.000000e+0
    outer loop
      vertex -6.717514e-2 -6.717514e-2 1.270000e+1
      vertex -3.635493e-2 -8.776856e-2 1.270000e+1
      vertex -3.635493e-2 -8.776856e-2 0.000000e+0
    endloop
  endfacet
  facet normal 0.000000e+0 0.000000e+0 -1.000000e+0
    outer loop
      vertex 0.000000e+0 0.000000e+0 0.000000e+0
      vertex -3.635493e-2 -8.776856e-2 0.000000e+0
      vertex -6.717514e-2 -6.717514e-2 0.000000e+0
    endloop
  endfacet
  facet normal 1.950903e-1 9.807853e-1 0.000000e+0
    outer loop
      vertex -3.635493e-2 -8.776856e-2 0.000000e+0
      vertex -3.635493e-2 -8.776856e-2 1.270000e+1
      vertex -1.745122e-17 -9.500000e-2 0.000000e+0
    endloop
  endfacet
  facet normal 1.950903e-1 9.807853e-1 0.000000e+0
    outer loop
      vertex -3.635493e-2 -8.776856e-2 1.270000e+1
      vertex -1.745122e-17 -9.500000e-2 1.270000e+1
      vertex -1.745122e-17 -9.500000e-2 0.000000e+0
    endloop
  endfacet
  facet normal 0.000000e+0 0.000000e+0 -1.000000e+0
    outer loop
      vertex 0.000000e+0 0.000000e+0 0.000000e+0
      vertex -1.745122e-17 -9.500000e-2 0.000000e+0
      vertex -3.635493e-2 -8.776856e-2 0.000000e+0
    endloop
  endfacet
  facet normal -1.950903e-1 9.807853e-1 0.000000e+0
    outer loop
      vertex -1.745122e-17 -9.500000e-2 0.000000e+0
      vertex -1.745122e-17 -9.500000e-2 1.270000e+1
      vertex 3.635493e-2 -8.776856e-2 0.000000e+0
    endloop
  endfacet
  facet normal -1.950903e-1 9.807853e-1 0.000000e+0
    outer loop
      vertex -1.745122e-17 -9.500000e-2 1.270000e+1
      vertex 3.635493e-2 -8.776856e-2 1.270000e+1
      vertex 3.635493e-2 -8.776856e-2 0.000000e+0
    endloop
  endfacet
  facet normal 0.000000e+0 0.000000e+0 -1.000000e+0
    outer loop
      vertex 0.000000e+0 0.000000e+0 0.000000e+0
      vertex 3.635493e-2 -8.776856e-2 0.000000e+0
      vertex -1.745122e-17 -9.500000e-2 0.000000e+0
    endloop
  endfacet
  facet normal -5.555702e-1 8.314696e-1 0.000000e+0
    outer loop
      vertex 3.635493e-2 -8.776856e-2 0.000000e+0
      vertex 3.635493e-2 -8.776856e-2 1.270000e+1
      vertex 6.717514e-2 -6.717514e-2 0.000000e+0
    endloop
  endfacet
  facet normal -5.555702e-1 8.314696e-1 0.000000e+0
    outer loop
      vertex 3.635493e-2 -8.776856e-2 1.270000e+1
      vertex 6.717514e-2 -6.717514e-2 1.270000e+1
      vertex 6.717514e-2 -6.717514e-2 0.000000e+0
    endloop
  endfacet
  facet normal 0.000000e+0 0.000000e+0 -1.000000e+0
    outer loop
      vertex 0.000000e+0 0.000000e+0 0.000000e+0
      vertex 6.717514e-2 -6.717514e-2 0.000000e+0
      vertex 3.635493e-2 -8.776856e-2 0.000000e+0
    endloop
  endfacet
  facet normal -8.314696e-1 5.555702e-1 0.000000e+0
    outer loop
      vertex 6.717514e-2 -6.717514e-2 0.000000e+0
      vertex 6.717514e-2 -6.717514e-2 1.270000e+1
      vertex 8.776856e-2 -3.635493e-2 0.000000e+0
    endloop
  endfacet
  facet normal -8.314696e-1 5.555702e-1 0.000000e+0
    outer loop
      vertex 6.717514e-2 -6.717514e-2 1.270000e+1
      vertex 8.776856e-2 -3.635493e-2 1.270000e+1
      vertex 8.776856e-2 -3.635493e-2 0.000000e+0
    endloop
  endfacet
  facet normal 0.000000e+0 0.000000e+0 -1.000000e+0
    outer loop
      vertex 0.000000e+0 0.000000e+0 0.000000e+0
      vertex 8.776856e-2 -3.635493e-2 0.000000e+0
      vertex 6.717514e-2 -6.717514e-2 0.000000e+0
    endloop
  endfacet
  facet normal -9.807853e-1 1.950903e-1 0.000000e+0
    outer loop
      vertex 8.776856e-2 -3.635493e-2 0.000000e+0
      vertex 8.776856e-2 -3.635493e-2 1.270000e+1
      vertex 9.500000e-2 -2.326829e-17 0.000000e+0
    endloop
  endfacet
  facet normal -9.807853e-1 1.950903e-1 0.000000e+0
    outer loop
      vertex 8.776856e-2 -3.635493e-2 1.270000e+1
      vertex 9.500000e-2 -2.326829e-17 1.270000e+1
      vertex 9.500000e-2 -2.326829e-17 0.000000e+0
    endloop
  endfacet
  facet normal 0.000000e+0 0.000000e+0 -1.000000e+0
    outer loop
      vertex 0.000000e+0 0.000000e+0 0.000000e+0
      vertex 9.500000e-2 -2.326829e-17 0.000000e+0
      vertex 8.776856e-2 -3.635493e-2 0.000000e+0
    endloop
  endfacet
  facet normal -8.660254e-1 -5.000000e-1 0.000000e+0
    outer loop
      vertex 1.425000e-1 0.000000e+0 1.270000e+1
      vertex 1.425000e-1 0.000000e+0 1.282350e+1
      vertex 7.125000e-2 1.234086e-1 1.270000e+1
    endloop
  endfacet
  facet normal -8.660254e-1 -5.000000e-1 0.000000e+0
    outer loop
      vertex 1.425000e-1 0.000000e+0 1.282350e+1
      vertex 7.125000e-2 1.234086e-1 1.282350e+1
      vertex 7.125000e-2 1.234086e-1 1.270000e+1
    endloop
  endfacet
  facet normal 0.000000e+0 0.000000e+0 1.000000e+0
    outer loop
      vertex 0.000000e+0 0.000000e+0 1.282350e+1
      vertex 1.425000e-1 0.000000e+0 1.282350e+1
      vertex 7.125000e-2 1.234086e-1 1.282350e+1
    endloop
  endfacet
  facet normal -9.738798e-17 -1.000000e+0 0.000000e+0
    outer loop
      vertex 7.125000e-2 1.234086e-1 1.270000e+1
      vertex 7.125000e-2 1.234086e-1 1.282350e+1
      vertex -7.125000e-2 1.234086e-1 1.270000e+1
    endloop
  endfacet
  facet normal -9.738798e-17 -1.000000e+0 0.000000e+0
    outer loop
      vertex 7.125000e-2 1.234086e-1 1.282350e+1
      vertex -7.125000e-2 1.234086e-1 1.282350e+1
      vertex -7.125000e-2 1.234086e-1 1.270000e+1
    endloop
  endfacet
  facet normal 0.000000e+0 0.000000e+0 1.000000e+0
    outer loop
      vertex 0.000000e+0 0.000000e+0 1.282350e+1
      vertex 7.125000e-2 1.234086e-1 1.282350e+1
      vertex -7.125000e-2 1.234086e-1 1.282350e+1
    endloop
  endfacet
  facet normal 8.660254e-1 -5.000000e-1 0.000000e+0
    outer loop
      vertex -7.125000e-2 1.234086e-1 1.270000e+1
      vertex -7.125000e-2 1.234086e-1 1.282350e+1
      vertex -1.425000e-1 1.745122e-17 1.270000e+1
    endloop
  endfacet
  facet normal 8.660254e-1 -5.000000e-1 0.000000e+0
    outer loop
      vertex -7.125000e-2 1.234086e-1 1.282350e+1
      vertex -1.425000e-1 1.745122e-17 1.282350e+1
      vertex -1.425000e-1 1.745122e-17 1.270000e+1
    endloop
  endfacet
  facet normal 0.000000e+0 0.000000e+0 1.000000e+0
    outer loop
      vertex 0.000000e+0 0.000000e+0 1.282350e+1
      vertex -7.125000e-2 1.234086e-1 1.282350e+1
      vertex -1.425000e-1 1.745122e-17 1.282350e+1
    endloop
  endfacet
  facet normal 8.660254e-1 5.000000e-1 0.000000e+0
    outer loop
      vertex -1.425000e-1 1.745122e-17 1.270000e+1
      vertex -1.425000e-1 1.745122e-17 1.282350e+1
      vertex -7.125000e-2 -1.234086e-1 1.270000e+1
    endloop
  endfacet
  facet normal 8.660254e-1 5.000000e-1 0.000000e+0
    outer loop
      vertex -1.425000e-1 1.745122e-17 1.282350e+1
      vertex -7.125000e-2 -1.234086e-1 1.282350e+1
      vertex -7.125000e-2 -1.234086e-1 1.270000e+1
    endloop
  endfacet
  facet normal 0.000000e+0 0.000000e+0 1.000000e+0
    outer loop
      vertex 0.000000e+0 0.000000e+0 1.282350e+1
      vertex -1.425000e-1 1.745122e-17 1.282350e+1
      vertex -7.125000e-2 -1.234086e-1 1.282350e+1
    endloop
  endfacet
  facet normal 9.738798e-17 1.000000e+0 0.000000e+0
    outer loop
      vertex -7.125000e-2 -1.234086e-1 1.270000e+1
      vertex -7.125000e-2 -1.234086e-1 1.282350e+1
      vertex 7.125000e-2 -1.234086e-1 1.270000e+1
    endloop
  endfacet
  facet normal 9.738798e-17 1.000000e+0 0.000000e+0
    outer loop
      vertex -7.125000e-2 -1.234086e-1 1.282350e+1
      vertex 7.125000e-2 -1.234086e-1 1.282350e+1
      vertex 7.125000e-2 -1.234086e-1 1.270000e+1
    endloop
  endfacet
  facet normal 0.000000e+0 0.000000e+0 1.000000e+0
    outer loop
      vertex 0.000000e+0 0.000000e+0 1.282350e+1
      vertex -7.125000e-2 -1.234086e-1 1.282350e+1
      vertex 7.125000e-2 -1.234086e-1 1.282350e+1
    endloop
  endfacet
  facet normal -8.660254e-1 5.000000e-1 0.000000e+0
    outer loop
      vertex 7.125000e-2 -1.234086e-1 1.270000e+1
      vertex 7.125000e-2 -1.234086e-1 1.282350e+1
      vertex 1.425000e-1 -3.490243e-17 1.270000e+1
    endloop
  endfacet
  facet normal -8.660254e-1 5.000000e-1 0.000000e+0
    outer loop
      vertex 7.125000e-2 -1.234086e-1 1.282350e+1
      vertex 1.425000e-1 -3.490243e-17 1.282350e+1
      vertex 1.425000e-1 -3.490243e-17 1.270000e+1
    endloop
  endfacet
  facet normal 0.000000e+0 0.000000e+0 1.000000e+0
    outer loop
      vertex 0.000000e+0 0.000000e+0 1.282350e+1
      vertex 7.125000e-2 -1.234086e-1 1.282350e+1
      vertex 1.425000e-1 -3.490243e-17 1.282350e+1
    endloop
  endfacet
endsolid ms35206-1016
