solid ms51957-10
  facet normal -9.807853e-1 -1.950903e-1 0.000000e+0
    outer loop
      vertex 4.300000e-2 0.000000e+0 0.000000e+0
      vertex 4.300000e-2 0.000000e+0 6.350000e+0
      vertex 3.972682e-2 1.645539e-2 0.000000e+0
    endloop
  endfacet
  facet normal -9.807853e-1 -1.950903e-1 0.000000e+0
    outer loop
      vertex 4.300000e-2 0.000000e+0 6.350000e+0
      vertex 3.972682e-2 1.645539e-2 6.350000e+0
      vertex 3.972682e-2 1.645539e-2 0.000000e+0
    endloop
  endfacet
  facet normal 0.000000e+0 0.000000e+0 -1.000000e+0
    outer loop
      vertex 0.000000e+0 0.000000e+0 0.000000e+0
      vertex 3.972682e-2 1.645539e-2 0.000000e+0
      vertex 4.300000e-2 0.000000e+0 0.000000e+0
    endloop
  endfacet
  facet normal -8.314696e-1 -5.555702e-1 0.000000e+0
    outer loop
      vertex 3.972682e-2 1.645539e-2 0.000000e+0
      vertex 3.972682e-2 1.645539e-2 6.350000e+0
      vertex 3.040559e-2 3.040559e-2 0.000000e+0
    endloop
  endfacet
  facet normal -8.314696e-1 -5.555702e-1 0.000000e+0
    outer loop
      vertex 3.972682e-2 1.645539e-2 6.350000e+0
      vertex 3.040559e-2 3.040559e-2 6.350000e+0
      vertex 3.040559e-2 3.040559e-2 0.000000e+0
    endloop
  endfacet
  facet normal 0.000000e+0 0.000000e+0 -1.000000e+0
    outer loop
      vertex 0.000000e+0 0.000000e+0 0.000000e+0
      vertex 3.040559e-2 3.040559e-2 0.000000e+0
      vertex 3.972682e-2 1.645539e-2 0.000000e+0
    endloop
  endfacet
  facet normal -5.555702e-1 -8.314696e-1 0.000000e+0
    outer loop
      vertex 3.040559e-2 3.040559e-2 0.000000e+0
      vertex 3.040559e-2 3.040559e-2 6.350000e+0
      vertex 1.645539e-2 3.972682e-2 0.000000e+0
    endloop
  endfacet
  facet normal -5.555702e-1 -8.314696e-1 0.000000e+0
    outer loop
      vertex 3.040559e-2 3.040559e-2 6.350000e+0
      vertex 1.645539e-2 3.972682e-2 6.350000e+0
      vertex 1.645539e-2 3.972682e-2 0.000000e+0
    endloop
  endfacet
  facet normal 0.000000e+0 0.000000e+0 -1.000000e+0
    outer loop
      vertex 0.000000e+0 0.000000e+0 0.000000e+0
      vertex 1.645539e-2 3.972682e-2 0.000000e+0
      vertex 3.040559e-2 3.040559e-2 0.000000e+0
    endloop
  endfacet
  facet normal -1.950903e-1 -9.807853e-1 0.000000e+0
    outer loop
      vertex 1.645539e-2 3.972682e-2 0.000000e+0
      vertex 1.645539e-2 3.972682e-2 6.350000e+0
      vertex 2.632991e-18 4.300000e-2 0.000000e+0
    endloop
  endfacet
  facet normal -1.950903e-1 -9.807853e-1 0.000000e+0
    outer loop
      vertex 1.645539e-2 3.972682e-2 6.350000e+0
      vertex 2.632991e-18 4.300000e-2 6.350000e+0
      vertex 2.632991e-18 4.300000e-2 0.000000e+0
    endloop
  endfacet
  facet normal 0.000000e+0 0.000000e+0 -1.000000e+0
    outer loop
      vertex 0.000000e+0 0.000000e+0 0.000000e+0
      vertex 2.632991e-18 4.300000e-2 0.000000e+0
      vertex 1.645539e-2 3.972682e-2 0.000000e+0
    endloop
  endfacet
  facet normal 1.950903e-1 -9.807853e-1 0.000000e+0
    outer loop
      vertex 2.632991e-18 4.300000e-2 0.000000e+0
      vertex 2.632991e-18 4.300000e-2 6.350000e+0
      vertex -1.645539e-2 3.972682e-2 0.000000e+0
    endloop
  endfacet
  facet normal 1.950903e-1 -9.807853e-1 0.000000e+0
    outer loop
      vertex 2.632991e-18 4.300000e-2 6.350000e+0
      vertex -1.645539e-2 3.972682e-2 6.350000e+0
      vertex -1.645539e-2 3.972682e-2 0.000000e+0
    endloop
  endfacet
  facet normal 0.000000e+0 0.000000e+0 -1.000000e+0
    outer loop
      vertex 0.000000e+0 0.000000e+0 0.000000e+0
      vertex -1.645539e-2 3.972682e-2 0.000000e+0
      vertex 2.632991e-18 4.300000e-2 0.000000e+0
    endloop
  endfacet
  facet normal 5.555702e-1 -8.314696e-1 0.000000e+0
    outer loop
      vertex -1.645539e-2 3.972682e-2 0.000000e+0
      vertex -1.645539e-2 3.972682e-2 6.350000e+0
      vertex -3.040559e-2 3.040559e-2 0.000000e+0
    endloop
  endfacet
  facet normal 5.555702e-1 -8.314696e-1 0.000000e+0
    outer loop
      vertex -1.645539e-2 3.972682e-2 6.350000e+0
      vertex -3.040559e-2 3.040559e-2 6.350000e+0
      vertex -3.040559e-2 3.040559e-2 0.000000e+0
    endloop
  endfacet
  facet normal 0.000000e+0 0.000000e+0 -1.000000e+0
    outer loop
      vertex 0.000000e+0 0.000000e+0 0.000000e+0
      vertex -3.040559e-2 3.040559e-2 0.000000e+0
      vertex -1.645539e-2 3.972682e-2 0.000000e+0
    endloop
  endfacet
  facet normal 8.314696e-1 -5.555702e-1 0.000000e+0
    outer loop
      vertex -3.040559e-2 3.040559e-2 0.000000e+0
      vertex -3.040559e-2 3.040559e-2 6.350000e+0
      vertex -3.972682e-2 1.645539e-2 0.000000e+0
    endloop
  endfacet
  facet normal 8.314696e-1 -5.555702e-1 0.000000e+0
    outer loop
      vertex -3.040559e-2 3.040559e-2 6.350000e+0
      vertex -3.972682e-2 1.645539e-2 6.350000e+0
      vertex -3.972682e-2 1.645539e-2 0.000000e+0
    endloop
  endfacet
  facet normal 0.000000e+0 0.000000e+0 -1.000000e+0
    outer loop
      vertex 0.000000e+0 0.000000e+0 0.000000e+0
      vertex -3.972682e-2 1.645539e-2 0.000000e+0
      vertex -3.040559e-2 3.040559e-2 0.000000e+0
    endloop
  endfacet
  facet normal 9.807853e-1 -1.950903e-1 0.000000e+0
    outer loop
      vertex -3.972682e-2 1.645539e-2 0.000000e+0
      vertex -3.972682e-2 1.645539e-2 6.350000e+0
      vertex -4.300000e-2 5.265981e-18 0.000000e+0
    endloop
  endfacet
  facet normal 9.807853e-1 -1.950903e-1 0.000000e+0
    outer loop
      vertex -3.972682e-2 1.645539e-2 6.350000e+0
      vertex -4.300000e-2 5.265981e-18 6.350000e+0
      vertex -4.300000e-2 5.265981e-18 0.000000e+0
    endloop
  endfacet
  facet normal 0.000000e+0 0.000000e+0 -1.000000e+0
    outer loop
      vertex 0.000000e+0 0.000000e+0 0.000000e+0
      vertex -4.300000e-2 5.265981e-18 0.000000e+0
      vertex -3.972682e-2 1.645539e-2 0.000000e+0
    endloop
  endfacet
  facet normal 9.807853e-1 1.950903e-1 0.000000e+0
    outer loop
      vertex -4.300000e-2 5.265981e-18 0.000000e+0
      vertex -4.300000e-2 5.265981e-18 6.350000e+0
      vertex -3.972682e-2 -1.645539e-2 0.000000e+0
    endloop
  endfacet
  facet normal 9.807853e-1 1.950903e-1 0.000000e+0
    outer loop
      vertex -4.300000e-2 5.265981e-18 6.350000e+0
      vertex -3.972682e-2 -1.645539e-2 6.350000e+0
      vertex -3.972682e-2 -1.645539e-2 0.000000e+0
    endloop
  endfacet
  facet normal 0.000000e+0 0.000000e+0 -1.000000e+0
    outer loop
      vertex 0.000000e+0 0.000000e+0 0.000000e+0
      vertex -3.972682e-2 -1.645539e-2 0.000000e+0
      vertex -4.300000e-2 5.265981e-18 0.000000e+0
    endloop
  endfacet
  facet normal 8.314696e-1 5.555702e-1 0.000000e+0
    outer loop
      vertex -3.972682e-2 -1.645539e-2 0.000000e+0
      vertex -3.972682e-2 -1.645539e-2 6.350000e+0
      vertex -3.040559e-2 -3.040559e-2 0.000000e+0
    endloop
  endfacet
  facet normal 8.314696e-1 5.555702e-1 0.000000e+0
    outer loop
      vertex -3.972682e-2 -1.645539e-2 6.350000e+0
      vertex -3.040559e-2 -3.040559e-2 6.350000e+0
      vertex -3.040559e-2 -3.040559e-2 0.000000e+0
    endloop
  endfacet
  facet normal 0.000000e+0 0.000000e+0 -1.000000e+0
    outer loop
      vertex 0.000000e+0 0.000000e+0 0.000000e+0
      vertex -3.040559e-2 -3.040559e-2 0.000000e+0
      vertex -3.972682e-2 -1.645539e-2 0.000000e+0
    endloop
  endfacet
  facet normal 5.555702e-1 8.314696e-1 0.000000e+0
    outer loop
      vertex -3.040559e-2 -3.040559e-2 0.000000e+0
      vertex -3.040559e-2 -3.040559e-2 6.350000e+0
      vertex -1.645539e-2 -3.972682e-2 0.000000e+0
    endloop
  endfacet
  facet normal 5.555702e-1 8.314696e-1 0.000000e+0
    outer loop
      vertex -3.040559e-2 -3.040559e-2 6.350000e+0
      vertex -1.645539e-2 -3.972682e-2 6.350000e+0
      vertex -1.645539e-2 -3.972682e-2 0.000000e+0
    endloop
  endfacet
  facet normal 0.000000e+0 0.000000e+0 -1.000000e+0
    outer loop
      vertex 0.000000e+0 0.000000e+0 0.000000e+0
      vertex -1.645539e-2 -3.972682e-2 0.000000e+0
      vertex -3.040559e-2 -3.040559e-2 0.000000e+0
    endloop
  endfacet
  facet normal 1.950903e-1 9.807853e-1 0.000000e+0
    outer loop
      vertex -1.645539e-2 -3.972682e-2 0.000000e+0
      vertex -1.645539e-2 -3.972682e-2 6.350000e+0
      vertex -7.898972e-18 -4.300000e-2 0.000000e+0
    endloop
  endfacet
  facet normal 1.950903e-1 9.807853e-1 0.000000e+0
    outer loop
      vertex -1.645539e-2 -3.972682e-2 6.350000e+0
      vertex -7.898972e-18 -4.300000e-2 6.350000e+0
      vertex -7.898972e-18 -4.300000e-2 0.000000e+0
    endloop
  endfacet
  facet normal 0.000000e+0 0.000000e+0 -1.000000e+0
    outer loop
      vertex 0.000000e+0 0.000000e+0 0.000000e+0
      vertex -7.898972e-18 -4.300000e-2 0.000000e+0
      vertex -1.645539e-2 -3.972682e-2 0.000000e+0
    endloop
  endfacet
  facet normal -1.950903e-1 9.807853e-1 0.000000e+0
    outer loop
      vertex -7.898972e-18 -4.300000e-2 0.000000e+0
      vertex -7.898972e-18 -4.300000e-2 6.350000e+0
      vertex 1.645539e-2 -3.972682e-2 0.000000e+0
    endloop
  endfacet
  facet normal -1.950903e-1 9.807853e-1 0.000000e+0
    outer loop
      vertex -7.898972e-18 -4.300000e-2 6.350000e+0
      vertex 1.645539e-2 -3.972682e-2 6.350000e+0
      vertex 1.645539e-2 -3.972682e-2 0.000000e+0
    endloop
  endfacet
  facet normal 0.000000e+0 0.000000e+0 -1.000000e+0
    outer loop
      vertex 0.000000e+0 0.000000e+0 0.000000e+0
      vertex 1.645539e-2 -3.972682e-2 0.000000e+0
      vertex -7.898972e-18 -4.300000e-2 0.000000e+0
    endloop
  endfacet
  facet normal -5.555702e-1 8.314696e-1 0.000000e+0
    outer loop
      vertex 1.645539e-2 -3.972682e-2 0.000000e+0
      vertex 1.645539e-2 -3.972682e-2 6.350000e+0
      vertex 3.040559e-2 -3.040559e-2 0.000000e+0
    endloop
  endfacet
  facet normal -5.555702e-1 8.314696e-1 0.000000e+0
    outer loop
      vertex 1.645539e-2 -3.972682e-2 6.350000e+0
      vertex 3.040559e-2 -3.040559e-2 6.350000e+0
      vertex 3.040559e-2 -3.040559e-2 0.000000e+0
    endloop
  endfacet
  facet normal 0.000000e+0 0.000000e+0 -1.000000e+0
    outer loop
      vertex 0.000000e+0 0.000000e+0 0.000000e+0
      vertex 3.040559e-2 -3.040559e-2 0.000000e+0
      vertex 1.645539e-2 -3.972682e-2 0.000000e+0
    endloop
  endfacet
  facet normal -8.314696e-1 5.555702e-1 0.000000e+0
    outer loop
      vertex 3.040559e-2 -3.040559e-2 0.000000e+0
      vertex 3.040559e-2 -3.040559e-2 6.350000e+0
      vertex 3.972682e-2 -1.645539e-2 0.000000e+0
    endloop
  endfacet
  facet normal -8.314696e-1 5.555702e-1 0.000000e+0
    outer loop
      vertex 3.040559e-2 -3.040559e-2 6.350000e+0
      vertex 3.972682e-2 -1.645539e-2 6.350000e+0
      vertex 3.972682e-2 -1.645539e-2 0.000000e+0
    endloop
  endfacet
  facet normal 0.000000e+0 0.000000e+0 -1.000000e+0
    outer loop
      vertex 0.000000e+0 0.000000e+0 0.000000e+0
      vertex 3.972682e-2 -1.645539e-2 0.000000e+0
      vertex 3.040559e-2 -3.040559e-2 0.000000e+0
    endloop
  endfacet
  facet normal -9.807853e-1 1.950903e-1 0.000000e+0
    outer loop
      vertex 3.972682e-2 -1.645539e-2 0.000000e+0
      vertex 3.972682e-2 -1.645539e-2 6.350000e+0
      vertex 4.300000e-2 -1.053196e-17 0.000000e+0
    endloop
  endfacet
  facet normal -9.807853e-1 1.950903e-1 0.000000e+0
    outer loop
      vertex 3.972682e-2 -1.645539e-2 6.350000e+0
      vertex 4.300000e-2 -1.053196e-17 6.350000e+0
      vertex 4.300000e-2 -1.053196e-17 0.000000e+0
    endloop
  endfacet
  facet normal 0.000000e+0 0.000000e+0 -1.000000e+0
    outer loop
      vertex 0.000000e+0 0.000000e+0 0.000000e+0
      vertex 4.300000e-2 -1.053196e-17 0.000000e+0
      vertex 3.972682e-2 -1.645539e-2 0.000000e+0
    endloop
  endfacet
  facet normal -8.660254e-1 -5.000000e-1 0.000000e+0
    outer loop
      vertex 6.450000e-2 0.000000e+0 6.350000e+0
      vertex 6.450000e-2 0.000000e+0 6.405900e+0
      vertex 3.225000e-2 5.585864e-2 6.350000e+0
    endloop
  endfacet
  facet normal -8.660254e-1 -5.000000e-1 0.000000e+0
    outer loop
      vertex 6.450000e-2 0.000000e+0 6.405900e+0
      vertex 3.225000e-2 5.585864e-2 6.405900e+0
      vertex 3.225000e-2 5.585864e-2 6.350000e+0
    endloop
  endfacet
  facet normal 0.000000e+0 0.000000e+0 1.000000e+0
    outer loop
      vertex 0.000000e+0 0.000000e+0 6.405900e+0
      vertex 6.450000e-2 0.000000e+0 6.405900e+0
      vertex 3.225000e-2 5.585864e-2 6.405900e+0
    endloop
  endfacet
  facet normal -1.075798e-16 -1.000000e+0 0.000000e+0
    outer loop
      vertex 3.225000e-2 5.585864e-2 6.350000e+0
      vertex 3.225000e-2 5.585864e-2 6.405900e+0
      vertex -3.225000e-2 5.585864e-2 6.350000e+0
    endloop
  endfacet
  facet normal -1.075798e-16 -1.000000e+0 0.000000e+0
    outer loop
      vertex 3.225000e-2 5.585864e-2 6.405900e+0
      vertex -3.225000e-2 5.585864e-2 6.405900e+0
      vertex -3.225000e-2 5.585864e-2 6.350000e+0
    endloop
  endfacet
  facet normal 0.000000e+0 0.000000e+0 1.000000e+0
    outer loop
      vertex 0.000000e+0 0.000000e+0 6.405900e+0
      vertex 3.225000e-2 5.585864e-2 6.405900e+0
      vertex -3.225000e-2 5.585864e-2 6.405900e+0
    endloop
  endfacet
  facet normal 8.660254e-1 -5.000000e-1 0.000000e+0
    outer loop
      vertex -3.225000e-2 5.585864e-2 6.350000e+0
      vertex -3.225000e-2 5.585864e-2 6.405900e+0
      vertex -6.450000e-2 7.898972e-18 6.350000e+0
    endloop
  endfacet
  facet normal 8.660254e-1 -5.000000e-1 0.000000e+0
    outer loop
      vertex -3.225000e-2 5.585864e-2 6.405900e+0
      vertex -6.450000e-2 7.898972e-18 6.405900e+0
      vertex -6.450000e-2 7.898972e-18 6.350000e+0
    endloop
  endfacet
  facet normal 0.000000e+0 0.000000e+0 1.000000e+0
    outer loop
      vertex 0.000000e+0 0.000000e+0 6.405900e+0
      vertex -3.225000e-2 5.585864e-2 6.405900e+0
      vertex -6.450000e-2 7.898972e-18 6.405900e+0
    endloop
  endfacet
  facet normal 8.660254e-1 5.000000e-1 0.000000e+0
    outer loop
      vertex -6.450000e-2 7.898972e-18 6.350000e+0
      vertex -6.450000e-2 7.898972e-18 6.405900e+0
      vertex -3.225000e-2 -5.585864e-2 6.350000e+0
    endloop
  endfacet
  facet normal 8.660254e-1 5.000000e-1 0.000000e+0
    outer loop
      vertex -6.450000e-2 7.898972e-18 6.405900e+0
      vertex -3.225000e-2 -5.585864e-2 6.405900e+0
      vertex -3.225000e-2 -5.585864e-2 6.350000e+0
    endloop
  endfacet
  facet normal 0.000000e+0 0.000000e+0 1.000000e+0
    outer loop
      vertex 0.000000e+0 0.000000e+0 6.405900e+0
      vertex -6.450000e-2 7.898972e-18 6.405900e+0
      vertex -3.225000e-2 -5.585864e-2 6.405900e+0
    endloop
  endfacet
  facet normal 1.075798e-16 1.000000e+0 0.000000e+0
    outer loop
      vertex -3.225000e-2 -5.585864e-2 6.350000e+0
      vertex -3.225000e-2 -5.585864e-2 6.405900e+0
      vertex 3.225000e-2 -5.585864e-2 6.350000e+0
    endloop
  endfacet
  facet normal 1.075798e-16 1.000000e+0 0.000000e+0
    outer loop
      vertex -3.225000e-2 -5.585864e-2 6.405900e+0
      vertex 3.225000e-2 -5.585864e-2 6.405900e+0
      vertex 3.225000e-2 -5.585864e-2 6.350000e+0
    endloop
  endfacet
  facet normal 0.000000e+0 0.000000e+0 1.000000e+0
    outer loop
      vertex 0.000000e+0 0.000000e+0 6.405900e+0
      vertex -3.225000e-2 -5.585864e-2 6.405900e+0
      vertex 3.225000e-2 -5.585864e-2 6.405900e+0
    endloop
  endfacet
  facet normal -8.660254e-1 5.000000e-1 0.000000e+0
    outer loop
      vertex 3.225000e-2 -5.585864e-2 6.350000e+0
      vertex 3.225000e-2 -5.585864e-2 6.405900e+0
      vertex 6.450000e-2 -1.579794e-17 6.350000e+0
    endloop
  endfacet
  facet normal -8.660254e-1 5.000000e-1 0.000000e+0
    outer loop
      vertex 3.225000e-2 -5.585864e-2 6.405900e+0
      vertex 6.450000e-2 -1.579794e-17 6.405900e+0
      vertex 6.450000e-2 -1.579794e-17 6.350000e+0
    endloop
  endfacet
  facet normal 0.000000e+0 0.000000e+0 1.000000e+0
    outer loop
      vertex 0.000000e+0 0.000000e+0 6.405900e+0
      vertex 3.225000e-2 -5.585864e-2 6.405900e+0
      vertex 6.450000e-2 -1.579794e-17 6.405900e+0
    endloop
  endfacet
endsolid ms51957-10
