solid nas1352-06-16
  facet normal -9.807853e-1 -1.950903e-1 0.000000e+0
    outer loop
      vertex 6.775000e-2 0.000000e+0 0.000000e+0
      vertex 6.775000e-2 0.000000e+0 2.540000e+1
      vertex 6.259284e-2 2.592680e-2 0.000000e+0
    endloop
  endfacet
  facet normal -9.807853e-1 -1.950903e-1 0.000000e+0
    outer loop
      vertex 6.775000e-2 0.000000e+0 2.540000e+1
      vertex 6.259284e-2 2.592680e-2 2.540000e+1
      vertex 6.259284e-2 2.592680e-2 0.000000e+0
    endloop
  endfacet
  facet normal -8.314696e-1 -5.555702e-1 0.000000e+0
    outer loop
      vertex 6.259284e-2 2.592680e-2 0.000000e+0
      vertex 6.259284e-2 2.592680e-2 2.540000e+1
      vertex 4.790648e-2 4.790648e-2 0.000000e+0
    endloop
  endfacet
  facet normal -8.314696e-1 -5.555702e-1 0.000000e+0
    outer loop
      vertex 6.259284e-2 2.592680e-2 2.540000e+1
      vertex 4.790648e-2 4.790648e-2 2.540000e+1
      vertex 4.790648e-2 4.790648e-2 0.000000e+0
    endloop
  endfacet
  facet normal -5.555702e-1 -8.314696e-1 0.000000e+0
    outer loop
      vertex 4.790648e-2 4.790648e-2 0.000000e+0
      vertex 4.790648e-2 4.790648e-2 2.540000e+1
      vertex 2.592680e-2 6.259284e-2 0.000000e+0
    endloop
  endfacet
  facet normal -5.555702e-1 -8.314696e-1 0.000000e+0
    outer loop
      vertex 4.790648e-2 4.790648e-2 2.540000e+1
      vertex 2.592680e-2 6.259284e-2 2.540000e+1
      vertex 2.592680e-2 6.259284e-2 0.000000e+0
    endloop
  endfacet
  facet normal -1.950903e-1 -9.807853e-1 0.000000e+0
    outer loop
      vertex 2.592680e-2 6.259284e-2 0.000000e+0
      vertex 2.592680e-2 6.259284e-2 2.540000e+1
      vertex 0.000000e+0 6.775000e-2 0.000000e+0
    endloop
  endfacet
  facet normal -1.950903e-1 -9.807853e-1 0.000000e+0
    outer loop
      vertex 2.592680e-2 6.259284e-2 2.540000e+1
      vertex 0.000000e+0 6.775000e-2 2.540000e+1
      vertex 0.000000e+0 6.775000e-2 0.000000e+0
    endloop
  endfacet
  facet normal 1.950903e-1 -9.807853e-1 0.000000e+0
    outer loop
      vertex 0.000000e+0 6.775000e-2 0.000000e+0
      vertex 0.000000e+0 6.775000e-2 2.540000e+1
      vertex -2.592680e-2 6.259284e-2 0.000000e+0
    endloop
  endfacet
  facet normal 1.950903e-1 -9.807853e-1 0.000000e+0
    outer loop
      vertex 0.000000e+0 6.775000e-2 2.540000e+1
      vertex -2.592680e-2 6.259284e-2 2.540000e+1
      vertex -2.592680e-2 6.259284e-2 0.000000e+0
    endloop
  endfacet
  facet normal 5.555702e-1 -8.314696e-1 0.000000e+0
    outer loop
      vertex -2.592680e-2 6.259284e-2 0.000000e+0
      vertex -2.592680e-2 6.259284e-2 2.540000e+1
      vertex -4.790648e-2 4.790648e-2 0.000000e+0
    endloop
  endfacet
  facet normal 5.555702e-1 -8.314696e-1 0.000000e+0
    outer loop
      vertex -2.592680e-2 6.259284e-2 2.540000e+1
      vertex -4.790648e-2 4.790648e-2 2.540000e+1
      vertex -4.790648e-2 4.790648e-2 0.000000e+0
    endloop
  endfacet
  facet normal 8.314696e-1 -5.555702e-1 0.000000e+0
    outer loop
      vertex -4.790648e-2 4.790648e-2 0.000000e+0
      vertex -4.790648e-2 4.790648e-2 2.540000e+1
      vertex -6.259284e-2 2.592680e-2 0.000000e+0
    endloop
  endfacet
  facet normal 8.314696e-1 -5.555702e-1 0.000000e+0
    outer loop
      vertex -4.790648e-2 4.790648e-2 2.540000e+1
      vertex -6.259284e-2 2.592680e-2 2.540000e+1
      vertex -6.259284e-2 2.592680e-2 0.000000e+0
    endloop
  endfacet
  facet normal 9.807853e-1 -1.950903e-1 0.000000e+0
    outer loop
      vertex -6.259284e-2 2.592680e-2 0.000000e+0
      vertex -6.259284e-2 2.592680e-2 2.540000e+1
      vertex -6.775000e-2 0.000000e+0 0.000000e+0
    endloop
  endfacet
  facet normal 9.807853e-1 -1.950903e-1 0.000000e+0
    outer loop
      vertex -6.259284e-2 2.592680e-2 2.540000e+1
      vertex -6.775000e-2 0.000000e+0 2.540000e+1
      vertex -6.775000e-2 0.000000e+0 0.000000e+0
    endloop
  endfacet
  facet normal 9.807853e-1 1.950903e-1 0.000000e+0
    outer loop
      vertex -6.775000e-2 0.000000e+0 0.000000e+0
      vertex -6.775000e-2 0.000000e+0 2.540000e+1
      vertex -6.259284e-2 -2.592680e-2 0.000000e+0
    endloop
  endfacet
  facet normal 9.807853e-1 1.950903e-1 0.000000e+0
    outer loop
      vertex -6.775000e-2 0.000000e+0 2.540000e+1
      vertex -6.259284e-2 -2.592680e-2 2.540000e+1
      vertex -6.259284e-2 -2.592680e-2 0.000000e+0
    endloop
  endfacet
  facet normal 8.314696e-1 5.555702e-1 0.000000e+0
    outer loop
      vertex -6.259284e-2 -2.592680e-2 0.000000e+0
      vertex -6.259284e-2 -2.592680e-2 2.540000e+1
      vertex -4.790648e-2 -4.790648e-2 0.000000e+0
    endloop
  endfacet
  facet normal 8.314696e-1 5.555702e-1 0.000000e+0
    outer loop
      vertex -6.259284e-2 -2.592680e-2 2.540000e+1
      vertex -4.790648e-2 -4.790648e-2 2.540000e+1
      vertex -4.790648e-2 -4.790648e-2 0.000000e+0
    endloop
  endfacet
  facet normal 5.555702e-1 8.314696e-1 0.000000e+0
    outer loop
      vertex -4.790648e-2 -4.790648e-2 0.000000e+0
      vertex -4.790648e-2 -4.790648e-2 2.540000e+1
      vertex -2.592680e-2 -6.259284e-2 0.000000e+0
    endloop
  endfacet
  facet normal 5.555702e-1 8.314696e-1 0.000000e+0
    outer loop
      vertex -4.790648e-2 -4.790648e-2 2.540000e+1
      vertex -2.592680e-2 -6.259284e-2 2.540000e+1
      vertex -2.592680e-2 -6.259284e-2 0.000000e+0
    endloop
  endfacet
  facet normal 1.950903e-1 9.807853e-1 0.000000e+0
    outer loop
      vertex -2.592680e-2 -6.259284e-2 0.000000e+0
      vertex -2.592680e-2 -6.259284e-2 2.540000e+1
      vertex 0.000000e+0 -6.775000e-2 0.000000e+0
    endloop
  endfacet
  facet normal 1.950903e-1 9.807853e-1 0.000000e+0
    outer loop
      vertex -2.592680e-2 -6.259284e-2 2.540000e+1
      vertex 0.000000e+0 -6.775000e-2 2.540000e+1
      vertex 0.000000e+0 -6.775000e-2 0.000000e+0
    endloop
  endfacet
  facet normal -1.950903e-1 9.807853e-1 0.000000e+0
    outer loop
      vertex 0.000000e+0 -6.775000e-2 0.000000e+0
      vertex 0.000000e+0 -6.775000e-2 2.540000e+1
      vertex 2.592680e-2 -6.259284e-2 0.000000e+0
    endloop
  endfacet
  facet normal -1.950903e-1 9.807853e-1 0.000000e+0
    outer loop
      vertex 0.000000e+0 -6.775000e-2 2.540000e+1
      vertex 2.592680e-2 -6.259284e-2 2.540000e+1
      vertex 2.592680e-2 -6.259284e-2 0.000000e+0
    endloop
  endfacet
  facet normal -5.555702e-1 8.314696e-1 0.000000e+0
    outer loop
      vertex 2.592680e-2 -6.259284e-2 0.000000e+0
      vertex 2.592680e-2 -6.259284e-2 2.540000e+1
      vertex 4.790648e-2 -4.790648e-2 0.000000e+0
    endloop
  endfacet
  facet normal -5.555702e-1 8.314696e-1 0.000000e+0
    outer loop
      vertex 2.592680e-2 -6.259284e-2 2.540000e+1
      vertex 4.790648e-2 -4.790648e-2 2.540000e+1
      vertex 4.790648e-2 -4.790648e-2 0.000000e+0
    endloop
  endfacet
  facet normal -8.314696e-1 5.555702e-1 0.000000e+0
    outer loop
      vertex 4.790648e-2 -4.790648e-2 0.000000e+0
      vertex 4.790648e-2 -4.790648e-2 2.540000e+1
      vertex 6.259284e-2 -2.592680e-2 0.000000e+0
    endloop
  endfacet
  facet normal -8.314696e-1 5.555702e-1 0.000000e+0
    outer loop
      vertex 4.790648e-2 -4.790648e-2 2.540000e+1
      vertex 6.259284e-2 -2.592680e-2 2.540000e+1
      vertex 6.259284e-2 -2.592680e-2 0.000000e+0
    endloop
  endfacet
  facet normal -9.807853e-1 1.950903e-1 0.000000e+0
    outer loop
      vertex 6.259284e-2 -2.592680e-2 0.000000e+0
      vertex 6.259284e-2 -2.592680e-2 2.540000e+1
      vertex 6.775000e-2 0.000000e+0 0.000000e+0
    endloop
  endfacet
  facet normal -9.807853e-1 1.950903e-1 0.000000e+0
    outer loop
      vertex 6.259284e-2 -2.592680e-2 2.540000e+1
      vertex 6.775000e-2 0.000000e+0 2.540000e+1
      vertex 6.775000e-2 0.000000e+0 0.000000e+0
    endloop
  endfacet
  facet normal 0.000000e+0 0.000000e+0 -1.000000e+0
    outer loop
      vertex 0.000000e+0 0.000000e+0 0.000000e+0
      vertex 6.259284e-2 2.592680e-2 0.000000e+0
      vertex 6.775000e-2 0.000000e+0 0.000000e+0
    endloop
  endfacet
  facet normal 0.000000e+0 0.000000e+0 -1.000000e+0
    outer loop
      vertex 0.000000e+0 0.000000e+0 0.000000e+0
      vertex 4.790648e-2 4.790648e-2 0.000000e+0
      vertex 6.259284e-2 2.592680e-2 0.000000e+0
    endloop
  endfacet
  facet normal 0.000000e+0 0.000000e+0 -1.000000e+0
    outer loop
      vertex 0.000000e+0 0.000000e+0 0.000000e+0
      vertex 2.592680e-2 6.259284e-2 0.000000e+0
      vertex 4.790648e-2 4.790648e-2 0.000000e+0
    endloop
  endfacet
  facet normal 0.000000e+0 0.000000e+0 -1.000000e+0
    outer loop
      vertex 0.000000e+0 0.000000e+0 0.000000e+0
      vertex 0.000000e+0 6.775000e-2 0.000000e+0
      vertex 2.592680e-2 6.259284e-2 0.000000e+0
    endloop
  endfacet
  facet normal 0.000000e+0 0.000000e+0 -1.000000e+0
    outer loop
      vertex 0.000000e+0 0.000000e+0 0.000000e+0
      vertex -2.592680e-2 6.259284e-2 0.000000e+0
      vertex 0.000000e+0 6.775000e-2 0.000000e+0
    endloop
  endfacet
  facet normal 0.000000e+0 0.000000e+0 -1.000000e+0
    outer loop
      vertex 0.000000e+0 0.000000e+0 0.000000e+0
      vertex -4.790648e-2 4.790648e-2 0.000000e+0
      vertex -2.592680e-2 6.259284e-2 0.000000e+0
    endloop
  endfacet
  facet normal 0.000000e+0 0.000000e+0 -1.000000e+0
    outer loop
      vertex 0.000000e+0 0.000000e+0 0.000000e+0
      vertex -6.259284e-2 2.592680e-2 0.000000e+0
      vertex -4.790648e-2 4.790648e-2 0.000000e+0
    endloop
  endfacet
  facet normal 0.000000e+0 0.000000e+0 -1.000000e+0
    outer loop
      vertex 0.000000e+0 0.000000e+0 0.000000e+0
      vertex -6.775000e-2 0.000000e+0 0.000000e+0
      vertex -6.259284e-2 2.592680e-2 0.000000e+0
    endloop
  endfacet
  facet normal 0.000000e+0 0.000000e+0 -1.000000e+0
    outer loop
      vertex 0.000000e+0 0.000000e+0 0.000000e+0
      vertex -6.259284e-2 -2.592680e-2 0.000000e+0
      vertex -6.775000e-2 0.000000e+0 0.000000e+0
    endloop
  endfacet
  facet normal 0.000000e+0 0.000000e+0 -1.000000e+0
    outer loop
      vertex 0.000000e+0 0.000000e+0 0.000000e+0
      vertex -4.790648e-2 -4.790648e-2 0.000000e+0
      vertex -6.259284e-2 -2.592680e-2 0.000000e+0
    endloop
  endfacet
  facet normal 0.000000e+0 0.000000e+0 -1.000000e+0
    outer loop
      vertex 0.000000e+0 0.000000e+0 0.000000e+0
      vertex -2.592680e-2 -6.259284e-2 0.000000e+0
      vertex -4.790648e-2 -4.790648e-2 0.000000e+0
    endloop
  endfacet
  facet normal 0.000000e+0 0.000000e+0 -1.000000e+0
    outer loop
      vertex 0.000000e+0 0.000000e+0 0.000000e+0
      vertex 0.000000e+0 -6.775000e-2 0.000000e+0
      vertex -2.592680e-2 -6.259284e-2 0.000000e+0
    endloop
  endfacet
  facet normal 0.000000e+0 0.000000e+0 -1.000000e+0
    outer loop
      vertex 0.000000e+0 0.000000e+0 0.000000e+0
      vertex 2.592680e-2 -6.259284e-2 0.000000e+0
      vertex 0.000000e+0 -6.775000e-2 0.000000e+0
    endloop
  endfacet
  facet normal 0.000000e+0 0.000000e+0 -1.000000e+0
    outer loop
      vertex 0.000000e+0 0.000000e+0 0.000000e+0
      vertex 4.790648e-2 -4.790648e-2 0.000000e+0
      vertex 2.592680e-2 -6.259284e-2 0.000000e+0
    endloop
  endfacet
  facet normal 0.000000e+0 0.000000e+0 -1.000000e+0
    outer loop
      vertex 0.000000e+0 0.000000e+0 0.000000e+0
      vertex 6.259284e-2 -2.592680e-2 0.000000e+0
      vertex 4.790648e-2 -4.790648e-2 0.000000e+0
    endloop
  endfacet
  facet normal 0.000000e+0 0.000000e+0 -1.000000e+0
    outer loop
      vertex 0.000000e+0 0.000000e+0 0.000000e+0
      vertex 6.775000e-2 0.000000e+0 0.000000e+0
      vertex 6.259284e-2 -2.592680e-2 0.000000e+0
    endloop
  endfacet
  facet normal 0.000000e+0 0.000000e+0 -1.000000e+0
    outer loop
      vertex 9.485000e-2 0.000000e+0 2.540000e+1
      vertex 6.775000e-2 0.000000e+0 2.540000e+1
      vertex 8.762997e-2 3.629752e-2 2.540000e+1
    endloop
  endfacet
  facet normal 0.000000e+0 0.000000e+0 -1.000000e+0
    outer loop
      vertex 8.762997e-2 3.629752e-2 2.540000e+1
      vertex 6.775000e-2 0.000000e+0 2.540000e+1
      vertex 6.259284e-2 2.592680e-2 2.540000e+1
    endloop
  endfacet
  facet normal 0.000000e+0 0.000000e+0 -1.000000e+0
    outer loop
      vertex 8.762997e-2 3.629752e-2 2.540000e+1
      vertex 6.259284e-2 2.592680e-2 2.540000e+1
      vertex 6.706908e-2 6.706908e-2 2.540000e+1
    endloop
  endfacet
  facet normal 0.000000e+0 0.000000e+0 -1.000000e+0
    outer loop
      vertex 6.706908e-2 6.706908e-2 2.540000e+1
      vertex 6.259284e-2 2.592680e-2 2.540000e+1
      vertex 4.790648e-2 4.790648e-2 2.540000e+1
    endloop
  endfacet
  facet normal 0.000000e+0 0.000000e+0 -1.000000e+0
    outer loop
      vertex 6.706908e-2 6.706908e-2 2.540000e+1
      vertex 4.790648e-2 4.790648e-2 2.540000e+1
      vertex 3.629752e-2 8.762997e-2 2.540000e+1
    endloop
  endfacet
  facet normal 0.000000e+0 0.000000e+0 -1.000000e+0
    outer loop
      vertex 3.629752e-2 8.762997e-2 2.540000e+1
      vertex 4.790648e-2 4.790648e-2 2.540000e+1
      vertex 2.592680e-2 6.259284e-2 2.540000e+1
    endloop
  endfacet
  facet normal 0.000000e+0 0.000000e+0 -1.000000e+0
    outer loop
      vertex 3.629752e-2 8.762997e-2 2.540000e+1
      vertex 2.592680e-2 6.259284e-2 2.540000e+1
      vertex 0.000000e+0 9.485000e-2 2.540000e+1
    endloop
  endfacet
  facet normal 0.000000e+0 0.000000e+0 -1.000000e+0
    outer loop
      vertex 0.000000e+0 9.485000e-2 2.540000e+1
      vertex 2.592680e-2 6.259284e-2 2.540000e+1
      vertex 0.000000e+0 6.775000e-2 2.540000e+1
    endloop
  endfacet
  facet normal 0.000000e+0 0.000000e+0 -1.000000e+0
    outer loop
      vertex 0.000000e+0 9.485000e-2 2.540000e+1
      vertex 0.000000e+0 6.775000e-2 2.540000e+1
      vertex -3.629752e-2 8.762997e-2 2.540000e+1
    endloop
  endfacet
  facet normal 0.000000e+0 0.000000e+0 -1.000000e+0
    outer loop
      vertex -3.629752e-2 8.762997e-2 2.540000e+1
      vertex 0.000000e+0 6.775000e-2 2.540000e+1
      vertex -2.592680e-2 6.259284e-2 2.540000e+1
    endloop
  endfacet
  facet normal 0.000000e+0 0.000000e+0 -1.000000e+0
    outer loop
      vertex -3.629752e-2 8.762997e-2 2.540000e+1
      vertex -2.592680e-2 6.259284e-2 2.540000e+1
      vertex -6.706908e-2 6.706908e-2 2.540000e+1
    endloop
  endfacet
  facet normal 0.000000e+0 0.000000e+0 -1.000000e+0
    outer loop
      vertex -6.706908e-2 6.706908e-2 2.540000e+1
      vertex -2.592680e-2 6.259284e-2 2.540000e+1
      vertex -4.790648e-2 4.790648e-2 2.540000e+1
    endloop
  endfacet
  facet normal 0.000000e+0 0.000000e+0 -1.000000e+0
    outer loop
      vertex -6.706908e-2 6.706908e-2 2.540000e+1
      vertex -4.790648e-2 4.790648e-2 2.540000e+1
      vertex -8.762997e-2 3.629752e-2 2.540000e+1
    endloop
  endfacet
  facet normal 0.000000e+0 0.000000e+0 -1.000000e+0
    outer loop
      vertex -8.762997e-2 3.629752e-2 2.540000e+1
      vertex -4.790648e-2 4.790648e-2 2.540000e+1
      vertex -6.259284e-2 2.592680e-2 2.540000e+1
    endloop
  endfacet
  facet normal 0.000000e+0 0.000000e+0 -1.000000e+0
    outer loop
      vertex -8.762997e-2 3.629752e-2 2.540000e+1
      vertex -6.259284e-2 2.592680e-2 2.540000e+1
      vertex -9.485000e-2 0.000000e+0 2.540000e+1
    endloop
  endfacet
  facet normal 0.000000e+0 0.000000e+0 -1.000000e+0
    outer loop
      vertex -9.485000e-2 0.000000e+0 2.540000e+1
      vertex -6.259284e-2 2.592680e-2 2.540000e+1
      vertex -6.775000e-2 0.000000e+0 2.540000e+1
    endloop
  endfacet
  facet normal 0.000000e+0 0.000000e+0 -1.000000e+0
    outer loop
      vertex -9.485000e-2 0.000000e+0 2.540000e+1
      vertex -6.775000e-2 0.000000e+0 2.540000e+1
      vertex -8.762997e-2 -3.629752e-2 2.540000e+1
    endloop
  endfacet
  facet normal 0.000000e+0 0.000000e+0 -1.000000e+0
    outer loop
      vertex -8.762997e-2 -3.629752e-2 2.540000e+1
      vertex -6.775000e-2 0.000000e+0 2.540000e+1
      vertex -6.259284e-2 -2.592680e-2 2.540000e+1
    endloop
  endfacet
  facet normal 0.000000e+0 0.000000e+0 -1.000000e+0
    outer loop
      vertex -8.762997e-2 -3.629752e-2 2.540000e+1
      vertex -6.259284e-2 -2.592680e-2 2.540000e+1
      vertex -6.706908e-2 -6.706908e-2 2.540000e+1
    endloop
  endfacet
  facet normal 0.000000e+0 0.000000e+0 -1.000000e+0
    outer loop
      vertex -6.706908e-2 -6.706908e-2 2.540000e+1
      vertex -6.259284e-2 -2.592680e-2 2.540000e+1
      vertex -4.790648e-2 -4.790648e-2 2.540000e+1
    endloop
  endfacet
  facet normal 0.000000e+0 0.000000e+0 -1.000000e+0
    outer loop
      vertex -6.706908e-2 -6.706908e-2 2.540000e+1
      vertex -4.790648e-2 -4.790648e-2 2.540000e+1
      vertex -3.629752e-2 -8.762997e-2 2.540000e+1
    endloop
  endfacet
  facet normal 0.000000e+0 0.000000e+0 -1.000000e+0
    outer loop
      vertex -3.629752e-2 -8.762997e-2 2.540000e+1
      vertex -4.790648e-2 -4.790648e-2 2.540000e+1
      vertex -2.592680e-2 -6.259284e-2 2.540000e+1
    endloop
  endfacet
  facet normal 0.000000e+0 0.000000e+0 -1.000000e+0
    outer loop
      vertex -3.629752e-2 -8.762997e-2 2.540000e+1
      vertex -2.592680e-2 -6.259284e-2 2.540000e+1
      vertex 0.000000e+0 -9.485000e-2 2.540000e+1
    endloop
  endfacet
  facet normal 0.000000e+0 0.000000e+0 -1.000000e+0
    outer loop
      vertex 0.000000e+0 -9.485000e-2 2.540000e+1
      vertex -2.592680e-2 -6.259284e-2 2.540000e+1
      vertex 0.000000e+0 -6.775000e-2 2.540000e+1
    endloop
  endfacet
  facet normal 0.000000e+0 0.000000e+0 -1.000000e+0
    outer loop
      vertex 0.000000e+0 -9.485000e-2 2.540000e+1
      vertex 0.000000e+0 -6.775000e-2 2.540000e+1
      vertex 3.629752e-2 -8.762997e-2 2.540000e+1
    endloop
  endfacet
  facet normal 0.000000e+0 0.000000e+0 -1.000000e+0
    outer loop
      vertex 3.629752e-2 -8.762997e-2 2.540000e+1
      vertex 0.000000e+0 -6.775000e-2 2.540000e+1
      vertex 2.592680e-2 -6.259284e-2 2.540000e+1
    endloop
  endfacet
  facet normal 0.000000e+0 0.000000e+0 -1.000000e+0
    outer loop
      vertex 3.629752e-2 -8.762997e-2 2.540000e+1
      vertex 2.592680e-2 -6.259284e-2 2.540000e+1
      vertex 6.706908e-2 -6.706908e-2 2.540000e+1
    endloop
  endfacet
  facet normal 0.000000e+0 0.000000e+0 -1.000000e+0
    outer loop
      vertex 6.706908e-2 -6.706908e-2 2.540000e+1
      vertex 2.592680e-2 -6.259284e-2 2.540000e+1
      vertex 4.790648e-2 -4.790648e-2 2.540000e+1
    endloop
  endfacet
  facet normal 0.000000e+0 0.000000e+0 -1.000000e+0
    outer loop
      vertex 6.706908e-2 -6.706908e-2 2.540000e+1
      vertex 4.790648e-2 -4.790648e-2 2.540000e+1
      vertex 8.762997e-2 -3.629752e-2 2.540000e+1
    endloop
  endfacet
  facet normal 0.000000e+0 0.000000e+0 -1.000000e+0
    outer loop
      vertex 8.762997e-2 -3.629752e-2 2.540000e+1
      vertex 4.790648e-2 -4.790648e-2 2.540000e+1
      vertex 6.259284e-2 -2.592680e-2 2.540000e+1
    endloop
  endfacet
  facet normal 0.000000e+0 0.000000e+0 -1.000000e+0
    outer loop
      vertex 8.762997e-2 -3.629752e-2 2.540000e+1
      vertex 6.259284e-2 -2.592680e-2 2.540000e+1
      vertex 9.485000e-2 0.000000e+0 2.540000e+1
    endloop
  endfacet
  facet normal 0.000000e+0 0.000000e+0 -1.000000e+0
    outer loop
      vertex 9.485000e-2 0.000000e+0 2.540000e+1
      vertex 6.259284e-2 -2.592680e-2 2.540000e+1
      vertex 6.775000e-2 0.000000e+0 2.540000e+1
    endloop
  endfacet
  facet normal -9.807853e-1 -1.950903e-1 0.000000e+0
    outer loop
      vertex 9.485000e-2 0.000000e+0 2.540000e+1
      vertex 9.485000e-2 0.000000e+0 2.553550e+1
      vertex 8.762997e-2 3.629752e-2 2.540000e+1
    endloop
  endfacet
  facet normal -9.807853e-1 -1.950903e-1 0.000000e+0
    outer loop
      vertex 9.485000e-2 0.000000e+0 2.553550e+1
      vertex 8.762997e-2 3.629752e-2 2.553550e+1
      vertex 8.762997e-2 3.629752e-2 2.540000e+1
    endloop
  endfacet
  facet normal -8.314696e-1 -5.555702e-1 0.000000e+0
    outer loop
      vertex 8.762997e-2 3.629752e-2 2.540000e+1
      vertex 8.762997e-2 3.629752e-2 2.553550e+1
      vertex 6.706908e-2 6.706908e-2 2.540000e+1
    endloop
  endfacet
  facet normal -8.314696e-1 -5.555702e-1 0.000000e+0
    outer loop
      vertex 8.762997e-2 3.629752e-2 2.553550e+1
      vertex 6.706908e-2 6.706908e-2 2.553550e+1
      vertex 6.706908e-2 6.706908e-2 2.540000e+1
    endloop
  endfacet
  facet normal -5.555702e-1 -8.314696e-1 0.000000e+0
    outer loop
      vertex 6.706908e-2 6.706908e-2 2.540000e+1
      vertex 6.706908e-2 6.706908e-2 2.553550e+1
      vertex 3.629752e-2 8.762997e-2 2.540000e+1
    endloop
  endfacet
  facet normal -5.555702e-1 -8.314696e-1 0.000000e+0
    outer loop
      vertex 6.706908e-2 6.706908e-2 2.553550e+1
      vertex 3.629752e-2 8.762997e-2 2.553550e+1
      vertex 3.629752e-2 8.762997e-2 2.540000e+1
    endloop
  endfacet
  facet normal -1.950903e-1 -9.807853e-1 0.000000e+0
    outer loop
      vertex 3.629752e-2 8.762997e-2 2.540000e+1
      vertex 3.629752e-2 8.762997e-2 2.553550e+1
      vertex 0.000000e+0 9.485000e-2 2.540000e+1
    endloop
  endfacet
  facet normal -1.950903e-1 -9.807853e-1 0.000000e+0
    outer loop
      vertex 3.629752e-2 8.762997e-2 2.553550e+1
      vertex 0.000000e+0 9.485000e-2 2.553550e+1
      vertex 0.000000e+0 9.485000e-2 2.540000e+1
    endloop
  endfacet
  facet normal 1.950903e-1 -9.807853e-1 0.000000e+0
    outer loop
      vertex 0.000000e+0 9.485000e-2 2.540000e+1
      vertex 0.000000e+0 9.485000e-2 2.553550e+1
      vertex -3.629752e-2 8.762997e-2 2.540000e+1
    endloop
  endfacet
  facet normal 1.950903e-1 -9.807853e-1 0.000000e+0
    outer loop
      vertex 0.000000e+0 9.485000e-2 2.553550e+1
      vertex -3.629752e-2 8.762997e-2 2.553550e+1
      vertex -3.629752e-2 8.762997e-2 2.540000e+1
    endloop
  endfacet
  facet normal 5.555702e-1 -8.314696e-1 0.000000e+0
    outer loop
      vertex -3.629752e-2 8.762997e-2 2.540000e+1
      vertex -3.629752e-2 8.762997e-2 2.553550e+1
      vertex -6.706908e-2 6.706908e-2 2.540000e+1
    endloop
  endfacet
  facet normal 5.555702e-1 -8.314696e-1 0.000000e+0
    outer loop
      vertex -3.629752e-2 8.762997e-2 2.553550e+1
      vertex -6.706908e-2 6.706908e-2 2.553550e+1
      vertex -6.706908e-2 6.706908e-2 2.540000e+1
    endloop
  endfacet
  facet normal 8.314696e-1 -5.555702e-1 0.000000e+0
    outer loop
      vertex -6.706908e-2 6.706908e-2 2.540000e+1
      vertex -6.706908e-2 6.706908e-2 2.553550e+1
      vertex -8.762997e-2 3.629752e-2 2.540000e+1
    endloop
  endfacet
  facet normal 8.314696e-1 -5.555702e-1 0.000000e+0
    outer loop
      vertex -6.706908e-2 6.706908e-2 2.553550e+1
      vertex -8.762997e-2 3.629752e-2 2.553550e+1
      vertex -8.762997e-2 3.629752e-2 2.540000e+1
    endloop
  endfacet
  facet normal 9.807853e-1 -1.950903e-1 0.000000e+0
    outer loop
      vertex -8.762997e-2 3.629752e-2 2.540000e+1
      vertex -8.762997e-2 3.629752e-2 2.553550e+1
      vertex -9.485000e-2 0.000000e+0 2.540000e+1
    endloop
  endfacet
  facet normal 9.807853e-1 -1.950903e-1 0.000000e+0
    outer loop
      vertex -8.762997e-2 3.629752e-2 2.553550e+1
      vertex -9.485000e-2 0.000000e+0 2.553550e+1
      vertex -9.485000e-2 0.000000e+0 2.540000e+1
    endloop
  endfacet
  facet normal 9.807853e-1 1.950903e-1 0.000000e+0
    outer loop
      vertex -9.485000e-2 0.000000e+0 2.540000e+1
      vertex -9.485000e-2 0.000000e+0 2.553550e+1
      vertex -8.762997e-2 -3.629752e-2 2.540000e+1
    endloop
  endfacet
  facet normal 9.807853e-1 1.950903e-1 0.000000e+0
    outer loop
      vertex -9.485000e-2 0.000000e+0 2.553550e+1
      vertex -8.762997e-2 -3.629752e-2 2.553550e+1
      vertex -8.762997e-2 -3.629752e-2 2.540000e+1
    endloop
  endfacet
  facet normal 8.314696e-1 5.555702e-1 0.000000e+0
    outer loop
      vertex -8.762997e-2 -3.629752e-2 2.540000e+1
      vertex -8.762997e-2 -3.629752e-2 2.553550e+1
      vertex -6.706908e-2 -6.706908e-2 2.540000e+1
    endloop
  endfacet
  facet normal 8.314696e-1 5.555702e-1 0.000000e+0
    outer loop
      vertex -8.762997e-2 -3.629752e-2 2.553550e+1
      vertex -6.706908e-2 -6.706908e-2 2.553550e+1
      vertex -6.706908e-2 -6.706908e-2 2.540000e+1
    endloop
  endfacet
  facet normal 5.555702e-1 8.314696e-1 0.000000e+0
    outer loop
      vertex -6.706908e-2 -6.706908e-2 2.540000e+1
      vertex -6.706908e-2 -6.706908e-2 2.553550e+1
      vertex -3.629752e-2 -8.762997e-2 2.540000e+1
    endloop
  endfacet
  facet normal 5.555702e-1 8.314696e-1 0.000000e+0
    outer loop
      vertex -6.706908e-2 -6.706908e-2 2.553550e+1
      vertex -3.629752e-2 -8.762997e-2 2.553550e+1
      vertex -3.629752e-2 -8.762997e-2 2.540000e+1
    endloop
  endfacet
  facet normal 1.950903e-1 9.807853e-1 0.000000e+0
    outer loop
      vertex -3.629752e-2 -8.762997e-2 2.540000e+1
      vertex -3.629752e-2 -8.762997e-2 2.553550e+1
      vertex 0.000000e+0 -9.485000e-2 2.540000e+1
    endloop
  endfacet
  facet normal 1.950903e-1 9.807853e-1 0.000000e+0
    outer loop
      vertex -3.629752e-2 -8.762997e-2 2.553550e+1
      vertex 0.000000e+0 -9.485000e-2 2.553550e+1
      vertex 0.000000e+0 -9.485000e-2 2.540000e+1
    endloop
  endfacet
  facet normal -1.950903e-1 9.807853e-1 0.000000e+0
    outer loop
      vertex 0.000000e+0 -9.485000e-2 2.540000e+1
      vertex 0.000000e+0 -9.485000e-2 2.553550e+1
      vertex 3.629752e-2 -8.762997e-2 2.540000e+1
    endloop
  endfacet
  facet normal -1.950903e-1 9.807853e-1 0.000000e+0
    outer loop
      vertex 0.000000e+0 -9.485000e-2 2.553550e+1
      vertex 3.629752e-2 -8.762997e-2 2.553550e+1
      vertex 3.629752e-2 -8.762997e-2 2.540000e+1
    endloop
  endfacet
  facet normal -5.555702e-1 8.314696e-1 0.000000e+0
    outer loop
      vertex 3.629752e-2 -8.762997e-2 2.540000e+1
      vertex 3.629752e-2 -8.762997e-2 2.553550e+1
      vertex 6.706908e-2 -6.706908e-2 2.540000e+1
    endloop
  endfacet
  facet normal -5.555702e-1 8.314696e-1 0.000000e+0
    outer loop
      vertex 3.629752e-2 -8.762997e-2 2.553550e+1
      vertex 6.706908e-2 -6.706908e-2 2.553550e+1
      vertex 6.706908e-2 -6.706908e-2 2.540000e+1
    endloop
  endfacet
  facet normal -8.314696e-1 5.555702e-1 0.000000e+0
    outer loop
      vertex 6.706908e-2 -6.706908e-2 2.540000e+1
      vertex 6.706908e-2 -6.706908e-2 2.553550e+1
      vertex 8.762997e-2 -3.629752e-2 2.540000e+1
    endloop
  endfacet
  facet normal -8.314696e-1 5.555702e-1 0.000000e+0
    outer loop
      vertex 6.706908e-2 -6.706908e-2 2.553550e+1
      vertex 8.762997e-2 -3.629752e-2 2.553550e+1
      vertex 8.762997e-2 -3.629752e-2 2.540000e+1
    endloop
  endfacet
  facet normal -9.807853e-1 1.950903e-1 0.000000e+0
    outer loop
      vertex 8.762997e-2 -3.629752e-2 2.540000e+1
      vertex 8.762997e-2 -3.629752e-2 2.553550e+1
      vertex 9.485000e-2 0.000000e+0 2.540000e+1
    endloop
  endfacet
  facet normal -9.807853e-1 1.950903e-1 0.000000e+0
    outer loop
      vertex 8.762997e-2 -3.629752e-2 2.553550e+1
      vertex 9.485000e-2 0.000000e+0 2.553550e+1
      vertex 9.485000e-2 0.000000e+0 2.540000e+1
    endloop
  endfacet
  facet normal 0.000000e+0 0.000000e+0 1.000000e+0
    outer loop
      vertex 0.000000e+0 0.000000e+0 2.553550e+1
      vertex 9.485000e-2 0.000000e+0 2.553550e+1
      vertex 8.762997e-2 3.629752e-2 2.553550e+1
    endloop
  endfacet
  facet normal 0.000000e+0 0.000000e+0 1.000000e+0
    outer loop
      vertex 0.000000e+0 0.000000e+0 2.553550e+1
      vertex 8.762997e-2 3.629752e-2 2.553550e+1
      vertex 6.706908e-2 6.706908e-2 2.553550e+1
    endloop
  endfacet
  facet normal 0.000000e+0 0.000000e+0 1.000000e+0
    outer loop
      vertex 0.000000e+0 0.000000e+0 2.553550e+1
      vertex 6.706908e-2 6.706908e-2 2.553550e+1
      vertex 3.629752e-2 8.762997e-2 2.553550e+1
    endloop
  endfacet
  facet normal 0.000000e+0 0.000000e+0 1.000000e+0
    outer loop
      vertex 0.000000e+0 0.000000e+0 2.553550e+1
      vertex 3.629752e-2 8.762997e-2 2.553550e+1
      vertex 0.000000e+0 9.485000e-2 2.553550e+1
    endloop
  endfacet
  facet normal 0.000000e+0 0.000000e+0 1.000000e+0
    outer loop
      vertex 0.000000e+0 0.000000e+0 2.553550e+1
      vertex 0.000000e+0 9.485000e-2 2.553550e+1
      vertex -3.629752e-2 8.762997e-2 2.553550e+1
    endloop
  endfacet
  facet normal 0.000000e+0 0.000000e+0 1.000000e+0
    outer loop
      vertex 0.000000e+0 0.000000e+0 2.553550e+1
      vertex -3.629752e-2 8.762997e-2 2.553550e+1
      vertex -6.706908e-2 6.706908e-2 2.553550e+1
    endloop
  endfacet
  facet normal 0.000000e+0 0.000000e+0 1.000000e+0
    outer loop
      vertex 0.000000e+0 0.000000e+0 2.553550e+1
      vertex -6.706908e-2 6.706908e-2 2.553550e+1
      vertex -8.762997e-2 3.629752e-2 2.553550e+1
    endloop
  endfacet
  facet normal 0.000000e+0 0.000000e+0 1.000000e+0
    outer loop
      vertex 0.000000e+0 0.000000e+0 2.553550e+1
      vertex -8.762997e-2 3.629752e-2 2.553550e+1
      vertex -9.485000e-2 0.000000e+0 2.553550e+1
    endloop
  endfacet
  facet normal 0.000000e+0 0.000000e+0 1.000000e+0
    outer loop
      vertex 0.000000e+0 0.000000e+0 2.553550e+1
      vertex -9.485000e-2 0.000000e+0 2.553550e+1
      vertex -8.762997e-2 -3.629752e-2 2.553550e+1
    endloop
  endfacet
  facet normal 0.000000e+0 0.000000e+0 1.000000e+0
    outer loop
      vertex 0.000000e+0 0.000000e+0 2.553550e+1
      vertex -8.762997e-2 -3.629752e-2 2.553550e+1
      vertex -6.706908e-2 -6.706908e-2 2.553550e+1
    endloop
  endfacet
  facet normal 0.000000e+0 0.000000e+0 1.000000e+0
    outer loop
      vertex 0.000000e+0 0.000000e+0 2.553550e+1
      vertex -6.706908e-2 -6.706908e-2 2.553550e+1
      vertex -3.629752e-2 -8.762997e-2 2.553550e+1
    endloop
  endfacet
  facet normal 0.000000e+0 0.000000e+0 1.000000e+0
    outer loop
      vertex 0.000000e+0 0.000000e+0 2.553550e+1
      vertex -3.629752e-2 -8.762997e-2 2.553550e+1
      vertex 0.000000e+0 -9.485000e-2 2.553550e+1
    endloop
  endfacet
  facet normal 0.000000e+0 0.000000e+0 1.000000e+0
    outer loop
      vertex 0.000000e+0 0.000000e+0 2.553550e+1
      vertex 0.000000e+0 -9.485000e-2 2.553550e+1
      vertex 3.629752e-2 -8.762997e-2 2.553550e+1
    endloop
  endfacet
  facet normal 0.000000e+0 0.000000e+0 1.000000e+0
    outer loop
      vertex 0.000000e+0 0.000000e+0 2.553550e+1
      vertex 3.629752e-2 -8.762997e-2 2.553550e+1
      vertex 6.706908e-2 -6.706908e-2 2.553550e+1
    endloop
  endfacet
  facet normal 0.000000e+0 0.000000e+0 1.000000e+0
    outer loop
      vertex 0.000000e+0 0.000000e+0 2.553550e+1
      vertex 6.706908e-2 -6.706908e-2 2.553550e+1
      vertex 8.762997e-2 -3.629752e-2 2.553550e+1
    endloop
  endfacet
  facet normal 0.000000e+0 0.000000e+0 1.000000e+0
    outer loop
      vertex 0.000000e+0 0.000000e+0 2.553550e+1
      vertex 8.762997e-2 -3.629752e-2 2.553550e+1
      vertex 9.485000e-2 0.000000e+0 2.553550e+1
    endloop
  endfacet
endsolid nas1352-06-16
