solid nas1352-4-24
  facet normal -9.807853e-1 -1.950903e-1 0.000000e+0
    outer loop
      vertex 1.233500e-1 0.000000e+0 0.000000e+0
      vertex 1.233500e-1 0.000000e+0 3.810000e+1
      vertex 1.139605e-1 4.720400e-2 0.000000e+0
    endloop
  endfacet
  facet normal -9.807853e-1 -1.950903e-1 0.000000e+0
    outer loop
      vertex 1.233500e-1 0.000000e+0 3.810000e+1
      vertex 1.139605e-1 4.720400e-2 3.810000e+1
      vertex 1.139605e-1 4.720400e-2 0.000000e+0
    endloop
  endfacet
  facet normal 0.000000e+0 0.000000e+0 -1.000000e+0
    outer loop
      vertex 0.000000e+0 0.000000e+0 0.000000e+0
      vertex 1.139605e-1 4.720400e-2 0.000000e+0
      vertex 1.233500e-1 0.000000e+0 0.000000e+0
    endloop
  endfacet
  facet normal -8.314696e-1 -5.555702e-1 0.000000e+0
    outer loop
      vertex 1.139605e-1 4.720400e-2 0.000000e+0
      vertex 1.139605e-1 4.720400e-2 3.810000e+1
      vertex 8.722162e-2 8.722162e-2 0.000000e+0
    endloop
  endfacet
  facet normal -8.314696e-1 -5.555702e-1 0.000000e+0
    outer loop
      vertex 1.139605e-1 4.720400e-2 3.810000e+1
      vertex 8.722162e-2 8.722162e-2 3.810000e+1
      vertex 8.722162e-2 8.722162e-2 0.000000e+0
    endloop
  endfacet
  facet normal 0.000000e+0 0.000000e+0 -1.000000e+0
    outer loop
      vertex 0.000000e+0 0.000000e+0 0.000000e+0
      vertex 8.722162e-2 8.722162e-2 0.000000e+0
      vertex 1.139605e-1 4.720400e-2 0.000000e+0
    endloop
  endfacet
  facet normal -5.555702e-1 -8.314696e-1 0.000000e+0
    outer loop
      vertex 8.722162e-2 8.722162e-2 0.000000e+0
      vertex 8.722162e-2 8.722162e-2 3.810000e+1
      vertex 4.720400e-2 1.139605e-1 0.000000e+0
    endloop
  endfacet
  facet normal -5.555702e-1 -8.314696e-1 0.000000e+0
    outer loop
      vertex 8.722162e-2 8.722162e-2 3.810000e+1
      vertex 4.720400e-2 1.139605e-1 3.810000e+1
      vertex 4.720400e-2 1.139605e-1 0.000000e+0
    endloop
  endfacet
  facet normal 0.000000e+0 0.000000e+0 -1.000000e+0
    outer loop
      vertex 0.000000e+0 0.000000e+0 0.000000e+0
      vertex 4.720400e-2 1.139605e-1 0.000000e+0
      vertex 8.722162e-2 8.722162e-2 0.000000e+0
    endloop
  endfacet
  facet normal -1.950903e-1 -9.807853e-1 0.000000e+0
    outer loop
      vertex 4.720400e-2 1.139605e-1 0.000000e+0
      vertex 4.720400e-2 1.139605e-1 3.810000e+1
      vertex 7.553009e-18 1.233500e-1 0.000000e+0
    endloop
  endfacet
  facet normal -1.950903e-1 -9.807853e-1 0.000000e+0
    outer loop
      vertex 4.720400e-2 1.139605e-1 3.810000e+1
      vertex 7.553009e-18 1.233500e-1 3.810000e+1
      vertex 7.553009e-18 1.233500e-1 0.000000e+0
    endloop
  endfacet
  facet normal 0.000000e+0 0.000000e+0 -1.000000e+0
    outer loop
      vertex 0.000000e+0 0.000000e+0 0.000000e+0
      vertex 7.553009e-18 1.233500e-1 0.000000e+0
      vertex 4.720400e-2 1.139605e-1 0.000000e+0
    endloop
  endfacet
  facet normal 1.950903e-1 -9.807853e-1 0.000000e+0
    outer loop
      vertex 7.553009e-18 1.233500e-1 0.000000e+0
      vertex 7.553009e-18 1.233500e-1 3.810000e+1
      vertex -4.720400e-2 1.139605e-1 0.000000e+0
    endloop
  endfacet
  facet normal 1.950903e-1 -9.807853e-1 0.000000e+0
    outer loop
      vertex 7.553009e-18 1.233500e-1 3.810000e+1
      vertex -4.720400e-2 1.139605e-1 3.810000e+1
      vertex -4.720400e-2 1.139605e-1 0.000000e+0
    endloop
  endfacet
  facet normal 0.000000e+0 0.000000e+0 -1.000000e+0
    outer loop
      vertex 0.000000e+0 0.000000e+0 0.000000e+0
      vertex -4.720400e-2 1.139605e-1 0.000000e+0
      vertex 7.553009e-18 1.233500e-1 0.000000e+0
    endloop
  endfacet
  facet normal 5.555702e-1 -8.314696e-1 0.000000e+0
    outer loop
      vertex -4.720400e-2 1.139605e-1 0.000000e+0
      vertex -4.720400e-2 1.139605e-1 3.810000e+1
      vertex -8.722162e-2 8.722162e-2 0.000000e+0
    endloop
  endfacet
  facet normal 5.555702e-1 -8.314696e-1 0.000000e+0
    outer loop
      vertex -4.720400e-2 1.139605e-1 3.810000e+1
      vertex -8.722162e-2 8.722162e-2 3.810000e+1
      vertex -8.722162e-2 8.722162e-2 0.000000e+0
    endloop
  endfacet
  facet normal 0.000000e+0 0.000000e+0 -1.000000e+0
    outer loop
      vertex 0.000000e+0 0.000000e+0 0.000000e+0
      vertex -8.722162e-2 8.722162e-2 0.000000e+0
      vertex -4.720400e-2 1.139605e-1 0.000000e+0
    endloop
  endfacet
  facet normal 8.314696e-1 -5.555702e-1 0.000000e+0
    outer loop
      vertex -8.722162e-2 8.722162e-2 0.000000e+0
      vertex -8.722162e-2 8.722162e-2 3.810000e+1
      vertex -1.139605e-1 4.720400e-2 0.000000e+0
    endloop
  endfacet
  facet normal 8.314696e-1 -5.555702e-1 0.000000e+0
    outer loop
      vertex -8.722162e-2 8.722162e-2 3.810000e+1
      vertex -1.139605e-1 4.720400e-2 3.810000e+1
      vertex -1.139605e-1 4.720400e-2 0.000000e+0
    endloop
  endfacet
  facet normal 0.000000e+0 0.000000e+0 -1.000000e+0
    outer loop
      vertex 0.000000e+0 0.000000e+0 0.000000e+0
      vertex -1.139605e-1 4.720400e-2 0.000000e+0
      vertex -8.722162e-2 8.722162e-2 0.000000e+0
    endloop
  endfacet
  facet normal 9.807853e-1 -1.950903e-1 0.000000e+0
    outer loop
      vertex -1.139605e-1 4.720400e-2 0.000000e+0
      vertex -1.139605e-1 4.720400e-2 3.810000e+1
      vertex -1.233500e-1 1.510602e-17 0.000000e+0
    endloop
  endfacet
  facet normal 9.807853e-1 -1.950903e-1 0.000000e+0
    outer loop
      vertex -1.139605e-1 4.720400e-2 3.810000e+1
      vertex -1.233500e-1 1.510602e-17 3.810000e+1
      vertex -1.233500e-1 1.510602e-17 0.000000e+0
    endloop
  endfacet
  facet normal 0.000000e+0 0.000000e+0 -1.000000e+0
    outer loop
      vertex 0.000000e+0 0.000000e+0 0.000000e+0
      vertex -1.233500e-1 1.510602e-17 0.000000e+0
      vertex -1.139605e-1 4.720400e-2 0.000000e+0
    endloop
  endfacet
  facet normal 9.807853e-1 1.950903e-1 0.000000e+0
    outer loop
      vertex -1.233500e-1 1.510602e-17 0.000000e+0
      vertex -1.233500e-1 1.510602e-17 3.810000e+1
      vertex -1.139605e-1 -4.720400e-2 0.000000e+0
    endloop
  endfacet
  facet normal 9.807853e-1 1.950903e-1 0.000000e+0
    outer loop
      vertex -1.233500e-1 1.510602e-17 3.810000e+1
      vertex -1.139605e-1 -4.720400e-2 3.810000e+1
      vertex -1.139605e-1 -4.720400e-2 0.000000e+0
    endloop
  endfacet
  facet normal 0.000000e+0 0.000000e+0 -1.000000e+0
    outer loop
      vertex 0.000000e+0 0.000000e+0 0.000000e+0
      vertex -1.139605e-1 -4.720400e-2 0.000000e+0
      vertex -1.233500e-1 1.510602e-17 0.000000e+0
    endloop
  endfacet
  facet normal 8.314696e-1 5.555702e-1 0.000000e+0
    outer loop
      vertex -1.139605e-1 -4.720400e-2 0.000000e+0
      vertex -1.139605e-1 -4.720400e-2 3.810000e+1
      vertex -8.722162e-2 -8.722162e-2 0.000000e+0
    endloop
  endfacet
  facet normal 8.314696e-1 5.555702e-1 0.000000e+0
    outer loop
      vertex -1.139605e-1 -4.720400e-2 3.810000e+1
      vertex -8.722162e-2 -8.722162e-2 3.810000e+1
      vertex -8.722162e-2 -8.722162e-2 0.000000e+0
    endloop
  endfacet
  facet normal 0.000000e+0 0.000000e+0 -1.000000e+0
    outer loop
      vertex 0.000000e+0 0.000000e+0 0.000000e+0
      vertex -8.722162e-2 -8.722162e-2 0.000000e+0
      vertex -1.139605e-1 -4.720400e-2 0.000000e+0
    endloop
  endfacet
  facet normal 5.555702e-1 8.314696e-1 0.000000e+0
    outer loop
      vertex -8.722162e-2 -8.722162e-2 0.000000e+0
      vertex -8.722162e-2 -8.722162e-2 3.810000e+1
      vertex -4.720400e-2 -1.139605e-1 0.000000e+0
    endloop
  endfacet
  facet normal 5.555702e-1 8.314696e-1 0.000000e+0
    outer loop
      vertex -8.722162e-2 -8.722162e-2 3.810000e+1
      vertex -4.720400e-2 -1.139605e-1 3.810000e+1
      vertex -4.720400e-2 -1.139605e-1 0.000000e+0
    endloop
  endfacet
  facet normal 0.000000e+0 0.000000e+0 -1.000000e+0
    outer loop
      vertex 0.000000e+0 0.000000e+0 0.000000e+0
      vertex -4.720400e-2 -1.139605e-1 0.000000e+0
      vertex -8.722162e-2 -8.722162e-2 0.000000e+0
    endloop
  endfacet
  facet normal 1.950903e-1 9.807853e-1 0.000000e+0
    outer loop
      vertex -4.720400e-2 -1.139605e-1 0.000000e+0
      vertex -4.720400e-2 -1.139605e-1 3.810000e+1
      vertex -2.265903e-17 -1.233500e-1 0.000000e+0
    endloop
  endfacet
  facet normal 1.950903e-1 9.807853e-1 0.000000e+0
    outer loop
      vertex -4.720400e-2 -1.139605e-1 3.810000e+1
      vertex -2.265903e-17 -1.233500e-1 3.810000e+1
      vertex -2.265903e-17 -1.233500e-1 0.000000e+0
    endloop
  endfacet
  facet normal 0.000000e+0 0.000000e+0 -1.000000e+0
    outer loop
      vertex 0.000000e+0 0.000000e+0 0.000000e+0
      vertex -2.265903e-17 -1.233500e-1 0.000000e+0
      vertex -4.720400e-2 -1.139605e-1 0.000000e+0
    endloop
  endfacet
  facet normal -1.950903e-1 9.807853e-1 0.000000e+0
    outer loop
      vertex -2.265903e-17 -1.233500e-1 0.000000e+0
      vertex -2.265903e-17 -1.233500e-1 3.810000e+1
      vertex 4.720400e-2 -1.139605e-1 0.000000e+0
    endloop
  endfacet
  facet normal -1.950903e-1 9.807853e-1 0.000000e+0
    outer loop
      vertex -2.265903e-17 -1.233500e-1 3.810000e+1
      vertex 4.720400e-2 -1.139605e-1 3.810000e+1
      vertex 4.720400e-2 -1.139605e-1 0.000000e+0
    endloop
  endfacet
  facet normal 0.000000e+0 0.000000e+0 -1.000000e+0
    outer loop
      vertex 0.000000e+0 0.000000e+0 0.000000e+0
      vertex 4.720400e-2 -1.139605e-1 0.000000e+0
      vertex -2.265903e-17 -1.233500e-1 0.000000e+0
    endloop
  endfacet
  facet normal -5.555702e-1 8.314696e-1 0.000000e+0
    outer loop
      vertex 4.720400e-2 -1.139605e-1 0.000000e+0
      vertex 4.720400e-2 -1.139605e-1 3.810000e+1
      vertex 8.722162e-2 -8.722162e-2 0.000000e+0
    endloop
  endfacet
  facet normal -5.555702e-1 8.314696e-1 0.000000e+0
    outer loop
      vertex 4.720400e-2 -1.139605e-1 3.810000e+1
      vertex 8.722162e-2 -8.722162e-2 3.810000e+1
      vertex 8.722162e-2 -8.722162e-2 0.000000e+0
    endloop
  endfacet
  facet normal 0.000000e+0 0.000000e+0 -1.000000e+0
    outer loop
      vertex 0.000000e+0 0.000000e+0 0.000000e+0
      vertex 8.722162e-2 -8.722162e-2 0.000000e+0
      vertex 4.720400e-2 -1.139605e-1 0.000000e+0
    endloop
  endfacet
  facet normal -8.314696e-1 5.555702e-1 0.000000e+0
    outer loop
      vertex 8.722162e-2 -8.722162e-2 0.000000e+0
      vertex 8.722162e-2 -8.722162e-2 3.810000e+1
      vertex 1.139605e-1 -4.720400e-2 0.000000e+0
    endloop
  endfacet
  facet normal -8.314696e-1 5.555702e-1 0.000000e+0
    outer loop
      vertex 8.722162e-2 -8.722162e-2 3.810000e+1
      vertex 1.139605e-1 -4.720400e-2 3.810000e+1
      vertex 1.139605e-1 -4.720400e-2 0.000000e+0
    endloop
  endfacet
  facet normal 0.000000e+0 0.000000e+0 -1.000000e+0
    outer loop
      vertex 0.000000e+0 0.000000e+0 0.000000e+0
      vertex 1.139605e-1 -4.720400e-2 0.000000e+0
      vertex 8.722162e-2 -8.722162e-2 0.000000e+0
    endloop
  endfacet
  facet normal -9.807853e-1 1.950903e-1 0.000000e+0
    outer loop
      vertex 1.139605e-1 -4.720400e-2 0.000000e+0
      vertex 1.139605e-1 -4.720400e-2 3.810000e+1
      vertex 1.233500e-1 -3.021204e-17 0.000000e+0
    endloop
  endfacet
  facet normal -9.807853e-1 1.950903e-1 0.000000e+0
    outer loop
      vertex 1.139605e-1 -4.720400e-2 3.810000e+1
      vertex 1.233500e-1 -3.021204e-17 3.810000e+1
      vertex 1.233500e-1 -3.021204e-17 0.000000e+0
    endloop
  endfacet
  facet normal 0.000000e+0 0.000000e+0 -1.000000e+0
    outer loop
      vertex 0.000000e+0 0.000000e+0 0.000000e+0
      vertex 1.233500e-1 -3.021204e-17 0.000000e+0
      vertex 1.139605e-1 -4.720400e-2 0.000000e+0
    endloop
  endfacet
  facet normal -9.807853e-1 -1.950903e-1 0.000000e+0
    outer loop
      vertex 1.726900e-1 0.000000e+0 3.810000e+1
      vertex 1.726900e-1 0.000000e+0 3.834670e+1
      vertex 1.595448e-1 6.608560e-2 3.810000e+1
    endloop
  endfacet
  facet normal -9.807853e-1 -1.950903e-1 0.000000e+0
    outer loop
      vertex 1.726900e-1 0.000000e+0 3.834670e+1
      vertex 1.595448e-1 6.608560e-2 3.834670e+1
      vertex 1.595448e-1 6.608560e-2 3.810000e+1
    endloop
  endfacet
  facet normal 0.000000e+0 0.000000e+0 1.000000e+0
    outer loop
      vertex 0.000000e+0 0.000000e+0 3.834670e+1
      vertex 1.726900e-1 0.000000e+0 3.834670e+1
      vertex 1.595448e-1 6.608560e-2 3.834670e+1
    endloop
  endfacet
  facet normal -8.314696e-1 -5.555702e-1 0.000000e+0
    outer loop
      vertex 1.595448e-1 6.608560e-2 3.810000e+1
      vertex 1.595448e-1 6.608560e-2 3.834670e+1
      vertex 1.221103e-1 1.221103e-1 3.810000e+1
    endloop
  endfacet
  facet normal -8.314696e-1 -5.555702e-1 0.000000e+0
    outer loop
      vertex 1.595448e-1 6.608560e-2 3.834670e+1
      vertex 1.221103e-1 1.221103e-1 3.834670e+1
      vertex 1.221103e-1 1.221103e-1 3.810000e+1
    endloop
  endfacet
  facet normal 0.000000e+0 0.000000e+0 1.000000e+0
    outer loop
      vertex 0.000000e+0 0.000000e+0 3.834670e+1
      vertex 1.595448e-1 6.608560e-2 3.834670e+1
      vertex 1.221103e-1 1.221103e-1 3.834670e+1
    endloop
  endfacet
  facet normal -5.555702e-1 -8.314696e-1 0.000000e+0
    outer loop
      vertex 1.221103e-1 1.221103e-1 3.810000e+1
      vertex 1.221103e-1 1.221103e-1 3.834670e+1
      vertex 6.608560e-2 1.595448e-1 3.810000e+1
    endloop
  endfacet
  facet normal -5.555702e-1 -8.314696e-1 0.000000e+0
    outer loop
      vertex 1.221103e-1 1.221103e-1 3.834670e+1
      vertex 6.608560e-2 1.595448e-1 3.834670e+1
      vertex 6.608560e-2 1.595448e-1 3.810000e+1
    endloop
  endfacet
  facet normal 0.000000e+0 0.000000e+0 1.000000e+0
    outer loop
      vertex 0.000000e+0 0.000000e+0 3.834670e+1
      vertex 1.221103e-1 1.221103e-1 3.834670e+1
      vertex 6.608560e-2 1.595448e-1 3.834670e+1
    endloop
  endfacet
  facet normal -1.950903e-1 -9.807853e-1 0.000000e+0
    outer loop
      vertex 6.608560e-2 1.595448e-1 3.810000e+1
      vertex 6.608560e-2 1.595448e-1 3.834670e+1
      vertex 1.057421e-17 1.726900e-1 3.810000e+1
    endloop
  endfacet
  facet normal -1.950903e-1 -9.807853e-1 0.000000e+0
    outer loop
      vertex 6.608560e-2 1.595448e-1 3.834670e+1
      vertex 1.057421e-17 1.726900e-1 3.834670e+1
      vertex 1.057421e-17 1.726900e-1 3.810000e+1
    endloop
  endfacet
  facet normal 0.000000e+0 0.000000e+0 1.000000e+0
    outer loop
      vertex 0.000000e+0 0.000000e+0 3.834670e+1
      vertex 6.608560e-2 1.595448e-1 3.834670e+1
      vertex 1.057421e-17 1.726900e-1 3.834670e+1
    endloop
  endfacet
  facet normal 1.950903e-1 -9.807853e-1 0.000000e+0
    outer loop
      vertex 1.057421e-17 1.726900e-1 3.810000e+1
      vertex 1.057421e-17 1.726900e-1 3.834670e+1
      vertex -6.608560e-2 1.595448e-1 3.810000e+1
    endloop
  endfacet
  facet normal 1.950903e-1 -9.807853e-1 0.000000e+0
    outer loop
      vertex 1.057421e-17 1.726900e-1 3.834670e+1
      vertex -6.608560e-2 1.595448e-1 3.834670e+1
      vertex -6.608560e-2 1.595448e-1 3.810000e+1
    endloop
  endfacet
  facet normal 0.000000e+0 0.000000e+0 1.000000e+0
    outer loop
      vertex 0.000000e+0 0.000000e+0 3.834670e+1
      vertex 1.057421e-17 1.726900e-1 3.834670e+1
      vertex -6.608560e-2 1.595448e-1 3.834670e+1
    endloop
  endfacet
  facet normal 5.555702e-1 -8.314696e-1 0.000000e+0
    outer loop
      vertex -6.608560e-2 1.595448e-1 3.810000e+1
      vertex -6.608560e-2 1.595448e-1 3.834670e+1
      vertex -1.221103e-1 1.221103e-1 3.810000e+1
    endloop
  endfacet
  facet normal 5.555702e-1 -8.314696e-1 0.000000e+0
    outer loop
      vertex -6.608560e-2 1.595448e-1 3.834670e+1
      vertex -1.221103e-1 1.221103e-1 3.834670e+1
      vertex -1.221103e-1 1.221103e-1 3.810000e+1
    endloop
  endfacet
  facet normal 0.000000e+0 0.000000e+0 1.000000e+0
    outer loop
      vertex 0.000000e+0 0.000000e+0 3.834670e+1
      vertex -6.608560e-2 1.595448e-1 3.834670e+1
      vertex -1.221103e-1 1.221103e-1 3.834670e+1
    endloop
  endfacet
  facet normal 8.314696e-1 -5.555702e-1 0.000000e+0
    outer loop
      vertex -1.221103e-1 1.221103e-1 3.810000e+1
      vertex -1.221103e-1 1.221103e-1 3.834670e+1
      vertex -1.595448e-1 6.608560e-2 3.810000e+1
    endloop
  endfacet
  facet normal 8.314696e-1 -5.555702e-1 0.000000e+0
    outer loop
      vertex -1.221103e-1 1.221103e-1 3.834670e+1
      vertex -1.595448e-1 6.608560e-2 3.834670e+1
      vertex -1.595448e-1 6.608560e-2 3.810000e+1
    endloop
  endfacet
  facet normal 0.000000e+0 0.000000e+0 1.000000e+0
    outer loop
      vertex 0.000000e+0 0.000000e+0 3.834670e+1
      vertex -1.221103e-1 1.221103e-1 3.834670e+1
      vertex -1.595448e-1 6.608560e-2 3.834670e+1
    endloop
  endfacet
  facet normal 9.807853e-1 -1.950903e-1 0.000000e+0
    outer loop
      vertex -1.595448e-1 6.608560e-2 3.810000e+1
      vertex -1.595448e-1 6.608560e-2 3.834670e+1
      vertex -1.726900e-1 2.114843e-17 3.810000e+1
    endloop
  endfacet
  facet normal 9.807853e-1 -1.950903e-1 0.000000e+0
    outer loop
      vertex -1.595448e-1 6.608560e-2 3.834670e+1
      vertex -1.726900e-1 2.114843e-17 3.834670e+1
      vertex -1.726900e-1 2.114843e-17 3.810000e+1
    endloop
  endfacet
  facet normal 0.000000e+0 0.000000e+0 1.000000e+0
    outer loop
      vertex 0.000000e+0 0.000000e+0 3.834670e+1
      vertex -1.595448e-1 6.608560e-2 3.834670e+1
      vertex -1.726900e-1 2.114843e-17 3.834670e+1
    endloop
  endfacet
  facet normal 9.807853e-1 1.950903e-1 0.000000e+0
    outer loop
      vertex -1.726900e-1 2.114843e-17 3.810000e+1
      vertex -1.726900e-1 2.114843e-17 3.834670e+1
      vertex -1.595448e-1 -6.608560e-2 3.810000e+1
    endloop
  endfacet
  facet normal 9.807853e-1 1.950903e-1 0.000000e+0
    outer loop
      vertex -1.726900e-1 2.114843e-17 3.834670e+1
      vertex -1.595448e-1 -6.608560e-2 3.834670e+1
      vertex -1.595448e-1 -6.608560e-2 3.810000e+1
    endloop
  endfacet
  facet normal 0.000000e+0 0.000000e+0 1.000000e+0
    outer loop
      vertex 0.000000e+0 0.000000e+0 3.834670e+1
      vertex -1.726900e-1 2.114843e-17 3.834670e+1
      vertex -1.595448e-1 -6.608560e-2 3.834670e+1
    endloop
  endfacet
  facet normal 8.314696e-1 5.555702e-1 0.000000e+0
    outer loop
      vertex -1.595448e-1 -6.608560e-2 3.810000e+1
      vertex -1.595448e-1 -6.608560e-2 3.834670e+1
      vertex -1.221103e-1 -1.221103e-1 3.810000e+1
    endloop
  endfacet
  facet normal 8.314696e-1 5.555702e-1 0.000000e+0
    outer loop
      vertex -1.595448e-1 -6.608560e-2 3.834670e+1
      vertex -1.221103e-1 -1.221103e-1 3.834670e+1
      vertex -1.221103e-1 -1.221103e-1 3.810000e+1
    endloop
  endfacet
  facet normal 0.000000e+0 0.000000e+0 1.000000e+0
    outer loop
      vertex 0.000000e+0 0.000000e+0 3.834670e+1
      vertex -1.595448e-1 -6.608560e-2 3.834670e+1
      vertex -1.221103e-1 -1.221103e-1 3.834670e+1
    endloop
  endfacet
  facet normal 5.555702e-1 8.314696e-1 0.000000e+0
    outer loop
      vertex -1.221103e-1 -1.221103e-1 3.810000e+1
      vertex -1.221103e-1 -1.221103e-1 3.834670e+1
      vertex -6.608560e-2 -1.595448e-1 3.810000e+1
    endloop
  endfacet
  facet normal 5.555702e-1 8.314696e-1 0.000000e+0
    outer loop
      vertex -1.221103e-1 -1.221103e-1 3.834670e+1
      vertex -6.608560e-2 -1.595448e-1 3.834670e+1
      vertex -6.608560e-2 -1.595448e-1 3.810000e+1
    endloop
  endfacet
  facet normal 0.000000e+0 0.000000e+0 1.000000e+0
    outer loop
      vertex 0.000000e+0 0.000000e+0 3.834670e+1
      vertex -1.221103e-1 -1.221103e-1 3.834670e+1
      vertex -6.608560e-2 -1.595448e-1 3.834670e+1
    endloop
  endfacet
  facet normal 1.950903e-1 9.807853e-1 0.000000e+0
    outer loop
      vertex -6.608560e-2 -1.595448e-1 3.810000e+1
      vertex -6.608560e-2 -1.595448e-1 3.834670e+1
      vertex -3.172264e-17 -1.726900e-1 3.810000e+1
    endloop
  endfacet
  facet normal 1.950903e-1 9.807853e-1 0.000000e+0
    outer loop
      vertex -6.608560e-2 -1.595448e-1 3.834670e+1
      vertex -3.172264e-17 -1.726900e-1 3.834670e+1
      vertex -3.172264e-17 -1.726900e-1 3.810000e+1
    endloop
  endfacet
  facet normal 0.000000e+0 0.000000e+0 1.000000e+0
    outer loop
      vertex 0.000000e+0 0.000000e+0 3.834670e+1
      vertex -6.608560e-2 -1.595448e-1 3.834670e+1
      vertex -3.172264e-17 -1.726900e-1 3.834670e+1
    endloop
  endfacet
  facet normal -1.950903e-1 9.807853e-1 0.000000e+0
    outer loop
      vertex -3.172264e-17 -1.726900e-1 3.810000e+1
      vertex -3.172264e-17 -1.726900e-1 3.834670e+1
      vertex 6.608560e-2 -1.595448e-1 3.810000e+1
    endloop
  endfacet
  facet normal -1.950903e-1 9.807853e-1 0.000000e+0
    outer loop
      vertex -3.172264e-17 -1.726900e-1 3.834670e+1
      vertex 6.608560e-2 -1.595448e-1 3.834670e+1
      vertex 6.608560e-2 -1.595448e-1 3.810000e+1
    endloop
  endfacet
  facet normal 0.000000e+0 0.000000e+0 1.000000e+0
    outer loop
      vertex 0.000000e+0 0.000000e+0 3.834670e+1
      vertex -3.172264e-17 -1.726900e-1 3.834670e+1
      vertex 6.608560e-2 -1.595448e-1 3.834670e+1
    endloop
  endfacet
  facet normal -5.555702e-1 8.314696e-1 0.000000e+0
    outer loop
      vertex 6.608560e-2 -1.595448e-1 3.810000e+1
      vertex 6.608560e-2 -1.595448e-1 3.834670e+1
      vertex 1.221103e-1 -1.221103e-1 3.810000e+1
    endloop
  endfacet
  facet normal -5.555702e-1 8.314696e-1 0.000000e+0
    outer loop
      vertex 6.608560e-2 -1.595448e-1 3.834670e+1
      vertex 1.221103e-1 -1.221103e-1 3.834670e+1
      vertex 1.221103e-1 -1.221103e-1 3.810000e+1
    endloop
  endfacet
  facet normal 0.000000e+0 0.000000e+0 1.000000e+0
    outer loop
      vertex 0.000000e+0 0.000000e+0 3.834670e+1
      vertex 6.608560e-2 -1.595448e-1 3.834670e+1
      vertex 1.221103e-1 -1.221103e-1 3.834670e+1
    endloop
  endfacet
  facet normal -8.314696e-1 5.555702e-1 0.000000e+0
    outer loop
      vertex 1.221103e-1 -1.221103e-1 3.810000e+1
      vertex 1.221103e-1 -1.221103e-1 3.834670e+1
      vertex 1.595448e-1 -6.608560e-2 3.810000e+1
    endloop
  endfacet
  facet normal -8.314696e-1 5.555702e-1 0.000000e+0
    outer loop
      vertex 1.221103e-1 -1.221103e-1 3.834670e+1
      vertex 1.595448e-1 -6.608560e-2 3.834670e+1
      vertex 1.595448e-1 -6.608560e-2 3.810000e+1
    endloop
  endfacet
  facet normal 0.000000e+0 0.000000e+0 1.000000e+0
    outer loop
      vertex 0.000000e+0 0.000000e+0 3.834670e+1
      vertex 1.221103e-1 -1.221103e-1 3.834670e+1
      vertex 1.595448e-1 -6.608560e-2 3.834670e+1
    endloop
  endfacet
  facet normal -9.807853e-1 1.950903e-1 0.000000e+0
    outer loop
      vertex 1.595448e-1 -6.608560e-2 3.810000e+1
      vertex 1.595448e-1 -6.608560e-2 3.834670e+1
      vertex 1.726900e-1 -4.229685e-17 3.810000e+1
    endloop
  endfacet
  facet normal -9.807853e-1 1.950903e-1 0.000000e+0
    outer loop
      vertex 1.595448e-1 -6.608560e-2 3.834670e+1
      vertex 1.726900e-1 -4.229685e-17 3.834670e+1
      vertex 1.726900e-1 -4.229685e-17 3.810000e+1
    endloop
  endfacet
  facet normal 0.000000e+0 0.000000e+0 1.000000e+0
    outer loop
      vertex 0.000000e+0 0.000000e+0 3.834670e+1
      vertex 1.595448e-1 -6.608560e-2 3.834670e+1
      vertex 1.726900e-1 -4.229685e-17 3.834670e+1
    endloop
  endfacet
endsolid nas1352-4-24
