solid nas1352-6-8
  facet normal -9.807853e-1 -1.950903e-1 0.000000e+0
    outer loop
      vertex 1.857000e-1 0.000000e+0 0.000000e+0
      vertex 1.857000e-1 0.000000e+0 1.270000e+1
      vertex 1.715644e-1 7.106431e-2 0.000000e+0
    endloop
  endfacet
  facet normal -9.807853e-1 -1.950903e-1 0.000000e+0
    outer loop
      vertex 1.857000e-1 0.000000e+0 1.270000e+1
      vertex 1.715644e-1 7.106431e-2 1.270000e+1
      vertex 1.715644e-1 7.106431e-2 0.000000e+0
    endloop
  endfacet
  facet normal -8.314696e-1 -5.555702e-1 0.000000e+0
    outer loop
      vertex 1.715644e-1 7.106431e-2 0.000000e+0
      vertex 1.715644e-1 7.106431e-2 1.270000e+1
      vertex 1.313097e-1 1.313097e-1 0.000000e+0
    endloop
  endfacet
  facet normal -8.314696e-1 -5.555702e-1 0.000000e+0
    outer loop
      vertex 1.715644e-1 7.106431e-2 1.270000e+1
      vertex 1.313097e-1 1.313097e-1 1.270000e+1
      vertex 1.313097e-1 1.313097e-1 0.000000e+0
    endloop
  endfacet
  facet normal -5.555702e-1 -8.314696e-1 0.000000e+0
    outer loop
      vertex 1.313097e-1 1.313097e-1 0.000000e+0
      vertex 1.313097e-1 1.313097e-1 1.270000e+1
      vertex 7.106431e-2 1.715644e-1 0.000000e+0
    endloop
  endfacet
  facet normal -5.555702e-1 -8.314696e-1 0.000000e+0
    outer loop
      vertex 1.313097e-1 1.313097e-1 1.270000e+1
      vertex 7.106431e-2 1.715644e-1 1.270000e+1
      vertex 7.106431e-2 1.715644e-1 0.000000e+0
    endloop
  endfacet
  facet normal -1.950903e-1 -9.807853e-1 0.000000e+0
    outer loop
      vertex 7.106431e-2 1.715644e-1 0.000000e+0
      vertex 7.106431e-2 1.715644e-1 1.270000e+1
      vertex 0.000000e+0 1.857000e-1 0.000000e+0
    endloop
  endfacet
  facet normal -1.950903e-1 -9.807853e-1 0.000000e+0
    outer loop
      vertex 7.106431e-2 1.715644e-1 1.270000e+1
      vertex 0.000000e+0 1.857000e-1 1.270000e+1
      vertex 0.000000e+0 1.857000e-1 0.000000e+0
    endloop
  endfacet
  facet normal 1.950903e-1 -9.807853e-1 0.000000e+0
    outer loop
      vertex 0.000000e+0 1.857000e-1 0.000000e+0
      vertex 0.000000e+0 1.857000e-1 1.270000e+1
      vertex -7.106431e-2 1.715644e-1 0.000000e+0
    endloop
  endfacet
  facet normal 1.950903e-1 -9.807853e-1 0.000000e+0
    outer loop
      vertex 0.000000e+0 1.857000e-1 1.270000e+1
      vertex -7.106431e-2 1.715644e-1 1.270000e+1
      vertex -7.106431e-2 1.715644e-1 0.000000e+0
    endloop
  endfacet
  facet normal 5.555702e-1 -8.314696e-1 0.000000e+0
    outer loop
      vertex -7.106431e-2 1.715644e-1 0.000000e+0
      vertex -7.106431e-2 1.715644e-1 1.270000e+1
      vertex -1.313097e-1 1.313097e-1 0.000000e+0
    endloop
  endfacet
  facet normal 5.555702e-1 -8.314696e-1 0.000000e+0
    outer loop
      vertex -7.106431e-2 1.715644e-1 1.270000e+1
      vertex -1.313097e-1 1.313097e-1 1.270000e+1
      vertex -1.313097e-1 1.313097e-1 0.000000e+0
    endloop
  endfacet
  facet normal 8.314696e-1 -5.555702e-1 0.000000e+0
    outer loop
      vertex -1.313097e-1 1.313097e-1 0.000000e+0
      vertex -1.313097e-1 1.313097e-1 1.270000e+1
      vertex -1.715644e-1 7.106431e-2 0.000000e+0
    endloop
  endfacet
  facet normal 8.314696e-1 -5.555702e-1 0.000000e+0
    outer loop
      vertex -1.313097e-1 1.313097e-1 1.270000e+1
      vertex -1.715644e-1 7.106431e-2 1.270000e+1
      vertex -1.715644e-1 7.106431e-2 0.000000e+0
    endloop
  endfacet
  facet normal 9.807853e-1 -1.950903e-1 0.000000e+0
    outer loop
      vertex -1.715644e-1 7.106431e-2 0.000000e+0
      vertex -1.715644e-1 7.106431e-2 1.270000e+1
      vertex -1.857000e-1 0.000000e+0 0.000000e+0
    endloop
  endfacet
  facet normal 9.807853e-1 -1.950903e-1 0.000000e+0
    outer loop
      vertex -1.715644e-1 7.106431e-2 1.270000e+1
      vertex -1.857000e-1 0.000000e+0 1.270000e+1
      vertex -1.857000e-1 0.000000e+0 0.000000e+0
    endloop
  endfacet
  facet normal 9.807853e-1 1.950903e-1 0.000000e+0
    outer loop
      vertex -1.857000e-1 0.000000e+0 0.000000e+0
      vertex -1.857000e-1 0.000000e+0 1.270000e+1
      vertex -1.715644e-1 -7.106431e-2 0.000000e+0
    endloop
  endfacet
  facet normal 9.807853e-1 1.950903e-1 0.000000e+0
    outer loop
      vertex -1.857000e-1 0.000000e+0 1.270000e+1
      vertex -1.715644e-1 -7.106431e-2 1.270000e+1
      vertex -1.715644e-1 -7.106431e-2 0.000000e+0
    endloop
  endfacet
  facet normal 8.314696e-1 5.555702e-1 0.000000e+0
    outer loop
      vertex -1.715644e-1 -7.106431e-2 0.000000e+0
      vertex -1.715644e-1 -7.106431e-2 1.270000e+1
      vertex -1.313097e-1 -1.313097e-1 0.000000e+0
    endloop
  endfacet
  facet normal 8.314696e-1 5.555702e-1 0.000000e+0
    outer loop
      vertex -1.715644e-1 -7.106431e-2 1.270000e+1
      vertex -1.313097e-1 -1.313097e-1 1.270000e+1
      vertex -1.313097e-1 -1.313097e-1 0.000000e+0
    endloop
  endfacet
  facet normal 5.555702e-1 8.314696e-1 0.000000e+0
    outer loop
      vertex -1.313097e-1 -1.313097e-1 0.000000e+0
      vertex -1.313097e-1 -1.313097e-1 1.270000e+1
      vertex -7.106431e-2 -1.715644e-1 0.000000e+0
    endloop
  endfacet
  facet normal 5.555702e-1 8.314696e-1 0.000000e+0
    outer loop
      vertex -1.313097e-1 -1.313097e-1 1.270000e+1
      vertex -7.106431e-2 -1.715644e-1 1.270000e+1
      vertex -7.106431e-2 -1.715644e-1 0.000000e+0
    endloop
  endfacet
  facet normal 1.950903e-1 9.807853e-1 0.000000e+0
    outer loop
      vertex -7.106431e-2 -1.715644e-1 0.000000e+0
      vertex -7.106431e-2 -1.715644e-1 1.270000e+1
      vertex 0.000000e+0 -1.857000e-1 0.000000e+0
    endloop
  endfacet
  facet normal 1.950903e-1 9.807853e-1 0.000000e+0
    outer loop
      vertex -7.106431e-2 -1.715644e-1 1.270000e+1
      vertex 0.000000e+0 -1.857000e-1 1.270000e+1
      vertex 0.000000e+0 -1.857000e-1 0.000000e+0
    endloop
  endfacet
  facet normal -1.950903e-1 9.807853e-1 0.000000e+0
    outer loop
      vertex 0.000000e+0 -1.857000e-1 0.000000e+0
      vertex 0.000000e+0 -1.857000e-1 1.270000e+1
      vertex 7.106431e-2 -1.715644e-1 0.000000e+0
    endloop
  endfacet
  facet normal -1.950903e-1 9.807853e-1 0.000000e+0
    outer loop
      vertex 0.000000e+0 -1.857000e-1 1.270000e+1
      vertex 7.106431e-2 -1.715644e-1 1.270000e+1
      vertex 7.106431e-2 -1.715644e-1 0.000000e+0
    endloop
  endfacet
  facet normal -5.555702e-1 8.314696e-1 0.000000e+0
    outer loop
      vertex 7.106431e-2 -1.715644e-1 0.000000e+0
      vertex 7.106431e-2 -1.715644e-1 1.270000e+1
      vertex 1.313097e-1 -1.313097e-1 0.000000e+0
    endloop
  endfacet
  facet normal -5.555702e-1 8.314696e-1 0.000000e+0
    outer loop
      vertex 7.106431e-2 -1.715644e-1 1.270000e+1
      vertex 1.313097e-1 -1.313097e-1 1.270000e+1
      vertex 1.313097e-1 -1.313097e-1 0.000000e+0
    endloop
  endfacet
  facet normal -8.314696e-1 5.555702e-1 0.000000e+0
    outer loop
      vertex 1.313097e-1 -1.313097e-1 0.000000e+0
      vertex 1.313097e-1 -1.313097e-1 1.270000e+1
      vertex 1.715644e-1 -7.106431e-2 0.000000e+0
    endloop
  endfacet
  facet normal -8.314696e-1 5.555702e-1 0.000000e+0
    outer loop
      vertex 1.313097e-1 -1.313097e-1 1.270000e+1
      vertex 1.715644e-1 -7.106431e-2 1.270000e+1
      vertex 1.715644e-1 -7.106431e-2 0.000000e+0
    endloop
  endfacet
  facet normal -9.807853e-1 1.950903e-1 0.000000e+0
    outer loop
      vertex 1.715644e-1 -7.106431e-2 0.000000e+0
      vertex 1.715644e-1 -7.106431e-2 1.270000e+1
      vertex 1.857000e-1 0.000000e+0 0.000000e+0
    endloop
  endfacet
  facet normal -9.807853e-1 1.950903e-1 0.000000e+0
    outer loop
      vertex 1.715644e-1 -7.106431e-2 1.270000e+1
      vertex 1.857000e-1 0.000000e+0 1.270000e+1
      vertex 1.857000e-1 0.000000e+0 0.000000e+0
    endloop
  endfacet
  facet normal 0.000000e+0 0.000000e+0 -1.000000e+0
    outer loop
      vertex 0.000000e+0 0.000000e+0 0.000000e+0
      vertex 1.715644e-1 7.106431e-2 0.000000e+0
      vertex 1.857000e-1 0.000000e+0 0.000000e+0
    endloop
  endfacet
  facet normal 0.000000e+0 0.000000e+0 -1.000000e+0
    outer loop
      vertex 0.000000e+0 0.000000e+0 0.000000e+0
      vertex 1.313097e-1 1.313097e-1 0.000000e+0
      vertex 1.715644e-1 7.106431e-2 0.000000e+0
    endloop
  endfacet
  facet normal 0.000000e+0 0.000000e+0 -1.000000e+0
    outer loop
      vertex 0.000000e+0 0.000000e+0 0.000000e+0
      vertex 7.106431e-2 1.715644e-1 0.000000e+0
      vertex 1.313097e-1 1.313097e-1 0.000000e+0
    endloop
  endfacet
  facet normal 0.000000e+0 0.000000e+0 -1.000000e+0
    outer loop
      vertex 0.000000e+0 0.000000e+0 0.000000e+0
      vertex 0.000000e+0 1.857000e-1 0.000000e+0
      vertex 7.106431e-2 1.715644e-1 0.000000e+0
    endloop
  endfacet
  facet normal 0.000000e+0 0.000000e+0 -1.000000e+0
    outer loop
      vertex 0.000000e+0 0.000000e+0 0.000000e+0
      vertex -7.106431e-2 1.715644e-1 0.000000e+0
      vertex 0.000000e+0 1.857000e-1 0.000000e+0
    endloop
  endfacet
  facet normal 0.000000e+0 0.000000e+0 -1.000000e+0
    outer loop
      vertex 0.000000e+0 0.000000e+0 0.000000e+0
      vertex -1.313097e-1 1.313097e-1 0.000000e+0
      vertex -7.106431e-2 1.715644e-1 0.000000e+0
    endloop
  endfacet
  facet normal 0.000000e+0 0.000000e+0 -1.000000e+0
    outer loop
      vertex 0.000000e+0 0.000000e+0 0.000000e+0
      vertex -1.715644e-1 7.106431e-2 0.000000e+0
      vertex -1.313097e-1 1.313097e-1 0.000000e+0
    endloop
  endfacet
  facet normal 0.000000e+0 0.000000e+0 -1.000000e+0
    outer loop
      vertex 0.000000e+0 0.000000e+0 0.000000e+0
      vertex -1.857000e-1 0.000000e+0 0.000000e+0
      vertex -1.715644e-1 7.106431e-2 0.000000e+0
    endloop
  endfacet
  facet normal 0.000000e+0 0.000000e+0 -1.000000e+0
    outer loop
      vertex 0.000000e+0 0.000000e+0 0.000000e+0
      vertex -1.715644e-1 -7.106431e-2 0.000000e+0
      vertex -1.857000e-1 0.000000e+0 0.000000e+0
    endloop
  endfacet
  facet normal 0.000000e+0 0.000000e+0 -1.000000e+0
    outer loop
      vertex 0.000000e+0 0.000000e+0 0.000000e+0
      vertex -1.313097e-1 -1.313097e-1 0.000000e+0
      vertex -1.715644e-1 -7.106431e-2 0.000000e+0
    endloop
  endfacet
  facet normal 0.000000e+0 0.000000e+0 -1.000000e+0
    outer loop
      vertex 0.000000e+0 0.000000e+0 0.000000e+0
      vertex -7.106431e-2 -1.715644e-1 0.000000e+0
      vertex -1.313097e-1 -1.313097e-1 0.000000e+0
    endloop
  endfacet
  facet normal 0.000000e+0 0.000000e+0 -1.000000e+0
    outer loop
      vertex 0.000000e+0 0.000000e+0 0.000000e+0
      vertex 0.000000e+0 -1.857000e-1 0.000000e+0
      vertex -7.106431e-2 -1.715644e-1 0.000000e+0
    endloop
  endfacet
  facet normal 0.000000e+0 0.000000e+0 -1.000000e+0
    outer loop
      vertex 0.000000e+0 0.000000e+0 0.000000e+0
      vertex 7.106431e-2 -1.715644e-1 0.000000e+0
      vertex 0.000000e+0 -1.857000e-1 0.000000e+0
    endloop
  endfacet
  facet normal 0.000000e+0 0.000000e+0 -1.000000e+0
    outer loop
      vertex 0.000000e+0 0.000000e+0 0.000000e+0
      vertex 1.313097e-1 -1.313097e-1 0.000000e+0
      vertex 7.106431e-2 -1.715644e-1 0.000000e+0
    endloop
  endfacet
  facet normal 0.000000e+0 0.000000e+0 -1.000000e+0
    outer loop
      vertex 0.000000e+0 0.000000e+0 0.000000e+0
      vertex 1.715644e-1 -7.106431e-2 0.000000e+0
      vertex 1.313097e-1 -1.313097e-1 0.000000e+0
    endloop
  endfacet
  facet normal 0.000000e+0 0.000000e+0 -1.000000e+0
    outer loop
      vertex 0.000000e+0 0.000000e+0 0.000000e+0
      vertex 1.857000e-1 0.000000e+0 0.000000e+0
      vertex 1.715644e-1 -7.106431e-2 0.000000e+0
    endloop
  endfacet
  facet normal 0.000000e+0 0.000000e+0 -1.000000e+0
    outer loop
      vertex 2.599800e-1 0.000000e+0 1.270000e+1
      vertex 1.857000e-1 0.000000e+0 1.270000e+1
      vertex 2.401902e-1 9.949004e-2 1.270000e+1
    endloop
  endfacet
  facet normal 0.000000e+0 0.000000e+0 -1.000000e+0
    outer loop
      vertex 2.401902e-1 9.949004e-2 1.270000e+1
      vertex 1.857000e-1 0.000000e+0 1.270000e+1
      vertex 1.715644e-1 7.106431e-2 1.270000e+1
    endloop
  endfacet
  facet normal 0.000000e+0 0.000000e+0 -1.000000e+0
    outer loop
      vertex 2.401902e-1 9.949004e-2 1.270000e+1
      vertex 1.715644e-1 7.106431e-2 1.270000e+1
      vertex 1.838336e-1 1.838336e-1 1.270000e+1
    endloop
  endfacet
  facet normal 0.000000e+0 0.000000e+0 -1.000000e+0
    outer loop
      vertex 1.838336e-1 1.838336e-1 1.270000e+1
      vertex 1.715644e-1 7.106431e-2 1.270000e+1
      vertex 1.313097e-1 1.313097e-1 1.270000e+1
    endloop
  endfacet
  facet normal 0.000000e+0 0.000000e+0 -1.000000e+0
    outer loop
      vertex 1.838336e-1 1.838336e-1 1.270000e+1
      vertex 1.313097e-1 1.313097e-1 1.270000e+1
      vertex 9.949004e-2 2.401902e-1 1.270000e+1
    endloop
  endfacet
  facet normal 0.000000e+0 0.000000e+0 -1.000000e+0
    outer loop
      vertex 9.949004e-2 2.401902e-1 1.270000e+1
      vertex 1.313097e-1 1.313097e-1 1.270000e+1
      vertex 7.106431e-2 1.715644e-1 1.270000e+1
    endloop
  endfacet
  facet normal 0.000000e+0 0.000000e+0 -1.000000e+0
    outer loop
      vertex 9.949004e-2 2.401902e-1 1.270000e+1
      vertex 7.106431e-2 1.715644e-1 1.270000e+1
      vertex 0.000000e+0 2.599800e-1 1.270000e+1
    endloop
  endfacet
  facet normal 0.000000e+0 0.000000e+0 -1.000000e+0
    outer loop
      vertex 0.000000e+0 2.599800e-1 1.270000e+1
      vertex 7.106431e-2 1.715644e-1 1.270000e+1
      vertex 0.000000e+0 1.857000e-1 1.270000e+1
    endloop
  endfacet
  facet normal 0.000000e+0 0.000000e+0 -1.000000e+0
    outer loop
      vertex 0.000000e+0 2.599800e-1 1.270000e+1
      vertex 0.000000e+0 1.857000e-1 1.270000e+1
      vertex -9.949004e-2 2.401902e-1 1.270000e+1
    endloop
  endfacet
  facet normal 0.000000e+0 0.000000e+0 -1.000000e+0
    outer loop
      vertex -9.949004e-2 2.401902e-1 1.270000e+1
      vertex 0.000000e+0 1.857000e-1 1.270000e+1
      vertex -7.106431e-2 1.715644e-1 1.270000e+1
    endloop
  endfacet
  facet normal 0.000000e+0 0.000000e+0 -1.000000e+0
    outer loop
      vertex -9.949004e-2 2.401902e-1 1.270000e+1
      vertex -7.106431e-2 1.715644e-1 1.270000e+1
      vertex -1.838336e-1 1.838336e-1 1.270000e+1
    endloop
  endfacet
  facet normal 0.000000e+0 0.000000e+0 -1.000000e+0
    outer loop
      vertex -1.838336e-1 1.838336e-1 1.270000e+1
      vertex -7.106431e-2 1.715644e-1 1.270000e+1
      vertex -1.313097e-1 1.313097e-1 1.270000e+1
    endloop
  endfacet
  facet normal 0.000000e+0 0.000000e+0 -1.000000e+0
    outer loop
      vertex -1.838336e-1 1.838336e-1 1.270000e+1
      vertex -1.313097e-1 1.313097e-1 1.270000e+1
      vertex -2.401902e-1 9.949004e-2 1.270000e+1
    endloop
  endfacet
  facet normal 0.000000e+0 0.000000e+0 -1.000000e+0
    outer loop
      vertex -2.401902e-1 9.949004e-2 1.270000e+1
      vertex -1.313097e-1 1.313097e-1 1.270000e+1
      vertex -1.715644e-1 7.106431e-2 1.270000e+1
    endloop
  endfacet
  facet normal 0.000000e+0 0.000000e+0 -1.000000e+0
    outer loop
      vertex -2.401902e-1 9.949004e-2 1.270000e+1
      vertex -1.715644e-1 7.106431e-2 1.270000e+1
      vertex -2.599800e-1 0.000000e+0 1.270000e+1
    endloop
  endfacet
  facet normal 0.000000e+0 0.000000e+0 -1.000000e+0
    outer loop
      vertex -2.599800e-1 0.000000e+0 1.270000e+1
      vertex -1.715644e-1 7.106431e-2 1.270000e+1
      vertex -1.857000e-1 0.000000e+0 1.270000e+1
    endloop
  endfacet
  facet normal 0.000000e+0 0.000000e+0 -1.000000e+0
    outer loop
      vertex -2.599800e-1 0.000000e+0 1.270000e+1
      vertex -1.857000e-1 0.000000e+0 1.270000e+1
      vertex -2.401902e-1 -9.949004e-2 1.270000e+1
    endloop
  endfacet
  facet normal 0.000000e+0 0.000000e+0 -1.000000e+0
    outer loop
      vertex -2.401902e-1 -9.949004e-2 1.270000e+1
      vertex -1.857000e-1 0.000000e+0 1.270000e+1
      vertex -1.715644e-1 -7.106431e-2 1.270000e+1
    endloop
  endfacet
  facet normal 0.000000e+0 0.000000e+0 -1.000000e+0
    outer loop
      vertex -2.401902e-1 -9.949004e-2 1.270000e+1
      vertex -1.715644e-1 -7.106431e-2 1.270000e+1
      vertex -1.838336e-1 -1.838336e-1 1.270000e+1
    endloop
  endfacet
  facet normal 0.000000e+0 0.000000e+0 -1.000000e+0
    outer loop
      vertex -1.838336e-1 -1.838336e-1 1.270000e+1
      vertex -1.715644e-1 -7.106431e-2 1.270000e+1
      vertex -1.313097e-1 -1.313097e-1 1.270000e+1
    endloop
  endfacet
  facet normal 0.000000e+0 0.000000e+0 -1.000000e+0
    outer loop
      vertex -1.838336e-1 -1.838336e-1 1.270000e+1
      vertex -1.313097e-1 -1.313097e-1 1.270000e+1
      vertex -9.949004e-2 -2.401902e-1 1.270000e+1
    endloop
  endfacet
  facet normal 0.000000e+0 0.000000e+0 -1.000000e+0
    outer loop
      vertex -9.949004e-2 -2.401902e-1 1.270000e+1
      vertex -1.313097e-1 -1.313097e-1 1.270000e+1
      vertex -7.106431e-2 -1.715644e-1 1.270000e+1
    endloop
  endfacet
  facet normal 0.000000e+0 0.000000e+0 -1.000000e+0
    outer loop
      vertex -9.949004e-2 -2.401902e-1 1.270000e+1
      vertex -7.106431e-2 -1.715644e-1 1.270000e+1
      vertex 0.000000e+0 -2.599800e-1 1.270000e+1
    endloop
  endfacet
  facet normal 0.000000e+0 0.000000e+0 -1.000000e+0
    outer loop
      vertex 0.000000e+0 -2.599800e-1 1.270000e+1
      vertex -7.106431e-2 -1.715644e-1 1.270000e+1
      vertex 0.000000e+0 -1.857000e-1 1.270000e+1
    endloop
  endfacet
  facet normal 0.000000e+0 0.000000e+0 -1.000000e+0
    outer loop
      vertex 0.000000e+0 -2.599800e-1 1.270000e+1
      vertex 0.000000e+0 -1.857000e-1 1.270000e+1
      vertex 9.949004e-2 -2.401902e-1 1.270000e+1
    endloop
  endfacet
  facet normal 0.000000e+0 0.000000e+0 -1.000000e+0
    outer loop
      vertex 9.949004e-2 -2.401902e-1 1.270000e+1
      vertex 0.000000e+0 -1.857000e-1 1.270000e+1
      vertex 7.106431e-2 -1.715644e-1 1.270000e+1
    endloop
  endfacet
  facet normal 0.000000e+0 0.000000e+0 -1.000000e+0
    outer loop
      vertex 9.949004e-2 -2.401902e-1 1.270000e+1
      vertex 7.106431e-2 -1.715644e-1 1.270000e+1
      vertex 1.838336e-1 -1.838336e-1 1.270000e+1
    endloop
  endfacet
  facet normal 0.000000e+0 0.000000e+0 -1.000000e+0
    outer loop
      vertex 1.838336e-1 -1.838336e-1 1.270000e+1
      vertex 7.106431e-2 -1.715644e-1 1.270000e+1
      vertex 1.313097e-1 -1.313097e-1 1.270000e+1
    endloop
  endfacet
  facet normal 0.000000e+0 0.000000e+0 -1.000000e+0
    outer loop
      vertex 1.838336e-1 -1.838336e-1 1.270000e+1
      vertex 1.313097e-1 -1.313097e-1 1.270000e+1
      vertex 2.401902e-1 -9.949004e-2 1.270000e+1
    endloop
  endfacet
  facet normal 0.000000e+0 0.000000e+0 -1.000000e+0
    outer loop
      vertex 2.401902e-1 -9.949004e-2 1.270000e+1
      vertex 1.313097e-1 -1.313097e-1 1.270000e+1
      vertex 1.715644e-1 -7.106431e-2 1.270000e+1
    endloop
  endfacet
  facet normal 0.000000e+0 0.000000e+0 -1.000000e+0
    outer loop
      vertex 2.401902e-1 -9.949004e-2 1.270000e+1
      vertex 1.715644e-1 -7.106431e-2 1.270000e+1
      vertex 2.599800e-1 0.000000e+0 1.270000e+1
    endloop
  endfacet
  facet normal 0.000000e+0 0.000000e+0 -1.000000e+0
    outer loop
      vertex 2.599800e-1 0.000000e+0 1.270000e+1
      vertex 1.715644e-1 -7.106431e-2 1.270000e+1
      vertex 1.857000e-1 0.000000e+0 1.270000e+1
    endloop
  endfacet
  facet normal -9.807853e-1 -1.950903e-1 0.000000e+0
    outer loop
      vertex 2.599800e-1 0.000000e+0 1.270000e+1
      vertex 2.599800e-1 0.000000e+0 1.307140e+1
      vertex 2.401902e-1 9.949004e-2 1.270000e+1
    endloop
  endfacet
  facet normal -9.807853e-1 -1.950903e-1 0.000000e+0
    outer loop
      vertex 2.599800e-1 0.000000e+0 1.307140e+1
      vertex 2.401902e-1 9.949004e-2 1.307140e+1
      vertex 2.401902e-1 9.949004e-2 1.270000e+1
    endloop
  endfacet
  facet normal -8.314696e-1 -5.555702e-1 0.000000e+0
    outer loop
      vertex 2.401902e-1 9.949004e-2 1.270000e+1
      vertex 2.401902e-1 9.949004e-2 1.307140e+1
      vertex 1.838336e-1 1.838336e-1 1.270000e+1
    endloop
  endfacet
  facet normal -8.314696e-1 -5.555702e-1 0.000000e+0
    outer loop
      vertex 2.401902e-1 9.949004e-2 1.307140e+1
      vertex 1.838336e-1 1.838336e-1 1.307140e+1
      vertex 1.838336e-1 1.838336e-1 1.270000e+1
    endloop
  endfacet
  facet normal -5.555702e-1 -8.314696e-1 0.000000e+0
    outer loop
      vertex 1.838336e-1 1.838336e-1 1.270000e+1
      vertex 1.838336e-1 1.838336e-1 1.307140e+1
      vertex 9.949004e-2 2.401902e-1 1.270000e+1
    endloop
  endfacet
  facet normal -5.555702e-1 -8.314696e-1 0.000000e+0
    outer loop
      vertex 1.838336e-1 1.838336e-1 1.307140e+1
      vertex 9.949004e-2 2.401902e-1 1.307140e+1
      vertex 9.949004e-2 2.401902e-1 1.270000e+1
    endloop
  endfacet
  facet normal -1.950903e-1 -9.807853e-1 0.000000e+0
    outer loop
      vertex 9.949004e-2 2.401902e-1 1.270000e+1
      vertex 9.949004e-2 2.401902e-1 1.307140e+1
      vertex 0.000000e+0 2.599800e-1 1.270000e+1
    endloop
  endfacet
  facet normal -1.950903e-1 -9.807853e-1 0.000000e+0
    outer loop
      vertex 9.949004e-2 2.401902e-1 1.307140e+1
      vertex 0.000000e+0 2.599800e-1 1.307140e+1
      vertex 0.000000e+0 2.599800e-1 1.270000e+1
    endloop
  endfacet
  facet normal 1.950903e-1 -9.807853e-1 0.000000e+0
    outer loop
      vertex 0.000000e+0 2.599800e-1 1.270000e+1
      vertex 0.000000e+0 2.599800e-1 1.307140e+1
      vertex -9.949004e-2 2.401902e-1 1.270000e+1
    endloop
  endfacet
  facet normal 1.950903e-1 -9.807853e-1 0.000000e+0
    outer loop
      vertex 0.000000e+0 2.599800e-1 1.307140e+1
      vertex -9.949004e-2 2.401902e-1 1.307140e+1
      vertex -9.949004e-2 2.401902e-1 1.270000e+1
    endloop
  endfacet
  facet normal 5.555702e-1 -8.314696e-1 0.000000e+0
    outer loop
      vertex -9.949004e-2 2.401902e-1 1.270000e+1
      vertex -9.949004e-2 2.401902e-1 1.307140e+1
      vertex -1.838336e-1 1.838336e-1 1.270000e+1
    endloop
  endfacet
  facet normal 5.555702e-1 -8.314696e-1 0.000000e+0
    outer loop
      vertex -9.949004e-2 2.401902e-1 1.307140e+1
      vertex -1.838336e-1 1.838336e-1 1.307140e+1
      vertex -1.838336e-1 1.838336e-1 1.270000e+1
    endloop
  endfacet
  facet normal 8.314696e-1 -5.555702e-1 0.000000e+0
    outer loop
      vertex -1.838336e-1 1.838336e-1 1.270000e+1
      vertex -1.838336e-1 1.838336e-1 1.307140e+1
      vertex -2.401902e-1 9.949004e-2 1.270000e+1
    endloop
  endfacet
  facet normal 8.314696e-1 -5.555702e-1 0.000000e+0
    outer loop
      vertex -1.838336e-1 1.838336e-1 1.307140e+1
      vertex -2.401902e-1 9.949004e-2 1.307140e+1
      vertex -2.401902e-1 9.949004e-2 1.270000e+1
    endloop
  endfacet
  facet normal 9.807853e-1 -1.950903e-1 0.000000e+0
    outer loop
      vertex -2.401902e-1 9.949004e-2 1.270000e+1
      vertex -2.401902e-1 9.949004e-2 1.307140e+1
      vertex -2.599800e-1 0.000000e+0 1.270000e+1
    endloop
  endfacet
  facet normal 9.807853e-1 -1.950903e-1 0.000000e+0
    outer loop
      vertex -2.401902e-1 9.949004e-2 1.307140e+1
      vertex -2.599800e-1 0.000000e+0 1.307140e+1
      vertex -2.599800e-1 0.000000e+0 1.270000e+1
    endloop
  endfacet
  facet normal 9.807853e-1 1.950903e-1 0.000000e+0
    outer loop
      vertex -2.599800e-1 0.000000e+0 1.270000e+1
      vertex -2.599800e-1 0.000000e+0 1.307140e+1
      vertex -2.401902e-1 -9.949004e-2 1.270000e+1
    endloop
  endfacet
  facet normal 9.807853e-1 1.950903e-1 0.000000e+0
    outer loop
      vertex -2.599800e-1 0.000000e+0 1.307140e+1
      vertex -2.401902e-1 -9.949004e-2 1.307140e+1
      vertex -2.401902e-1 -9.949004e-2 1.270000e+1
    endloop
  endfacet
  facet normal 8.314696e-1 5.555702e-1 0.000000e+0
    outer loop
      vertex -2.401902e-1 -9.949004e-2 1.270000e+1
      vertex -2.401902e-1 -9.949004e-2 1.307140e+1
      vertex -1.838336e-1 -1.838336e-1 1.270000e+1
    endloop
  endfacet
  facet normal 8.314696e-1 5.555702e-1 0.000000e+0
    outer loop
      vertex -2.401902e-1 -9.949004e-2 1.307140e+1
      vertex -1.838336e-1 -1.838336e-1 1.307140e+1
      vertex -1.838336e-1 -1.838336e-1 1.270000e+1
    endloop
  endfacet
  facet normal 5.555702e-1 8.314696e-1 0.000000e+0
    outer loop
      vertex -1.838336e-1 -1.838336e-1 1.270000e+1
      vertex -1.838336e-1 -1.838336e-1 1.307140e+1
      vertex -9.949004e-2 -2.401902e-1 1.270000e+1
    endloop
  endfacet
  facet normal 5.555702e-1 8.314696e-1 0.000000e+0
    outer loop
      vertex -1.838336e-1 -1.838336e-1 1.307140e+1
      vertex -9.949004e-2 -2.401902e-1 1.307140e+1
      vertex -9.949004e-2 -2.401902e-1 1.270000e+1
    endloop
  endfacet
  facet normal 1.950903e-1 9.807853e-1 0.000000e+0
    outer loop
      vertex -9.949004e-2 -2.401902e-1 1.270000e+1
      vertex -9.949004e-2 -2.401902e-1 1.307140e+1
      vertex 0.000000e+0 -2.599800e-1 1.270000e+1
    endloop
  endfacet
  facet normal 1.950903e-1 9.807853e-1 0.000000e+0
    outer loop
      vertex -9.949004e-2 -2.401902e-1 1.307140e+1
      vertex 0.000000e+0 -2.599800e-1 1.307140e+1
      vertex 0.000000e+0 -2.599800e-1 1.270000e+1
    endloop
  endfacet
  facet normal -1.950903e-1 9.807853e-1 0.000000e+0
    outer loop
      vertex 0.000000e+0 -2.599800e-1 1.270000e+1
      vertex 0.000000e+0 -2.599800e-1 1.307140e+1
      vertex 9.949004e-2 -2.401902e-1 1.270000e+1
    endloop
  endfacet
  facet normal -1.950903e-1 9.807853e-1 0.000000e+0
    outer loop
      vertex 0.000000e+0 -2.599800e-1 1.307140e+1
      vertex 9.949004e-2 -2.401902e-1 1.307140e+1
      vertex 9.949004e-2 -2.401902e-1 1.270000e+1
    endloop
  endfacet
  facet normal -5.555702e-1 8.314696e-1 0.000000e+0
    outer loop
      vertex 9.949004e-2 -2.401902e-1 1.270000e+1
      vertex 9.949004e-2 -2.401902e-1 1.307140e+1
      vertex 1.838336e-1 -1.838336e-1 1.270000e+1
    endloop
  endfacet
  facet normal -5.555702e-1 8.314696e-1 0.000000e+0
    outer loop
      vertex 9.949004e-2 -2.401902e-1 1.307140e+1
      vertex 1.838336e-1 -1.838336e-1 1.307140e+1
      vertex 1.838336e-1 -1.838336e-1 1.270000e+1
    endloop
  endfacet
  facet normal -8.314696e-1 5.555702e-1 0.000000e+0
    outer loop
      vertex 1.838336e-1 -1.838336e-1 1.270000e+1
      vertex 1.838336e-1 -1.838336e-1 1.307140e+1
      vertex 2.401902e-1 -9.949004e-2 1.270000e+1
    endloop
  endfacet
  facet normal -8.314696e-1 5.555702e-1 0.000000e+0
    outer loop
      vertex 1.838336e-1 -1.838336e-1 1.307140e+1
      vertex 2.401902e-1 -9.949004e-2 1.307140e+1
      vertex 2.401902e-1 -9.949004e-2 1.270000e+1
    endloop
  endfacet
  facet normal -9.807853e-1 1.950903e-1 0.000000e+0
    outer loop
      vertex 2.401902e-1 -9.949004e-2 1.270000e+1
      vertex 2.401902e-1 -9.949004e-2 1.307140e+1
      vertex 2.599800e-1 0.000000e+0 1.270000e+1
    endloop
  endfacet
  facet normal -9.807853e-1 1.950903e-1 0.000000e+0
    outer loop
      vertex 2.401902e-1 -9.949004e-2 1.307140e+1
      vertex 2.599800e-1 0.000000e+0 1.307140e+1
      vertex 2.599800e-1 0.000000e+0 1.270000e+1
    endloop
  endfacet
  facet normal 0.000000e+0 0.000000e+0 1.000000e+0
    outer loop
      vertex 0.000000e+0 0.000000e+0 1.307140e+1
      vertex 2.599800e-1 0.000000e+0 1.307140e+1
      vertex 2.401902e-1 9.949004e-2 1.307140e+1
    endloop
  endfacet
  facet normal 0.000000e+0 0.000000e+0 1.000000e+0
    outer loop
      vertex 0.000000e+0 0.000000e+0 1.307140e+1
      vertex 2.401902e-1 9.949004e-2 1.307140e+1
      vertex 1.838336e-1 1.838336e-1 1.307140e+1
    endloop
  endfacet
  facet normal 0.000000e+0 0.000000e+0 1.000000e+0
    outer loop
      vertex 0.000000e+0 0.000000e+0 1.307140e+1
      vertex 1.838336e-1 1.838336e-1 1.307140e+1
      vertex 9.949004e-2 2.401902e-1 1.307140e+1
    endloop
  endfacet
  facet normal 0.000000e+0 0.000000e+0 1.000000e+0
    outer loop
      vertex 0.000000e+0 0.000000e+0 1.307140e+1
      vertex 9.949004e-2 2.401902e-1 1.307140e+1
      vertex 0.000000e+0 2.599800e-1 1.307140e+1
    endloop
  endfacet
  facet normal 0.000000e+0 0.000000e+0 1.000000e+0
    outer loop
      vertex 0.000000e+0 0.000000e+0 1.307140e+1
      vertex 0.000000e+0 2.599800e-1 1.307140e+1
      vertex -9.949004e-2 2.401902e-1 1.307140e+1
    endloop
  endfacet
  facet normal 0.000000e+0 0.000000e+0 1.000000e+0
    outer loop
      vertex 0.000000e+0 0.000000e+0 1.307140e+1
      vertex -9.949004e-2 2.401902e-1 1.307140e+1
      vertex -1.838336e-1 1.838336e-1 1.307140e+1
    endloop
  endfacet
  facet normal 0.000000e+0 0.000000e+0 1.000000e+0
    outer loop
      vertex 0.000000e+0 0.000000e+0 1.307140e+1
      vertex -1.838336e-1 1.838336e-1 1.307140e+1
      vertex -2.401902e-1 9.949004e-2 1.307140e+1
    endloop
  endfacet
  facet normal 0.000000e+0 0.000000e+0 1.000000e+0
    outer loop
      vertex 0.000000e+0 0.000000e+0 1.307140e+1
      vertex -2.401902e-1 9.949004e-2 1.307140e+1
      vertex -2.599800e-1 0.000000e+0 1.307140e+1
    endloop
  endfacet
  facet normal 0.000000e+0 0.000000e+0 1.000000e+0
    outer loop
      vertex 0.000000e+0 0.000000e+0 1.307140e+1
      vertex -2.599800e-1 0.000000e+0 1.307140e+1
      vertex -2.401902e-1 -9.949004e-2 1.307140e+1
    endloop
  endfacet
  facet normal 0.000000e+0 0.000000e+0 1.000000e+0
    outer loop
      vertex 0.000000e+0 0.000000e+0 1.307140e+1
      vertex -2.401902e-1 -9.949004e-2 1.307140e+1
      vertex -1.838336e-1 -1.838336e-1 1.307140e+1
    endloop
  endfacet
  facet normal 0.000000e+0 0.000000e+0 1.000000e+0
    outer loop
      vertex 0.000000e+0 0.000000e+0 1.307140e+1
      vertex -1.838336e-1 -1.838336e-1 1.307140e+1
      vertex -9.949004e-2 -2.401902e-1 1.307140e+1
    endloop
  endfacet
  facet normal 0.000000e+0 0.000000e+0 1.000000e+0
    outer loop
      vertex 0.000000e+0 0.000000e+0 1.307140e+1
      vertex -9.949004e-2 -2.401902e-1 1.307140e+1
      vertex 0.000000e+0 -2.599800e-1 1.307140e+1
    endloop
  endfacet
  facet normal 0.000000e+0 0.000000e+0 1.000000e+0
    outer loop
      vertex 0.000000e+0 0.000000e+0 1.307140e+1
      vertex 0.000000e+0 -2.599800e-1 1.307140e+1
      vertex 9.949004e-2 -2.401902e-1 1.307140e+1
    endloop
  endfacet
  facet normal 0.000000e+0 0.000000e+0 1.000000e+0
    outer loop
      vertex 0.000000e+0 0.000000e+0 1.307140e+1
      vertex 9.949004e-2 -2.401902e-1 1.307140e+1
      vertex 1.838336e-1 -1.838336e-1 1.307140e+1
    endloop
  endfacet
  facet normal 0.000000e+0 0.000000e+0 1.000000e+0
    outer loop
      vertex 0.000000e+0 0.000000e+0 1.307140e+1
      vertex 1.838336e-1 -1.838336e-1 1.307140e+1
      vertex 2.401902e-1 -9.949004e-2 1.307140e+1
    endloop
  endfacet
  facet normal 0.000000e+0 0.000000e+0 1.000000e+0
    outer loop
      vertex 0.000000e+0 0.000000e+0 1.307140e+1
      vertex 2.401902e-1 -9.949004e-2 1.307140e+1
      vertex 2.599800e-1 0.000000e+0 1.307140e+1
    endloop
  endfacet
endsolid nas1352-6-8
