solid nas1352-5-24
  facet normal -9.807853e-1 -1.950903e-1 0.000000e+0
    outer loop
      vertex 1.544500e-1 0.000000e+0 0.000000e+0
      vertex 1.544500e-1 0.000000e+0 3.810000e+1
      vertex 1.426932e-1 5.910546e-2 0.000000e+0
    endloop
  endfacet
  facet normal -9.807853e-1 -1.950903e-1 0.000000e+0
    outer loop
      vertex 1.544500e-1 0.000000e+0 3.810000e+1
      vertex 1.426932e-1 5.910546e-2 3.810000e+1
      vertex 1.426932e-1 5.910546e-2 0.000000e+0
    endloop
  endfacet
  facet normal -8.314696e-1 -5.555702e-1 0.000000e+0
    outer loop
      vertex 1.426932e-1 5.910546e-2 0.000000e+0
      vertex 1.426932e-1 5.910546e-2 3.810000e+1
      vertex 1.092126e-1 1.092126e-1 0.000000e+0
    endloop
  endfacet
  facet normal -8.314696e-1 -5.555702e-1 0.000000e+0
    outer loop
      vertex 1.426932e-1 5.910546e-2 3.810000e+1
      vertex 1.092126e-1 1.092126e-1 3.810000e+1
      vertex 1.092126e-1 1.092126e-1 0.000000e+0
    endloop
  endfacet
  facet normal -5.555702e-1 -8.314696e-1 0.000000e+0
    outer loop
      vertex 1.092126e-1 1.092126e-1 0.000000e+0
      vertex 1.092126e-1 1.092126e-1 3.810000e+1
      vertex 5.910546e-2 1.426932e-1 0.000000e+0
    endloop
  endfacet
  facet normal -5.555702e-1 -8.314696e-1 0.000000e+0
    outer loop
      vertex 1.092126e-1 1.092126e-1 3.810000e+1
      vertex 5.910546e-2 1.426932e-1 3.810000e+1
      vertex 5.910546e-2 1.426932e-1 0.000000e+0
    endloop
  endfacet
  facet normal -1.950903e-1 -9.807853e-1 0.000000e+0
    outer loop
      vertex 5.910546e-2 1.426932e-1 0.000000e+0
      vertex 5.910546e-2 1.426932e-1 3.810000e+1
      vertex 0.000000e+0 1.544500e-1 0.000000e+0
    endloop
  endfacet
  facet normal -1.950903e-1 -9.807853e-1 0.000000e+0
    outer loop
      vertex 5.910546e-2 1.426932e-1 3.810000e+1
      vertex 0.000000e+0 1.544500e-1 3.810000e+1
      vertex 0.000000e+0 1.544500e-1 0.000000e+0
    endloop
  endfacet
  facet normal 1.950903e-1 -9.807853e-1 0.000000e+0
    outer loop
      vertex 0.000000e+0 1.544500e-1 0.000000e+0
      vertex 0.000000e+0 1.544500e-1 3.810000e+1
      vertex -5.910546e-2 1.426932e-1 0.000000e+0
    endloop
  endfacet
  facet normal 1.950903e-1 -9.807853e-1 0.000000e+0
    outer loop
      vertex 0.000000e+0 1.544500e-1 3.810000e+1
      vertex -5.910546e-2 1.426932e-1 3.810000e+1
      vertex -5.910546e-2 1.426932e-1 0.000000e+0
    endloop
  endfacet
  facet normal 5.555702e-1 -8.314696e-1 0.000000e+0
    outer loop
      vertex -5.910546e-2 1.426932e-1 0.000000e+0
      vertex -5.910546e-2 1.426932e-1 3.810000e+1
      vertex -1.092126e-1 1.092126e-1 0.000000e+0
    endloop
  endfacet
  facet normal 5.555702e-1 -8.314696e-1 0.000000e+0
    outer loop
      vertex -5.910546e-2 1.426932e-1 3.810000e+1
      vertex -1.092126e-1 1.092126e-1 3.810000e+1
      vertex -1.092126e-1 1.092126e-1 0.000000e+0
    endloop
  endfacet
  facet normal 8.314696e-1 -5.555702e-1 0.000000e+0
    outer loop
      vertex -1.092126e-1 1.092126e-1 0.000000e+0
      vertex -1.092126e-1 1.092126e-1 3.810000e+1
      vertex -1.426932e-1 5.910546e-2 0.000000e+0
    endloop
  endfacet
  facet normal 8.314696e-1 -5.555702e-1 0.000000e+0
    outer loop
      vertex -1.092126e-1 1.092126e-1 3.810000e+1
      vertex -1.426932e-1 5.910546e-2 3.810000e+1
      vertex -1.426932e-1 5.910546e-2 0.000000e+0
    endloop
  endfacet
  facet normal 9.807853e-1 -1.950903e-1 0.000000e+0
    outer loop
      vertex -1.426932e-1 5.910546e-2 0.000000e+0
      vertex -1.426932e-1 5.910546e-2 3.810000e+1
      vertex -1.544500e-1 0.000000e+0 0.000000e+0
    endloop
  endfacet
  facet normal 9.807853e-1 -1.950903e-1 0.000000e+0
    outer loop
      vertex -1.426932e-1 5.910546e-2 3.810000e+1
      vertex -1.544500e-1 0.000000e+0 3.810000e+1
      vertex -1.544500e-1 0.000000e+0 0.000000e+0
    endloop
  endfacet
  facet normal 9.807853e-1 1.950903e-1 0.000000e+0
    outer loop
      vertex -1.544500e-1 0.000000e+0 0.000000e+0
      vertex -1.544500e-1 0.000000e+0 3.810000e+1
      vertex -1.426932e-1 -5.910546e-2 0.000000e+0
    endloop
  endfacet
  facet normal 9.807853e-1 1.950903e-1 0.000000e+0
    outer loop
      vertex -1.544500e-1 0.000000e+0 3.810000e+1
      vertex -1.426932e-1 -5.910546e-2 3.810000e+1
      vertex -1.426932e-1 -5.910546e-2 0.000000e+0
    endloop
  endfacet
  facet normal 8.314696e-1 5.555702e-1 0.000000e+0
    outer loop
      vertex -1.426932e-1 -5.910546e-2 0.000000e+0
      vertex -1.426932e-1 -5.910546e-2 3.810000e+1
      vertex -1.092126e-1 -1.092126e-1 0.000000e+0
    endloop
  endfacet
  facet normal 8.314696e-1 5.555702e-1 0.000000e+0
    outer loop
      vertex -1.426932e-1 -5.910546e-2 3.810000e+1
      vertex -1.092126e-1 -1.092126e-1 3.810000e+1
      vertex -1.092126e-1 -1.092126e-1 0.000000e+0
    endloop
  endfacet
  facet normal 5.555702e-1 8.314696e-1 0.000000e+0
    outer loop
      vertex -1.092126e-1 -1.092126e-1 0.000000e+0
      vertex -1.092126e-1 -1.092126e-1 3.810000e+1
      vertex -5.910546e-2 -1.426932e-1 0.000000e+0
    endloop
  endfacet
  facet normal 5.555702e-1 8.314696e-1 0.000000e+0
    outer loop
      vertex -1.092126e-1 -1.092126e-1 3.810000e+1
      vertex -5.910546e-2 -1.426932e-1 3.810000e+1
      vertex -5.910546e-2 -1.426932e-1 0.000000e+0
    endloop
  endfacet
  facet normal 1.950903e-1 9.807853e-1 0.000000e+0
    outer loop
      vertex -5.910546e-2 -1.426932e-1 0.000000e+0
      vertex -5.910546e-2 -1.426932e-1 3.810000e+1
      vertex 0.000000e+0 -1.544500e-1 0.000000e+0
    endloop
  endfacet
  facet normal 1.950903e-1 9.807853e-1 0.000000e+0
    outer loop
      vertex -5.910546e-2 -1.426932e-1 3.810000e+1
      vertex 0.000000e+0 -1.544500e-1 3.810000e+1
      vertex 0.000000e+0 -1.544500e-1 0.000000e+0
    endloop
  endfacet
  facet normal -1.950903e-1 9.807853e-1 0.000000e+0
    outer loop
      vertex 0.000000e+0 -1.544500e-1 0.000000e+0
      vertex 0.000000e+0 -1.544500e-1 3.810000e+1
      vertex 5.910546e-2 -1.426932e-1 0.000000e+0
    endloop
  endfacet
  facet normal -1.950903e-1 9.807853e-1 0.000000e+0
    outer loop
      vertex 0.000000e+0 -1.544500e-1 3.810000e+1
      vertex 5.910546e-2 -1.426932e-1 3.810000e+1
      vertex 5.910546e-2 -1.426932e-1 0.000000e+0
    endloop
  endfacet
  facet normal -5.555702e-1 8.314696e-1 0.000000e+0
    outer loop
      vertex 5.910546e-2 -1.426932e-1 0.000000e+0
      vertex 5.910546e-2 -1.426932e-1 3.810000e+1
      vertex 1.092126e-1 -1.092126e-1 0.000000e+0
    endloop
  endfacet
  facet normal -5.555702e-1 8.314696e-1 0.000000e+0
    outer loop
      vertex 5.910546e-2 -1.426932e-1 3.810000e+1
      vertex 1.092126e-1 -1.092126e-1 3.810000e+1
      vertex 1.092126e-1 -1.092126e-1 0.000000e+0
    endloop
  endfacet
  facet normal -8.314696e-1 5.555702e-1 0.000000e+0
    outer loop
      vertex 1.092126e-1 -1.092126e-1 0.000000e+0
      vertex 1.092126e-1 -1.092126e-1 3.810000e+1
      vertex 1.426932e-1 -5.910546e-2 0.000000e+0
    endloop
  endfacet
  facet normal -8.314696e-1 5.555702e-1 0.000000e+0
    outer loop
      vertex 1.092126e-1 -1.092126e-1 3.810000e+1
      vertex 1.426932e-1 -5.910546e-2 3.810000e+1
      vertex 1.426932e-1 -5.910546e-2 0.000000e+0
    endloop
  endfacet
  facet normal -9.807853e-1 1.950903e-1 0.000000e+0
    outer loop
      vertex 1.426932e-1 -5.910546e-2 0.000000e+0
      vertex 1.426932e-1 -5.910546e-2 3.810000e+1
      vertex 1.544500e-1 0.000000e+0 0.000000e+0
    endloop
  endfacet
  facet normal -9.807853e-1 1.950903e-1 0.000000e+0
    outer loop
      vertex 1.426932e-1 -5.910546e-2 3.810000e+1
      vertex 1.544500e-1 0.000000e+0 3.810000e+1
      vertex 1.544500e-1 0.000000e+0 0.000000e+0
    endloop
  endfacet
  facet normal 0.000000e+0 0.000000e+0 -1.000000e+0
    outer loop
      vertex 0.000000e+0 0.000000e+0 0.000000e+0
      vertex 1.426932e-1 5.910546e-2 0.000000e+0
      vertex 1.544500e-1 0.000000e+0 0.000000e+0
    endloop
  endfacet
  facet normal 0.000000e+0 0.000000e+0 -1.000000e+0
    outer loop
      vertex 0.000000e+0 0.000000e+0 0.000000e+0
      vertex 1.092126e-1 1.092126e-1 0.000000e+0
      vertex 1.426932e-1 5.910546e-2 0.000000e+0
    endloop
  endfacet
  facet normal 0.000000e+0 0.000000e+0 -1.000000e+0
    outer loop
      vertex 0.000000e+0 0.000000e+0 0.000000e+0
      vertex 5.910546e-2 1.426932e-1 0.000000e+0
      vertex 1.092126e-1 1.092126e-1 0.000000e+0
    endloop
  endfacet
  facet normal 0.000000e+0 0.000000e+0 -1.000000e+0
    outer loop
      vertex 0.000000e+0 0.000000e+0 0.000000e+0
      vertex 0.000000e+0 1.544500e-1 0.000000e+0
      vertex 5.910546e-2 1.426932e-1 0.000000e+0
    endloop
  endfacet
  facet normal 0.000000e+0 0.000000e+0 -1.000000e+0
    outer loop
      vertex 0.000000e+0 0.000000e+0 0.000000e+0
      vertex -5.910546e-2 1.426932e-1 0.000000e+0
      vertex 0.000000e+0 1.544500e-1 0.000000e+0
    endloop
  endfacet
  facet normal 0.000000e+0 0.000000e+0 -1.000000e+0
    outer loop
      vertex 0.000000e+0 0.000000e+0 0.000000e+0
      vertex -1.092126e-1 1.092126e-1 0.000000e+0
      vertex -5.910546e-2 1.426932e-1 0.000000e+0
    endloop
  endfacet
  facet normal 0.000000e+0 0.000000e+0 -1.000000e+0
    outer loop
      vertex 0.000000e+0 0.000000e+0 0.000000e+0
      vertex -1.426932e-1 5.910546e-2 0.000000e+0
      vertex -1.092126e-1 1.092126e-1 0.000000e+0
    endloop
  endfacet
  facet normal 0.000000e+0 0.000000e+0 -1.000000e+0
    outer loop
      vertex 0.000000e+0 0.000000e+0 0.000000e+0
      vertex -1.544500e-1 0.000000e+0 0.000000e+0
      vertex -1.426932e-1 5.910546e-2 0.000000e+0
    endloop
  endfacet
  facet normal 0.000000e+0 0.000000e+0 -1.000000e+0
    outer loop
      vertex 0.000000e+0 0.000000e+0 0.000000e+0
      vertex -1.426932e-1 -5.910546e-2 0.000000e+0
      vertex -1.544500e-1 0.000000e+0 0.000000e+0
    endloop
  endfacet
  facet normal 0.000000e+0 0.000000e+0 -1.000000e+0
    outer loop
      vertex 0.000000e+0 0.000000e+0 0.000000e+0
      vertex -1.092126e-1 -1.092126e-1 0.000000e+0
      vertex -1.426932e-1 -5.910546e-2 0.000000e+0
    endloop
  endfacet
  facet normal 0.000000e+0 0.000000e+0 -1.000000e+0
    outer loop
      vertex 0.000000e+0 0.000000e+0 0.000000e+0
      vertex -5.910546e-2 -1.426932e-1 0.000000e+0
      vertex -1.092126e-1 -1.092126e-1 0.000000e+0
    endloop
  endfacet
  facet normal 0.000000e+0 0.000000e+0 -1.000000e+0
    outer loop
      vertex 0.000000e+0 0.000000e+0 0.000000e+0
      vertex 0.000000e+0 -1.544500e-1 0.000000e+0
      vertex -5.910546e-2 -1.426932e-1 0.000000e+0
    endloop
  endfacet
  facet normal 0.000000e+0 0.000000e+0 -1.000000e+0
    outer loop
      vertex 0.000000e+0 0.000000e+0 0.000000e+0
      vertex 5.910546e-2 -1.426932e-1 0.000000e+0
      vertex 0.000000e+0 -1.544500e-1 0.000000e+0
    endloop
  endfacet
  facet normal 0.000000e+0 0.000000e+0 -1.000000e+0
    outer loop
      vertex 0.000000e+0 0.000000e+0 0.000000e+0
      vertex 1.092126e-1 -1.092126e-1 0.000000e+0
      vertex 5.910546e-2 -1.426932e-1 0.000000e+0
    endloop
  endfacet
  facet normal 0.000000e+0 0.000000e+0 -1.000000e+0
    outer loop
      vertex 0.000000e+0 0.000000e+0 0.000000e+0
      vertex 1.426932e-1 -5.910546e-2 0.000000e+0
      vertex 1.092126e-1 -1.092126e-1 0.000000e+0
    endloop
  endfacet
  facet normal 0.000000e+0 0.000000e+0 -1.000000e+0
    outer loop
      vertex 0.000000e+0 0.000000e+0 0.000000e+0
      vertex 1.544500e-1 0.000000e+0 0.000000e+0
      vertex 1.426932e-1 -5.910546e-2 0.000000e+0
    endloop
  endfacet
  facet normal 0.000000e+0 0.000000e+0 -1.000000e+0
    outer loop
      vertex 2.162300e-1 0.000000e+0 3.810000e+1
      vertex 1.544500e-1 0.000000e+0 3.810000e+1
      vertex 1.997705e-1 8.274764e-2 3.810000e+1
    endloop
  endfacet
  facet normal 0.000000e+0 0.000000e+0 -1.000000e+0
    outer loop
      vertex 1.997705e-1 8.274764e-2 3.810000e+1
      vertex 1.544500e-1 0.000000e+0 3.810000e+1
      vertex 1.426932e-1 5.910546e-2 3.810000e+1
    endloop
  endfacet
  facet normal 0.000000e+0 0.000000e+0 -1.000000e+0
    outer loop
      vertex 1.997705e-1 8.274764e-2 3.810000e+1
      vertex 1.426932e-1 5.910546e-2 3.810000e+1
      vertex 1.528977e-1 1.528977e-1 3.810000e+1
    endloop
  endfacet
  facet normal 0.000000e+0 0.000000e+0 -1.000000e+0
    outer loop
      vertex 1.528977e-1 1.528977e-1 3.810000e+1
      vertex 1.426932e-1 5.910546e-2 3.810000e+1
      vertex 1.092126e-1 1.092126e-1 3.810000e+1
    endloop
  endfacet
  facet normal 0.000000e+0 0.000000e+0 -1.000000e+0
    outer loop
      vertex 1.528977e-1 1.528977e-1 3.810000e+1
      vertex 1.092126e-1 1.092126e-1 3.810000e+1
      vertex 8.274764e-2 1.997705e-1 3.810000e+1
    endloop
  endfacet
  facet normal 0.000000e+0 0.000000e+0 -1.000000e+0
    outer loop
      vertex 8.274764e-2 1.997705e-1 3.810000e+1
      vertex 1.092126e-1 1.092126e-1 3.810000e+1
      vertex 5.910546e-2 1.426932e-1 3.810000e+1
    endloop
  endfacet
  facet normal 0.000000e+0 0.000000e+0 -1.000000e+0
    outer loop
      vertex 8.274764e-2 1.997705e-1 3.810000e+1
      vertex 5.910546e-2 1.426932e-1 3.810000e+1
      vertex 0.000000e+0 2.162300e-1 3.810000e+1
    endloop
  endfacet
  facet normal 0.000000e+0 0.000000e+0 -1.000000e+0
    outer loop
      vertex 0.000000e+0 2.162300e-1 3.810000e+1
      vertex 5.910546e-2 1.426932e-1 3.810000e+1
      vertex 0.000000e+0 1.544500e-1 3.810000e+1
    endloop
  endfacet
  facet normal 0.000000e+0 0.000000e+0 -1.000000e+0
    outer loop
      vertex 0.000000e+0 2.162300e-1 3.810000e+1
      vertex 0.000000e+0 1.544500e-1 3.810000e+1
      vertex -8.274764e-2 1.997705e-1 3.810000e+1
    endloop
  endfacet
  facet normal 0.000000e+0 0.000000e+0 -1.000000e+0
    outer loop
      vertex -8.274764e-2 1.997705e-1 3.810000e+1
      vertex 0.000000e+0 1.544500e-1 3.810000e+1
      vertex -5.910546e-2 1.426932e-1 3.810000e+1
    endloop
  endfacet
  facet normal 0.000000e+0 0.000000e+0 -1.000000e+0
    outer loop
      vertex -8.274764e-2 1.997705e-1 3.810000e+1
      vertex -5.910546e-2 1.426932e-1 3.810000e+1
      vertex -1.528977e-1 1.528977e-1 3.810000e+1
    endloop
  endfacet
  facet normal 0.000000e+0 0.000000e+0 -1.000000e+0
    outer loop
      vertex -1.528977e-1 1.528977e-1 3.810000e+1
      vertex -5.910546e-2 1.426932e-1 3.810000e+1
      vertex -1.092126e-1 1.092126e-1 3.810000e+1
    endloop
  endfacet
  facet normal 0.000000e+0 0.000000e+0 -1.000000e+0
    outer loop
      vertex -1.528977e-1 1.528977e-1 3.810000e+1
      vertex -1.092126e-1 1.092126e-1 3.810000e+1
      vertex -1.997705e-1 8.274764e-2 3.810000e+1
    endloop
  endfacet
  facet normal 0.000000e+0 0.000000e+0 -1.000000e+0
    outer loop
      vertex -1.997705e-1 8.274764e-2 3.810000e+1
      vertex -1.092126e-1 1.092126e-1 3.810000e+1
      vertex -1.426932e-1 5.910546e-2 3.810000e+1
    endloop
  endfacet
  facet normal 0.000000e+0 0.000000e+0 -1.000000e+0
    outer loop
      vertex -1.997705e-1 8.274764e-2 3.810000e+1
      vertex -1.426932e-1 5.910546e-2 3.810000e+1
      vertex -2.162300e-1 0.000000e+0 3.810000e+1
    endloop
  endfacet
  facet normal 0.000000e+0 0.000000e+0 -1.000000e+0
    outer loop
      vertex -2.162300e-1 0.000000e+0 3.810000e+1
      vertex -1.426932e-1 5.910546e-2 3.810000e+1
      vertex -1.544500e-1 0.000000e+0 3.810000e+1
    endloop
  endfacet
  facet normal 0.000000e+0 0.000000e+0 -1.000000e+0
    outer loop
      vertex -2.162300e-1 0.000000e+0 3.810000e+1
      vertex -1.544500e-1 0.000000e+0 3.810000e+1
      vertex -1.997705e-1 -8.274764e-2 3.810000e+1
    endloop
  endfacet
  facet normal 0.000000e+0 0.000000e+0 -1.000000e+0
    outer loop
      vertex -1.997705e-1 -8.274764e-2 3.810000e+1
      vertex -1.544500e-1 0.000000e+0 3.810000e+1
      vertex -1.426932e-1 -5.910546e-2 3.810000e+1
    endloop
  endfacet
  facet normal 0.000000e+0 0.000000e+0 -1.000000e+0
    outer loop
      vertex -1.997705e-1 -8.274764e-2 3.810000e+1
      vertex -1.426932e-1 -5.910546e-2 3.810000e+1
      vertex -1.528977e-1 -1.528977e-1 3.810000e+1
    endloop
  endfacet
  facet normal 0.000000e+0 0.000000e+0 -1.000000e+0
    outer loop
      vertex -1.528977e-1 -1.528977e-1 3.810000e+1
      vertex -1.426932e-1 -5.910546e-2 3.810000e+1
      vertex -1.092126e-1 -1.092126e-1 3.810000e+1
    endloop
  endfacet
  facet normal 0.000000e+0 0.000000e+0 -1.000000e+0
    outer loop
      vertex -1.528977e-1 -1.528977e-1 3.810000e+1
      vertex -1.092126e-1 -1.092126e-1 3.810000e+1
      vertex -8.274764e-2 -1.997705e-1 3.810000e+1
    endloop
  endfacet
  facet normal 0.000000e+0 0.000000e+0 -1.000000e+0
    outer loop
      vertex -8.274764e-2 -1.997705e-1 3.810000e+1
      vertex -1.092126e-1 -1.092126e-1 3.810000e+1
      vertex -5.910546e-2 -1.426932e-1 3.810000e+1
    endloop
  endfacet
  facet normal 0.000000e+0 0.000000e+0 -1.000000e+0
    outer loop
      vertex -8.274764e-2 -1.997705e-1 3.810000e+1
      vertex -5.910546e-2 -1.426932e-1 3.810000e+1
      vertex 0.000000e+0 -2.162300e-1 3.810000e+1
    endloop
  endfacet
  facet normal 0.000000e+0 0.000000e+0 -1.000000e+0
    outer loop
      vertex 0.000000e+0 -2.162300e-1 3.810000e+1
      vertex -5.910546e-2 -1.426932e-1 3.810000e+1
      vertex 0.000000e+0 -1.544500e-1 3.810000e+1
    endloop
  endfacet
  facet normal 0.000000e+0 0.000000e+0 -1.000000e+0
    outer loop
      vertex 0.000000e+0 -2.162300e-1 3.810000e+1
      vertex 0.000000e+0 -1.544500e-1 3.810000e+1
      vertex 8.274764e-2 -1.997705e-1 3.810000e+1
    endloop
  endfacet
  facet normal 0.000000e+0 0.000000e+0 -1.000000e+0
    outer loop
      vertex 8.274764e-2 -1.997705e-1 3.810000e+1
      vertex 0.000000e+0 -1.544500e-1 3.810000e+1
      vertex 5.910546e-2 -1.426932e-1 3.810000e+1
    endloop
  endfacet
  facet normal 0.000000e+0 0.000000e+0 -1.000000e+0
    outer loop
      vertex 8.274764e-2 -1.997705e-1 3.810000e+1
      vertex 5.910546e-2 -1.426932e-1 3.810000e+1
      vertex 1.528977e-1 -1.528977e-1 3.810000e+1
    endloop
  endfacet
  facet normal 0.000000e+0 0.000000e+0 -1.000000e+0
    outer loop
      vertex 1.528977e-1 -1.528977e-1 3.810000e+1
      vertex 5.910546e-2 -1.426932e-1 3.810000e+1
      vertex 1.092126e-1 -1.092126e-1 3.810000e+1
    endloop
  endfacet
  facet normal 0.000000e+0 0.000000e+0 -1.000000e+0
    outer loop
      vertex 1.528977e-1 -1.528977e-1 3.810000e+1
      vertex 1.092126e-1 -1.092126e-1 3.810000e+1
      vertex 1.997705e-1 -8.274764e-2 3.810000e+1
    endloop
  endfacet
  facet normal 0.000000e+0 0.000000e+0 -1.000000e+0
    outer loop
      vertex 1.997705e-1 -8.274764e-2 3.810000e+1
      vertex 1.092126e-1 -1.092126e-1 3.810000e+1
      vertex 1.426932e-1 -5.910546e-2 3.810000e+1
    endloop
  endfacet
  facet normal 0.000000e+0 0.000000e+0 -1.000000e+0
    outer loop
      vertex 1.997705e-1 -8.274764e-2 3.810000e+1
      vertex 1.426932e-1 -5.910546e-2 3.810000e+1
      vertex 2.162300e-1 0.000000e+0 3.810000e+1
    endloop
  endfacet
  facet normal 0.000000e+0 0.000000e+0 -1.000000e+0
    outer loop
      vertex 2.162300e-1 0.000000e+0 3.810000e+1
      vertex 1.426932e-1 -5.910546e-2 3.810000e+1
      vertex 1.544500e-1 0.000000e+0 3.810000e+1
    endloop
  endfacet
  facet normal -9.807853e-1 -1.950903e-1 0.000000e+0
    outer loop
      vertex 2.162300e-1 0.000000e+0 3.810000e+1
      vertex 2.162300e-1 0.000000e+0 3.840890e+1
      vertex 1.997705e-1 8.274764e-2 3.810000e+1
    endloop
  endfacet
  facet normal -9.807853e-1 -1.950903e-1 0.000000e+0
    outer loop
      vertex 2.162300e-1 0.000000e+0 3.840890e+1
      vertex 1.997705e-1 8.274764e-2 3.840890e+1
      vertex 1.997705e-1 8.274764e-2 3.810000e+1
    endloop
  endfacet
  facet normal -8.314696e-1 -5.555702e-1 0.000000e+0
    outer loop
      vertex 1.997705e-1 8.274764e-2 3.810000e+1
      vertex 1.997705e-1 8.274764e-2 3.840890e+1
      vertex 1.528977e-1 1.528977e-1 3.810000e+1
    endloop
  endfacet
  facet normal -8.314696e-1 -5.555702e-1 0.000000e+0
    outer loop
      vertex 1.997705e-1 8.274764e-2 3.840890e+1
      vertex 1.528977e-1 1.528977e-1 3.840890e+1
      vertex 1.528977e-1 1.528977e-1 3.810000e+1
    endloop
  endfacet
  facet normal -5.555702e-1 -8.314696e-1 0.000000e+0
    outer loop
      vertex 1.528977e-1 1.528977e-1 3.810000e+1
      vertex 1.528977e-1 1.528977e-1 3.840890e+1
      vertex 8.274764e-2 1.997705e-1 3.810000e+1
    endloop
  endfacet
  facet normal -5.555702e-1 -8.314696e-1 0.000000e+0
    outer loop
      vertex 1.528977e-1 1.528977e-1 3.840890e+1
      vertex 8.274764e-2 1.997705e-1 3.840890e+1
      vertex 8.274764e-2 1.997705e-1 3.810000e+1
    endloop
  endfacet
  facet normal -1.950903e-1 -9.807853e-1 0.000000e+0
    outer loop
      vertex 8.274764e-2 1.997705e-1 3.810000e+1
      vertex 8.274764e-2 1.997705e-1 3.840890e+1
      vertex 0.000000e+0 2.162300e-1 3.810000e+1
    endloop
  endfacet
  facet normal -1.950903e-1 -9.807853e-1 0.000000e+0
    outer loop
      vertex 8.274764e-2 1.997705e-1 3.840890e+1
      vertex 0.000000e+0 2.162300e-1 3.840890e+1
      vertex 0.000000e+0 2.162300e-1 3.810000e+1
    endloop
  endfacet
  facet normal 1.950903e-1 -9.807853e-1 0.000000e+0
    outer loop
      vertex 0.000000e+0 2.162300e-1 3.810000e+1
      vertex 0.000000e+0 2.162300e-1 3.840890e+1
      vertex -8.274764e-2 1.997705e-1 3.810000e+1
    endloop
  endfacet
  facet normal 1.950903e-1 -9.807853e-1 0.000000e+0
    outer loop
      vertex 0.000000e+0 2.162300e-1 3.840890e+1
      vertex -8.274764e-2 1.997705e-1 3.840890e+1
      vertex -8.274764e-2 1.997705e-1 3.810000e+1
    endloop
  endfacet
  facet normal 5.555702e-1 -8.314696e-1 0.000000e+0
    outer loop
      vertex -8.274764e-2 1.997705e-1 3.810000e+1
      vertex -8.274764e-2 1.997705e-1 3.840890e+1
      vertex -1.528977e-1 1.528977e-1 3.810000e+1
    endloop
  endfacet
  facet normal 5.555702e-1 -8.314696e-1 0.000000e+0
    outer loop
      vertex -8.274764e-2 1.997705e-1 3.840890e+1
      vertex -1.528977e-1 1.528977e-1 3.840890e+1
      vertex -1.528977e-1 1.528977e-1 3.810000e+1
    endloop
  endfacet
  facet normal 8.314696e-1 -5.555702e-1 0.000000e+0
    outer loop
      vertex -1.528977e-1 1.528977e-1 3.810000e+1
      vertex -1.528977e-1 1.528977e-1 3.840890e+1
      vertex -1.997705e-1 8.274764e-2 3.810000e+1
    endloop
  endfacet
  facet normal 8.314696e-1 -5.555702e-1 0.000000e+0
    outer loop
      vertex -1.528977e-1 1.528977e-1 3.840890e+1
      vertex -1.997705e-1 8.274764e-2 3.840890e+1
      vertex -1.997705e-1 8.274764e-2 3.810000e+1
    endloop
  endfacet
  facet normal 9.807853e-1 -1.950903e-1 0.000000e+0
    outer loop
      vertex -1.997705e-1 8.274764e-2 3.810000e+1
      vertex -1.997705e-1 8.274764e-2 3.840890e+1
      vertex -2.162300e-1 0.000000e+0 3.810000e+1
    endloop
  endfacet
  facet normal 9.807853e-1 -1.950903e-1 0.000000e+0
    outer loop
      vertex -1.997705e-1 8.274764e-2 3.840890e+1
      vertex -2.162300e-1 0.000000e+0 3.840890e+1
      vertex -2.162300e-1 0.000000e+0 3.810000e+1
    endloop
  endfacet
  facet normal 9.807853e-1 1.950903e-1 0.000000e+0
    outer loop
      vertex -2.162300e-1 0.000000e+0 3.810000e+1
      vertex -2.162300e-1 0.000000e+0 3.840890e+1
      vertex -1.997705e-1 -8.274764e-2 3.810000e+1
    endloop
  endfacet
  facet normal 9.807853e-1 1.950903e-1 0.000000e+0
    outer loop
      vertex -2.162300e-1 0.000000e+0 3.840890e+1
      vertex -1.997705e-1 -8.274764e-2 3.840890e+1
      vertex -1.997705e-1 -8.274764e-2 3.810000e+1
    endloop
  endfacet
  facet normal 8.314696e-1 5.555702e-1 0.000000e+0
    outer loop
      vertex -1.997705e-1 -8.274764e-2 3.810000e+1
      vertex -1.997705e-1 -8.274764e-2 3.840890e+1
      vertex -1.528977e-1 -1.528977e-1 3.810000e+1
    endloop
  endfacet
  facet normal 8.314696e-1 5.555702e-1 0.000000e+0
    outer loop
      vertex -1.997705e-1 -8.274764e-2 3.840890e+1
      vertex -1.528977e-1 -1.528977e-1 3.840890e+1
      vertex -1.528977e-1 -1.528977e-1 3.810000e+1
    endloop
  endfacet
  facet normal 5.555702e-1 8.314696e-1 0.000000e+0
    outer loop
      vertex -1.528977e-1 -1.528977e-1 3.810000e+1
      vertex -1.528977e-1 -1.528977e-1 3.840890e+1
      vertex -8.274764e-2 -1.997705e-1 3.810000e+1
    endloop
  endfacet
  facet normal 5.555702e-1 8.314696e-1 0.000000e+0
    outer loop
      vertex -1.528977e-1 -1.528977e-1 3.840890e+1
      vertex -8.274764e-2 -1.997705e-1 3.840890e+1
      vertex -8.274764e-2 -1.997705e-1 3.810000e+1
    endloop
  endfacet
  facet normal 1.950903e-1 9.807853e-1 0.000000e+0
    outer loop
      vertex -8.274764e-2 -1.997705e-1 3.810000e+1
      vertex -8.274764e-2 -1.997705e-1 3.840890e+1
      vertex 0.000000e+0 -2.162300e-1 3.810000e+1
    endloop
  endfacet
  facet normal 1.950903e-1 9.807853e-1 0.000000e+0
    outer loop
      vertex -8.274764e-2 -1.997705e-1 3.840890e+1
      vertex 0.000000e+0 -2.162300e-1 3.840890e+1
      vertex 0.000000e+0 -2.162300e-1 3.810000e+1
    endloop
  endfacet
  facet normal -1.950903e-1 9.807853e-1 0.000000e+0
    outer loop
      vertex 0.000000e+0 -2.162300e-1 3.810000e+1
      vertex 0.000000e+0 -2.162300e-1 3.840890e+1
      vertex 8.274764e-2 -1.997705e-1 3.810000e+1
    endloop
  endfacet
  facet normal -1.950903e-1 9.807853e-1 0.000000e+0
    outer loop
      vertex 0.000000e+0 -2.162300e-1 3.840890e+1
      vertex 8.274764e-2 -1.997705e-1 3.840890e+1
      vertex 8.274764e-2 -1.997705e-1 3.810000e+1
    endloop
  endfacet
  facet normal -5.555702e-1 8.314696e-1 0.000000e+0
    outer loop
      vertex 8.274764e-2 -1.997705e-1 3.810000e+1
      vertex 8.274764e-2 -1.997705e-1 3.840890e+1
      vertex 1.528977e-1 -1.528977e-1 3.810000e+1
    endloop
  endfacet
  facet normal -5.555702e-1 8.314696e-1 0.000000e+0
    outer loop
      vertex 8.274764e-2 -1.997705e-1 3.840890e+1
      vertex 1.528977e-1 -1.528977e-1 3.840890e+1
      vertex 1.528977e-1 -1.528977e-1 3.810000e+1
    endloop
  endfacet
  facet normal -8.314696e-1 5.555702e-1 0.000000e+0
    outer loop
      vertex 1.528977e-1 -1.528977e-1 3.810000e+1
      vertex 1.528977e-1 -1.528977e-1 3.840890e+1
      vertex 1.997705e-1 -8.274764e-2 3.810000e+1
    endloop
  endfacet
  facet normal -8.314696e-1 5.555702e-1 0.000000e+0
    outer loop
      vertex 1.528977e-1 -1.528977e-1 3.840890e+1
      vertex 1.997705e-1 -8.274764e-2 3.840890e+1
      vertex 1.997705e-1 -8.274764e-2 3.810000e+1
    endloop
  endfacet
  facet normal -9.807853e-1 1.950903e-1 0.000000e+0
    outer loop
      vertex 1.997705e-1 -8.274764e-2 3.810000e+1
      vertex 1.997705e-1 -8.274764e-2 3.840890e+1
      vertex 2.162300e-1 0.000000e+0 3.810000e+1
    endloop
  endfacet
  facet normal -9.807853e-1 1.950903e-1 0.000000e+0
    outer loop
      vertex 1.997705e-1 -8.274764e-2 3.840890e+1
      vertex 2.162300e-1 0.000000e+0 3.840890e+1
      vertex 2.162300e-1 0.000000e+0 3.810000e+1
    endloop
  endfacet
  facet normal 0.000000e+0 0.000000e+0 1.000000e+0
    outer loop
      vertex 0.000000e+0 0.000000e+0 3.840890e+1
      vertex 2.162300e-1 0.000000e+0 3.840890e+1
      vertex 1.997705e-1 8.274764e-2 3.840890e+1
    endloop
  endfacet
  facet normal 0.000000e+0 0.000000e+0 1.000000e+0
    outer loop
      vertex 0.000000e+0 0.000000e+0 3.840890e+1
      vertex 1.997705e-1 8.274764e-2 3.840890e+1
      vertex 1.528977e-1 1.528977e-1 3.840890e+1
    endloop
  endfacet
  facet normal 0.000000e+0 0.000000e+0 1.000000e+0
    outer loop
      vertex 0.000000e+0 0.000000e+0 3.840890e+1
      vertex 1.528977e-1 1.528977e-1 3.840890e+1
      vertex 8.274764e-2 1.997705e-1 3.840890e+1
    endloop
  endfacet
  facet normal 0.000000e+0 0.000000e+0 1.000000e+0
    outer loop
      vertex 0.000000e+0 0.000000e+0 3.840890e+1
      vertex 8.274764e-2 1.997705e-1 3.840890e+1
      vertex 0.000000e+0 2.162300e-1 3.840890e+1
    endloop
  endfacet
  facet normal 0.000000e+0 0.000000e+0 1.000000e+0
    outer loop
      vertex 0.000000e+0 0.000000e+0 3.840890e+1
      vertex 0.000000e+0 2.162300e-1 3.840890e+1
      vertex -8.274764e-2 1.997705e-1 3.840890e+1
    endloop
  endfacet
  facet normal 0.000000e+0 0.000000e+0 1.000000e+0
    outer loop
      vertex 0.000000e+0 0.000000e+0 3.840890e+1
      vertex -8.274764e-2 1.997705e-1 3.840890e+1
      vertex -1.528977e-1 1.528977e-1 3.840890e+1
    endloop
  endfacet
  facet normal 0.000000e+0 0.000000e+0 1.000000e+0
    outer loop
      vertex 0.000000e+0 0.000000e+0 3.840890e+1
      vertex -1.528977e-1 1.528977e-1 3.840890e+1
      vertex -1.997705e-1 8.274764e-2 3.840890e+1
    endloop
  endfacet
  facet normal 0.000000e+0 0.000000e+0 1.000000e+0
    outer loop
      vertex 0.000000e+0 0.000000e+0 3.840890e+1
      vertex -1.997705e-1 8.274764e-2 3.840890e+1
      vertex -2.162300e-1 0.000000e+0 3.840890e+1
    endloop
  endfacet
  facet normal 0.000000e+0 0.000000e+0 1.000000e+0
    outer loop
      vertex 0.000000e+0 0.000000e+0 3.840890e+1
      vertex -2.162300e-1 0.000000e+0 3.840890e+1
      vertex -1.997705e-1 -8.274764e-2 3.840890e+1
    endloop
  endfacet
  facet normal 0.000000e+0 0.000000e+0 1.000000e+0
    outer loop
      vertex 0.000000e+0 0.000000e+0 3.840890e+1
      vertex -1.997705e-1 -8.274764e-2 3.840890e+1
      vertex -1.528977e-1 -1.528977e-1 3.840890e+1
    endloop
  endfacet
  facet normal 0.000000e+0 0.000000e+0 1.000000e+0
    outer loop
      vertex 0.000000e+0 0.000000e+0 3.840890e+1
      vertex -1.528977e-1 -1.528977e-1 3.840890e+1
      vertex -8.274764e-2 -1.997705e-1 3.840890e+1
    endloop
  endfacet
  facet normal 0.000000e+0 0.000000e+0 1.000000e+0
    outer loop
      vertex 0.000000e+0 0.000000e+0 3.840890e+1
      vertex -8.274764e-2 -1.997705e-1 3.840890e+1
      vertex 0.000000e+0 -2.162300e-1 3.840890e+1
    endloop
  endfacet
  facet normal 0.000000e+0 0.000000e+0 1.000000e+0
    outer loop
      vertex 0.000000e+0 0.000000e+0 3.840890e+1
      vertex 0.000000e+0 -2.162300e-1 3.840890e+1
      vertex 8.274764e-2 -1.997705e-1 3.840890e+1
    endloop
  endfacet
  facet normal 0.000000e+0 0.000000e+0 1.000000e+0
    outer loop
      vertex 0.000000e+0 0.000000e+0 3.840890e+1
      vertex 8.274764e-2 -1.997705e-1 3.840890e+1
      vertex 1.528977e-1 -1.528977e-1 3.840890e+1
    endloop
  endfacet
  facet normal 0.000000e+0 0.000000e+0 1.000000e+0
    outer loop
      vertex 0.000000e+0 0.000000e+0 3.840890e+1
      vertex 1.528977e-1 -1.528977e-1 3.840890e+1
      vertex 1.997705e-1 -8.274764e-2 3.840890e+1
    endloop
  endfacet
  facet normal 0.000000e+0 0.000000e+0 1.000000e+0
    outer loop
      vertex 0.000000e+0 0.000000e+0 3.840890e+1
      vertex 1.997705e-1 -8.274764e-2 3.840890e+1
      vertex 2.162300e-1 0.000000e+0 3.840890e+1
    endloop
  endfacet
endsolid nas1352-5-24
