solid nas1352-08-10
  facet normal -9.807853e-1 -1.950903e-1 0.000000e+0
    outer loop
      vertex 8.065000e-2 0.000000e+0 0.000000e+0
      vertex 8.065000e-2 0.000000e+0 1.588000e+1
      vertex 7.451088e-2 3.086342e-2 0.000000e+0
    endloop
  endfacet
  facet normal -9.807853e-1 -1.950903e-1 0.000000e+0
    outer loop
      vertex 8.065000e-2 0.000000e+0 1.588000e+1
      vertex 7.451088e-2 3.086342e-2 1.588000e+1
      vertex 7.451088e-2 3.086342e-2 0.000000e+0
    endloop
  endfacet
  facet normal 0.000000e+0 0.000000e+0 -1.000000e+0
    outer loop
      vertex 0.000000e+0 0.000000e+0 0.000000e+0
      vertex 7.451088e-2 3.086342e-2 0.000000e+0
      vertex 8.065000e-2 0.000000e+0 0.000000e+0
    endloop
  endfacet
  facet normal -8.314696e-1 -5.555702e-1 0.000000e+0
    outer loop
      vertex 7.451088e-2 3.086342e-2 0.000000e+0
      vertex 7.451088e-2 3.086342e-2 1.588000e+1
      vertex 5.702816e-2 5.702816e-2 0.000000e+0
    endloop
  endfacet
  facet normal -8.314696e-1 -5.555702e-1 0.000000e+0
    outer loop
      vertex 7.451088e-2 3.086342e-2 1.588000e+1
      vertex 5.702816e-2 5.702816e-2 1.588000e+1
      vertex 5.702816e-2 5.702816e-2 0.000000e+0
    endloop
  endfacet
  facet normal 0.000000e+0 0.000000e+0 -1.000000e+0
    outer loop
      vertex 0.000000e+0 0.000000e+0 0.000000e+0
      vertex 5.702816e-2 5.702816e-2 0.000000e+0
      vertex 7.451088e-2 3.086342e-2 0.000000e+0
    endloop
  endfacet
  facet normal -5.555702e-1 -8.314696e-1 0.000000e+0
    outer loop
      vertex 5.702816e-2 5.702816e-2 0.000000e+0
      vertex 5.702816e-2 5.702816e-2 1.588000e+1
      vertex 3.086342e-2 7.451088e-2 0.000000e+0
    endloop
  endfacet
  facet normal -5.555702e-1 -8.314696e-1 0.000000e+0
    outer loop
      vertex 5.702816e-2 5.702816e-2 1.588000e+1
      vertex 3.086342e-2 7.451088e-2 1.588000e+1
      vertex 3.086342e-2 7.451088e-2 0.000000e+0
    endloop
  endfacet
  facet normal 0.000000e+0 0.000000e+0 -1.000000e+0
    outer loop
      vertex 0.000000e+0 0.000000e+0 0.000000e+0
      vertex 3.086342e-2 7.451088e-2 0.000000e+0
      vertex 5.702816e-2 5.702816e-2 0.000000e+0
    endloop
  endfacet
  facet normal -1.950903e-1 -9.807853e-1 0.000000e+0
    outer loop
      vertex 3.086342e-2 7.451088e-2 0.000000e+0
      vertex 3.086342e-2 7.451088e-2 1.588000e+1
      vertex 4.938388e-18 8.065000e-2 0.000000e+0
    endloop
  endfacet
  facet normal -1.950903e-1 -9.807853e-1 0.000000e+0
    outer loop
      vertex 3.086342e-2 7.451088e-2 1.588000e+1
      vertex 4.938388e-18 8.065000e-2 1.588000e+1
      vertex 4.938388e-18 8.065000e-2 0.000000e+0
    endloop
  endfacet
  facet normal 0.000000e+0 0.000000e+0 -1.000000e+0
    outer loop
      vertex 0.000000e+0 0.000000e+0 0.000000e+0
      vertex 4.938388e-18 8.065000e-2 0.000000e+0
      vertex 3.086342e-2 7.451088e-2 0.000000e+0
    endloop
  endfacet
  facet normal 1.950903e-1 -9.807853e-1 0.000000e+0
    outer loop
      vertex 4.938388e-18 8.065000e-2 0.000000e+0
      vertex 4.938388e-18 8.065000e-2 1.588000e+1
      vertex -3.086342e-2 7.451088e-2 0.000000e+0
    endloop
  endfacet
  facet normal 1.950903e-1 -9.807853e-1 0.000000e+0
    outer loop
      vertex 4.938388e-18 8.065000e-2 1.588000e+1
      vertex -3.086342e-2 7.451088e-2 1.588000e+1
      vertex -3.086342e-2 7.451088e-2 0.000000e+0
    endloop
  endfacet
  facet normal 0.000000e+0 0.000000e+0 -1.000000e+0
    outer loop
      vertex 0.000000e+0 0.000000e+0 0.000000e+0
      vertex -3.086342e-2 7.451088e-2 0.000000e+0
      vertex 4.938388e-18 8.065000e-2 0.000000e+0
    endloop
  endfacet
  facet normal 5.555702e-1 -8.314696e-1 0.000000e+0
    outer loop
      vertex -3.086342e-2 7.451088e-2 0.000000e+0
      vertex -3.086342e-2 7.451088e-2 1.588000e+1
      vertex -5.702816e-2 5.702816e-2 0.000000e+0
    endloop
  endfacet
  facet normal 5.555702e-1 -8.314696e-1 0.000000e+0
    outer loop
      vertex -3.086342e-2 7.451088e-2 1.588000e+1
      vertex -5.702816e-2 5.702816e-2 1.588000e+1
      vertex -5.702816e-2 5.702816e-2 0.000000e+0
    endloop
  endfacet
  facet normal 0.000000e+0 0.000000e+0 -1.000000e+0
    outer loop
      vertex 0.000000e+0 0.000000e+0 0.000000e+0
      vertex -5.702816e-2 5.702816e-2 0.000000e+0
      vertex -3.086342e-2 7.451088e-2 0.000000e+0
    endloop
  endfacet
  facet normal 8.314696e-1 -5.555702e-1 0.000000e+0
    outer loop
      vertex -5.702816e-2 5.702816e-2 0.000000e+0
      vertex -5.702816e-2 5.702816e-2 1.588000e+1
      vertex -7.451088e-2 3.086342e-2 0.000000e+0
    endloop
  endfacet
  facet normal 8.314696e-1 -5.555702e-1 0.000000e+0
    outer loop
      vertex -5.702816e-2 5.702816e-2 1.588000e+1
      vertex -7.451088e-2 3.086342e-2 1.588000e+1
      vertex -7.451088e-2 3.086342e-2 0.000000e+0
    endloop
  endfacet
  facet normal 0.000000e+0 0.000000e+0 -1.000000e+0
    outer loop
      vertex 0.000000e+0 0.000000e+0 0.000000e+0
      vertex -7.451088e-2 3.086342e-2 0.000000e+0
      vertex -5.702816e-2 5.702816e-2 0.000000e+0
    endloop
  endfacet
  facet normal 9.807853e-1 -1.950903e-1 0.000000e+0
    outer loop
      vertex -7.451088e-2 3.086342e-2 0.000000e+0
      vertex -7.451088e-2 3.086342e-2 1.588000e+1
      vertex -8.065000e-2 9.876776e-18 0.000000e+0
    endloop
  endfacet
  facet normal 9.807853e-1 -1.950903e-1 0.000000e+0
    outer loop
      vertex -7.451088e-2 3.086342e-2 1.588000e+1
      vertex -8.065000e-2 9.876776e-18 1.588000e+1
      vertex -8.065000e-2 9.876776e-18 0.000000e+0
    endloop
  endfacet
  facet normal 0.000000e+0 0.000000e+0 -1.000000e+0
    outer loop
      vertex 0.000000e+0 0.000000e+0 0.000000e+0
      vertex -8.065000e-2 9.876776e-18 0.000000e+0
      vertex -7.451088e-2 3.086342e-2 0.000000e+0
    endloop
  endfacet
  facet normal 9.807853e-1 1.950903e-1 0.000000e+0
    outer loop
      vertex -8.065000e-2 9.876776e-18 0.000000e+0
      vertex -8.065000e-2 9.876776e-18 1.588000e+1
      vertex -7.451088e-2 -3.086342e-2 0.000000e+0
    endloop
  endfacet
  facet normal 9.807853e-1 1.950903e-1 0.000000e+0
    outer loop
      vertex -8.065000e-2 9.876776e-18 1.588000e+1
      vertex -7.451088e-2 -3.086342e-2 1.588000e+1
      vertex -7.451088e-2 -3.086342e-2 0.000000e+0
    endloop
  endfacet
  facet normal 0.000000e+0 0.000000e+0 -1.000000e+0
    outer loop
      vertex 0.000000e+0 0.000000e+0 0.000000e+0
      vertex -7.451088e-2 -3.086342e-2 0.000000e+0
      vertex -8.065000e-2 9.876776e-18 0.000000e+0
    endloop
  endfacet
  facet normal 8.314696e-1 5.555702e-1 0.000000e+0
    outer loop
      vertex -7.451088e-2 -3.086342e-2 0.000000e+0
      vertex -7.451088e-2 -3.086342e-2 1.588000e+1
      vertex -5.702816e-2 -5.702816e-2 0.000000e+0
    endloop
  endfacet
  facet normal 8.314696e-1 5.555702e-1 0.000000e+0
    outer loop
      vertex -7.451088e-2 -3.086342e-2 1.588000e+1
      vertex -5.702816e-2 -5.702816e-2 1.588000e+1
      vertex -5.702816e-2 -5.702816e-2 0.000000e+0
    endloop
  endfacet
  facet normal 0.000000e+0 0.000000e+0 -1.000000e+0
    outer loop
      vertex 0.000000e+0 0.000000e+0 0.000000e+0
      vertex -5.702816e-2 -5.702816e-2 0.000000e+0
      vertex -7.451088e-2 -3.086342e-2 0.000000e+0
    endloop
  endfacet
  facet normal 5.555702e-1 8.314696e-1 0.000000e+0
    outer loop
      vertex -5.702816e-2 -5.702816e-2 0.000000e+0
      vertex -5.702816e-2 -5.702816e-2 1.588000e+1
      vertex -3.086342e-2 -7.451088e-2 0.000000e+0
    endloop
  endfacet
  facet normal 5.555702e-1 8.314696e-1 0.000000e+0
    outer loop
      vertex -5.702816e-2 -5.702816e-2 1.588000e+1
      vertex -3.086342e-2 -7.451088e-2 1.588000e+1
      vertex -3.086342e-2 -7.451088e-2 0.000000e+0
    endloop
  endfacet
  facet normal 0.000000e+0 0.000000e+0 -1.000000e+0
    outer loop
      vertex 0.000000e+0 0.000000e+0 0.000000e+0
      vertex -3.086342e-2 -7.451088e-2 0.000000e+0
      vertex -5.702816e-2 -5.702816e-2 0.000000e+0
    endloop
  endfacet
  facet normal 1.950903e-1 9.807853e-1 0.000000e+0
    outer loop
      vertex -3.086342e-2 -7.451088e-2 0.000000e+0
      vertex -3.086342e-2 -7.451088e-2 1.588000e+1
      vertex -1.481516e-17 -8.065000e-2 0.000000e+0
    endloop
  endfacet
  facet normal 1.950903e-1 9.807853e-1 0.000000e+0
    outer loop
      vertex -3.086342e-2 -7.451088e-2 1.588000e+1
      vertex -1.481516e-17 -8.065000e-2 1.588000e+1
      vertex -1.481516e-17 -8.065000e-2 0.000000e+0
    endloop
  endfacet
  facet normal 0.000000e+0 0.000000e+0 -1.000000e+0
    outer loop
      vertex 0.000000e+0 0.000000e+0 0.000000e+0
      vertex -1.481516e-17 -8.065000e-2 0.000000e+0
      vertex -3.086342e-2 -7.451088e-2 0.000000e+0
    endloop
  endfacet
  facet normal -1.950903e-1 9.807853e-1 0.000000e+0
    outer loop
      vertex -1.481516e-17 -8.065000e-2 0.000000e+0
      vertex -1.481516e-17 -8.065000e-2 1.588000e+1
      vertex 3.086342e-2 -7.451088e-2 0.000000e+0
    endloop
  endfacet
  facet normal -1.950903e-1 9.807853e-1 0.000000e+0
    outer loop
      vertex -1.481516e-17 -8.065000e-2 1.588000e+1
      vertex 3.086342e-2 -7.451088e-2 1.588000e+1
      vertex 3.086342e-2 -7.451088e-2 0.000000e+0
    endloop
  endfacet
  facet normal 0.000000e+0 0.000000e+0 -1.000000e+0
    outer loop
      vertex 0.000000e+0 0.000000e+0 0.000000e+0
      vertex 3.086342e-2 -7.451088e-2 0.000000e+0
      vertex -1.481516e-17 -8.065000e-2 0.000000e+0
    endloop
  endfacet
  facet normal -5.555702e-1 8.314696e-1 0.000000e+0
    outer loop
      vertex 3.086342e-2 -7.451088e-2 0.000000e+0
      vertex 3.086342e-2 -7.451088e-2 1.588000e+1
      vertex 5.702816e-2 -5.702816e-2 0.000000e+0
    endloop
  endfacet
  facet normal -5.555702e-1 8.314696e-1 0.000000e+0
    outer loop
      vertex 3.086342e-2 -7.451088e-2 1.588000e+1
      vertex 5.702816e-2 -5.702816e-2 1.588000e+1
      vertex 5.702816e-2 -5.702816e-2 0.000000e+0
    endloop
  endfacet
  facet normal 0.000000e+0 0.000000e+0 -1.000000e+0
    outer loop
      vertex 0.000000e+0 0.000000e+0 0.000000e+0
      vertex 5.702816e-2 -5.702816e-2 0.000000e+0
      vertex 3.086342e-2 -7.451088e-2 0.000000e+0
    endloop
  endfacet
  facet normal -8.314696e-1 5.555702e-1 0.000000e+0
    outer loop
      vertex 5.702816e-2 -5.702816e-2 0.000000e+0
      vertex 5.702816e-2 -5.702816e-2 1.588000e+1
      vertex 7.451088e-2 -3.086342e-2 0.000000e+0
    endloop
  endfacet
  facet normal -8.314696e-1 5.555702e-1 0.000000e+0
    outer loop
      vertex 5.702816e-2 -5.702816e-2 1.588000e+1
      vertex 7.451088e-2 -3.086342e-2 1.588000e+1
      vertex 7.451088e-2 -3.086342e-2 0.000000e+0
    endloop
  endfacet
  facet normal 0.000000e+0 0.000000e+0 -1.000000e+0
    outer loop
      vertex 0.000000e+0 0.000000e+0 0.000000e+0
      vertex 7.451088e-2 -3.086342e-2 0.000000e+0
      vertex 5.702816e-2 -5.702816e-2 0.000000e+0
    endloop
  endfacet
  facet normal -9.807853e-1 1.950903e-1 0.000000e+0
    outer loop
      vertex 7.451088e-2 -3.086342e-2 0.000000e+0
      vertex 7.451088e-2 -3.086342e-2 1.588000e+1
      vertex 8.065000e-2 -1.975355e-17 0.000000e+0
    endloop
  endfacet
  facet normal -9.807853e-1 1.950903e-1 0.000000e+0
    outer loop
      vertex 7.451088e-2 -3.086342e-2 1.588000e+1
      vertex 8.065000e-2 -1.975355e-17 1.588000e+1
      vertex 8.065000e-2 -1.975355e-17 0.000000e+0
    endloop
  endfacet
  facet normal 0.000000e+0 0.000000e+0 -1.000000e+0
    outer loop
      vertex 0.000000e+0 0.000000e+0 0.000000e+0
      vertex 8.065000e-2 -1.975355e-17 0.000000e+0
      vertex 7.451088e-2 -3.086342e-2 0.000000e+0
    endloop
  endfacet
  facet normal -9.807853e-1 -1.950903e-1 0.000000e+0
    outer loop
      vertex 1.129100e-1 0.000000e+0 1.588000e+1
      vertex 1.129100e-1 0.000000e+0 1.604130e+1
      vertex 1.043152e-1 4.320879e-2 1.588000e+1
    endloop
  endfacet
  facet normal -9.807853e-1 -1.950903e-1 0.000000e+0
    outer loop
      vertex 1.129100e-1 0.000000e+0 1.604130e+1
      vertex 1.043152e-1 4.320879e-2 1.604130e+1
      vertex 1.043152e-1 4.320879e-2 1.588000e+1
    endloop
  endfacet
  facet normal 0.000000e+0 0.000000e+0 1.000000e+0
    outer loop
      vertex 0.000000e+0 0.000000e+0 1.604130e+1
      vertex 1.129100e-1 0.000000e+0 1.604130e+1
      vertex 1.043152e-1 4.320879e-2 1.604130e+1
    endloop
  endfacet
  facet normal -8.314696e-1 -5.555702e-1 0.000000e+0
    outer loop
      vertex 1.043152e-1 4.320879e-2 1.588000e+1
      vertex 1.043152e-1 4.320879e-2 1.604130e+1
      vertex 7.983943e-2 7.983943e-2 1.588000e+1
    endloop
  endfacet
  facet normal -8.314696e-1 -5.555702e-1 0.000000e+0
    outer loop
      vertex 1.043152e-1 4.320879e-2 1.604130e+1
      vertex 7.983943e-2 7.983943e-2 1.604130e+1
      vertex 7.983943e-2 7.983943e-2 1.588000e+1
    endloop
  endfacet
  facet normal 0.000000e+0 0.000000e+0 1.000000e+0
    outer loop
      vertex 0.000000e+0 0.000000e+0 1.604130e+1
      vertex 1.043152e-1 4.320879e-2 1.604130e+1
      vertex 7.983943e-2 7.983943e-2 1.604130e+1
    endloop
  endfacet
  facet normal -5.555702e-1 -8.314696e-1 0.000000e+0
    outer loop
      vertex 7.983943e-2 7.983943e-2 1.588000e+1
      vertex 7.983943e-2 7.983943e-2 1.604130e+1
      vertex 4.320879e-2 1.043152e-1 1.588000e+1
    endloop
  endfacet
  facet normal -5.555702e-1 -8.314696e-1 0.000000e+0
    outer loop
      vertex 7.983943e-2 7.983943e-2 1.604130e+1
      vertex 4.320879e-2 1.043152e-1 1.604130e+1
      vertex 4.320879e-2 1.043152e-1 1.588000e+1
    endloop
  endfacet
  facet normal 0.000000e+0 0.000000e+0 1.000000e+0
    outer loop
      vertex 0.000000e+0 0.000000e+0 1.604130e+1
      vertex 7.983943e-2 7.983943e-2 1.604130e+1
      vertex 4.320879e-2 1.043152e-1 1.604130e+1
    endloop
  endfacet
  facet normal -1.950903e-1 -9.807853e-1 0.000000e+0
    outer loop
      vertex 4.320879e-2 1.043152e-1 1.588000e+1
      vertex 4.320879e-2 1.043152e-1 1.604130e+1
      vertex 6.913744e-18 1.129100e-1 1.588000e+1
    endloop
  endfacet
  facet normal -1.950903e-1 -9.807853e-1 0.000000e+0
    outer loop
      vertex 4.320879e-2 1.043152e-1 1.604130e+1
      vertex 6.913744e-18 1.129100e-1 1.604130e+1
      vertex 6.913744e-18 1.129100e-1 1.588000e+1
    endloop
  endfacet
  facet normal 0.000000e+0 0.000000e+0 1.000000e+0
    outer loop
      vertex 0.000000e+0 0.000000e+0 1.604130e+1
      vertex 4.320879e-2 1.043152e-1 1.604130e+1
      vertex 6.913744e-18 1.129100e-1 1.604130e+1
    endloop
  endfacet
  facet normal 1.950903e-1 -9.807853e-1 0.000000e+0
    outer loop
      vertex 6.913744e-18 1.129100e-1 1.588000e+1
      vertex 6.913744e-18 1.129100e-1 1.604130e+1
      vertex -4.320879e-2 1.043152e-1 1.588000e+1
    endloop
  endfacet
  facet normal 1.950903e-1 -9.807853e-1 0.000000e+0
    outer loop
      vertex 6.913744e-18 1.129100e-1 1.604130e+1
      vertex -4.320879e-2 1.043152e-1 1.604130e+1
      vertex -4.320879e-2 1.043152e-1 1.588000e+1
    endloop
  endfacet
  facet normal 0.000000e+0 0.000000e+0 1.000000e+0
    outer loop
      vertex 0.000000e+0 0.000000e+0 1.604130e+1
      vertex 6.913744e-18 1.129100e-1 1.604130e+1
      vertex -4.320879e-2 1.043152e-1 1.604130e+1
    endloop
  endfacet
  facet normal 5.555702e-1 -8.314696e-1 0.000000e+0
    outer loop
      vertex -4.320879e-2 1.043152e-1 1.588000e+1
      vertex -4.320879e-2 1.043152e-1 1.604130e+1
      vertex -7.983943e-2 7.983943e-2 1.588000e+1
    endloop
  endfacet
  facet normal 5.555702e-1 -8.314696e-1 0.000000e+0
    outer loop
      vertex -4.320879e-2 1.043152e-1 1.604130e+1
      vertex -7.983943e-2 7.983943e-2 1.604130e+1
      vertex -7.983943e-2 7.983943e-2 1.588000e+1
    endloop
  endfacet
  facet normal 0.000000e+0 0.000000e+0 1.000000e+0
    outer loop
      vertex 0.000000e+0 0.000000e+0 1.604130e+1
      vertex -4.320879e-2 1.043152e-1 1.604130e+1
      vertex -7.983943e-2 7.983943e-2 1.604130e+1
    endloop
  endfacet
  facet normal 8.314696e-1 -5.555702e-1 0.000000e+0
    outer loop
      vertex -7.983943e-2 7.983943e-2 1.588000e+1
      vertex -7.983943e-2 7.983943e-2 1.604130e+1
      vertex -1.043152e-1 4.320879e-2 1.588000e+1
    endloop
  endfacet
  facet normal 8.314696e-1 -5.555702e-1 0.000000e+0
    outer loop
      vertex -7.983943e-2 7.983943e-2 1.604130e+1
      vertex -1.043152e-1 4.320879e-2 1.604130e+1
      vertex -1.043152e-1 4.320879e-2 1.588000e+1
    endloop
  endfacet
  facet normal 0.000000e+0 0.000000e+0 1.000000e+0
    outer loop
      vertex 0.000000e+0 0.000000e+0 1.604130e+1
      vertex -7.983943e-2 7.983943e-2 1.604130e+1
      vertex -1.043152e-1 4.320879e-2 1.604130e+1
    endloop
  endfacet
  facet normal 9.807853e-1 -1.950903e-1 0.000000e+0
    outer loop
      vertex -1.043152e-1 4.320879e-2 1.588000e+1
      vertex -1.043152e-1 4.320879e-2 1.604130e+1
      vertex -1.129100e-1 1.382749e-17 1.588000e+1
    endloop
  endfacet
  facet normal 9.807853e-1 -1.950903e-1 0.000000e+0
    outer loop
      vertex -1.043152e-1 4.320879e-2 1.604130e+1
      vertex -1.129100e-1 1.382749e-17 1.604130e+1
      vertex -1.129100e-1 1.382749e-17 1.588000e+1
    endloop
  endfacet
  facet normal 0.000000e+0 0.000000e+0 1.000000e+0
    outer loop
      vertex 0.000000e+0 0.000000e+0 1.604130e+1
      vertex -1.043152e-1 4.320879e-2 1.604130e+1
      vertex -1.129100e-1 1.382749e-17 1.604130e+1
    endloop
  endfacet
  facet normal 9.807853e-1 1.950903e-1 0.000000e+0
    outer loop
      vertex -1.129100e-1 1.382749e-17 1.588000e+1
      vertex -1.129100e-1 1.382749e-17 1.604130e+1
      vertex -1.043152e-1 -4.320879e-2 1.588000e+1
    endloop
  endfacet
  facet normal 9.807853e-1 1.950903e-1 0.000000e+0
    outer loop
      vertex -1.129100e-1 1.382749e-17 1.604130e+1
      vertex -1.043152e-1 -4.320879e-2 1.604130e+1
      vertex -1.043152e-1 -4.320879e-2 1.588000e+1
    endloop
  endfacet
  facet normal 0.000000e+0 0.000000e+0 1.000000e+0
    outer loop
      vertex 0.000000e+0 0.000000e+0 1.604130e+1
      vertex -1.129100e-1 1.382749e-17 1.604130e+1
      vertex -1.043152e-1 -4.320879e-2 1.604130e+1
    endloop
  endfacet
  facet normal 8.314696e-1 5.555702e-1 0.000000e+0
    outer loop
      vertex -1.043152e-1 -4.320879e-2 1.588000e+1
      vertex -1.043152e-1 -4.320879e-2 1.604130e+1
      vertex -7.983943e-2 -7.983943e-2 1.588000e+1
    endloop
  endfacet
  facet normal 8.314696e-1 5.555702e-1 0.000000e+0
    outer loop
      vertex -1.043152e-1 -4.320879e-2 1.604130e+1
      vertex -7.983943e-2 -7.983943e-2 1.604130e+1
      vertex -7.983943e-2 -7.983943e-2 1.588000e+1
    endloop
  endfacet
  facet normal 0.000000e+0 0.000000e+0 1.000000e+0
    outer loop
      vertex 0.000000e+0 0.000000e+0 1.604130e+1
      vertex -1.043152e-1 -4.320879e-2 1.604130e+1
      vertex -7.983943e-2 -7.983943e-2 1.604130e+1
    endloop
  endfacet
  facet normal 5.555702e-1 8.314696e-1 0.000000e+0
    outer loop
      vertex -7.983943e-2 -7.983943e-2 1.588000e+1
      vertex -7.983943e-2 -7.983943e-2 1.604130e+1
      vertex -4.320879e-2 -1.043152e-1 1.588000e+1
    endloop
  endfacet
  facet normal 5.555702e-1 8.314696e-1 0.000000e+0
    outer loop
      vertex -7.983943e-2 -7.983943e-2 1.604130e+1
      vertex -4.320879e-2 -1.043152e-1 1.604130e+1
      vertex -4.320879e-2 -1.043152e-1 1.588000e+1
    endloop
  endfacet
  facet normal 0.000000e+0 0.000000e+0 1.000000e+0
    outer loop
      vertex 0.000000e+0 0.000000e+0 1.604130e+1
      vertex -7.983943e-2 -7.983943e-2 1.604130e+1
      vertex -4.320879e-2 -1.043152e-1 1.604130e+1
    endloop
  endfacet
  facet normal 1.950903e-1 9.807853e-1 0.000000e+0
    outer loop
      vertex -4.320879e-2 -1.043152e-1 1.588000e+1
      vertex -4.320879e-2 -1.043152e-1 1.604130e+1
      vertex -2.074123e-17 -1.129100e-1 1.588000e+1
    endloop
  endfacet
  facet normal 1.950903e-1 9.807853e-1 0.000000e+0
    outer loop
      vertex -4.320879e-2 -1.043152e-1 1.604130e+1
      vertex -2.074123e-17 -1.129100e-1 1.604130e+1
      vertex -2.074123e-17 -1.129100e-1 1.588000e+1
    endloop
  endfacet
  facet normal 0.000000e+0 0.000000e+0 1.000000e+0
    outer loop
      vertex 0.000000e+0 0.000000e+0 1.604130e+1
      vertex -4.320879e-2 -1.043152e-1 1.604130e+1
      vertex -2.074123e-17 -1.129100e-1 1.604130e+1
    endloop
  endfacet
  facet normal -1.950903e-1 9.807853e-1 0.000000e+0
    outer loop
      vertex -2.074123e-17 -1.129100e-1 1.588000e+1
      vertex -2.074123e-17 -1.129100e-1 1.604130e+1
      vertex 4.320879e-2 -1.043152e-1 1.588000e+1
    endloop
  endfacet
  facet normal -1.950903e-1 9.807853e-1 0.000000e+0
    outer loop
      vertex -2.074123e-17 -1.129100e-1 1.604130e+1
      vertex 4.320879e-2 -1.043152e-1 1.604130e+1
      vertex 4.320879e-2 -1.043152e-1 1.588000e+1
    endloop
  endfacet
  facet normal 0.000000e+0 0.000000e+0 1.000000e+0
    outer loop
      vertex 0.000000e+0 0.000000e+0 1.604130e+1
      vertex -2.074123e-17 -1.129100e-1 1.604130e+1
      vertex 4.320879e-2 -1.043152e-1 1.604130e+1
    endloop
  endfacet
  facet normal -5.555702e-1 8.314696e-1 0.000000e+0
    outer loop
      vertex 4.320879e-2 -1.043152e-1 1.588000e+1
      vertex 4.320879e-2 -1.043152e-1 1.604130e+1
      vertex 7.983943e-2 -7.983943e-2 1.588000e+1
    endloop
  endfacet
  facet normal -5.555702e-1 8.314696e-1 0.000000e+0
    outer loop
      vertex 4.320879e-2 -1.043152e-1 1.604130e+1
      vertex 7.983943e-2 -7.983943e-2 1.604130e+1
      vertex 7.983943e-2 -7.983943e-2 1.588000e+1
    endloop
  endfacet
  facet normal 0.000000e+0 0.000000e+0 1.000000e+0
    outer loop
      vertex 0.000000e+0 0.000000e+0 1.604130e+1
      vertex 4.320879e-2 -1.043152e-1 1.604130e+1
      vertex 7.983943e-2 -7.983943e-2 1.604130e+1
    endloop
  endfacet
  facet normal -8.314696e-1 5.555702e-1 0.000000e+0
    outer loop
      vertex 7.983943e-2 -7.983943e-2 1.588000e+1
      vertex 7.983943e-2 -7.983943e-2 1.604130e+1
      vertex 1.043152e-1 -4.320879e-2 1.588000e+1
    endloop
  endfacet
  facet normal -8.314696e-1 5.555702e-1 0.000000e+0
    outer loop
      vertex 7.983943e-2 -7.983943e-2 1.604130e+1
      vertex 1.043152e-1 -4.320879e-2 1.604130e+1
      vertex 1.043152e-1 -4.320879e-2 1.588000e+1
    endloop
  endfacet
  facet normal 0.000000e+0 0.000000e+0 1.000000e+0
    outer loop
      vertex 0.000000e+0 0.000000e+0 1.604130e+1
      vertex 7.983943e-2 -7.983943e-2 1.604130e+1
      vertex 1.043152e-1 -4.320879e-2 1.604130e+1
    endloop
  endfacet
  facet normal -9.807853e-1 1.950903e-1 0.000000e+0
    outer loop
      vertex 1.043152e-1 -4.320879e-2 1.588000e+1
      vertex 1.043152e-1 -4.320879e-2 1.604130e+1
      vertex 1.129100e-1 -2.765497e-17 1.588000e+1
    endloop
  endfacet
  facet normal -9.807853e-1 1.950903e-1 0.000000e+0
    outer loop
      vertex 1.043152e-1 -4.320879e-2 1.604130e+1
      vertex 1.129100e-1 -2.765497e-17 1.604130e+1
      vertex 1.129100e-1 -2.765497e-17 1.588000e+1
    endloop
  endfacet
  facet normal 0.000000e+0 0.000000e+0 1.000000e+0
    outer loop
      vertex 0.000000e+0 0.000000e+0 1.604130e+1
      vertex 1.043152e-1 -4.320879e-2 1.604130e+1
      vertex 1.129100e-1 -2.765497e-17 1.604130e+1
    endloop
  endfacet
endsolid nas1352-08-10
