solid nas1352-04-6
  facet normal -9.807853e-1 -1.950903e-1 0.000000e+0
    outer loop
      vertex 5.490000e-2 0.000000e+0 0.000000e+0
      vertex 5.490000e-2 0.000000e+0 9.520000e+0
      vertex 5.072099e-2 2.100932e-2 0.000000e+0
    endloop
  endfacet
  facet normal -9.807853e-1 -1.950903e-1 0.000000e+0
    outer loop
      vertex 5.490000e-2 0.000000e+0 9.520000e+0
      vertex 5.072099e-2 2.100932e-2 9.520000e+0
      vertex 5.072099e-2 2.100932e-2 0.000000e+0
    endloop
  endfacet
  facet normal -8.314696e-1 -5.555702e-1 0.000000e+0
    outer loop
      vertex 5.072099e-2 2.100932e-2 0.000000e+0
      vertex 5.072099e-2 2.100932e-2 9.520000e+0
      vertex 3.882016e-2 3.882016e-2 0.000000e+0
    endloop
  endfacet
  facet normal -8.314696e-1 -5.555702e-1 0.000000e+0
    outer loop
      vertex 5.072099e-2 2.100932e-2 9.520000e+0
      vertex 3.882016e-2 3.882016e-2 9.520000e+0
      vertex 3.882016e-2 3.882016e-2 0.000000e+0
    endloop
  endfacet
  facet normal -5.555702e-1 -8.314696e-1 0.000000e+0
    outer loop
      vertex 3.882016e-2 3.882016e-2 0.000000e+0
      vertex 3.882016e-2 3.882016e-2 9.520000e+0
      vertex 2.100932e-2 5.072099e-2 0.000000e+0
    endloop
  endfacet
  facet normal -5.555702e-1 -8.314696e-1 0.000000e+0
    outer loop
      vertex 3.882016e-2 3.882016e-2 9.520000e+0
      vertex 2.100932e-2 5.072099e-2 9.520000e+0
      vertex 2.100932e-2 5.072099e-2 0.000000e+0
    endloop
  endfacet
  facet normal -1.950903e-1 -9.807853e-1 0.000000e+0
    outer loop
      vertex 2.100932e-2 5.072099e-2 0.000000e+0
      vertex 2.100932e-2 5.072099e-2 9.520000e+0
      vertex 0.000000e+0 5.490000e-2 0.000000e+0
    endloop
  endfacet
  facet normal -1.950903e-1 -9.807853e-1 0.000000e+0
    outer loop
      vertex 2.100932e-2 5.072099e-2 9.520000e+0
      vertex 0.000000e+0 5.490000e-2 9.520000e+0
      vertex 0.000000e+0 5.490000e-2 0.000000e+0
    endloop
  endfacet
  facet normal 1.950903e-1 -9.807853e-1 0.000000e+0
    outer loop
      vertex 0.000000e+0 5.490000e-2 0.000000e+0
      vertex 0.000000e+0 5.490000e-2 9.520000e+0
      vertex -2.100932e-2 5.072099e-2 0.000000e+0
    endloop
  endfacet
  facet normal 1.950903e-1 -9.807853e-1 0.000000e+0
    outer loop
      vertex 0.000000e+0 5.490000e-2 9.520000e+0
      vertex -2.100932e-2 5.072099e-2 9.520000e+0
      vertex -2.100932e-2 5.072099e-2 0.000000e+0
    endloop
  endfacet
  facet normal 5.555702e-1 -8.314696e-1 0.000000e+0
    outer loop
      vertex -2.100932e-2 5.072099e-2 0.000000e+0
      vertex -2.100932e-2 5.072099e-2 9.520000e+0
      vertex -3.882016e-2 3.882016e-2 0.000000e+0
    endloop
  endfacet
  facet normal 5.555702e-1 -8.314696e-1 0.000000e+0
    outer loop
      vertex -2.100932e-2 5.072099e-2 9.520000e+0
      vertex -3.882016e-2 3.882016e-2 9.520000e+0
      vertex -3.882016e-2 3.882016e-2 0.000000e+0
    endloop
  endfacet
  facet normal 8.314696e-1 -5.555702e-1 0.000000e+0
    outer loop
      vertex -3.882016e-2 3.882016e-2 0.000000e+0
      vertex -3.882016e-2 3.882016e-2 9.520000e+0
      vertex -5.072099e-2 2.100932e-2 0.000000e+0
    endloop
  endfacet
  facet normal 8.314696e-1 -5.555702e-1 0.000000e+0
    outer loop
      vertex -3.882016e-2 3.882016e-2 9.520000e+0
      vertex -5.072099e-2 2.100932e-2 9.520000e+0
      vertex -5.072099e-2 2.100932e-2 0.000000e+0
    endloop
  endfacet
  facet normal 9.807853e-1 -1.950903e-1 0.000000e+0
    outer loop
      vertex -5.072099e-2 2.100932e-2 0.000000e+0
      vertex -5.072099e-2 2.100932e-2 9.520000e+0
      vertex -5.490000e-2 0.000000e+0 0.000000e+0
    endloop
  endfacet
  facet normal 9.807853e-1 -1.950903e-1 0.000000e+0
    outer loop
      vertex -5.072099e-2 2.100932e-2 9.520000e+0
      vertex -5.490000e-2 0.000000e+0 9.520000e+0
      vertex -5.490000e-2 0.000000e+0 0.000000e+0
    endloop
  endfacet
  facet normal 9.807853e-1 1.950903e-1 0.000000e+0
    outer loop
      vertex -5.490000e-2 0.000000e+0 0.000000e+0
      vertex -5.490000e-2 0.000000e+0 9.520000e+0
      vertex -5.072099e-2 -2.100932e-2 0.000000e+0
    endloop
  endfacet
  facet normal 9.807853e-1 1.950903e-1 0.000000e+0
    outer loop
      vertex -5.490000e-2 0.000000e+0 9.520000e+0
      vertex -5.072099e-2 -2.100932e-2 9.520000e+0
      vertex -5.072099e-2 -2.100932e-2 0.000000e+0
    endloop
  endfacet
  facet normal 8.314696e-1 5.555702e-1 0.000000e+0
    outer loop
      vertex -5.072099e-2 -2.100932e-2 0.000000e+0
      vertex -5.072099e-2 -2.100932e-2 9.520000e+0
      vertex -3.882016e-2 -3.882016e-2 0.000000e+0
    endloop
  endfacet
  facet normal 8.314696e-1 5.555702e-1 0.000000e+0
    outer loop
      vertex -5.072099e-2 -2.100932e-2 9.520000e+0
      vertex -3.882016e-2 -3.882016e-2 9.520000e+0
      vertex -3.882016e-2 -3.882016e-2 0.000000e+0
    endloop
  endfacet
  facet normal 5.555702e-1 8.314696e-1 0.000000e+0
    outer loop
      vertex -3.882016e-2 -3.882016e-2 0.000000e+0
      vertex -3.882016e-2 -3.882016e-2 9.520000e+0
      vertex -2.100932e-2 -5.072099e-2 0.000000e+0
    endloop
  endfacet
  facet normal 5.555702e-1 8.314696e-1 0.000000e+0
    outer loop
      vertex -3.882016e-2 -3.882016e-2 9.520000e+0
      vertex -2.100932e-2 -5.072099e-2 9.520000e+0
      vertex -2.100932e-2 -5.072099e-2 0.000000e+0
    endloop
  endfacet
  facet normal 1.950903e-1 9.807853e-1 0.000000e+0
    outer loop
      vertex -2.100932e-2 -5.072099e-2 0.000000e+0
      vertex -2.100932e-2 -5.072099e-2 9.520000e+0
      vertex 0.000000e+0 -5.490000e-2 0.000000e+0
    endloop
  endfacet
  facet normal 1.950903e-1 9.807853e-1 0.000000e+0
    outer loop
      vertex -2.100932e-2 -5.072099e-2 9.520000e+0
      vertex 0.000000e+0 -5.490000e-2 9.520000e+0
      vertex 0.000000e+0 -5.490000e-2 0.000000e+0
    endloop
  endfacet
  facet normal -1.950903e-1 9.807853e-1 0.000000e+0
    outer loop
      vertex 0.000000e+0 -5.490000e-2 0.000000e+0
      vertex 0.000000e+0 -5.490000e-2 9.520000e+0
      vertex 2.100932e-2 -5.072099e-2 0.000000e+0
    endloop
  endfacet
  facet normal -1.950903e-1 9.807853e-1 0.000000e+0
    outer loop
      vertex 0.000000e+0 -5.490000e-2 9.520000e+0
      vertex 2.100932e-2 -5.072099e-2 9.520000e+0
      vertex 2.100932e-2 -5.072099e-2 0.000000e+0
    endloop
  endfacet
  facet normal -5.555702e-1 8.314696e-1 0.000000e+0
    outer loop
      vertex 2.100932e-2 -5.072099e-2 0.000000e+0
      vertex 2.100932e-2 -5.072099e-2 9.520000e+0
      vertex 3.882016e-2 -3.882016e-2 0.000000e+0
    endloop
  endfacet
  facet normal -5.555702e-1 8.314696e-1 0.000000e+0
    outer loop
      vertex 2.100932e-2 -5.072099e-2 9.520000e+0
      vertex 3.882016e-2 -3.882016e-2 9.520000e+0
      vertex 3.882016e-2 -3.882016e-2 0.000000e+0
    endloop
  endfacet
  facet normal -8.314696e-1 5.555702e-1 0.000000e+0
    outer loop
      vertex 3.882016e-2 -3.882016e-2 0.000000e+0
      vertex 3.882016e-2 -3.882016e-2 9.520000e+0
      vertex 5.072099e-2 -2.100932e-2 0.000000e+0
    endloop
  endfacet
  facet normal -8.314696e-1 5.555702e-1 0.000000e+0
    outer loop
      vertex 3.882016e-2 -3.882016e-2 9.520000e+0
      vertex 5.072099e-2 -2.100932e-2 9.520000e+0
      vertex 5.072099e-2 -2.100932e-2 0.000000e+0
    endloop
  endfacet
  facet normal -9.807853e-1 1.950903e-1 0.000000e+0
    outer loop
      vertex 5.072099e-2 -2.100932e-2 0.000000e+0
      vertex 5.072099e-2 -2.100932e-2 9.520000e+0
      vertex 5.490000e-2 0.000000e+0 0.000000e+0
    endloop
  endfacet
  facet normal -9.807853e-1 1.950903e-1 0.000000e+0
    outer loop
      vertex 5.072099e-2 -2.100932e-2 9.520000e+0
      vertex 5.490000e-2 0.000000e+0 9.520000e+0
      vertex 5.490000e-2 0.000000e+0 0.000000e+0
    endloop
  endfacet
  facet normal 0.000000e+0 0.000000e+0 -1.000000e+0
    outer loop
      vertex 0.000000e+0 0.000000e+0 0.000000e+0
      vertex 5.072099e-2 2.100932e-2 0.000000e+0
      vertex 5.490000e-2 0.000000e+0 0.000000e+0
    endloop
  endfacet
  facet normal 0.000000e+0 0.000000e+0 -1.000000e+0
    outer loop
      vertex 0.000000e+0 0.000000e+0 0.000000e+0
      vertex 3.882016e-2 3.882016e-2 0.000000e+0
      vertex 5.072099e-2 2.100932e-2 0.000000e+0
    endloop
  endfacet
  facet normal 0.000000e+0 0.000000e+0 -1.000000e+0
    outer loop
      vertex 0.000000e+0 0.000000e+0 0.000000e+0
      vertex 2.100932e-2 5.072099e-2 0.000000e+0
      vertex 3.882016e-2 3.882016e-2 0.000000e+0
    endloop
  endfacet
  facet normal 0.000000e+0 0.000000e+0 -1.000000e+0
    outer loop
      vertex 0.000000e+0 0.000000e+0 0.000000e+0
      vertex 0.000000e+0 5.490000e-2 0.000000e+0
      vertex 2.100932e-2 5.072099e-2 0.000000e+0
    endloop
  endfacet
  facet normal 0.000000e+0 0.000000e+0 -1.000000e+0
    outer loop
      vertex 0.000000e+0 0.000000e+0 0.000000e+0
      vertex -2.100932e-2 5.072099e-2 0.000000e+0
      vertex 0.000000e+0 5.490000e-2 0.000000e+0
    endloop
  endfacet
  facet normal 0.000000e+0 0.000000e+0 -1.000000e+0
    outer loop
      vertex 0.000000e+0 0.000000e+0 0.000000e+0
      vertex -3.882016e-2 3.882016e-2 0.000000e+0
      vertex -2.100932e-2 5.072099e-2 0.000000e+0
    endloop
  endfacet
  facet normal 0.000000e+0 0.000000e+0 -1.000000e+0
    outer loop
      vertex 0.000000e+0 0.000000e+0 0.000000e+0
      vertex -5.072099e-2 2.100932e-2 0.000000e+0
      vertex -3.882016e-2 3.882016e-2 0.000000e+0
    endloop
  endfacet
  facet normal 0.000000e+0 0.000000e+0 -1.000000e+0
    outer loop
      vertex 0.000000e+0 0.000000e+0 0.000000e+0
      vertex -5.490000e-2 0.000000e+0 0.000000e+0
      vertex -5.072099e-2 2.100932e-2 0.000000e+0
    endloop
  endfacet
  facet normal 0.000000e+0 0.000000e+0 -1.000000e+0
    outer loop
      vertex 0.000000e+0 0.000000e+0 0.000000e+0
      vertex -5.072099e-2 -2.100932e-2 0.000000e+0
      vertex -5.490000e-2 0.000000e+0 0.000000e+0
    endloop
  endfacet
  facet normal 0.000000e+0 0.000000e+0 -1.000000e+0
    outer loop
      vertex 0.000000e+0 0.000000e+0 0.000000e+0
      vertex -3.882016e-2 -3.882016e-2 0.000000e+0
      vertex -5.072099e-2 -2.100932e-2 0.000000e+0
    endloop
  endfacet
  facet normal 0.000000e+0 0.000000e+0 -1.000000e+0
    outer loop
      vertex 0.000000e+0 0.000000e+0 0.000000e+0
      vertex -2.100932e-2 -5.072099e-2 0.000000e+0
      vertex -3.882016e-2 -3.882016e-2 0.000000e+0
    endloop
  endfacet
  facet normal 0.000000e+0 0.000000e+0 -1.000000e+0
    outer loop
      vertex 0.000000e+0 0.000000e+0 0.000000e+0
      vertex 0.000000e+0 -5.490000e-2 0.000000e+0
      vertex -2.100932e-2 -5.072099e-2 0.000000e+0
    endloop
  endfacet
  facet normal 0.000000e+0 0.000000e+0 -1.000000e+0
    outer loop
      vertex 0.000000e+0 0.000000e+0 0.000000e+0
      vertex 2.100932e-2 -5.072099e-2 0.000000e+0
      vertex 0.000000e+0 -5.490000e-2 0.000000e+0
    endloop
  endfacet
  facet normal 0.000000e+0 0.000000e+0 -1.000000e+0
    outer loop
      vertex 0.000000e+0 0.000000e+0 0.000000e+0
      vertex 3.882016e-2 -3.882016e-2 0.000000e+0
      vertex 2.100932e-2 -5.072099e-2 0.000000e+0
    endloop
  endfacet
  facet normal 0.000000e+0 0.000000e+0 -1.000000e+0
    outer loop
      vertex 0.000000e+0 0.000000e+0 0.000000e+0
      vertex 5.072099e-2 -2.100932e-2 0.000000e+0
      vertex 3.882016e-2 -3.882016e-2 0.000000e+0
    endloop
  endfacet
  facet normal 0.000000e+0 0.000000e+0 -1.000000e+0
    outer loop
      vertex 0.000000e+0 0.000000e+0 0.000000e+0
      vertex 5.490000e-2 0.000000e+0 0.000000e+0
      vertex 5.072099e-2 -2.100932e-2 0.000000e+0
    endloop
  endfacet
  facet normal 0.000000e+0 0.000000e+0 -1.000000e+0
    outer loop
      vertex 7.686000e-2 0.000000e+0 9.520000e+0
      vertex 5.490000e-2 0.000000e+0 9.520000e+0
      vertex 7.100938e-2 2.941305e-2 9.520000e+0
    endloop
  endfacet
  facet normal 0.000000e+0 0.000000e+0 -1.000000e+0
    outer loop
      vertex 7.100938e-2 2.941305e-2 9.520000e+0
      vertex 5.490000e-2 0.000000e+0 9.520000e+0
      vertex 5.072099e-2 2.100932e-2 9.520000e+0
    endloop
  endfacet
  facet normal 0.000000e+0 0.000000e+0 -1.000000e+0
    outer loop
      vertex 7.100938e-2 2.941305e-2 9.520000e+0
      vertex 5.072099e-2 2.100932e-2 9.520000e+0
      vertex 5.434823e-2 5.434823e-2 9.520000e+0
    endloop
  endfacet
  facet normal 0.000000e+0 0.000000e+0 -1.000000e+0
    outer loop
      vertex 5.434823e-2 5.434823e-2 9.520000e+0
      vertex 5.072099e-2 2.100932e-2 9.520000e+0
      vertex 3.882016e-2 3.882016e-2 9.520000e+0
    endloop
  endfacet
  facet normal 0.000000e+0 0.000000e+0 -1.000000e+0
    outer loop
      vertex 5.434823e-2 5.434823e-2 9.520000e+0
      vertex 3.882016e-2 3.882016e-2 9.520000e+0
      vertex 2.941305e-2 7.100938e-2 9.520000e+0
    endloop
  endfacet
  facet normal 0.000000e+0 0.000000e+0 -1.000000e+0
    outer loop
      vertex 2.941305e-2 7.100938e-2 9.520000e+0
      vertex 3.882016e-2 3.882016e-2 9.520000e+0
      vertex 2.100932e-2 5.072099e-2 9.520000e+0
    endloop
  endfacet
  facet normal 0.000000e+0 0.000000e+0 -1.000000e+0
    outer loop
      vertex 2.941305e-2 7.100938e-2 9.520000e+0
      vertex 2.100932e-2 5.072099e-2 9.520000e+0
      vertex 0.000000e+0 7.686000e-2 9.520000e+0
    endloop
  endfacet
  facet normal 0.000000e+0 0.000000e+0 -1.000000e+0
    outer loop
      vertex 0.000000e+0 7.686000e-2 9.520000e+0
      vertex 2.100932e-2 5.072099e-2 9.520000e+0
      vertex 0.000000e+0 5.490000e-2 9.520000e+0
    endloop
  endfacet
  facet normal 0.000000e+0 0.000000e+0 -1.000000e+0
    outer loop
      vertex 0.000000e+0 7.686000e-2 9.520000e+0
      vertex 0.000000e+0 5.490000e-2 9.520000e+0
      vertex -2.941305e-2 7.100938e-2 9.520000e+0
    endloop
  endfacet
  facet normal 0.000000e+0 0.000000e+0 -1.000000e+0
    outer loop
      vertex -2.941305e-2 7.100938e-2 9.520000e+0
      vertex 0.000000e+0 5.490000e-2 9.520000e+0
      vertex -2.100932e-2 5.072099e-2 9.520000e+0
    endloop
  endfacet
  facet normal 0.000000e+0 0.000000e+0 -1.000000e+0
    outer loop
      vertex -2.941305e-2 7.100938e-2 9.520000e+0
      vertex -2.100932e-2 5.072099e-2 9.520000e+0
      vertex -5.434823e-2 5.434823e-2 9.520000e+0
    endloop
  endfacet
  facet normal 0.000000e+0 0.000000e+0 -1.000000e+0
    outer loop
      vertex -5.434823e-2 5.434823e-2 9.520000e+0
      vertex -2.100932e-2 5.072099e-2 9.520000e+0
      vertex -3.882016e-2 3.882016e-2 9.520000e+0
    endloop
  endfacet
  facet normal 0.000000e+0 0.000000e+0 -1.000000e+0
    outer loop
      vertex -5.434823e-2 5.434823e-2 9.520000e+0
      vertex -3.882016e-2 3.882016e-2 9.520000e+0
      vertex -7.100938e-2 2.941305e-2 9.520000e+0
    endloop
  endfacet
  facet normal 0.000000e+0 0.000000e+0 -1.000000e+0
    outer loop
      vertex -7.100938e-2 2.941305e-2 9.520000e+0
      vertex -3.882016e-2 3.882016e-2 9.520000e+0
      vertex -5.072099e-2 2.100932e-2 9.520000e+0
    endloop
  endfacet
  facet normal 0.000000e+0 0.000000e+0 -1.000000e+0
    outer loop
      vertex -7.100938e-2 2.941305e-2 9.520000e+0
      vertex -5.072099e-2 2.100932e-2 9.520000e+0
      vertex -7.686000e-2 0.000000e+0 9.520000e+0
    endloop
  endfacet
  facet normal 0.000000e+0 0.000000e+0 -1.000000e+0
    outer loop
      vertex -7.686000e-2 0.000000e+0 9.520000e+0
      vertex -5.072099e-2 2.100932e-2 9.520000e+0
      vertex -5.490000e-2 0.000000e+0 9.520000e+0
    endloop
  endfacet
  facet normal 0.000000e+0 0.000000e+0 -1.000000e+0
    outer loop
      vertex -7.686000e-2 0.000000e+0 9.520000e+0
      vertex -5.490000e-2 0.000000e+0 9.520000e+0
      vertex -7.100938e-2 -2.941305e-2 9.520000e+0
    endloop
  endfacet
  facet normal 0.000000e+0 0.000000e+0 -1.000000e+0
    outer loop
      vertex -7.100938e-2 -2.941305e-2 9.520000e+0
      vertex -5.490000e-2 0.000000e+0 9.520000e+0
      vertex -5.072099e-2 -2.100932e-2 9.520000e+0
    endloop
  endfacet
  facet normal 0.000000e+0 0.000000e+0 -1.000000e+0
    outer loop
      vertex -7.100938e-2 -2.941305e-2 9.520000e+0
      vertex -5.072099e-2 -2.100932e-2 9.520000e+0
      vertex -5.434823e-2 -5.434823e-2 9.520000e+0
    endloop
  endfacet
  facet normal 0.000000e+0 0.000000e+0 -1.000000e+0
    outer loop
      vertex -5.434823e-2 -5.434823e-2 9.520000e+0
      vertex -5.072099e-2 -2.100932e-2 9.520000e+0
      vertex -3.882016e-2 -3.882016e-2 9.520000e+0
    endloop
  endfacet
  facet normal 0.000000e+0 0.000000e+0 -1.000000e+0
    outer loop
      vertex -5.434823e-2 -5.434823e-2 9.520000e+0
      vertex -3.882016e-2 -3.882016e-2 9.520000e+0
      vertex -2.941305e-2 -7.100938e-2 9.520000e+0
    endloop
  endfacet
  facet normal 0.000000e+0 0.000000e+0 -1.000000e+0
    outer loop
      vertex -2.941305e-2 -7.100938e-2 9.520000e+0
      vertex -3.882016e-2 -3.882016e-2 9.520000e+0
      vertex -2.100932e-2 -5.072099e-2 9.520000e+0
    endloop
  endfacet
  facet normal 0.000000e+0 0.000000e+0 -1.000000e+0
    outer loop
      vertex -2.941305e-2 -7.100938e-2 9.520000e+0
      vertex -2.100932e-2 -5.072099e-2 9.520000e+0
      vertex 0.000000e+0 -7.686000e-2 9.520000e+0
    endloop
  endfacet
  facet normal 0.000000e+0 0.000000e+0 -1.000000e+0
    outer loop
      vertex 0.000000e+0 -7.686000e-2 9.520000e+0
      vertex -2.100932e-2 -5.072099e-2 9.520000e+0
      vertex 0.000000e+0 -5.490000e-2 9.520000e+0
    endloop
  endfacet
  facet normal 0.000000e+0 0.000000e+0 -1.000000e+0
    outer loop
      vertex 0.000000e+0 -7.686000e-2 9.520000e+0
      vertex 0.000000e+0 -5.490000e-2 9.520000e+0
      vertex 2.941305e-2 -7.100938e-2 9.520000e+0
    endloop
  endfacet
  facet normal 0.000000e+0 0.000000e+0 -1.000000e+0
    outer loop
      vertex 2.941305e-2 -7.100938e-2 9.520000e+0
      vertex 0.000000e+0 -5.490000e-2 9.520000e+0
      vertex 2.100932e-2 -5.072099e-2 9.520000e+0
    endloop
  endfacet
  facet normal 0.000000e+0 0.000000e+0 -1.000000e+0
    outer loop
      vertex 2.941305e-2 -7.100938e-2 9.520000e+0
      vertex 2.100932e-2 -5.072099e-2 9.520000e+0
      vertex 5.434823e-2 -5.434823e-2 9.520000e+0
    endloop
  endfacet
  facet normal 0.000000e+0 0.000000e+0 -1.000000e+0
    outer loop
      vertex 5.434823e-2 -5.434823e-2 9.520000e+0
      vertex 2.100932e-2 -5.072099e-2 9.520000e+0
      vertex 3.882016e-2 -3.882016e-2 9.520000e+0
    endloop
  endfacet
  facet normal 0.000000e+0 0.000000e+0 -1.000000e+0
    outer loop
      vertex 5.434823e-2 -5.434823e-2 9.520000e+0
      vertex 3.882016e-2 -3.882016e-2 9.520000e+0
      vertex 7.100938e-2 -2.941305e-2 9.520000e+0
    endloop
  endfacet
  facet normal 0.000000e+0 0.000000e+0 -1.000000e+0
    outer loop
      vertex 7.100938e-2 -2.941305e-2 9.520000e+0
      vertex 3.882016e-2 -3.882016e-2 9.520000e+0
      vertex 5.072099e-2 -2.100932e-2 9.520000e+0
    endloop
  endfacet
  facet normal 0.000000e+0 0.000000e+0 -1.000000e+0
    outer loop
      vertex 7.100938e-2 -2.941305e-2 9.520000e+0
      vertex 5.072099e-2 -2.100932e-2 9.520000e+0
      vertex 7.686000e-2 0.000000e+0 9.520000e+0
    endloop
  endfacet
  facet normal 0.000000e+0 0.000000e+0 -1.000000e+0
    outer loop
      vertex 7.686000e-2 0.000000e+0 9.520000e+0
      vertex 5.072099e-2 -2.100932e-2 9.520000e+0
      vertex 5.490000e-2 0.000000e+0 9.520000e+0
    endloop
  endfacet
  facet normal -9.807853e-1 -1.950903e-1 0.000000e+0
    outer loop
      vertex 7.686000e-2 0.000000e+0 9.520000e+0
      vertex 7.686000e-2 0.000000e+0 9.629800e+0
      vertex 7.100938e-2 2.941305e-2 9.520000e+0
    endloop
  endfacet
  facet normal -9.807853e-1 -1.950903e-1 0.000000e+0
    outer loop
      vertex 7.686000e-2 0.000000e+0 9.629800e+0
      vertex 7.100938e-2 2.941305e-2 9.629800e+0
      vertex 7.100938e-2 2.941305e-2 9.520000e+0
    endloop
  endfacet
  facet normal -8.314696e-1 -5.555702e-1 0.000000e+0
    outer loop
      vertex 7.100938e-2 2.941305e-2 9.520000e+0
      vertex 7.100938e-2 2.941305e-2 9.629800e+0
      vertex 5.434823e-2 5.434823e-2 9.520000e+0
    endloop
  endfacet
  facet normal -8.314696e-1 -5.555702e-1 0.000000e+0
    outer loop
      vertex 7.100938e-2 2.941305e-2 9.629800e+0
      vertex 5.434823e-2 5.434823e-2 9.629800e+0
      vertex 5.434823e-2 5.434823e-2 9.520000e+0
    endloop
  endfacet
  facet normal -5.555702e-1 -8.314696e-1 0.000000e+0
    outer loop
      vertex 5.434823e-2 5.434823e-2 9.520000e+0
      vertex 5.434823e-2 5.434823e-2 9.629800e+0
      vertex 2.941305e-2 7.100938e-2 9.520000e+0
    endloop
  endfacet
  facet normal -5.555702e-1 -8.314696e-1 0.000000e+0
    outer loop
      vertex 5.434823e-2 5.434823e-2 9.629800e+0
      vertex 2.941305e-2 7.100938e-2 9.629800e+0
      vertex 2.941305e-2 7.100938e-2 9.520000e+0
    endloop
  endfacet
  facet normal -1.950903e-1 -9.807853e-1 0.000000e+0
    outer loop
      vertex 2.941305e-2 7.100938e-2 9.520000e+0
      vertex 2.941305e-2 7.100938e-2 9.629800e+0
      vertex 0.000000e+0 7.686000e-2 9.520000e+0
    endloop
  endfacet
  facet normal -1.950903e-1 -9.807853e-1 0.000000e+0
    outer loop
      vertex 2.941305e-2 7.100938e-2 9.629800e+0
      vertex 0.000000e+0 7.686000e-2 9.629800e+0
      vertex 0.000000e+0 7.686000e-2 9.520000e+0
    endloop
  endfacet
  facet normal 1.950903e-1 -9.807853e-1 0.000000e+0
    outer loop
      vertex 0.000000e+0 7.686000e-2 9.520000e+0
      vertex 0.000000e+0 7.686000e-2 9.629800e+0
      vertex -2.941305e-2 7.100938e-2 9.520000e+0
    endloop
  endfacet
  facet normal 1.950903e-1 -9.807853e-1 0.000000e+0
    outer loop
      vertex 0.000000e+0 7.686000e-2 9.629800e+0
      vertex -2.941305e-2 7.100938e-2 9.629800e+0
      vertex -2.941305e-2 7.100938e-2 9.520000e+0
    endloop
  endfacet
  facet normal 5.555702e-1 -8.314696e-1 0.000000e+0
    outer loop
      vertex -2.941305e-2 7.100938e-2 9.520000e+0
      vertex -2.941305e-2 7.100938e-2 9.629800e+0
      vertex -5.434823e-2 5.434823e-2 9.520000e+0
    endloop
  endfacet
  facet normal 5.555702e-1 -8.314696e-1 0.000000e+0
    outer loop
      vertex -2.941305e-2 7.100938e-2 9.629800e+0
      vertex -5.434823e-2 5.434823e-2 9.629800e+0
      vertex -5.434823e-2 5.434823e-2 9.520000e+0
    endloop
  endfacet
  facet normal 8.314696e-1 -5.555702e-1 0.000000e+0
    outer loop
      vertex -5.434823e-2 5.434823e-2 9.520000e+0
      vertex -5.434823e-2 5.434823e-2 9.629800e+0
      vertex -7.100938e-2 2.941305e-2 9.520000e+0
    endloop
  endfacet
  facet normal 8.314696e-1 -5.555702e-1 0.000000e+0
    outer loop
      vertex -5.434823e-2 5.434823e-2 9.629800e+0
      vertex -7.100938e-2 2.941305e-2 9.629800e+0
      vertex -7.100938e-2 2.941305e-2 9.520000e+0
    endloop
  endfacet
  facet normal 9.807853e-1 -1.950903e-1 0.000000e+0
    outer loop
      vertex -7.100938e-2 2.941305e-2 9.520000e+0
      vertex -7.100938e-2 2.941305e-2 9.629800e+0
      vertex -7.686000e-2 0.000000e+0 9.520000e+0
    endloop
  endfacet
  facet normal 9.807853e-1 -1.950903e-1 0.000000e+0
    outer loop
      vertex -7.100938e-2 2.941305e-2 9.629800e+0
      vertex -7.686000e-2 0.000000e+0 9.629800e+0
      vertex -7.686000e-2 0.000000e+0 9.520000e+0
    endloop
  endfacet
  facet normal 9.807853e-1 1.950903e-1 0.000000e+0
    outer loop
      vertex -7.686000e-2 0.000000e+0 9.520000e+0
      vertex -7.686000e-2 0.000000e+0 9.629800e+0
      vertex -7.100938e-2 -2.941305e-2 9.520000e+0
    endloop
  endfacet
  facet normal 9.807853e-1 1.950903e-1 0.000000e+0
    outer loop
      vertex -7.686000e-2 0.000000e+0 9.629800e+0
      vertex -7.100938e-2 -2.941305e-2 9.629800e+0
      vertex -7.100938e-2 -2.941305e-2 9.520000e+0
    endloop
  endfacet
  facet normal 8.314696e-1 5.555702e-1 0.000000e+0
    outer loop
      vertex -7.100938e-2 -2.941305e-2 9.520000e+0
      vertex -7.100938e-2 -2.941305e-2 9.629800e+0
      vertex -5.434823e-2 -5.434823e-2 9.520000e+0
    endloop
  endfacet
  facet normal 8.314696e-1 5.555702e-1 0.000000e+0
    outer loop
      vertex -7.100938e-2 -2.941305e-2 9.629800e+0
      vertex -5.434823e-2 -5.434823e-2 9.629800e+0
      vertex -5.434823e-2 -5.434823e-2 9.520000e+0
    endloop
  endfacet
  facet normal 5.555702e-1 8.314696e-1 0.000000e+0
    outer loop
      vertex -5.434823e-2 -5.434823e-2 9.520000e+0
      vertex -5.434823e-2 -5.434823e-2 9.629800e+0
      vertex -2.941305e-2 -7.100938e-2 9.520000e+0
    endloop
  endfacet
  facet normal 5.555702e-1 8.314696e-1 0.000000e+0
    outer loop
      vertex -5.434823e-2 -5.434823e-2 9.629800e+0
      vertex -2.941305e-2 -7.100938e-2 9.629800e+0
      vertex -2.941305e-2 -7.100938e-2 9.520000e+0
    endloop
  endfacet
  facet normal 1.950903e-1 9.807853e-1 0.000000e+0
    outer loop
      vertex -2.941305e-2 -7.100938e-2 9.520000e+0
      vertex -2.941305e-2 -7.100938e-2 9.629800e+0
      vertex 0.000000e+0 -7.686000e-2 9.520000e+0
    endloop
  endfacet
  facet normal 1.950903e-1 9.807853e-1 0.000000e+0
    outer loop
      vertex -2.941305e-2 -7.100938e-2 9.629800e+0
      vertex 0.000000e+0 -7.686000e-2 9.629800e+0
      vertex 0.000000e+0 -7.686000e-2 9.520000e+0
    endloop
  endfacet
  facet normal -1.950903e-1 9.807853e-1 0.000000e+0
    outer loop
      vertex 0.000000e+0 -7.686000e-2 9.520000e+0
      vertex 0.000000e+0 -7.686000e-2 9.629800e+0
      vertex 2.941305e-2 -7.100938e-2 9.520000e+0
    endloop
  endfacet
  facet normal -1.950903e-1 9.807853e-1 0.000000e+0
    outer loop
      vertex 0.000000e+0 -7.686000e-2 9.629800e+0
      vertex 2.941305e-2 -7.100938e-2 9.629800e+0
      vertex 2.941305e-2 -7.100938e-2 9.520000e+0
    endloop
  endfacet
  facet normal -5.555702e-1 8.314696e-1 0.000000e+0
    outer loop
      vertex 2.941305e-2 -7.100938e-2 9.520000e+0
      vertex 2.941305e-2 -7.100938e-2 9.629800e+0
      vertex 5.434823e-2 -5.434823e-2 9.520000e+0
    endloop
  endfacet
  facet normal -5.555702e-1 8.314696e-1 0.000000e+0
    outer loop
      vertex 2.941305e-2 -7.100938e-2 9.629800e+0
      vertex 5.434823e-2 -5.434823e-2 9.629800e+0
      vertex 5.434823e-2 -5.434823e-2 9.520000e+0
    endloop
  endfacet
  facet normal -8.314696e-1 5.555702e-1 0.000000e+0
    outer loop
      vertex 5.434823e-2 -5.434823e-2 9.520000e+0
      vertex 5.434823e-2 -5.434823e-2 9.629800e+0
      vertex 7.100938e-2 -2.941305e-2 9.520000e+0
    endloop
  endfacet
  facet normal -8.314696e-1 5.555702e-1 0.000000e+0
    outer loop
      vertex 5.434823e-2 -5.434823e-2 9.629800e+0
      vertex 7.100938e-2 -2.941305e-2 9.629800e+0
      vertex 7.100938e-2 -2.941305e-2 9.520000e+0
    endloop
  endfacet
  facet normal -9.807853e-1 1.950903e-1 0.000000e+0
    outer loop
      vertex 7.100938e-2 -2.941305e-2 9.520000e+0
      vertex 7.100938e-2 -2.941305e-2 9.629800e+0
      vertex 7.686000e-2 0.000000e+0 9.520000e+0
    endloop
  endfacet
  facet normal -9.807853e-1 1.950903e-1 0.000000e+0
    outer loop
      vertex 7.100938e-2 -2.941305e-2 9.629800e+0
      vertex 7.686000e-2 0.000000e+0 9.629800e+0
      vertex 7.686000e-2 0.000000e+0 9.520000e+0
    endloop
  endfacet
  facet normal 0.000000e+0 0.000000e+0 1.000000e+0
    outer loop
      vertex 0.000000e+0 0.000000e+0 9.629800e+0
      vertex 7.686000e-2 0.000000e+0 9.629800e+0
      vertex 7.100938e-2 2.941305e-2 9.629800e+0
    endloop
  endfacet
  facet normal 0.000000e+0 0.000000e+0 1.000000e+0
    outer loop
      vertex 0.000000e+0 0.000000e+0 9.629800e+0
      vertex 7.100938e-2 2.941305e-2 9.629800e+0
      vertex 5.434823e-2 5.434823e-2 9.629800e+0
    endloop
  endfacet
  facet normal 0.000000e+0 0.000000e+0 1.000000e+0
    outer loop
      vertex 0.000000e+0 0.000000e+0 9.629800e+0
      vertex 5.434823e-2 5.434823e-2 9.629800e+0
      vertex 2.941305e-2 7.100938e-2 9.629800e+0
    endloop
  endfacet
  facet normal 0.000000e+0 0.000000e+0 1.000000e+0
    outer loop
      vertex 0.000000e+0 0.000000e+0 9.629800e+0
      vertex 2.941305e-2 7.100938e-2 9.629800e+0
      vertex 0.000000e+0 7.686000e-2 9.629800e+0
    endloop
  endfacet
  facet normal 0.000000e+0 0.000000e+0 1.000000e+0
    outer loop
      vertex 0.000000e+0 0.000000e+0 9.629800e+0
      vertex 0.000000e+0 7.686000e-2 9.629800e+0
      vertex -2.941305e-2 7.100938e-2 9.629800e+0
    endloop
  endfacet
  facet normal 0.000000e+0 0.000000e+0 1.000000e+0
    outer loop
      vertex 0.000000e+0 0.000000e+0 9.629800e+0
      vertex -2.941305e-2 7.100938e-2 9.629800e+0
      vertex -5.434823e-2 5.434823e-2 9.629800e+0
    endloop
  endfacet
  facet normal 0.000000e+0 0.000000e+0 1.000000e+0
    outer loop
      vertex 0.000000e+0 0.000000e+0 9.629800e+0
      vertex -5.434823e-2 5.434823e-2 9.629800e+0
      vertex -7.100938e-2 2.941305e-2 9.629800e+0
    endloop
  endfacet
  facet normal 0.000000e+0 0.000000e+0 1.000000e+0
    outer loop
      vertex 0.000000e+0 0.000000e+0 9.629800e+0
      vertex -7.100938e-2 2.941305e-2 9.629800e+0
      vertex -7.686000e-2 0.000000e+0 9.629800e+0
    endloop
  endfacet
  facet normal 0.000000e+0 0.000000e+0 1.000000e+0
    outer loop
      vertex 0.000000e+0 0.000000e+0 9.629800e+0
      vertex -7.686000e-2 0.000000e+0 9.629800e+0
      vertex -7.100938e-2 -2.941305e-2 9.629800e+0
    endloop
  endfacet
  facet normal 0.000000e+0 0.000000e+0 1.000000e+0
    outer loop
      vertex 0.000000e+0 0.000000e+0 9.629800e+0
      vertex -7.100938e-2 -2.941305e-2 9.629800e+0
      vertex -5.434823e-2 -5.434823e-2 9.629800e+0
    endloop
  endfacet
  facet normal 0.000000e+0 0.000000e+0 1.000000e+0
    outer loop
      vertex 0.000000e+0 0.000000e+0 9.629800e+0
      vertex -5.434823e-2 -5.434823e-2 9.629800e+0
      vertex -2.941305e-2 -7.100938e-2 9.629800e+0
    endloop
  endfacet
  facet normal 0.000000e+0 0.000000e+0 1.000000e+0
    outer loop
      vertex 0.000000e+0 0.000000e+0 9.629800e+0
      vertex -2.941305e-2 -7.100938e-2 9.629800e+0
      vertex 0.000000e+0 -7.686000e-2 9.629800e+0
    endloop
  endfacet
  facet normal 0.000000e+0 0.000000e+0 1.000000e+0
    outer loop
      vertex 0.000000e+0 0.000000e+0 9.629800e+0
      vertex 0.000000e+0 -7.686000e-2 9.629800e+0
      vertex 2.941305e-2 -7.100938e-2 9.629800e+0
    endloop
  endfacet
  facet normal 0.000000e+0 0.000000e+0 1.000000e+0
    outer loop
      vertex 0.000000e+0 0.000000e+0 9.629800e+0
      vertex 2.941305e-2 -7.100938e-2 9.629800e+0
      vertex 5.434823e-2 -5.434823e-2 9.629800e+0
    endloop
  endfacet
  facet normal 0.000000e+0 0.000000e+0 1.000000e+0
    outer loop
      vertex 0.000000e+0 0.000000e+0 9.629800e+0
      vertex 5.434823e-2 -5.434823e-2 9.629800e+0
      vertex 7.100938e-2 -2.941305e-2 9.629800e+0
    endloop
  endfacet
  facet normal 0.000000e+0 0.000000e+0 1.000000e+0
    outer loop
      vertex 0.000000e+0 0.000000e+0 9.629800e+0
      vertex 7.100938e-2 -2.941305e-2 9.629800e+0
      vertex 7.686000e-2 0.000000e+0 9.629800e+0
    endloop
  endfacet
endsolid nas1352-04-6
