solid nas1352-06-10
  facet normal -9.807853e-1 -1.950903e-1 0.000000e+0
    outer loop
      vertex 6.775000e-2 0.000000e+0 0.000000e+0
      vertex 6.775000e-2 0.000000e+0 1.588000e+1
      vertex 6.259284e-2 2.592680e-2 0.000000e+0
    endloop
  endfacet
  facet normal -9.807853e-1 -1.950903e-1 0.000000e+0
    outer loop
      vertex 6.775000e-2 0.000000e+0 1.588000e+1
      vertex 6.259284e-2 2.592680e-2 1.588000e+1
      vertex 6.259284e-2 2.592680e-2 0.000000e+0
    endloop
  endfacet
  facet normal 0.000000e+0 0.000000e+0 -1.000000e+0
    outer loop
      vertex 0.000000e+0 0.000000e+0 0.000000e+0
      vertex 6.259284e-2 2.592680e-2 0.000000e+0
      vertex 6.775000e-2 0.000000e+0 0.000000e+0
    endloop
  endfacet
  facet normal 0.000000e+0 0.000000e+0 1.000000e+0
    outer loop
      vertex 0.000000e+0 0.000000e+0 1.588000e+1
      vertex 6.775000e-2 0.000000e+0 1.588000e+1
      vertex 6.259284e-2 2.592680e-2 1.588000e+1
    endloop
  endfacet
  facet normal -8.314696e-1 -5.555702e-1 0.000000e+0
    outer loop
      vertex 6.259284e-2 2.592680e-2 0.000000e+0
      vertex 6.259284e-2 2.592680e-2 1.588000e+1
      vertex 4.790648e-2 4.790648e-2 0.000000e+0
    endloop
  endfacet
  facet normal -8.314696e-1 -5.555702e-1 0.000000e+0
    outer loop
      vertex 6.259284e-2 2.592680e-2 1.588000e+1
      vertex 4.790648e-2 4.790648e-2 1.588000e+1
      vertex 4.790648e-2 4.790648e-2 0.000000e+0
    endloop
  endfacet
  facet normal 0.000000e+0 0.000000e+0 -1.000000e+0
    outer loop
      vertex 0.000000e+0 0.000000e+0 0.000000e+0
      vertex 4.790648e-2 4.790648e-2 0.000000e+0
      vertex 6.259284e-2 2.592680e-2 0.000000e+0
    endloop
  endfacet
  facet normal 0.000000e+0 0.000000e+0 1.000000e+0
    outer loop
      vertex 0.000000e+0 0.000000e+0 1.588000e+1
      vertex 6.259284e-2 2.592680e-2 1.588000e+1
      vertex 4.790648e-2 4.790648e-2 1.588000e+1
    endloop
  endfacet
  facet normal -5.555702e-1 -8.314696e-1 0.000000e+0
    outer loop
      vertex 4.790648e-2 4.790648e-2 0.000000e+0
      vertex 4.790648e-2 4.790648e-2 1.588000e+1
      vertex 2.592680e-2 6.259284e-2 0.000000e+0
    endloop
  endfacet
  facet normal -5.555702e-1 -8.314696e-1 0.000000e+0
    outer loop
      vertex 4.790648e-2 4.790648e-2 1.588000e+1
      vertex 2.592680e-2 6.259284e-2 1.588000e+1
      vertex 2.592680e-2 6.259284e-2 0.000000e+0
    endloop
  endfacet
  facet normal 0.000000e+0 0.000000e+0 -1.000000e+0
    outer loop
      vertex 0.000000e+0 0.000000e+0 0.000000e+0
      vertex 2.592680e-2 6.259284e-2 0.000000e+0
      vertex 4.790648e-2 4.790648e-2 0.000000e+0
    endloop
  endfacet
  facet normal 0.000000e+0 0.000000e+0 1.000000e+0
    outer loop
      vertex 0.000000e+0 0.000000e+0 1.588000e+1
      vertex 4.790648e-2 4.790648e-2 1.588000e+1
      vertex 2.592680e-2 6.259284e-2 1.588000e+1
    endloop
  endfacet
  facet normal -1.950903e-1 -9.807853e-1 0.000000e+0
    outer loop
      vertex 2.592680e-2 6.259284e-2 0.000000e+0
      vertex 2.592680e-2 6.259284e-2 1.588000e+1
      vertex 4.148491e-18 6.775000e-2 0.000000e+0
    endloop
  endfacet
  facet normal -1.950903e-1 -9.807853e-1 0.000000e+0
    outer loop
      vertex 2.592680e-2 6.259284e-2 1.588000e+1
      vertex 4.148491e-18 6.775000e-2 1.588000e+1
      vertex 4.148491e-18 6.775000e-2 0.000000e+0
    endloop
  endfacet
  facet normal 0.000000e+0 0.000000e+0 -1.000000e+0
    outer loop
      vertex 0.000000e+0 0.000000e+0 0.000000e+0
      vertex 4.148491e-18 6.775000e-2 0.000000e+0
      vertex 2.592680e-2 6.259284e-2 0.000000e+0
    endloop
  endfacet
  facet normal 0.000000e+0 0.000000e+0 1.000000e+0
    outer loop
      vertex 0.000000e+0 0.000000e+0 1.588000e+1
      vertex 2.592680e-2 6.259284e-2 1.588000e+1
      vertex 4.148491e-18 6.775000e-2 1.588000e+1
    endloop
  endfacet
  facet normal 1.950903e-1 -9.807853e-1 0.000000e+0
    outer loop
      vertex 4.148491e-18 6.775000e-2 0.000000e+0
      vertex 4.148491e-18 6.775000e-2 1.588000e+1
      vertex -2.592680e-2 6.259284e-2 0.000000e+0
    endloop
  endfacet
  facet normal 1.950903e-1 -9.807853e-1 0.000000e+0
    outer loop
      vertex 4.148491e-18 6.775000e-2 1.588000e+1
      vertex -2.592680e-2 6.259284e-2 1.588000e+1
      vertex -2.592680e-2 6.259284e-2 0.000000e+0
    endloop
  endfacet
  facet normal 0.000000e+0 0.000000e+0 -1.000000e+0
    outer loop
      vertex 0.000000e+0 0.000000e+0 0.000000e+0
      vertex -2.592680e-2 6.259284e-2 0.000000e+0
      vertex 4.148491e-18 6.775000e-2 0.000000e+0
    endloop
  endfacet
  facet normal 0.000000e+0 0.000000e+0 1.000000e+0
    outer loop
      vertex 0.000000e+0 0.000000e+0 1.588000e+1
      vertex 4.148491e-18 6.775000e-2 1.588000e+1
      vertex -2.592680e-2 6.259284e-2 1.588000e+1
    endloop
  endfacet
  facet normal 5.555702e-1 -8.314696e-1 0.000000e+0
    outer loop
      vertex -2.592680e-2 6.259284e-2 0.000000e+0
      vertex -2.592680e-2 6.259284e-2 1.588000e+1
      vertex -4.790648e-2 4.790648e-2 0.000000e+0
    endloop
  endfacet
  facet normal 5.555702e-1 -8.314696e-1 0.000000e+0
    outer loop
      vertex -2.592680e-2 6.259284e-2 1.588000e+1
      vertex -4.790648e-2 4.790648e-2 1.588000e+1
      vertex -4.790648e-2 4.790648e-2 0.000000e+0
    endloop
  endfacet
  facet normal 0.000000e+0 0.000000e+0 -1.000000e+0
    outer loop
      vertex 0.000000e+0 0.000000e+0 0.000000e+0
      vertex -4.790648e-2 4.790648e-2 0.000000e+0
      vertex -2.592680e-2 6.259284e-2 0.000000e+0
    endloop
  endfacet
  facet normal 0.000000e+0 0.000000e+0 1.000000e+0
    outer loop
      vertex 0.000000e+0 0.000000e+0 1.588000e+1
      vertex -2.592680e-2 6.259284e-2 1.588000e+1
      vertex -4.790648e-2 4.790648e-2 1.588000e+1
    endloop
  endfacet
  facet normal 8.314696e-1 -5.555702e-1 0.000000e+0
    outer loop
      vertex -4.790648e-2 4.790648e-2 0.000000e+0
      vertex -4.790648e-2 4.790648e-2 1.588000e+1
      vertex -6.259284e-2 2.592680e-2 0.000000e+0
    endloop
  endfacet
  facet normal 8.314696e-1 -5.555702e-1 0.000000e+0
    outer loop
      vertex -4.790648e-2 4.790648e-2 1.588000e+1
      vertex -6.259284e-2 2.592680e-2 1.588000e+1
      vertex -6.259284e-2 2.592680e-2 0.000000e+0
    endloop
  endfacet
  facet normal 0.000000e+0 0.000000e+0 -1.000000e+0
    outer loop
      vertex 0.000000e+0 0.000000e+0 0.000000e+0
      vertex -6.259284e-2 2.592680e-2 0.000000e+0
      vertex -4.790648e-2 4.790648e-2 0.000000e+0
    endloop
  endfacet
  facet normal 0.000000e+0 0.000000e+0 1.000000e+0
    outer loop
      vertex 0.000000e+0 0.000000e+0 1.588000e+1
      vertex -4.790648e-2 4.790648e-2 1.588000e+1
      vertex -6.259284e-2 2.592680e-2 1.588000e+1
    endloop
  endfacet
  facet normal 9.807853e-1 -1.950903e-1 0.000000e+0
    outer loop
      vertex -6.259284e-2 2.592680e-2 0.000000e+0
      vertex -6.259284e-2 2.592680e-2 1.588000e+1
      vertex -6.775000e-2 8.296982e-18 0.000000e+0
    endloop
  endfacet
  facet normal 9.807853e-1 -1.950903e-1 0.000000e+0
    outer loop
      vertex -6.259284e-2 2.592680e-2 1.588000e+1
      vertex -6.775000e-2 8.296982e-18 1.588000e+1
      vertex -6.775000e-2 8.296982e-18 0.000000e+0
    endloop
  endfacet
  facet normal 0.000000e+0 0.000000e+0 -1.000000e+0
    outer loop
      vertex 0.000000e+0 0.000000e+0 0.000000e+0
      vertex -6.775000e-2 8.296982e-18 0.000000e+0
      vertex -6.259284e-2 2.592680e-2 0.000000e+0
    endloop
  endfacet
  facet normal 0.000000e+0 0.000000e+0 1.000000e+0
    outer loop
      vertex 0.000000e+0 0.000000e+0 1.588000e+1
      vertex -6.259284e-2 2.592680e-2 1.588000e+1
      vertex -6.775000e-2 8.296982e-18 1.588000e+1
    endloop
  endfacet
  facet normal 9.807853e-1 1.950903e-1 0.000000e+0
    outer loop
      vertex -6.775000e-2 8.296982e-18 0.000000e+0
      vertex -6.775000e-2 8.296982e-18 1.588000e+1
      vertex -6.259284e-2 -2.592680e-2 0.000000e+0
    endloop
  endfacet
  facet normal 9.807853e-1 1.950903e-1 0.000000e+0
    outer loop
      vertex -6.775000e-2 8.296982e-18 1.588000e+1
      vertex -6.259284e-2 -2.592680e-2 1.588000e+1
      vertex -6.259284e-2 -2.592680e-2 0.000000e+0
    endloop
  endfacet
  facet normal 0.000000e+0 0.000000e+0 -1.000000e+0
    outer loop
      vertex 0.000000e+0 0.000000e+0 0.000000e+0
      vertex -6.259284e-2 -2.592680e-2 0.000000e+0
      vertex -6.775000e-2 8.296982e-18 0.000000e+0
    endloop
  endfacet
  facet normal 0.000000e+0 0.000000e+0 1.000000e+0
    outer loop
      vertex 0.000000e+0 0.000000e+0 1.588000e+1
      vertex -6.775000e-2 8.296982e-18 1.588000e+1
      vertex -6.259284e-2 -2.592680e-2 1.588000e+1
    endloop
  endfacet
  facet normal 8.314696e-1 5.555702e-1 0.000000e+0
    outer loop
      vertex -6.259284e-2 -2.592680e-2 0.000000e+0
      vertex -6.259284e-2 -2.592680e-2 1.588000e+1
      vertex -4.790648e-2 -4.790648e-2 0.000000e+0
    endloop
  endfacet
  facet normal 8.314696e-1 5.555702e-1 0.000000e+0
    outer loop
      vertex -6.259284e-2 -2.592680e-2 1.588000e+1
      vertex -4.790648e-2 -4.790648e-2 1.588000e+1
      vertex -4.790648e-2 -4.790648e-2 0.000000e+0
    endloop
  endfacet
  facet normal 0.000000e+0 0.000000e+0 -1.000000e+0
    outer loop
      vertex 0.000000e+0 0.000000e+0 0.000000e+0
      vertex -4.790648e-2 -4.790648e-2 0.000000e+0
      vertex -6.259284e-2 -2.592680e-2 0.000000e+0
    endloop
  endfacet
  facet normal 0.000000e+0 0.000000e+0 1.000000e+0
    outer loop
      vertex 0.000000e+0 0.000000e+0 1.588000e+1
      vertex -6.259284e-2 -2.592680e-2 1.588000e+1
      vertex -4.790648e-2 -4.790648e-2 1.588000e+1
    endloop
  endfacet
  facet normal 5.555702e-1 8.314696e-1 0.000000e+0
    outer loop
      vertex -4.790648e-2 -4.790648e-2 0.000000e+0
      vertex -4.790648e-2 -4.790648e-2 1.588000e+1
      vertex -2.592680e-2 -6.259284e-2 0.000000e+0
    endloop
  endfacet
  facet normal 5.555702e-1 8.314696e-1 0.000000e+0
    outer loop
      vertex -4.790648e-2 -4.790648e-2 1.588000e+1
      vertex -2.592680e-2 -6.259284e-2 1.588000e+1
      vertex -2.592680e-2 -6.259284e-2 0.000000e+0
    endloop
  endfacet
  facet normal 0.000000e+0 0.000000e+0 -1.000000e+0
    outer loop
      vertex 0.000000e+0 0.000000e+0 0.000000e+0
      vertex -2.592680e-2 -6.259284e-2 0.000000e+0
      vertex -4.790648e-2 -4.790648e-2 0.000000e+0
    endloop
  endfacet
  facet normal 0.000000e+0 0.000000e+0 1.000000e+0
    outer loop
      vertex 0.000000e+0 0.000000e+0 1.588000e+1
      vertex -4.790648e-2 -4.790648e-2 1.588000e+1
      vertex -2.592680e-2 -6.259284e-2 1.588000e+1
    endloop
  endfacet
  facet normal 1.950903e-1 9.807853e-1 0.000000e+0
    outer loop
      vertex -2.592680e-2 -6.259284e-2 0.000000e+0
      vertex -2.592680e-2 -6.259284e-2 1.588000e+1
      vertex -1.244547e-17 -6.775000e-2 0.000000e+0
    endloop
  endfacet
  facet normal 1.950903e-1 9.807853e-1 0.000000e+0
    outer loop
      vertex -2.592680e-2 -6.259284e-2 1.588000e+1
      vertex -1.244547e-17 -6.775000e-2 1.588000e+1
      vertex -1.244547e-17 -6.775000e-2 0.000000e+0
    endloop
  endfacet
  facet normal 0.000000e+0 0.000000e+0 -1.000000e+0
    outer loop
      vertex 0.000000e+0 0.000000e+0 0.000000e+0
      vertex -1.244547e-17 -6.775000e-2 0.000000e+0
      vertex -2.592680e-2 -6.259284e-2 0.000000e+0
    endloop
  endfacet
  facet normal 0.000000e+0 0.000000e+0 1.000000e+0
    outer loop
      vertex 0.000000e+0 0.000000e+0 1.588000e+1
      vertex -2.592680e-2 -6.259284e-2 1.588000e+1
      vertex -1.244547e-17 -6.775000e-2 1.588000e+1
    endloop
  endfacet
  facet normal -1.950903e-1 9.807853e-1 0.000000e+0
    outer loop
      vertex -1.244547e-17 -6.775000e-2 0.000000e+0
      vertex -1.244547e-17 -6.775000e-2 1.588000e+1
      vertex 2.592680e-2 -6.259284e-2 0.000000e+0
    endloop
  endfacet
  facet normal -1.950903e-1 9.807853e-1 0.000000e+0
    outer loop
      vertex -1.244547e-17 -6.775000e-2 1.588000e+1
      vertex 2.592680e-2 -6.259284e-2 1.588000e+1
      vertex 2.592680e-2 -6.259284e-2 0.000000e+0
    endloop
  endfacet
  facet normal 0.000000e+0 0.000000e+0 -1.000000e+0
    outer loop
      vertex 0.000000e+0 0.000000e+0 0.000000e+0
      vertex 2.592680e-2 -6.259284e-2 0.000000e+0
      vertex -1.244547e-17 -6.775000e-2 0.000000e+0
    endloop
  endfacet
  facet normal 0.000000e+0 0.000000e+0 1.000000e+0
    outer loop
      vertex 0.000000e+0 0.000000e+0 1.588000e+1
      vertex -1.244547e-17 -6.775000e-2 1.588000e+1
      vertex 2.592680e-2 -6.259284e-2 1.588000e+1
    endloop
  endfacet
  facet normal -5.555702e-1 8.314696e-1 0.000000e+0
    outer loop
      vertex 2.592680e-2 -6.259284e-2 0.000000e+0
      vertex 2.592680e-2 -6.259284e-2 1.588000e+1
      vertex 4.790648e-2 -4.790648e-2 0.000000e+0
    endloop
  endfacet
  facet normal -5.555702e-1 8.314696e-1 0.000000e+0
    outer loop
      vertex 2.592680e-2 -6.259284e-2 1.588000e+1
      vertex 4.790648e-2 -4.790648e-2 1.588000e+1
      vertex 4.790648e-2 -4.790648e-2 0.000000e+0
    endloop
  endfacet
  facet normal 0.000000e+0 0.000000e+0 -1.000000e+0
    outer loop
      vertex 0.000000e+0 0.000000e+0 0.000000e+0
      vertex 4.790648e-2 -4.790648e-2 0.000000e+0
      vertex 2.592680e-2 -6.259284e-2 0.000000e+0
    endloop
  endfacet
  facet normal 0.000000e+0 0.000000e+0 1.000000e+0
    outer loop
      vertex 0.000000e+0 0.000000e+0 1.588000e+1
      vertex 2.592680e-2 -6.259284e-2 1.588000e+1
      vertex 4.790648e-2 -4.790648e-2 1.588000e+1
    endloop
  endfacet
  facet normal -8.314696e-1 5.555702e-1 0.000000e+0
    outer loop
      vertex 4.790648e-2 -4.790648e-2 0.000000e+0
      vertex 4.790648e-2 -4.790648e-2 1.588000e+1
      vertex 6.259284e-2 -2.592680e-2 0.000000e+0
    endloop
  endfacet
  facet normal -8.314696e-1 5.555702e-1 0.000000e+0
    outer loop
      vertex 4.790648e-2 -4.790648e-2 1.588000e+1
      vertex 6.259284e-2 -2.592680e-2 1.588000e+1
      vertex 6.259284e-2 -2.592680e-2 0.000000e+0
    endloop
  endfacet
  facet normal 0.000000e+0 0.000000e+0 -1.000000e+0
    outer loop
      vertex 0.000000e+0 0.000000e+0 0.000000e+0
      vertex 6.259284e-2 -2.592680e-2 0.000000e+0
      vertex 4.790648e-2 -4.790648e-2 0.000000e+0
    endloop
  endfacet
  facet normal 0.000000e+0 0.000000e+0 1.000000e+0
    outer loop
      vertex 0.000000e+0 0.000000e+0 1.588000e+1
      vertex 4.790648e-2 -4.790648e-2 1.588000e+1
      vertex 6.259284e-2 -2.592680e-2 1.588000e+1
    endloop
  endfacet
  facet normal -9.807853e-1 1.950903e-1 0.000000e+0
    outer loop
      vertex 6.259284e-2 -2.592680e-2 0.000000e+0
      vertex 6.259284e-2 -2.592680e-2 1.588000e+1
      vertex 6.775000e-2 -1.659396e-17 0.000000e+0
    endloop
  endfacet
  facet normal -9.807853e-1 1.950903e-1 0.000000e+0
    outer loop
      vertex 6.259284e-2 -2.592680e-2 1.588000e+1
      vertex 6.775000e-2 -1.659396e-17 1.588000e+1
      vertex 6.775000e-2 -1.659396e-17 0.000000e+0
    endloop
  endfacet
  facet normal 0.000000e+0 0.000000e+0 -1.000000e+0
    outer loop
      vertex 0.000000e+0 0.000000e+0 0.000000e+0
      vertex 6.775000e-2 -1.659396e-17 0.000000e+0
      vertex 6.259284e-2 -2.592680e-2 0.000000e+0
    endloop
  endfacet
  facet normal 0.000000e+0 0.000000e+0 1.000000e+0
    outer loop
      vertex 0.000000e+0 0.000000e+0 1.588000e+1
      vertex 6.259284e-2 -2.592680e-2 1.588000e+1
      vertex 6.775000e-2 -1.659396e-17 1.588000e+1
    endloop
  endfacet
  facet normal -9.807853e-1 -1.950903e-1 0.000000e+0
    outer loop
      vertex 9.485000e-2 0.000000e+0 1.588000e+1
      vertex 9.485000e-2 0.000000e+0 1.601550e+1
      vertex 8.762997e-2 3.629752e-2 1.588000e+1
    endloop
  endfacet
  facet normal -9.807853e-1 -1.950903e-1 0.000000e+0
    outer loop
      vertex 9.485000e-2 0.000000e+0 1.601550e+1
      vertex 8.762997e-2 3.629752e-2 1.601550e+1
      vertex 8.762997e-2 3.629752e-2 1.588000e+1
    endloop
  endfacet
  facet normal 0.000000e+0 0.000000e+0 -1.000000e+0
    outer loop
      vertex 0.000000e+0 0.000000e+0 1.588000e+1
      vertex 8.762997e-2 3.629752e-2 1.588000e+1
      vertex 9.485000e-2 0.000000e+0 1.588000e+1
    endloop
  endfacet
  facet normal 0.000000e+0 0.000000e+0 1.000000e+0
    outer loop
      vertex 0.000000e+0 0.000000e+0 1.601550e+1
      vertex 9.485000e-2 0.000000e+0 1.601550e+1
      vertex 8.762997e-2 3.629752e-2 1.601550e+1
    endloop
  endfacet
  facet normal -8.314696e-1 -5.555702e-1 0.000000e+0
    outer loop
      vertex 8.762997e-2 3.629752e-2 1.588000e+1
      vertex 8.762997e-2 3.629752e-2 1.601550e+1
      vertex 6.706908e-2 6.706908e-2 1.588000e+1
    endloop
  endfacet
  facet normal -8.314696e-1 -5.555702e-1 0.000000e+0
    outer loop
      vertex 8.762997e-2 3.629752e-2 1.601550e+1
      vertex 6.706908e-2 6.706908e-2 1.601550e+1
      vertex 6.706908e-2 6.706908e-2 1.588000e+1
    endloop
  endfacet
  facet normal 0.000000e+0 0.000000e+0 -1.000000e+0
    outer loop
      vertex 0.000000e+0 0.000000e+0 1.588000e+1
      vertex 6.706908e-2 6.706908e-2 1.588000e+1
      vertex 8.762997e-2 3.629752e-2 1.588000e+1
    endloop
  endfacet
  facet normal 0.000000e+0 0.000000e+0 1.000000e+0
    outer loop
      vertex 0.000000e+0 0.000000e+0 1.601550e+1
      vertex 8.762997e-2 3.629752e-2 1.601550e+1
      vertex 6.706908e-2 6.706908e-2 1.601550e+1
    endloop
  endfacet
  facet normal -5.555702e-1 -8.314696e-1 0.000000e+0
    outer loop
      vertex 6.706908e-2 6.706908e-2 1.588000e+1
      vertex 6.706908e-2 6.706908e-2 1.601550e+1
      vertex 3.629752e-2 8.762997e-2 1.588000e+1
    endloop
  endfacet
  facet normal -5.555702e-1 -8.314696e-1 0.000000e+0
    outer loop
      vertex 6.706908e-2 6.706908e-2 1.601550e+1
      vertex 3.629752e-2 8.762997e-2 1.601550e+1
      vertex 3.629752e-2 8.762997e-2 1.588000e+1
    endloop
  endfacet
  facet normal 0.000000e+0 0.000000e+0 -1.000000e+0
    outer loop
      vertex 0.000000e+0 0.000000e+0 1.588000e+1
      vertex 3.629752e-2 8.762997e-2 1.588000e+1
      vertex 6.706908e-2 6.706908e-2 1.588000e+1
    endloop
  endfacet
  facet normal 0.000000e+0 0.000000e+0 1.000000e+0
    outer loop
      vertex 0.000000e+0 0.000000e+0 1.601550e+1
      vertex 6.706908e-2 6.706908e-2 1.601550e+1
      vertex 3.629752e-2 8.762997e-2 1.601550e+1
    endloop
  endfacet
  facet normal -1.950903e-1 -9.807853e-1 0.000000e+0
    outer loop
      vertex 3.629752e-2 8.762997e-2 1.588000e+1
      vertex 3.629752e-2 8.762997e-2 1.601550e+1
      vertex 5.807887e-18 9.485000e-2 1.588000e+1
    endloop
  endfacet
  facet normal -1.950903e-1 -9.807853e-1 0.000000e+0
    outer loop
      vertex 3.629752e-2 8.762997e-2 1.601550e+1
      vertex 5.807887e-18 9.485000e-2 1.601550e+1
      vertex 5.807887e-18 9.485000e-2 1.588000e+1
    endloop
  endfacet
  facet normal 0.000000e+0 0.000000e+0 -1.000000e+0
    outer loop
      vertex 0.000000e+0 0.000000e+0 1.588000e+1
      vertex 5.807887e-18 9.485000e-2 1.588000e+1
      vertex 3.629752e-2 8.762997e-2 1.588000e+1
    endloop
  endfacet
  facet normal 0.000000e+0 0.000000e+0 1.000000e+0
    outer loop
      vertex 0.000000e+0 0.000000e+0 1.601550e+1
      vertex 3.629752e-2 8.762997e-2 1.601550e+1
      vertex 5.807887e-18 9.485000e-2 1.601550e+1
    endloop
  endfacet
  facet normal 1.950903e-1 -9.807853e-1 0.000000e+0
    outer loop
      vertex 5.807887e-18 9.485000e-2 1.588000e+1
      vertex 5.807887e-18 9.485000e-2 1.601550e+1
      vertex -3.629752e-2 8.762997e-2 1.588000e+1
    endloop
  endfacet
  facet normal 1.950903e-1 -9.807853e-1 0.000000e+0
    outer loop
      vertex 5.807887e-18 9.485000e-2 1.601550e+1
      vertex -3.629752e-2 8.762997e-2 1.601550e+1
      vertex -3.629752e-2 8.762997e-2 1.588000e+1
    endloop
  endfacet
  facet normal 0.000000e+0 0.000000e+0 -1.000000e+0
    outer loop
      vertex 0.000000e+0 0.000000e+0 1.588000e+1
      vertex -3.629752e-2 8.762997e-2 1.588000e+1
      vertex 5.807887e-18 9.485000e-2 1.588000e+1
    endloop
  endfacet
  facet normal 0.000000e+0 0.000000e+0 1.000000e+0
    outer loop
      vertex 0.000000e+0 0.000000e+0 1.601550e+1
      vertex 5.807887e-18 9.485000e-2 1.601550e+1
      vertex -3.629752e-2 8.762997e-2 1.601550e+1
    endloop
  endfacet
  facet normal 5.555702e-1 -8.314696e-1 0.000000e+0
    outer loop
      vertex -3.629752e-2 8.762997e-2 1.588000e+1
      vertex -3.629752e-2 8.762997e-2 1.601550e+1
      vertex -6.706908e-2 6.706908e-2 1.588000e+1
    endloop
  endfacet
  facet normal 5.555702e-1 -8.314696e-1 0.000000e+0
    outer loop
      vertex -3.629752e-2 8.762997e-2 1.601550e+1
      vertex -6.706908e-2 6.706908e-2 1.601550e+1
      vertex -6.706908e-2 6.706908e-2 1.588000e+1
    endloop
  endfacet
  facet normal 0.000000e+0 0.000000e+0 -1.000000e+0
    outer loop
      vertex 0.000000e+0 0.000000e+0 1.588000e+1
      vertex -6.706908e-2 6.706908e-2 1.588000e+1
      vertex -3.629752e-2 8.762997e-2 1.588000e+1
    endloop
  endfacet
  facet normal 0.000000e+0 0.000000e+0 1.000000e+0
    outer loop
      vertex 0.000000e+0 0.000000e+0 1.601550e+1
      vertex -3.629752e-2 8.762997e-2 1.601550e+1
      vertex -6.706908e-2 6.706908e-2 1.601550e+1
    endloop
  endfacet
  facet normal 8.314696e-1 -5.555702e-1 0.000000e+0
    outer loop
      vertex -6.706908e-2 6.706908e-2 1.588000e+1
      vertex -6.706908e-2 6.706908e-2 1.601550e+1
      vertex -8.762997e-2 3.629752e-2 1.588000e+1
    endloop
  endfacet
  facet normal 8.314696e-1 -5.555702e-1 0.000000e+0
    outer loop
      vertex -6.706908e-2 6.706908e-2 1.601550e+1
      vertex -8.762997e-2 3.629752e-2 1.601550e+1
      vertex -8.762997e-2 3.629752e-2 1.588000e+1
    endloop
  endfacet
  facet normal 0.000000e+0 0.000000e+0 -1.000000e+0
    outer loop
      vertex 0.000000e+0 0.000000e+0 1.588000e+1
      vertex -8.762997e-2 3.629752e-2 1.588000e+1
      vertex -6.706908e-2 6.706908e-2 1.588000e+1
    endloop
  endfacet
  facet normal 0.000000e+0 0.000000e+0 1.000000e+0
    outer loop
      vertex 0.000000e+0 0.000000e+0 1.601550e+1
      vertex -6.706908e-2 6.706908e-2 1.601550e+1
      vertex -8.762997e-2 3.629752e-2 1.601550e+1
    endloop
  endfacet
  facet normal 9.807853e-1 -1.950903e-1 0.000000e+0
    outer loop
      vertex -8.762997e-2 3.629752e-2 1.588000e+1
      vertex -8.762997e-2 3.629752e-2 1.601550e+1
      vertex -9.485000e-2 1.161577e-17 1.588000e+1
    endloop
  endfacet
  facet normal 9.807853e-1 -1.950903e-1 0.000000e+0
    outer loop
      vertex -8.762997e-2 3.629752e-2 1.601550e+1
      vertex -9.485000e-2 1.161577e-17 1.601550e+1
      vertex -9.485000e-2 1.161577e-17 1.588000e+1
    endloop
  endfacet
  facet normal 0.000000e+0 0.000000e+0 -1.000000e+0
    outer loop
      vertex 0.000000e+0 0.000000e+0 1.588000e+1
      vertex -9.485000e-2 1.161577e-17 1.588000e+1
      vertex -8.762997e-2 3.629752e-2 1.588000e+1
    endloop
  endfacet
  facet normal 0.000000e+0 0.000000e+0 1.000000e+0
    outer loop
      vertex 0.000000e+0 0.000000e+0 1.601550e+1
      vertex -8.762997e-2 3.629752e-2 1.601550e+1
      vertex -9.485000e-2 1.161577e-17 1.601550e+1
    endloop
  endfacet
  facet normal 9.807853e-1 1.950903e-1 0.000000e+0
    outer loop
      vertex -9.485000e-2 1.161577e-17 1.588000e+1
      vertex -9.485000e-2 1.161577e-17 1.601550e+1
      vertex -8.762997e-2 -3.629752e-2 1.588000e+1
    endloop
  endfacet
  facet normal 9.807853e-1 1.950903e-1 0.000000e+0
    outer loop
      vertex -9.485000e-2 1.161577e-17 1.601550e+1
      vertex -8.762997e-2 -3.629752e-2 1.601550e+1
      vertex -8.762997e-2 -3.629752e-2 1.588000e+1
    endloop
  endfacet
  facet normal 0.000000e+0 0.000000e+0 -1.000000e+0
    outer loop
      vertex 0.000000e+0 0.000000e+0 1.588000e+1
      vertex -8.762997e-2 -3.629752e-2 1.588000e+1
      vertex -9.485000e-2 1.161577e-17 1.588000e+1
    endloop
  endfacet
  facet normal 0.000000e+0 0.000000e+0 1.000000e+0
    outer loop
      vertex 0.000000e+0 0.000000e+0 1.601550e+1
      vertex -9.485000e-2 1.161577e-17 1.601550e+1
      vertex -8.762997e-2 -3.629752e-2 1.601550e+1
    endloop
  endfacet
  facet normal 8.314696e-1 5.555702e-1 0.000000e+0
    outer loop
      vertex -8.762997e-2 -3.629752e-2 1.588000e+1
      vertex -8.762997e-2 -3.629752e-2 1.601550e+1
      vertex -6.706908e-2 -6.706908e-2 1.588000e+1
    endloop
  endfacet
  facet normal 8.314696e-1 5.555702e-1 0.000000e+0
    outer loop
      vertex -8.762997e-2 -3.629752e-2 1.601550e+1
      vertex -6.706908e-2 -6.706908e-2 1.601550e+1
      vertex -6.706908e-2 -6.706908e-2 1.588000e+1
    endloop
  endfacet
  facet normal 0.000000e+0 0.000000e+0 -1.000000e+0
    outer loop
      vertex 0.000000e+0 0.000000e+0 1.588000e+1
      vertex -6.706908e-2 -6.706908e-2 1.588000e+1
      vertex -8.762997e-2 -3.629752e-2 1.588000e+1
    endloop
  endfacet
  facet normal 0.000000e+0 0.000000e+0 1.000000e+0
    outer loop
      vertex 0.000000e+0 0.000000e+0 1.601550e+1
      vertex -8.762997e-2 -3.629752e-2 1.601550e+1
      vertex -6.706908e-2 -6.706908e-2 1.601550e+1
    endloop
  endfacet
  facet normal 5.555702e-1 8.314696e-1 0.000000e+0
    outer loop
      vertex -6.706908e-2 -6.706908e-2 1.588000e+1
      vertex -6.706908e-2 -6.706908e-2 1.601550e+1
      vertex -3.629752e-2 -8.762997e-2 1.588000e+1
    endloop
  endfacet
  facet normal 5.555702e-1 8.314696e-1 0.000000e+0
    outer loop
      vertex -6.706908e-2 -6.706908e-2 1.601550e+1
      vertex -3.629752e-2 -8.762997e-2 1.601550e+1
      vertex -3.629752e-2 -8.762997e-2 1.588000e+1
    endloop
  endfacet
  facet normal 0.000000e+0 0.000000e+0 -1.000000e+0
    outer loop
      vertex 0.000000e+0 0.000000e+0 1.588000e+1
      vertex -3.629752e-2 -8.762997e-2 1.588000e+1
      vertex -6.706908e-2 -6.706908e-2 1.588000e+1
    endloop
  endfacet
  facet normal 0.000000e+0 0.000000e+0 1.000000e+0
    outer loop
      vertex 0.000000e+0 0.000000e+0 1.601550e+1
      vertex -6.706908e-2 -6.706908e-2 1.601550e+1
      vertex -3.629752e-2 -8.762997e-2 1.601550e+1
    endloop
  endfacet
  facet normal 1.950903e-1 9.807853e-1 0.000000e+0
    outer loop
      vertex -3.629752e-2 -8.762997e-2 1.588000e+1
      vertex -3.629752e-2 -8.762997e-2 1.601550e+1
      vertex -1.742366e-17 -9.485000e-2 1.588000e+1
    endloop
  endfacet
  facet normal 1.950903e-1 9.807853e-1 0.000000e+0
    outer loop
      vertex -3.629752e-2 -8.762997e-2 1.601550e+1
      vertex -1.742366e-17 -9.485000e-2 1.601550e+1
      vertex -1.742366e-17 -9.485000e-2 1.588000e+1
    endloop
  endfacet
  facet normal 0.000000e+0 0.000000e+0 -1.000000e+0
    outer loop
      vertex 0.000000e+0 0.000000e+0 1.588000e+1
      vertex -1.742366e-17 -9.485000e-2 1.588000e+1
      vertex -3.629752e-2 -8.762997e-2 1.588000e+1
    endloop
  endfacet
  facet normal 0.000000e+0 0.000000e+0 1.000000e+0
    outer loop
      vertex 0.000000e+0 0.000000e+0 1.601550e+1
      vertex -3.629752e-2 -8.762997e-2 1.601550e+1
      vertex -1.742366e-17 -9.485000e-2 1.601550e+1
    endloop
  endfacet
  facet normal -1.950903e-1 9.807853e-1 0.000000e+0
    outer loop
      vertex -1.742366e-17 -9.485000e-2 1.588000e+1
      vertex -1.742366e-17 -9.485000e-2 1.601550e+1
      vertex 3.629752e-2 -8.762997e-2 1.588000e+1
    endloop
  endfacet
  facet normal -1.950903e-1 9.807853e-1 0.000000e+0
    outer loop
      vertex -1.742366e-17 -9.485000e-2 1.601550e+1
      vertex 3.629752e-2 -8.762997e-2 1.601550e+1
      vertex 3.629752e-2 -8.762997e-2 1.588000e+1
    endloop
  endfacet
  facet normal 0.000000e+0 0.000000e+0 -1.000000e+0
    outer loop
      vertex 0.000000e+0 0.000000e+0 1.588000e+1
      vertex 3.629752e-2 -8.762997e-2 1.588000e+1
      vertex -1.742366e-17 -9.485000e-2 1.588000e+1
    endloop
  endfacet
  facet normal 0.000000e+0 0.000000e+0 1.000000e+0
    outer loop
      vertex 0.000000e+0 0.000000e+0 1.601550e+1
      vertex -1.742366e-17 -9.485000e-2 1.601550e+1
      vertex 3.629752e-2 -8.762997e-2 1.601550e+1
    endloop
  endfacet
  facet normal -5.555702e-1 8.314696e-1 0.000000e+0
    outer loop
      vertex 3.629752e-2 -8.762997e-2 1.588000e+1
      vertex 3.629752e-2 -8.762997e-2 1.601550e+1
      vertex 6.706908e-2 -6.706908e-2 1.588000e+1
    endloop
  endfacet
  facet normal -5.555702e-1 8.314696e-1 0.000000e+0
    outer loop
      vertex 3.629752e-2 -8.762997e-2 1.601550e+1
      vertex 6.706908e-2 -6.706908e-2 1.601550e+1
      vertex 6.706908e-2 -6.706908e-2 1.588000e+1
    endloop
  endfacet
  facet normal 0.000000e+0 0.000000e+0 -1.000000e+0
    outer loop
      vertex 0.000000e+0 0.000000e+0 1.588000e+1
      vertex 6.706908e-2 -6.706908e-2 1.588000e+1
      vertex 3.629752e-2 -8.762997e-2 1.588000e+1
    endloop
  endfacet
  facet normal 0.000000e+0 0.000000e+0 1.000000e+0
    outer loop
      vertex 0.000000e+0 0.000000e+0 1.601550e+1
      vertex 3.629752e-2 -8.762997e-2 1.601550e+1
      vertex 6.706908e-2 -6.706908e-2 1.601550e+1
    endloop
  endfacet
  facet normal -8.314696e-1 5.555702e-1 0.000000e+0
    outer loop
      vertex 6.706908e-2 -6.706908e-2 1.588000e+1
      vertex 6.706908e-2 -6.706908e-2 1.601550e+1
      vertex 8.762997e-2 -3.629752e-2 1.588000e+1
    endloop
  endfacet
  facet normal -8.314696e-1 5.555702e-1 0.000000e+0
    outer loop
      vertex 6.706908e-2 -6.706908e-2 1.601550e+1
      vertex 8.762997e-2 -3.629752e-2 1.601550e+1
      vertex 8.762997e-2 -3.629752e-2 1.588000e+1
    endloop
  endfacet
  facet normal 0.000000e+0 0.000000e+0 -1.000000e+0
    outer loop
      vertex 0.000000e+0 0.000000e+0 1.588000e+1
      vertex 8.762997e-2 -3.629752e-2 1.588000e+1
      vertex 6.706908e-2 -6.706908e-2 1.588000e+1
    endloop
  endfacet
  facet normal 0.000000e+0 0.000000e+0 1.000000e+0
    outer loop
      vertex 0.000000e+0 0.000000e+0 1.601550e+1
      vertex 6.706908e-2 -6.706908e-2 1.601550e+1
      vertex 8.762997e-2 -3.629752e-2 1.601550e+1
    endloop
  endfacet
  facet normal -9.807853e-1 1.950903e-1 0.000000e+0
    outer loop
      vertex 8.762997e-2 -3.629752e-2 1.588000e+1
      vertex 8.762997e-2 -3.629752e-2 1.601550e+1
      vertex 9.485000e-2 -2.323155e-17 1.588000e+1
    endloop
  endfacet
  facet normal -9.807853e-1 1.950903e-1 0.000000e+0
    outer loop
      vertex 8.762997e-2 -3.629752e-2 1.601550e+1
      vertex 9.485000e-2 -2.323155e-17 1.601550e+1
      vertex 9.485000e-2 -2.323155e-17 1.588000e+1
    endloop
  endfacet
  facet normal 0.000000e+0 0.000000e+0 -1.000000e+0
    outer loop
      vertex 0.000000e+0 0.000000e+0 1.588000e+1
      vertex 9.485000e-2 -2.323155e-17 1.588000e+1
      vertex 8.762997e-2 -3.629752e-2 1.588000e+1
    endloop
  endfacet
  facet normal 0.000000e+0 0.000000e+0 1.000000e+0
    outer loop
      vertex 0.000000e+0 0.000000e+0 1.601550e+1
      vertex 8.762997e-2 -3.629752e-2 1.601550e+1
      vertex 9.485000e-2 -2.323155e-17 1.601550e+1
    endloop
  endfacet
endsolid nas1352-06-10
